<?xml version="1.0" standalone="no"?>
<!DOCTYPE svg PUBLIC "-//W3C//DTD SVG 1.1//EN" "http://www.w3.org/Graphics/SVG/1.1/DTD/svg11.dtd" >
<svg xmlns="http://www.w3.org/2000/svg" xmlns:xlink="http://www.w3.org/1999/xlink" version="1.1">
<metadata>
Created by FontForge 20170731 at Thu Jun  5 00:13:58 2003
 By Aleksey,,,
Copyright 1993-2003 Adobe Systems Incorporated. All Rights Reserved.
</metadata>
<defs>
<font id="GiddyupWebPro" horiz-adv-x="864" >
  <font-face 
    font-family="Giddyup Web Pro"
    font-weight="400"
    font-stretch="normal"
    units-per-em="2000"
    panose-1="2 15 5 1 2 1 8 9 1 3"
    ascent="1350"
    descent="-650"
    x-height="676"
    cap-height="1284"
    bbox="-368 -666 2134 1688"
    underline-thickness="100"
    underline-position="-350"
    unicode-range="U+0020-FB02"
  />
<missing-glyph horiz-adv-x="1000" 
d="M0 1400h1000v-1400h-1000v1400zM840 1300h-680l340 -510zM900 190v1020l-340 -510zM840 100l-340 510l-340 -510h680zM100 190l340 510l-340 510v-1020z" />
    <glyph glyph-name="f_i" unicode="fi" horiz-adv-x="900" 
d="M416 606q104 58 260 58q182 0 182 -46v-2q0 -12 -4 -26q-25 -92 -50 -261.5t-34 -312.5q-4 -42 -44 -42q-19 0 -32.5 13.5t-13.5 32.5q0 33 21 209t57 339q-34 10 -100 10q-52 0 -125.5 -16.5t-118.5 -45.5q-27 -466 -92.5 -735t-227.5 -269q-66 0 -111 62.5t-45 167.5
q0 135 46.5 303.5t132.5 307t207 215.5q21 428 118 564t228 136q78 0 124 -44t46 -110q0 -54 -31.5 -96t-58.5 -42q-15 0 -28.5 9.5t-13.5 22.5q0 35 24 52q18 13 18 54q0 26 -26 49t-64 23q-90 0 -156.5 -119.5t-87.5 -460.5zM318 460q-138 -118 -214 -330.5t-76 -387.5
q0 -62 21 -103t51 -41q60 0 100.5 94t69 278.5t48.5 489.5z" />
    <glyph glyph-name="f_l" unicode="fl" horiz-adv-x="900" 
d="M416 538q-29 -492 -95 -759t-227 -267q-67 0 -111.5 64.5t-44.5 175.5q0 225 100.5 468.5t287.5 367.5q17 422 133.5 551t268.5 129q103 0 163.5 -45.5t60.5 -128.5q0 -71 -64 -330q-106 -434 -106 -628q0 -56 8 -80q6 -9 6 -20q0 -19 -13 -31.5t-31 -12.5q-60 0 -60 144
q0 210 98 602q70 286 70 350q0 46 -38.5 72t-103.5 26q-112 0 -196 -105t-104 -453q73 30 164 30q82 0 82 -48q0 -17 -12 -27.5t-28 -10.5l-42 2q-96 0 -166 -36zM320 482q-141 -124 -216.5 -333.5t-75.5 -396.5q0 -69 20.5 -111.5t51.5 -42.5q57 0 92.5 73t70 257.5
t57.5 553.5z" />
    <glyph glyph-name=".notdef" horiz-adv-x="1000" 
d="M0 1400h1000v-1400h-1000v1400zM840 1300h-680l340 -510zM900 190v1020l-340 -510zM840 100l-340 510l-340 -510h680zM100 190l340 510l-340 510v-1020z" />
    <glyph glyph-name=".null" horiz-adv-x="0" 
 />
    <glyph glyph-name="nonmarkingreturn" horiz-adv-x="340" 
 />
    <glyph glyph-name="space" unicode=" " horiz-adv-x="340" 
 />
    <glyph glyph-name="exclam" unicode="!" horiz-adv-x="556" 
d="M348 1040q-12 -27 -12 -86q0 -175 13 -336q11 -129 11 -192q0 -72 -23 -139t-59 -67q-17 0 -29.5 12.5t-12.5 29.5q0 12 4 24q30 51 30 140q0 150 -12 258q-12 113 -12 266q0 85 28 148q-58 75 -58 172q0 57 12.5 74.5t35.5 17.5q40 0 40 -42q0 -4 -2 -23q-2 -24 -2 -29
q0 -46 16 -84q52 84 152 84q52 0 87 -34t35 -84q0 -59 -40 -96.5t-104 -37.5q-53 0 -98 24zM456 1184q-54 0 -88 -60q27 -22 78 -22q56 0 56 40q0 17 -13 29.5t-33 12.5zM214 18q5 30 8 50.5t7.5 27.5t11 12t15 7.5t18.5 2.5h6q42 0 42 -44v-6l-9 -60q-3 -21 -16.5 -31.5
t-32.5 -10.5q-22 0 -36 13.5t-14 32.5v6z" />
    <glyph glyph-name="quotedbl" unicode="&#x22;" horiz-adv-x="460" 
d="M272 998l2 182q0 18 13 31t31 13t31 -13t13 -31v-16q0 -153 -11 -182.5t-47 -29.5q-32 0 -32 34v12zM96 998l2 182q0 18 13 31t31 13t31 -13t13 -31v-16q0 -153 -11 -182.5t-47 -29.5q-32 0 -32 34v12z" />
    <glyph glyph-name="numbersign" unicode="#" horiz-adv-x="960" 
d="M824 438l4 -80h-172l-50 -358h-90l52 358h-218l-50 -358h-88l50 358h-172l-6 80h190l34 244h-172l-4 80h186l50 358h90l-52 -358h218l50 358h90l-52 -358h158l6 -80h-176l-32 -244h156zM612 682h-216l-34 -244h218z" />
    <glyph glyph-name="dollar" unicode="$" horiz-adv-x="900" 
d="M456 56q-36 -188 -36 -202q0 -18 -13.5 -31t-32.5 -13q-17 0 -29.5 13t-12.5 31q0 39 34 206q-143 9 -225.5 70t-82.5 150q0 91 81.5 162.5t200.5 71.5q162 0 162 -168q0 -56 -28 -206q116 0 195 62.5t79 149.5q0 97 -66.5 151t-223.5 91q-312 73 -312 282
q0 107 93.5 197.5t260.5 94.5q32 126 32 180q0 18 13.5 31t32.5 13q44 0 44 -56q0 -44 -32 -174q99 -12 156.5 -77t57.5 -153q0 -69 -59 -121.5t-143 -52.5h-2q-64 0 -106 38t-42 112q0 42 30 178q-118 -5 -182 -67t-64 -143q0 -149 240 -200q212 -48 286 -128t74 -198
q0 -114 -101.5 -202t-278.5 -92zM570 1084q-28 -127 -28 -176q0 -68 62 -68q48 0 79 26.5t31 65.5q0 131 -144 152zM384 140q28 148 28 200q0 40 -21 66t-57 26q-72 0 -130 -45.5t-58 -106.5q0 -56 66 -95t172 -45z" />
    <glyph glyph-name="percent" unicode="%" horiz-adv-x="1544" 
d="M646 904q-11 -169 -105 -284.5t-223 -115.5q-106 0 -168 76.5t-62 211.5q0 65 17 127t30 74.5t31 12.5t31 -13t13 -31q0 -14 -4 -18q-32 -77 -32 -152q0 -89 40 -147.5t110 -58.5q88 0 154 87.5t80 216.5q-48 -6 -98 -6q-93 0 -157.5 45t-64.5 111q0 65 52 112.5
t144 47.5q77 0 136 -58t76 -156q214 51 446 280q12 12 32 12q18 0 31 -13t13 -31q0 -10 -6 -22q-186 -312 -345 -687t-195 -601q-3 -15 -16 -26.5t-28 -11.5q-40 0 -40 46q0 84 122.5 422t333.5 716q-175 -126 -348 -166zM556 972q-10 67 -43 107.5t-79 40.5q-50 0 -79 -21
t-29 -55q0 -28 40.5 -53t93.5 -25q48 0 96 6zM914 276q0 59 14 112.5t27 72.5t35 19q18 0 31 -13.5t13 -32.5q0 -4 -4 -16q-30 -72 -30 -146q0 -89 40.5 -147.5t109.5 -58.5q102 0 169 101t67 239q0 84 -32.5 137t-93.5 53q-46 0 -77 -35.5t-31 -78.5q0 -68 72 -88
q32 -10 32 -44q0 -17 -13 -29.5t-31 -12.5q-39 0 -92.5 42.5t-53.5 131.5q0 78 55 138t139 60q96 0 155 -75.5t59 -198.5q0 -172 -94 -297t-238 -125q-101 0 -164.5 79.5t-63.5 208.5v4z" />
    <glyph glyph-name="ampersand" unicode="&#x26;" horiz-adv-x="1520" 
d="M1318 596q86 71 86 176q0 67 -44 138q-10 17 -10 26q0 44 44 44q24 0 43 -25t37 -79.5t18 -105.5q0 -168 -156 -268l2 -36q0 -206 -167.5 -347t-452.5 -141q-279 0 -453.5 152t-174.5 380q0 309 256 446q-14 42 -14 96q0 119 74.5 195.5t173.5 76.5q86 0 133 -45t47 -91
q0 -18 -13.5 -31t-32.5 -13q-35 0 -42 36q-5 28 -31.5 45t-60.5 17q-65 0 -111.5 -52t-46.5 -138q0 -43 4 -62q62 26 132 26q110 0 171 -45t61 -115q0 -63 -45 -100.5t-109 -37.5q-76 0 -146.5 41t-113.5 121q-196 -114 -196 -370q0 -194 149.5 -322t388.5 -128
q238 0 382.5 112t149.5 290q-64 -24 -146 -24q-141 0 -226.5 63t-85.5 165q0 73 59.5 125.5t144.5 52.5q106 0 195 -65.5t127 -182.5zM450 914q34 -56 86.5 -85t99.5 -29q26 0 46 15t20 41q0 32 -39 55t-105 23q-58 0 -108 -20zM1248 546q-28 103 -95.5 159.5t-154.5 56.5
q-51 0 -83.5 -28t-32.5 -68q0 -70 66 -108t156 -38q80 0 144 26z" />
    <glyph glyph-name="quotesingle" unicode="'" horiz-adv-x="280" 
d="M96 998l2 182q0 18 13 31t31 13t31 -13t13 -31v-16q0 -153 -11 -182.5t-47 -29.5q-32 0 -32 34v12z" />
    <glyph glyph-name="parenleft" unicode="(" horiz-adv-x="486" 
d="M84 464q0 234 68 425.5t191 324t169 132.5q40 0 40 -40q0 -27 -20 -38q-167 -106 -262.5 -313t-95.5 -489q0 -315 89.5 -515.5t204.5 -252.5q28 -12 28 -42q0 -40 -38 -40q-41 0 -135.5 85.5t-166.5 280t-72 482.5z" />
    <glyph glyph-name="parenright" unicode=")" horiz-adv-x="488" 
d="M36 1350q36 0 133.5 -83t169 -276.5t71.5 -478.5q0 -286 -78.5 -492t-189 -306t-160.5 -100q-40 0 -40 40q0 25 22 34q157 59 257.5 291.5t100.5 534.5q0 304 -84 497.5t-216 256.5q-26 13 -26 42q0 40 40 40z" />
    <glyph glyph-name="asterisk" unicode="*" horiz-adv-x="550" 
d="M172 1340l120 -150l190 80l-146 -136l172 -116l-206 50l-84 -190l2 198l-190 12l194 70z" />
    <glyph glyph-name="plus" unicode="+" 
d="M390 446v324h84v-324h322v-84h-322v-322h-84v322h-322v84h322z" />
    <glyph glyph-name="comma" unicode="," horiz-adv-x="260" 
d="M72 -106q0 13 8 26q22 31 22 156q0 18 13 31t31 13q50 0 50 -44q0 -228 -74 -228q-22 0 -36 13t-14 33z" />
    <glyph glyph-name="hyphen" unicode="-" horiz-adv-x="614" 
d="M342 432l-144 2h-20q-46 0 -58 -4q-4 -2 -14 -2q-16 0 -27 11.5t-11 28.5q0 27 19.5 39.5t84.5 12.5h26l144 -2h18q96 0 126 10q8 4 14 4q17 0 30.5 -13.5t13.5 -30.5q0 -56 -174 -56h-28z" />
    <glyph glyph-name="period" unicode="." horiz-adv-x="260" 
d="M92 22l7 58q3 26 16 36t33 10h10q18 0 30 -13t12 -31v-6l-9 -64q-3 -20 -17 -30t-34 -10q-48 0 -48 44v6z" />
    <glyph glyph-name="slash" unicode="/" horiz-adv-x="656" 
d="M-38 -28v10q28 113 118 304.5t324 605.5q177 310 224 408q12 24 40 24q18 0 31 -12.5t13 -29.5q0 -28 -228 -434q-240 -426 -324.5 -606.5t-109.5 -281.5q-7 -34 -44 -34q-18 0 -31 13.5t-13 32.5z" />
    <glyph glyph-name="zero" unicode="0" horiz-adv-x="1122" 
d="M666 700q18 0 31 -12.5t13 -31.5q0 -29 -38.5 -44.5t-93.5 -15.5q-108 0 -181 77.5t-73 190.5q0 145 99 245.5t245 100.5q180 0 285 -133.5t105 -360.5q0 -308 -148 -525t-390 -217q-208 0 -322 135.5t-114 382.5q0 108 25 208.5t43 121t42 20.5q16 0 28 -13t12 -31
q0 -16 -4 -20q-18 -20 -37 -107.5t-19 -178.5q0 -201 90 -319.5t260 -118.5q199 0 322.5 198.5t123.5 463.5q0 186 -81 299t-227 113q-103 0 -175.5 -74t-72.5 -186q0 -76 47.5 -130t116.5 -54h18q35 0 52 12q6 4 16 4h2z" />
    <glyph glyph-name="one" unicode="1" horiz-adv-x="784" 
d="M484 790l-2 -38q0 -76 20 -244q22 -183 22 -272q0 -264 -108 -264q-40 0 -40 30q0 18 22 46q38 49 38 182q0 76 -21 257q-21 189 -21 269q-64 -29 -164.5 -55.5t-141.5 -26.5q-38 0 -38 42q0 31 42 38q163 29 306 88q10 161 81 262.5t165 101.5q49 0 80.5 -33t31.5 -81
q0 -195 -272 -302zM488 882q178 79 178 206q0 34 -30 34q-46 0 -90 -66.5t-58 -173.5z" />
    <glyph glyph-name="two" unicode="2" horiz-adv-x="1074" 
d="M100 1016l-32 -2h-2q-40 0 -40 40q0 44 74 44q81 0 164 -30q127 140 308 140q161 0 263.5 -114t102.5 -288q0 -165 -101.5 -343t-250.5 -295q195 -150 276 -150q132 0 132 122q0 53 -36 82q-12 10 -12 30q0 19 13.5 31.5t30.5 12.5q31 0 62.5 -50t31.5 -106
q0 -93 -59 -148.5t-163 -55.5q-60 0 -131 34.5t-213 139.5q-159 -122 -316 -122q-83 0 -129.5 36t-46.5 102q0 81 60 139.5t156 58.5h6q121 0 272 -110q144 110 236 275.5t92 316.5q0 139 -77 229.5t-199 90.5q-66 0 -131 -26t-99 -70q70 -44 108 -112t38 -140
q0 -81 -46 -134.5t-122 -53.5q-74 0 -123 57t-49 151q0 104 56 198q-43 20 -96 20h-8zM284 966q-48 -76 -48 -168q0 -58 26.5 -92t59.5 -34q35 0 55.5 29.5t20.5 76.5q0 109 -114 188zM452 160q-109 80 -206 80q-55 0 -92.5 -31t-37.5 -71q0 -31 24.5 -49.5t65.5 -18.5
q123 0 246 90z" />
    <glyph glyph-name="three" unicode="3" horiz-adv-x="1046" 
d="M776 634q156 -115 156 -302q0 -166 -123 -275t-343 -109q-189 0 -297.5 102.5t-108.5 239.5q0 148 66 148q17 0 29.5 -13.5t12.5 -32.5q0 -12 -4 -20q-14 -33 -14 -74q0 -58 36.5 -124.5t108.5 -107t175 -40.5q171 0 271.5 87.5t100.5 224.5q0 145 -120 234
q-115 -104 -256 -104q-72 0 -121 36.5t-49 89.5q0 59 50 97.5t150 38.5q110 0 214 -52q37 32 59.5 91.5t22.5 118.5q0 102 -60 171t-170 69q-33 0 -42 -2q36 -55 36 -118q0 -76 -48.5 -128t-111.5 -52q-59 0 -97.5 39t-38.5 101q0 104 114 182q-57 32 -112 32h-4l-48 -2
q-46 0 -46 30q0 23 18 35.5t80 12.5q107 0 196 -66q58 14 108 14q147 0 230.5 -90.5t83.5 -227.5q0 -67 -29.5 -141t-74.5 -113zM470 1008q0 55 -30 96q-44 -23 -70 -62t-26 -74q0 -62 54 -62q29 0 50.5 29t21.5 73zM650 614q-74 34 -154 34q-47 0 -78.5 -14.5t-31.5 -39.5
q0 -16 22 -29t58 -13q44 0 97.5 17t86.5 45z" />
    <glyph glyph-name="four" unicode="4" horiz-adv-x="1284" 
d="M436 530q136 119 212 246t76 232q0 63 -29.5 101.5t-74.5 38.5l-38 -6h-6q-15 0 -26.5 13t-11.5 29q0 50 82 50q87 0 140.5 -64t53.5 -162q0 -241 -290 -510q261 -97 326 -114q32 187 64 324q48 209 48 248q0 41 -6 56q-4 12 -4 18q0 18 13 31t31 13q54 0 54 -108
q0 -50 -27.5 -171.5t-86.5 -430.5q58 -14 120 -14q38 0 73.5 13t78.5 59q13 16 34 16q17 0 29.5 -12.5t12.5 -31.5q0 -35 -61.5 -81.5t-166.5 -46.5q-72 0 -136 14q-24 -118 -24 -228q0 -55 10 -70q6 -12 6 -22q0 -18 -13.5 -31t-32.5 -13q-60 0 -60 142q0 97 28 242
q-36 4 -382 134q-151 -128 -284 -128q-65 0 -105.5 36.5t-40.5 95.5q0 68 51.5 110t130.5 42q90 0 232 -60zM364 472q-86 36 -156 36q-42 0 -68 -21.5t-26 -48.5q0 -23 17.5 -36.5t42.5 -13.5q89 0 190 84z" />
    <glyph glyph-name="five" unicode="5" horiz-adv-x="1014" 
d="M326 812q2 13 2 42q0 89 -35.5 152.5t-72.5 83.5q-22 13 -22 36q0 34 24.5 42t85.5 8q28 0 165 -13q146 -13 179 -13q222 0 222 52v6q10 30 48 30q15 0 24.5 -13t9.5 -29q0 -23 -23.5 -57t-73.5 -51.5t-181 -17.5h-26q-52 0 -322 24q80 -83 80 -244v-20q54 6 78 6
q208 0 326 -118t118 -294q0 -207 -148.5 -333.5t-361.5 -126.5q-177 0 -283.5 83.5t-106.5 182.5q0 20 12.5 33t31.5 13q33 0 40 -36q16 -92 100.5 -144t207.5 -52q176 0 297 104.5t121 273.5q0 145 -97 238.5t-265 93.5l-74 -6q-17 -117 -69 -181.5t-115 -64.5
q-51 0 -84.5 30.5t-33.5 79.5q0 65 60.5 120.5t161.5 79.5zM224 582q26 0 54 39.5t40 102.5q-57 -9 -91.5 -44.5t-34.5 -63.5q0 -34 32 -34z" />
    <glyph glyph-name="six" unicode="6" horiz-adv-x="1002" 
d="M314 424q0 114 87 200t207 86q153 0 246.5 -99.5t93.5 -262.5q0 -150 -111.5 -264t-292.5 -114q-206 0 -339 136t-133 366q0 236 115 414.5t268 256t285 77.5q82 0 82 -46q0 -17 -14 -30.5t-32 -13.5q-4 0 -20 2q-19 2 -24 2q-127 0 -259.5 -76t-221.5 -232.5t-89 -353.5
q0 -194 107.5 -307t276.5 -113q143 0 227.5 90.5t84.5 205.5q0 126 -68 203t-182 77q-82 0 -143 -59.5t-61 -144.5q0 -47 28.5 -76.5t73.5 -29.5q23 0 42.5 17.5t19.5 38.5q0 2 -3 13q-5 16 -5 19q0 44 42 44q25 0 37.5 -22.5t12.5 -53.5q0 -58 -44.5 -98t-103.5 -40
q-79 0 -134.5 52.5t-55.5 135.5z" />
    <glyph glyph-name="seven" unicode="7" horiz-adv-x="940" 
d="M576 1158q110 -16 158 -16q140 0 194 54q14 14 32 14q13 0 28.5 -11.5t15.5 -34.5q0 -28 -44 -93.5t-78 -102.5q-260 -283 -388 -517t-144 -459q-3 -40 -46 -40q-42 0 -42 46q0 222 176.5 521t435.5 555q-49 -12 -120 -12q-33 0 -192 16q-47 -141 -139 -214.5t-213 -73.5
q-75 0 -124.5 44.5t-49.5 109.5q0 104 87.5 169t242.5 65q43 0 124 -8q2 11 2 40q0 50 -30 92t-78 42h-8l-24 -2h-6q-40 0 -40 34q0 48 74 48q88 0 144 -62t56 -152q0 -17 -4 -52zM478 1090q-52 6 -112 6q-105 0 -172.5 -41t-67.5 -105q0 -35 26 -56.5t66 -21.5
q90 0 158.5 56.5t101.5 161.5z" />
    <glyph glyph-name="eight" unicode="8" horiz-adv-x="1048" 
d="M536 674q9 3 33 6q117 15 212 92.5t95 213.5q0 71 -37 131t-105 91q-36 18 -36 40q0 36 40 36q66 0 146 -87t80 -211q0 -119 -72.5 -213t-211.5 -133q147 -46 221.5 -135t74.5 -199q0 -156 -123 -249t-329 -93q-199 0 -326.5 87t-127.5 233q0 135 93.5 235t240.5 131
q-103 30 -167.5 102t-64.5 162q0 116 95.5 202t246.5 86q99 0 158.5 -52.5t59.5 -133.5q0 -68 -49 -114t-129 -46q-51 0 -87.5 25t-36.5 55q0 44 42 44q27 0 40 -20q6 -8 21 -15t25 -7q37 0 61.5 21.5t24.5 56.5q0 47 -38.5 76.5t-101.5 29.5q-108 0 -175 -62t-67 -146
q0 -166 274 -240zM160 292q0 -112 106 -181t258 -69q160 0 261 71t101 193q0 93 -61 159.5t-168.5 101.5t-134.5 35q-46 0 -142 -34t-158 -107.5t-62 -168.5z" />
    <glyph glyph-name="nine" unicode="9" horiz-adv-x="1034" 
d="M258 -8q-61 0 -83.5 7.5t-22.5 38.5q0 40 44 40l84 -4q259 0 425.5 182.5t166.5 459.5q0 176 -100.5 291t-261.5 115q-160 0 -253 -93.5t-93 -226.5q0 -115 75.5 -186.5t182.5 -71.5q105 0 164.5 55.5t59.5 150.5q0 31 -21 63.5t-51 36.5q-13 1 -22.5 15t-9.5 29
q0 18 13 31t31 13q48 0 98 -54.5t50 -131.5q0 -128 -85.5 -209t-226.5 -81q-147 0 -246.5 95.5t-99.5 244.5q0 162 115 281t319 119q200 0 325 -137t125 -349q0 -313 -191.5 -518.5t-492.5 -205.5h-18z" />
    <glyph glyph-name="colon" unicode=":" horiz-adv-x="260" 
d="M92 436l9 58q3 26 16.5 37t34.5 11q20 0 35 -14t15 -32v-4l-12 -66q-3 -20 -16 -30t-32 -10h-6q-19 0 -31.5 13t-12.5 31v6zM92 18l7 43q3 23 5 28.5t6 11t10 10t13 7t15 2.5l12 -2q18 0 30 -13.5t12 -32.5v-4l-12 -63q-3 -19 -16.5 -29t-31.5 -10q-22 0 -36 13.5
t-14 32.5v6z" />
    <glyph glyph-name="semicolon" unicode=";" horiz-adv-x="260" 
d="M104 438q6 30 9.5 50.5t7 27.5t9 12.5t13 8.5t17.5 3l12 -2q17 0 29.5 -14.5t12.5 -31.5v-4l-12 -63q-3 -19 -17 -29t-31 -10q-22 0 -36 13t-14 31v8zM74 -100q0 13 6 22q24 36 24 158q0 18 13.5 32t32.5 14q20 0 35 -14t15 -32q0 -226 -76 -226q-22 0 -36 13t-14 33z
" />
    <glyph glyph-name="less" unicode="&#x3c;" 
d="M798 118v-88l-732 332v84l732 334v-88l-628 -288z" />
    <glyph glyph-name="equal" unicode="=" 
d="M796 590v-84h-728v84h728zM796 304v-84h-728v84h728z" />
    <glyph glyph-name="greater" unicode="&#x3e;" 
d="M66 118l628 286l-628 288v88l732 -334v-84l-732 -332v88z" />
    <glyph glyph-name="question" unicode="?" horiz-adv-x="850" 
d="M322 1240q82 46 176 46q150 0 239 -79.5t89 -208.5q0 -106 -50.5 -199t-203.5 -203q-86 -62 -117 -108t-31 -96q0 -32 13.5 -60t26.5 -38q14 -18 14 -34q0 -18 -13 -31t-31 -13q-33 0 -65.5 56t-32.5 120q0 69 40 132.5t162 151.5q116 84 157 159.5t41 164.5t-66.5 147.5
t-181.5 58.5q-39 0 -72 -8q96 -58 96 -182q0 -80 -48 -130t-112 -50q-67 0 -115.5 49t-48.5 131q0 91 62 152h-10q-39 0 -74.5 -19.5t-49.5 -42.5q-19 -32 -40 -32q-46 0 -46 42q0 43 67.5 87.5t160.5 44.5q41 0 64 -8zM424 1016q0 97 -84 144q-64 -56 -64 -144
q0 -47 22.5 -72.5t57.5 -25.5q27 0 47.5 26.5t20.5 71.5zM370 28q0 14 10 64q3 11 9.5 19t16.5 12.5t22 4.5h10q18 0 30 -14.5t12 -31.5v-4l-11 -63q-4 -19 -17 -30t-30 -11q-23 0 -37.5 13.5t-14.5 32.5v8z" />
    <glyph glyph-name="at" unicode="@" horiz-adv-x="1152" 
d="M964 376l52 -46q-70 -96 -181 -152t-231 -56q-220 0 -372 154.5t-152 373.5q0 212 153 364t365 152q196 0 335 -119t139 -285q0 -163 -104 -281.5t-218 -118.5q-38 0 -64.5 24.5t-29.5 69.5l-4 -2q-88 -92 -180 -92q-83 0 -137.5 58.5t-54.5 141.5q0 147 98 268.5
t238 121.5q99 0 150 -118l34 84h82l-86 -277q-37 -116 -40.5 -133t-3.5 -32q0 -42 32 -42q77 0 144.5 101t67.5 199q0 162 -116 261t-278 99q-186 0 -314 -133t-128 -321q0 -185 130 -315.5t314 -130.5q102 0 199 48t161 134zM724 736q0 50 -35 92t-77 42q-94 0 -165 -98.5
t-71 -189.5q0 -63 34 -101.5t86 -38.5q88 0 158 101t70 193z" />
    <glyph glyph-name="A" unicode="A" horiz-adv-x="1324" 
d="M982 728q137 -79 209.5 -199t72.5 -257q0 -149 -68 -226.5t-158 -77.5q-178 0 -178 314q0 81 30 400q-139 66 -320 66q-78 0 -168 -14q-49 -172 -60 -356h12q105 0 178.5 46.5t73.5 117.5q0 44 42 44q18 0 31 -12.5t13 -31.5q0 -106 -97.5 -176t-242.5 -70h-12
q0 -177 44 -238q12 -20 12 -28q0 -18 -13.5 -31t-32.5 -13q-42 0 -70 83t-28 223v14q-104 22 -158 79t-54 137q0 94 75.5 167.5t216.5 112.5q74 232 179.5 355t232.5 123q120 0 183 -92.5t63 -301.5q0 -84 -8 -158zM896 770q6 60 6 118q0 158 -38 234t-120 76
q-178 0 -310 -376q70 10 136 10q174 0 326 -62zM308 708q-178 -68 -178 -186q0 -99 124 -134q7 144 54 320zM976 636q-28 -268 -28 -354q0 -234 94 -234q59 0 96.5 63.5t37.5 160.5q0 224 -200 364z" />
    <glyph glyph-name="B" unicode="B" horiz-adv-x="1124" 
d="M782 638q140 -23 211 -113.5t71 -202.5q0 -168 -121.5 -267t-310.5 -99q-200 0 -315 111.5t-115 318.5q0 164 74 446q-95 20 -145.5 70.5t-50.5 119.5q0 77 63 138.5t179 85.5q-4 104 -40 142q-12 12 -12 32q0 18 12.5 31t31.5 13q32 0 61 -54t37 -152l42 2
q236 0 390 -92.5t154 -271.5q0 -81 -55 -151t-161 -107zM360 820q-68 -264 -68 -430q0 -115 42 -195.5t121 -122.5t177 -42q142 0 242 79.5t100 212.5q0 120 -95.5 191t-268.5 71l-64 -2h-4q-40 0 -40 40q0 18 13 31t31 13q178 2 271 70.5t93 159.5q0 146 -138.5 216
t-313.5 70l-44 -2q-2 -98 -38 -280q24 0 52.5 8t52.5 24.5t31.5 35.5t7.5 54q-2 15 -2 18q0 17 12 29.5t30 12.5q46 0 46 -72q0 -82 -65 -136t-175 -54h-6zM326 1166q-75 -17 -115.5 -57t-40.5 -87q0 -86 116 -114q35 163 40 258z" />
    <glyph glyph-name="C" unicode="C" horiz-adv-x="1202" 
d="M744 1262q186 -12 293 -115t107 -239q0 -91 -56.5 -149.5t-151.5 -58.5q-122 0 -222 116.5t-100 303.5q0 21 4 52q-208 -41 -330 -211.5t-122 -386.5q0 -223 125.5 -369.5t346.5 -146.5q271 0 394 180q13 20 38 20q17 0 29.5 -13.5t12.5 -32.5q0 -24 -57.5 -86.5
t-166.5 -108t-250 -45.5q-254 0 -407 167.5t-153 434.5q0 261 154.5 458.5t409.5 227.5q39 94 117.5 145t172.5 51q114 0 114 -54q0 -40 -44 -40q-5 0 -32 4q-32 4 -38 4q-128 0 -188 -108zM710 1180q-6 -27 -6 -60q0 -151 75.5 -242.5t156.5 -91.5q116 0 116 122
q0 107 -91.5 186.5t-250.5 85.5z" />
    <glyph glyph-name="D" unicode="D" horiz-adv-x="1204" 
d="M298 634q-115 24 -176.5 94.5t-61.5 173.5q0 155 144.5 261.5t361.5 106.5q294 0 449 -145t155 -393q0 -178 -85.5 -361t-228.5 -291t-310 -108q-129 0 -195.5 106.5t-66.5 359.5q0 115 14 196zM386 626q-14 -75 -14 -188q0 -187 39 -286.5t137 -99.5q218 0 375 220
t157 460q0 139 -58.5 243t-175 158.5t-288.5 54.5q-177 0 -292.5 -85t-115.5 -201q0 -150 156 -186q16 110 37 208t26 111t16 21t25 8q18 0 31 -13t13 -31q0 -10 -2 -14q-30 -111 -56 -298q106 5 166.5 43t63.5 91q2 17 15 28.5t31 11.5t31 -13t13 -31q0 -76 -84 -142
t-246 -70z" />
    <glyph glyph-name="E" unicode="E" horiz-adv-x="1046" 
d="M238 264q152 90 366 90q155 0 260.5 -64.5t105.5 -163.5q0 -79 -70.5 -129.5t-207.5 -50.5q-148 0 -274.5 48.5t-203.5 139.5q-64 -65 -70 -160q-4 -42 -44 -42q-18 0 -31 13t-13 31q0 131 108 236q-44 97 -44 192q0 215 164 350q-20 57 -20 114q0 184 150 306
q-38 67 -38 136q0 19 13 32.5t33 13.5q17 0 29.5 -13.5t12.5 -32.5q0 -46 24 -94q88 42 194 42q113 0 180.5 -45.5t67.5 -116.5q0 -57 -44 -94.5t-112 -37.5q-75 0 -160.5 37.5t-149.5 104.5q-110 -92 -110 -238q0 -36 8 -62q103 54 226 54q135 0 221.5 -54t86.5 -136
q0 -46 -25 -84.5t-75 -59t-124 -20.5q-235 0 -350 168q-112 -103 -112 -270q0 -66 28 -140zM682 1176q-80 0 -144 -28q51 -47 117.5 -75.5t118.5 -28.5q27 0 47.5 14.5t20.5 37.5q0 35 -44.5 57.5t-115.5 22.5zM390 724q100 -136 280 -136q138 0 138 80q0 43 -64 75.5
t-158 32.5q-128 0 -196 -52zM280 188q65 -77 175.5 -119.5t236.5 -42.5q86 0 137 28.5t51 71.5q0 59 -82.5 102.5t-193.5 43.5q-191 0 -324 -84z" />
    <glyph glyph-name="F" unicode="F" horiz-adv-x="1118" 
d="M274 918l36 4q16 0 27 -12.5t11 -29.5q0 -48 -82 -48q-84 0 -145 58.5t-61 137.5q0 102 87.5 170t222.5 68q162 0 334 -88q124 88 302 88q101 0 163.5 -47.5t62.5 -112.5q0 -66 -50.5 -107t-131.5 -41q-67 0 -138 23.5t-200 92.5q-86 -88 -86 -232q0 -35 16 -122
q78 26 150 26q120 0 190 -45t70 -81q0 -19 -13 -31.5t-31 -12.5q-24 0 -36 18q-49 68 -180 68q-62 0 -130 -24q18 -96 18 -186q0 -239 -67.5 -359.5t-186.5 -120.5q-84 0 -131 54.5t-47 155.5q0 132 85 277t227 225q-22 93 -22 158q0 156 98 276q-141 66 -266 66
q-94 0 -157 -45t-63 -111q0 -47 34.5 -78.5t81.5 -31.5h8zM1004 1182q-129 0 -220 -50q165 -92 266 -92q41 0 66.5 17.5t25.5 46.5t-36.5 53.5t-101.5 24.5zM592 452q0 52 -14 148q-109 -72 -174.5 -193t-65.5 -225q0 -128 88 -128q81 0 123.5 109t42.5 289z" />
    <glyph glyph-name="G" unicode="G" horiz-adv-x="1460" 
d="M1112 540q62 26 114 26q88 0 142 -60.5t54 -155.5q0 -45 -14 -89.5t-48 -44.5q-17 0 -28.5 13t-11.5 31v4q0 10 2 14q14 34 14 72q0 57 -28 92.5t-82 35.5q-40 0 -76 -14q18 -54 18 -112q0 -141 -120.5 -256.5t-317.5 -115.5q-272 0 -461 186t-189 454q0 278 183 460
t463 182q47 0 98 -10q23 82 62.5 118t63.5 36q18 0 31 -13.5t13 -32.5q0 -30 -30 -40q-38 -14 -60 -88q138 -48 216 -145t78 -189q0 -62 -36.5 -102t-97.5 -40q-102 0 -183 115t-81 255q0 27 2 46q-36 6 -76 6q-244 0 -399 -160t-155 -398q0 -233 161.5 -395.5t396.5 -162.5
q146 0 247 84.5t101 209.5q0 38 -8 70q-113 -64 -220 -64q-122 0 -194 48.5t-72 125.5q0 65 56.5 110.5t153.5 45.5q215 0 318 -152zM890 1150q-2 -9 -2 -32q0 -110 59.5 -194t118.5 -84q42 0 42 58q0 60 -58.5 135.5t-159.5 116.5zM1034 502q-82 106 -240 106
q-55 0 -88.5 -22t-33.5 -50q0 -39 51 -64.5t127 -25.5q77 0 184 56z" />
    <glyph glyph-name="H" unicode="H" horiz-adv-x="1550" 
d="M700 630q273 91 398 146q31 212 117.5 339t192.5 127q68 0 106 -41.5t38 -108.5q0 -192 -370 -372q-12 -84 -12 -176q0 -211 93.5 -388t272.5 -204q44 -7 44 -34q0 -19 -13 -32.5t-31 -13.5q-178 0 -316 188.5t-138 485.5q0 74 6 138l-406 -150q-61 -288 -184 -450
t-278 -162q-77 0 -128.5 50t-51.5 132q0 152 129 268.5t435 223.5q26 161 26 320q0 171 -76 232q-24 -135 -111 -219.5t-191 -84.5q-67 0 -109.5 42.5t-42.5 111.5q0 101 95 186.5t239 85.5l32 -2q-17 80 -66 112q-18 18 -18 38q0 18 13.5 31t32.5 13q32 0 75 -58t53 -160
q164 -70 164 -328q0 -135 -20 -286zM256 930q84 0 141.5 68t74.5 182q-19 4 -34 4q-113 0 -180.5 -61.5t-67.5 -124.5q0 -30 19 -49t47 -19zM1404 1156q-62 0 -119 -85t-89 -247q268 143 268 268q0 64 -54 64h-6zM220 0q108 0 206.5 133.5t157.5 368.5q-238 -86 -346 -182
t-108 -216q0 -47 25 -75.5t65 -28.5z" />
    <glyph glyph-name="I" unicode="I" horiz-adv-x="882" 
d="M480 966q-57 -10 -112 -10q-127 0 -195.5 46.5t-68.5 121.5q0 62 57.5 104t140.5 42q92 0 160 -51.5t94 -150.5q173 44 186 176q1 16 14.5 28t29.5 12q19 0 31.5 -13.5t12.5 -32.5v-4q-7 -88 -72 -154t-190 -96l2 -40q0 -119 -84 -358q-76 -208 -80 -294q67 12 106 12
q147 0 228.5 -53.5t81.5 -136.5q0 -73 -63.5 -118.5t-172.5 -45.5q-108 0 -182 62.5t-88 171.5q-91 -26 -155.5 -88.5t-76.5 -135.5q-7 -36 -42 -36q-42 0 -42 44q0 61 75.5 158.5t238.5 143.5q0 113 86 348q54 145 67 209.5t13 114.5v24zM468 1046q-34 142 -166 142
q-48 0 -78 -17.5t-30 -46.5q0 -38 48.5 -62t125.5 -24q49 0 100 8zM406 208q7 -82 57 -129t125 -47q66 0 105 22.5t39 61.5q0 46 -61.5 77t-150.5 31q-41 0 -114 -16z" />
    <glyph glyph-name="J" unicode="J" horiz-adv-x="1042" 
d="M890 962q-48 -83 -48 -230q0 -89 10 -225.5t10 -252.5q0 -227 -126.5 -369.5t-339.5 -142.5q-155 0 -255.5 88.5t-100.5 219.5q0 112 65.5 186t162.5 74q68 0 106 -37.5t38 -96.5q0 -62 -46 -62q-19 0 -32.5 14t-13.5 32l2 16v4q0 20 -16 35t-44 15q-56 0 -95 -51
t-39 -125q0 -97 77 -163.5t187 -66.5q169 0 274.5 114t105.5 308q0 127 -10 250.5t-10 239.5q0 159 54 248l-251 111q-143 65 -241 65q-74 0 -114 -35t-40 -95q0 -46 36 -76q14 -14 14 -34q0 -18 -12.5 -31t-29.5 -13q-31 0 -63.5 48t-32.5 106q0 88 66 150t176 62
q136 0 336 -98l192 -84q83 148 216 148q124 0 124 -114q0 -63 -55 -102.5t-143 -39.5q-46 0 -94 10zM1052 1128q-69 0 -122 -90q35 -6 54 -6q108 0 108 60q0 36 -40 36z" />
    <glyph glyph-name="K" unicode="K" horiz-adv-x="1420" 
d="M594 448q-6 -133 -20.5 -226.5t-48.5 -164t-86 -100t-77 -29.5q-17 0 -31.5 12.5t-14.5 29.5q0 23 30 36q85 33 119 143.5t41 304.5q-160 28 -160 160q0 53 44.5 98t117.5 64l6 146q-50 -8 -120 -8q-157 0 -245.5 84.5t-88.5 189.5q0 19 13 31.5t31 12.5q41 0 44 -40
q5 -89 72 -143.5t174 -54.5q68 0 128 12q21 173 86 260.5t156 87.5q60 0 96 -39.5t36 -98.5q0 -85 -77.5 -160t-216.5 -114q-6 -74 -6 -160q110 -9 226 -114q52 54 232 288q120 157 183.5 199.5t114.5 42.5q18 0 31 -12t13 -30q0 -42 -44 -42q-36 0 -105 -67.5t-123 -142.5
q-136 -189 -244 -296q41 -46 123 -178q211 -342 328 -448t213 -106q22 0 51 4q14 2 19 2q36 0 36 -28q0 -64 -108 -64q-120 0 -236.5 98.5t-207.5 228.5t-202 315q-56 93 -78 120q-120 -97 -224 -104zM762 1274q-49 0 -90.5 -63.5t-61.5 -180.5q91 33 144.5 85.5t53.5 100.5
q0 58 -46 58zM596 700l-4 -170q81 4 172 80q-74 78 -168 90zM506 690q-31 -8 -51.5 -31t-20.5 -45q0 -65 70 -78z" />
    <glyph glyph-name="L" unicode="L" horiz-adv-x="1126" 
d="M590 882q27 231 126 369.5t228 138.5q59 0 96.5 -41t37.5 -111q0 -124 -110 -239t-296 -183q-18 -222 -30 -304q208 -31 312 -147.5t104 -272.5q0 -121 -71 -204.5t-107 -83.5q-19 0 -32.5 13t-13.5 31q0 23 20 36q116 76 116 210q0 129 -85 219.5t-257 114.5
q-106 -512 -422 -512q-88 0 -147 57t-59 147q0 96 66.5 191t189 151t284.5 56h14q10 56 26 274q-63 -10 -118 -10q-145 0 -231.5 72t-86.5 196q0 18 12.5 31t31.5 13q18 0 30 -13t12 -31q0 -59 29 -100t83 -61.5t120 -20.5q69 0 128 14zM682 910q137 56 220.5 149t83.5 177
q0 28 -16 46t-42 18q-68 0 -140 -96.5t-106 -293.5zM208 0q244 0 334 432q-207 0 -329.5 -95.5t-122.5 -216.5q0 -53 34.5 -86.5t83.5 -33.5z" />
    <glyph glyph-name="M" unicode="M" horiz-adv-x="1790" 
d="M222 1428h10q188 -32 268 -272q129 96 258 96q114 0 195 -68t113 -176q171 208 342 208q146 0 228 -129.5t82 -360.5q0 -153 -32 -312.5t-83.5 -278t-71 -132t-35.5 -13.5q-42 0 -42 44q0 18 6 26q72 101 120 291t48 375q0 186 -57.5 297t-166.5 111q-142 0 -306 -228
q32 -105 32 -260q0 -274 -77 -470t-197 -196q-130 0 -130 206q0 155 78 366.5t198 371.5q-26 117 -92.5 180.5t-157.5 63.5q-115 0 -228 -106q32 -138 32 -354q0 -307 -95.5 -521.5t-238.5 -214.5q-82 0 -132 69t-50 191q0 189 108.5 446t277.5 412q-59 222 -212 252
q-38 8 -38 42q0 19 13.5 31.5t32.5 12.5zM466 708q0 139 -18 292q-142 -169 -231 -388t-89 -380q0 -80 24.5 -129t71.5 -49q94 0 168 194.5t74 459.5zM1040 626v18q0 104 -12 174q-100 -170 -157 -341.5t-57 -290.5q0 -126 44 -126q66 0 124 175t58 391z" />
    <glyph glyph-name="N" unicode="N" horiz-adv-x="1420" 
d="M654 986q220 240 410 240q141 0 216.5 -109t75.5 -323q0 -143 -41 -303.5t-117 -321t-96.5 -178t-35.5 -17.5q-18 0 -31 13.5t-13 32.5q0 12 6 24q110 178 174 381t64 369q0 168 -53 259t-151 91q-177 0 -392 -266q12 -102 12 -220q0 -300 -81.5 -498t-210.5 -198
q-65 0 -107.5 48t-42.5 124q0 153 96 376.5t240 389.5q-12 127 -50 232q-81 -34 -170 -34q-154 0 -255 69t-101 171q0 79 62.5 132.5t155.5 53.5q108 0 201 -68.5t155 -197.5q104 87 104 210q0 71 -40 134q-6 6 -6 22q0 20 12.5 33t31.5 13q36 0 64 -69t28 -133
q0 -173 -162 -292q27 -77 48 -190zM502 1208q-114 234 -284 234q-126 0 -126 -104q0 -65 76.5 -111.5t187.5 -46.5q68 0 146 28zM594 658q0 52 -4 126q-116 -153 -188 -341t-72 -309v-2q0 -36 18 -61t48 -25q74 0 136 174.5t62 437.5z" />
    <glyph glyph-name="O" unicode="O" horiz-adv-x="1320" 
d="M1242 1280v10q0 20 14.5 33t31.5 13q56 0 56 -144q0 -166 -132 -282q42 -101 42 -252q0 -285 -177.5 -476.5t-434.5 -191.5q-250 0 -405 162.5t-155 433.5q0 167 67 317.5t123 150.5q18 0 31 -12.5t13 -31.5q0 -18 -12 -30q-58 -53 -95 -164t-37 -230q0 -235 131 -374.5
t343 -139.5q216 0 367 171.5t151 414.5q0 111 -28 202q-106 -64 -272 -64q-193 0 -327.5 81.5t-134.5 204.5q0 85 77 140.5t201 55.5q151 0 279.5 -73t214.5 -215q82 85 82 200q0 22 -4 45zM1104 938q-74 125 -186.5 191.5t-237.5 66.5q-91 0 -140.5 -33t-49.5 -87
q0 -77 113 -137.5t269 -60.5q136 0 232 60z" />
    <glyph glyph-name="P" unicode="P" horiz-adv-x="1038" 
d="M440 1184q134 76 294 76q165 0 271.5 -99.5t106.5 -250.5q0 -154 -116.5 -256t-241.5 -102q-19 0 -31.5 13t-12.5 33q0 36 42 40q100 5 186 83t86 189q0 117 -82 191.5t-208 74.5q-134 0 -244 -64q116 -221 116 -560q0 -270 -77.5 -423t-208.5 -153q-118 0 -183 109
t-65 315q0 211 78 410.5t224 325.5q-101 124 -238 124q-19 0 -31.5 11.5t-12.5 28.5q0 18 13.5 31t30.5 13q183 0 304 -160zM516 534v22q0 317 -100 506q-124 -114 -190 -298t-66 -364q0 -151 43.5 -248.5t118.5 -97.5q83 0 138.5 140.5t55.5 339.5z" />
    <glyph glyph-name="Q" unicode="Q" horiz-adv-x="1330" 
d="M950 102q208 -228 378 -228q78 0 124 30q12 8 22 8q44 0 44 -38q0 -35 -62.5 -59.5t-125.5 -24.5q-208 0 -456 268q-123 -60 -256 -60q-165 0 -275.5 81t-110.5 195q0 84 61 135t157 51q104 0 209.5 -66.5t238.5 -229.5q121 79 191.5 214.5t70.5 289.5q0 226 -129.5 373
t-324.5 147q-242 0 -388 -175.5t-146 -404.5q0 -122 32 -172q8 -13 8 -28q0 -42 -44 -42q-41 0 -63.5 66.5t-22.5 175.5q0 270 174 465t450 195q234 0 389 -169t155 -431q0 -167 -79.5 -318.5t-220.5 -247.5zM820 122q-89 117 -188 185.5t-184 68.5q-58 0 -93 -30t-35 -74
q0 -74 87.5 -135t210.5 -61q101 0 202 46z" />
    <glyph glyph-name="R" unicode="R" horiz-adv-x="1264" 
d="M802 540q71 -31 143 -102t146 -227q40 -84 62 -122.5t49 -54.5q28 -17 28 -42q0 -18 -13 -31t-31 -13q-75 0 -166 206q-83 193 -185.5 266t-230.5 90q-16 1 -27 14t-11 30q0 20 12 33t30 13q196 0 320 66.5t124 185.5q0 104 -76.5 186.5t-212.5 129t-287 46.5
q-129 0 -206.5 -43.5t-77.5 -112.5q0 -61 60 -106q110 136 332 136q109 0 179.5 -45.5t70.5 -112.5q0 -65 -78 -105.5t-218 -40.5q-136 0 -254 50q-46 -101 -46 -260q0 -362 78 -534q6 -12 6 -20q0 -18 -13 -31t-31 -13t-32.5 12.5t-41.5 98.5t-41.5 210.5t-14.5 276.5
q0 182 58 302q-104 75 -104 182q0 99 92 168.5t282 69.5q283 0 474.5 -124t191.5 -320q0 -117 -91 -204.5t-249 -107.5zM584 1000q-167 0 -256 -92q111 -40 210 -40q97 0 151.5 19t54.5 43q0 31 -43.5 50.5t-116.5 19.5z" />
    <glyph glyph-name="S" unicode="S" horiz-adv-x="1158" 
d="M746 1206q-44 8 -72 8q-140 0 -224 -65t-84 -155q0 -68 52.5 -119t243.5 -119q135 -48 219.5 -91t146.5 -123.5t62 -203.5q0 -104 -61.5 -188.5t-178.5 -133.5q-34 -137 -114.5 -214.5t-119.5 -77.5q-46 0 -46 40q0 30 28 42q104 43 154 178q-95 -22 -216 -22
q-200 0 -335 89t-135 225q0 113 96.5 190.5t237.5 77.5q189 0 320.5 -118.5t139.5 -311.5q142 76 142 224q0 108 -70.5 184.5t-297.5 153.5q-119 41 -190 75t-119.5 93t-48.5 150q0 125 109 212.5t291 87.5q62 0 130 -18q91 74 214 74q20 0 33 -12.5t13 -31.5q0 -36 -48 -36
q-67 0 -124 -36q112 -76 112 -202q0 -57 -38.5 -99.5t-95.5 -42.5q-68 0 -116 52t-48 130q0 75 38 134zM918 1032q0 94 -90 150q-32 -48 -32 -110q0 -41 23 -70.5t53 -29.5q46 0 46 60zM774 74v26q0 156 -100 258t-274 102q-102 0 -174 -54t-72 -132q0 -97 110 -164.5
t272 -67.5q139 0 238 32z" />
    <glyph glyph-name="T" unicode="T" horiz-adv-x="1318" 
d="M776 1074q-249 144 -420 144q-103 0 -162.5 -45.5t-59.5 -116.5q0 -51 42 -92.5t100 -41.5q4 0 27 3q18 3 21 3q46 0 46 -38q0 -52 -94 -52q-95 0 -163.5 64.5t-68.5 153.5q0 100 80.5 172t231.5 72q104 0 212.5 -35t279.5 -131q116 70 306 70q144 0 220 -47t76 -119
q0 -61 -53 -100.5t-139 -39.5q-160 0 -404 136q-90 -82 -90 -276q0 -56 20 -204q22 -147 22 -228q0 -186 -62 -266t-176 -80h-12q-56 0 -56 44q0 20 12.5 31t55.5 11q78 0 114 60t36 200q0 49 -22 216t-22 216q0 204 102 316zM936 1084q179 -104 322 -104q42 0 72 15.5
t30 40.5q0 34 -51 59t-155 25q-133 0 -218 -36z" />
    <glyph glyph-name="U" unicode="U" horiz-adv-x="1450" 
d="M496 960q4 -47 4 -76v-14l-10 -450q0 -180 59 -273t167 -93q156 0 312 196q-30 152 -30 298q0 289 74 495.5t194 206.5q65 0 104.5 -56t39.5 -166q0 -160 -79.5 -387t-210.5 -409q32 -117 75 -170.5t111 -53.5l42 2q44 0 44 -34q0 -48 -78 -48q-193 0 -260 224
q-165 -180 -338 -180q-151 0 -232.5 116.5t-81.5 331.5l8 442v22q0 35 -2 50q-30 -6 -62 -6q-113 0 -189.5 54.5t-76.5 141.5q0 66 49.5 112t120.5 46q78 0 142.5 -61.5t89.5 -174.5q67 34 104.5 99.5t37.5 142.5q0 91 -26 124q-10 13 -10 28q0 44 44 44q37 0 59.5 -61
t22.5 -135q0 -104 -58.5 -193.5t-159.5 -134.5zM400 1018q-21 84 -62.5 131t-89.5 47q-33 0 -56.5 -20.5t-23.5 -51.5q0 -48 53.5 -80t124.5 -32q12 0 54 6zM1096 334q106 179 165 368t59 326q0 138 -54 138q-62 0 -121 -179t-59 -449v-10q0 -126 10 -194z" />
    <glyph glyph-name="V" unicode="V" horiz-adv-x="1374" 
d="M604 982q33 -64 53.5 -176t20.5 -336q0 -212 25 -312t97 -100q88 0 200 151.5t197 372t85 338.5q0 228 -210 228q-19 0 -31.5 11.5t-12.5 28.5q0 19 13 32.5t31 13.5q141 0 220.5 -85t79.5 -229q0 -125 -95 -371.5t-227 -409.5t-256 -163q-94 0 -139 72t-55 170.5
t-10 249.5q0 325 -56 454q-84 -62 -212 -62q-118 0 -200 66.5t-82 155.5q0 81 57.5 132.5t148.5 51.5q207 0 318 -196q38 66 38 168q0 72 -42.5 128.5t-101.5 71.5q-34 10 -34 44q0 19 13 31.5t31 12.5q57 0 141.5 -81t84.5 -207q0 -147 -90 -256zM504 1000
q-95 184 -258 184q-51 0 -84.5 -28.5t-33.5 -73.5q0 -50 57.5 -94t136.5 -44q106 0 182 56z" />
    <glyph glyph-name="W" unicode="W" horiz-adv-x="1740" 
d="M1550 1052q49 9 78.5 29.5t29.5 44.5v6q0 18 12 30t30 12t31 -13.5t13 -32.5q0 -110 -156 -150q74 -175 74 -352q0 -287 -147 -469.5t-371 -182.5q-207 0 -312 182q-157 -156 -332 -156q-158 0 -245 107.5t-87 302.5q0 160 80 354q-93 30 -146.5 99t-53.5 159t48 90
q14 0 24.5 -8t14.5 -21q1 -2 1 -35q-2 -22 -2 -26q0 -68 41 -116t111 -66q93 169 212.5 262.5t239.5 93.5q57 0 94.5 -35.5t37.5 -90.5q0 -100 -177 -210t-357 -110q-78 -170 -78 -340q0 -167 68.5 -248.5t173.5 -81.5q146 0 290 154q-56 141 -56 324q0 143 61.5 258.5
t158.5 115.5q66 0 105 -55t39 -163q0 -99 -55 -237.5t-149 -256.5q95 -164 250 -164q187 0 307.5 160t120.5 410q0 180 -74 336q-19 -2 -66 -2q-168 0 -282 57t-114 157q0 56 43.5 96t124.5 40q90 0 182 -68.5t164 -189.5zM1458 1042q-59 87 -126.5 134.5t-127.5 47.5
q-76 0 -76 -50q0 -52 82.5 -92t215.5 -40h32zM738 1112q-89 0 -186 -73.5t-172 -202.5q153 19 276.5 101.5t123.5 132.5q0 42 -42 42zM856 302q70 103 111 220.5t41 191.5q0 132 -54 132q-53 0 -92.5 -92.5t-39.5 -195.5q0 -143 34 -256z" />
    <glyph glyph-name="X" unicode="X" horiz-adv-x="1410" 
d="M1488 -54h22q18 0 31 -12.5t13 -31.5q0 -42 -56 -42h-12q-174 0 -357.5 195.5t-336.5 560.5q-208 -346 -347 -489t-259 -143q-52 0 -52 44q0 18 12.5 32t31.5 14h2q102 0 240.5 156t333.5 484q-63 170 -132 290q-102 -100 -254 -100q-134 0 -211 61t-77 143
q0 76 65.5 132t168.5 56q188 0 318 -150q22 40 22 112v8q0 68 -33.5 136.5t-84.5 93.5q-24 12 -24 36q0 18 12 31t30 13q47 0 117.5 -95t70.5 -215q0 -111 -58 -194q60 -97 128 -268q167 249 291 352.5t237 103.5q18 0 30 -13t12 -33q0 -18 -11.5 -33t-30.5 -15h-10
q-84 0 -213 -118.5t-269 -339.5q150 -379 322 -570.5t318 -191.5zM582 1074q-108 140 -268 140q-66 0 -105 -30.5t-39 -75.5q0 -49 53.5 -85.5t146.5 -36.5q58 0 118.5 24t93.5 64z" />
    <glyph glyph-name="Y" unicode="Y" horiz-adv-x="1374" 
d="M570 930q8 -43 8 -334q0 -192 39.5 -282t138.5 -90q127 0 278 184q-8 216 -8 236q0 352 54 465t166 113q51 0 94.5 -42.5t43.5 -155.5q0 -127 -71.5 -303t-190.5 -331l4 -88q0 -391 -206 -601.5t-522 -210.5q-170 0 -284 91.5t-114 248.5q0 100 63 172t151 72
q71 0 120.5 -47.5t49.5 -120.5q0 -116 -58 -116q-19 0 -32.5 13.5t-13.5 30.5q0 8 4 16q10 33 10 56q0 40 -24 62t-56 22q-51 0 -88.5 -46.5t-37.5 -113.5q0 -80 41.5 -138t116 -89t152.5 -31q278 0 455 185t185 539q-154 -156 -296 -156q-122 0 -187 104.5t-65 397.5v126
q0 48 -4 118q-63 -22 -130 -22q-122 0 -202 69.5t-80 176.5q0 85 59 142.5t147 57.5q97 0 170.5 -71t103.5 -213q50 48 74 120t24 138q0 5 -3 32q-3 32 -3 38q0 18 11.5 31t28.5 13q25 0 38.5 -19.5t13.5 -94.5q0 -106 -43 -200t-125 -154zM474 970q-45 258 -194 258
q-50 0 -83 -34.5t-33 -83.5q0 -75 55.5 -119.5t138.5 -44.5q65 0 116 24zM1118 520q81 130 129.5 270t48.5 236q0 114 -60 114q-65 0 -93.5 -115.5t-28.5 -380.5z" />
    <glyph glyph-name="Z" unicode="Z" horiz-adv-x="1580" 
d="M530 222q104 -52 316 -186q216 -138 376 -138q95 0 153.5 50t58.5 132q0 59 -34 99.5t-92 40.5q-18 0 -31 13t-13 31t13 31t31 13q96 0 155 -65t59 -163q0 -111 -85 -188.5t-213 -77.5q-114 0 -204.5 37t-247.5 129q-271 158 -306 174q-151 -174 -326 -174
q-60 0 -100 34.5t-40 91.5q0 85 68.5 140.5t189.5 55.5q83 0 186 -42q90 97 304 446q91 150 182 272q-92 39 -278 148q-45 -84 -125.5 -131t-168.5 -47q-103 0 -166.5 51t-63.5 137q0 84 60.5 133t149.5 49q129 0 268 -76q16 51 16 98q0 90 -52 152q-10 10 -10 28
q0 19 12.5 32.5t29.5 13.5q37 0 71.5 -71t34.5 -157q0 -73 -20 -136q256 -136 298 -152q82 101 146.5 143.5t133.5 42.5q124 0 124 -120q0 -81 -71 -133.5t-179 -52.5q-56 0 -122 20q-87 -108 -202 -294q-149 -240 -188 -301t-98 -133zM358 1032q65 0 124.5 36.5t93.5 95.5
q-141 72 -236 72q-52 0 -87 -29t-35 -71q0 -48 38.5 -76t101.5 -28zM1260 1154q-80 0 -188 -132q32 -8 62 -8q168 0 168 98q0 16 -11.5 29t-30.5 13zM382 190q-76 28 -130 28q-76 0 -119 -31t-43 -77q0 -18 17 -33t45 -15q105 0 230 128z" />
    <glyph glyph-name="bracketleft" unicode="[" horiz-adv-x="560" 
d="M406 -238h154q17 0 28.5 -13.5t11.5 -32.5q0 -38 -48 -38h-148q-163 0 -210 35t-71.5 243t-24.5 624q0 289 11 497.5t31 238.5t46 30h76q49 0 92 1t82 5l80 8h6q44 0 44 -44q0 -20 -16 -31t-88 -17t-180 -6h-68q-26 -165 -26 -670q0 -409 14.5 -574t30.5 -210.5
t173 -45.5z" />
    <glyph glyph-name="backslash" unicode="\" horiz-adv-x="656" 
d="M704 -18v-10q0 -20 -13.5 -33t-30.5 -13q-37 0 -44 34q-35 142 -149 364t-313 573q-202 359 -202 385q0 17 13 29.5t31 12.5q30 0 42 -24q47 -98 224 -408l113 -203q58 -104 109 -200.5t95 -188t84.5 -193.5t40.5 -125z" />
    <glyph glyph-name="bracketright" unicode="]" horiz-adv-x="560" 
d="M366 1254q-17 14 -68 14q-44 0 -164 -18q-80 -12 -100 -12q-18 0 -30 13t-12 33q0 40 42 40q26 0 86 10q119 18 176 18q81 0 115.5 -23.5t42.5 -70.5t8 -156q0 -99 -18 -533t-18 -547q0 -58 1.5 -106t4.5 -84l8 -68v-8q0 -82 -166 -82q-59 0 -167.5 9t-127.5 17.5
t-19 37.5q0 38 44 38q51 0 158 -9q85 -7 116 -7q48 0 70 6q-12 97 -12 260q0 105 18 472t18 610q0 109 -6 146z" />
    <glyph glyph-name="asciicircum" unicode="^" 
d="M390 1048h84l328 -654h-92l-280 556l-276 -556h-92z" />
    <glyph glyph-name="underscore" unicode="_" horiz-adv-x="1000" 
d="M1000 -250h-1000v100h1000v-100z" />
    <glyph glyph-name="grave" unicode="`" horiz-adv-x="410" 
d="M90 1046q5 0 15 -3t35 -24.5t73 -59.5l91 -73q44 -35 49 -43.5t5 -20.5q0 -40 -30 -40q-12 0 -22.5 4.5t-33.5 23.5l-95 74q-71 56 -89.5 71t-26 28t-7.5 29q0 34 36 34z" />
    <glyph glyph-name="a" unicode="a" horiz-adv-x="692" 
d="M68 194q0 177 107.5 337.5t256.5 160.5q87 0 135.5 -55.5t48.5 -156.5q0 -99 -26 -240q-20 -130 -20 -160q0 -14 4 -26q8 -16 8 -24q0 -16 -14 -29t-32 -13q-56 0 -56 96q0 12 22 170q26 160 26 222q0 63 -29 97.5t-75 34.5q-105 0 -185.5 -132.5t-80.5 -281.5
q0 -56 23.5 -91t62.5 -35q76 0 114 102q10 26 38 26q42 0 42 -44q0 -41 -57 -104.5t-151 -63.5q-71 0 -116.5 55t-45.5 155z" />
    <glyph glyph-name="b" unicode="b" horiz-adv-x="674" 
d="M282 782q-92 -263 -92 -492q0 -238 136 -238q75 0 149.5 119t74.5 261q0 77 -27.5 121.5t-76.5 44.5q-57 0 -92 -38q-14 -14 -34 -14q-18 0 -31 13t-13 31q0 29 47.5 62.5t126.5 33.5q87 0 137.5 -69t50.5 -185q0 -168 -98 -310t-216 -142q-222 0 -222 310q0 206 78 466
q-43 -6 -96 -6q-48 0 -48 46q0 38 48 38q62 0 128 16q74 212 166 328t190 116q61 0 94.5 -35.5t33.5 -100.5q0 -98 -106 -210t-308 -166zM310 876q146 50 221 133.5t75 144.5q0 58 -42 58q-113 0 -254 -336z" />
    <glyph glyph-name="c" unicode="c" horiz-adv-x="600" 
d="M412 684q73 0 108.5 -33t35.5 -69q0 -44 -42 -44q-22 0 -38 22q-27 38 -70 38q-103 0 -171.5 -113t-68.5 -245q0 -90 36.5 -135t97.5 -45q48 0 93 26t71 74q15 26 38 26q38 0 38 -46q0 -39 -73 -99.5t-173 -60.5q-102 0 -160 67.5t-58 192.5q0 174 98.5 309t237.5 135z
" />
    <glyph glyph-name="d" unicode="d" horiz-adv-x="680" 
d="M644 760q-8 -367 -98 -571.5t-244 -204.5q-96 0 -159 86t-63 226q0 153 77.5 270.5t192.5 117.5q58 0 103 -33.5t45 -64.5q0 -18 -13 -31t-31 -13q-25 0 -38 22q-19 30 -66 30q-74 0 -128 -90.5t-54 -207.5q0 -102 37.5 -166t98.5 -64q110 0 178.5 190.5t73.5 517.5
q-136 37 -217 124t-81 188q0 73 46 127.5t116 54.5q104 0 165 -120t61 -292v-12q41 -7 74 -10q38 -3 38 -40q0 -15 -12.5 -28.5t-23.5 -13.5q-41 0 -78 8zM558 862q0 154 -45 238t-97 84q-30 0 -49 -29.5t-19 -66.5q0 -72 57.5 -136t152.5 -90z" />
    <glyph glyph-name="e" unicode="e" horiz-adv-x="596" 
d="M244 332q0 17 12.5 30.5t31.5 13.5q76 0 135 43.5t59 106.5q0 68 -80 68q-85 0 -163.5 -98t-78.5 -244q0 -87 42 -138.5t124 -51.5q87 0 140 66q13 16 32 16q40 0 40 -46q0 -32 -67 -75t-151 -43q-115 0 -182.5 73t-67.5 199q0 181 104.5 304.5t229.5 123.5
q80 0 124 -42.5t44 -111.5q0 -104 -88.5 -170t-195.5 -66q-44 0 -44 42z" />
    <glyph glyph-name="f" unicode="f" horiz-adv-x="604" 
d="M326 598q18 381 107 525.5t223 144.5q78 0 121 -42t43 -114q0 -55 -31 -95.5t-59 -40.5q-19 0 -30.5 10t-11.5 22q0 35 24 52q18 13 18 54q0 29 -23 50.5t-61 21.5q-84 0 -147 -124.5t-81 -423.5q73 30 170 30q82 0 82 -48q0 -17 -12 -27.5t-28 -10.5l-48 2
q-96 0 -166 -36q-28 -495 -94 -765.5t-228 -270.5q-68 0 -112 64t-44 176q0 143 45.5 311.5t132 308.5t210.5 226zM320 490q-141 -129 -216.5 -340t-75.5 -398q0 -69 20.5 -111.5t51.5 -42.5q57 0 93 72.5t70 257.5t57 562z" />
    <glyph glyph-name="g" unicode="g" horiz-adv-x="642" 
d="M346 -20q-25 -6 -54 -6q-103 0 -165.5 71.5t-62.5 192.5q0 170 96 307t230 137q97 0 151.5 -71t54.5 -195q0 -20 -13.5 -33t-32.5 -13q-40 0 -40 46q0 71 -31.5 127.5t-88.5 56.5q-94 0 -165 -114t-71 -248q0 -184 150 -184h10q-20 38 -20 94q0 75 43.5 132.5t108.5 57.5
q51 0 82.5 -38t31.5 -96q0 -126 -132 -200q25 -34 50 -56q106 -96 106 -216q0 -155 -123 -255.5t-291 -100.5q-141 0 -223.5 64t-82.5 176q0 92 63 156t153 64q54 0 89 -25.5t35 -62.5q0 -40 -40 -40q-26 0 -34 14q-19 30 -54 30q-51 0 -86.5 -39t-35.5 -97q0 -74 57.5 -116
t158.5 -42q125 0 224.5 76.5t99.5 197.5q0 79 -76 158q-44 44 -72 90zM378 146q0 -40 14 -74q38 20 61 58t23 74q0 50 -34 50q-24 0 -44 -33t-20 -75z" />
    <glyph glyph-name="h" unicode="h" horiz-adv-x="722" 
d="M188 362q46 151 127.5 236.5t162.5 85.5q160 0 160 -296q0 -104 -21.5 -226.5t-35.5 -139t-33 -16.5q-45 0 -45 50q45 180 45 332q0 105 -17.5 154.5t-58.5 49.5q-87 0 -181.5 -169t-94.5 -335q0 -9 2 -28q2 -16 2 -24v-6q0 -15 -12 -26.5t-30 -11.5q-33 0 -44.5 45.5
t-11.5 154.5q0 259 66 560q-13 -2 -54 -2h-8q-70 0 -70 44q0 17 10.5 28.5t25.5 11.5h44q42 0 76 6q63 195 153.5 309.5t186.5 114.5q64 0 100 -36t36 -98q0 -108 -115.5 -212t-290.5 -150q-46 -187 -74 -406zM530 1182q-53 0 -122 -87.5t-118 -232.5q128 46 209 123t81 145
q0 52 -50 52z" />
    <glyph glyph-name="i" unicode="i" horiz-adv-x="320" 
d="M238 910l112 14l-80 -56l122 -78l-148 24l-56 -110l2 116l-100 8l98 56l-10 92zM212 666q18 0 32 -13.5t14 -32.5q0 -6 -2 -10q-27 -108 -52 -280.5t-34 -313.5q-4 -42 -44 -42q-19 0 -32.5 13.5t-13.5 32.5q0 85 39.5 345.5t55.5 280.5t37 20z" />
    <glyph glyph-name="j" unicode="j" horiz-adv-x="366" 
d="M252 786q-21 0 -33.5 14.5t-12.5 29.5q0 21 16 53.5t42 32.5q19 0 32.5 -13t13.5 -31q0 -25 -16 -55.5t-42 -30.5zM288 614q0 -78 -26 -357t-53.5 -425.5t-75.5 -244.5t-124 -154.5t-171 -56.5q-90 0 -148 53t-58 133q0 73 51 123.5t121 50.5q66 0 66 -48q0 -38 -42 -38
l-34 2q-26 0 -49 -26.5t-23 -61.5q0 -44 33 -75t87 -31q105 0 178 105t105 292.5t63 602.5l12 156q1 20 14 32t30 12q19 0 31.5 -13t12.5 -31z" />
    <glyph glyph-name="k" unicode="k" horiz-adv-x="736" 
d="M266 276q-10 -66 -10 -142q0 -56 8 -80q6 -9 6 -20q0 -19 -13 -31.5t-31 -12.5q-60 0 -60 144q0 56 14 154q-142 46 -142 152q0 71 54 116.5t144 45.5l51 240q41 185 41 260q0 57 -6 71t-6 21q0 21 14 33.5t32 12.5q26 0 40 -25.5t14 -112.5q0 -114 -67 -399
q-18 -74 -25 -113q104 -25 186 -120q86 89 94 186q4 40 40 40q18 0 31 -13t13 -31q0 -55 -41 -132t-91 -116q116 -150 116 -364q0 -50 -46 -50q-40 0 -40 50q0 168 -96 308q-93 -72 -216 -72h-8zM220 520q-94 -7 -94 -80q0 -51 64 -74q16 95 30 154zM278 354q105 0 170 60
q-56 74 -140 98q-16 -66 -30 -158z" />
    <glyph glyph-name="l" unicode="l" horiz-adv-x="312" 
d="M250 1196q0 21 14 33.5t32 12.5q26 0 40 -25.5t14 -112.5q0 -83 -62 -340q-106 -434 -106 -628q0 -56 8 -80q6 -9 6 -20q0 -19 -13 -31.5t-31 -12.5q-60 0 -60 144q0 205 98 602q72 298 72 366q0 57 -6 71t-6 21z" />
    <glyph glyph-name="m" unicode="m" horiz-adv-x="1092" 
d="M610 454q80 234 238 234h2q77 0 121.5 -77t44.5 -223q0 -96 -18 -203t-29 -148t-23.5 -50t-27.5 -9q-19 0 -32.5 14t-13.5 32q0 8 2 12q54 184 54 348q0 214 -88 214q-78 0 -150.5 -129.5t-104.5 -326.5q-16 -102 -24.5 -124t-34.5 -22q-19 0 -31.5 13.5t-12.5 32.5
q0 15 18 110q26 163 26 250q0 194 -88 194q-77 0 -157.5 -158.5t-130.5 -419.5q-7 -36 -42 -36q-42 0 -42 46q0 11 26 128q54 229 54 344q0 92 -30 122q-10 17 -10 32q0 18 13.5 31t32.5 13q29 0 53.5 -46.5t24.5 -117.5q0 -15 -4 -50q83 200 222 200q68 0 112 -57.5
t50 -172.5z" />
    <glyph glyph-name="n" unicode="n" horiz-adv-x="700" 
d="M238 488q83 188 222 188q68 0 111 -68t43 -206q0 -63 -14 -164.5t-24.5 -160t-19 -67.5t-17 -11.5t-15.5 -2.5q-19 0 -32.5 13.5t-13.5 32.5q0 4 2 8q44 192 44 352q0 182 -72 182q-81 0 -166.5 -154.5t-133.5 -401.5q-7 -34 -42 -34q-42 0 -42 46q0 26 44 202
q42 172 42 246q0 84 -36 120q-10 17 -10 32q0 17 13 29.5t31 12.5q31 0 58.5 -48t27.5 -122v-24z" />
    <glyph glyph-name="o" unicode="o" horiz-adv-x="682" 
d="M230 500q0 80 54 138t142 58q97 0 155.5 -75t58.5 -197q0 -176 -94.5 -310t-235.5 -134q-103 0 -166.5 84.5t-63.5 223.5q0 52 15.5 123t54.5 71q17 0 29.5 -13.5t12.5 -30.5q0 -8 -4 -20q-18 -45 -18 -128q0 -95 39 -160.5t105 -65.5q99 0 167.5 110t68.5 250
q0 79 -34 133.5t-94 54.5q-48 0 -75 -32.5t-27 -79.5q0 -37 19 -58.5t75 -21.5q19 0 32.5 -13t13.5 -31q0 -44 -54 -44q-81 0 -128.5 47t-47.5 121z" />
    <glyph glyph-name="p" unicode="p" horiz-adv-x="690" 
d="M34 -116q6 367 122.5 582.5t281.5 215.5q98 0 154 -79.5t56 -214.5q0 -192 -74 -300t-182 -108q-76 0 -123 47t-47 81q0 19 13 31.5t31 12.5q27 0 40 -22q33 -66 86 -66q73 0 119.5 87t46.5 237q0 80 -31.5 144t-88.5 64q-116 0 -211.5 -193t-104.5 -505q144 0 238 -102
t94 -238q0 -99 -45 -149.5t-123 -50.5q-109 0 -179 118.5t-73 321.5q-34 -11 -58.5 -38t-29.5 -52q-4 -22 -38 -22q-36 0 -36 40q0 41 43 89.5t119 68.5zM122 -186q3 -178 52.5 -277t109.5 -99q80 0 80 118q0 102 -67 180t-169 78h-6z" />
    <glyph glyph-name="q" unicode="q" horiz-adv-x="666" 
d="M392 158q36 0 36 -46q0 -42 -49 -84t-117 -42q-184 0 -184 246q0 162 99 306t241 144q95 0 146.5 -65t51.5 -189q0 -121 -50 -366q-52 -250 -52 -366q0 -174 48 -234q10 -13 10 -30q0 -42 -46 -42q-41 0 -71.5 76t-30.5 218q0 138 52 394q50 241 50 338q0 182 -116 182
q-98 0 -171 -119.5t-73 -244.5q0 -166 102 -166q55 0 82 62q11 28 40 28h2z" />
    <glyph glyph-name="r" unicode="r" horiz-adv-x="474" 
d="M212 492q32 93 101 142.5t151 49.5q20 0 34 -12.5t14 -31.5q0 -37 -42 -40q-96 -6 -151.5 -73t-83 -163.5t-57.5 -261.5q-11 -65 -14.5 -81.5t-15 -26.5t-28.5 -10t-28.5 12.5t-11.5 31.5q0 4 13 89q43 274 43 319q0 104 -44 148q-12 10 -12 32q0 18 12.5 31t29.5 13
q30 0 60 -46.5t30 -111.5v-10z" />
    <glyph glyph-name="s" unicode="s" horiz-adv-x="570" 
d="M212 192q-6 0 -15 3q-10 3 -17 3q-48 0 -48 -58q0 -37 38.5 -66.5t91.5 -29.5q62 0 105 36t43 96q0 91 -114 152q-146 78 -146 188q0 67 51 117.5t139 50.5q76 0 121 -41t45 -79q0 -19 -13.5 -32.5t-32.5 -13.5q-10 0 -21.5 7.5t-14.5 18.5q-7 23 -30.5 43.5t-55.5 20.5
q-46 0 -73 -25.5t-27 -66.5q0 -33 23 -56t75 -54q94 -56 129 -106t35 -112q0 -95 -64 -155.5t-176 -60.5q-90 0 -154 47.5t-64 118.5q0 62 40 103t98 41q72 0 72 -52q0 -38 -36 -38h-4z" />
    <glyph glyph-name="t" unicode="t" horiz-adv-x="420" 
d="M272 596q-54 -193 -54 -356q0 -87 22 -129.5t56 -42.5q16 0 28 -12.5t12 -29.5q0 -20 -14.5 -33t-29.5 -13q-56 0 -109 53.5t-53 200.5q0 161 50 360q-34 0 -74 -6q-23 -4 -34 -4q-28 0 -28 34q0 30 33 44.5t123 15.5q53 219 65 244.5t37 25.5q46 0 46 -40q0 -14 -4 -22
q-24 -72 -56 -210l122 -4q17 0 30.5 -13t13.5 -29q0 -40 -38 -40q-30 0 -144 6z" />
    <glyph glyph-name="u" unicode="u" horiz-adv-x="672" 
d="M208 614v-10q-48 -211 -48 -350q0 -188 84 -188q91 0 172 162.5t116 413.5q6 38 52 38q13 0 22.5 -13.5t9.5 -30.5v-6q0 -5 -28 -164q-34 -184 -34 -270q0 -95 40 -138q10 -13 10 -30q0 -18 -13 -31t-31 -13q-33 0 -61.5 55.5t-28.5 134.5v6q-41 -95 -101 -147.5
t-125 -52.5q-80 0 -126 69t-46 205q0 90 20.5 223.5t29.5 158t40 24.5q19 0 32.5 -14t13.5 -32z" />
    <glyph glyph-name="v" unicode="v" horiz-adv-x="604" 
d="M200 598l-12 -83q-6 -45 -10 -107t-4 -112q0 -105 14 -164.5t32 -59.5q50 0 155 187t129 389q3 40 44 40h6q16 0 28 -13.5t12 -30.5v-4q-24 -214 -149.5 -433t-228.5 -219q-132 0 -132 308q0 65 8 153t15 129t19.5 51.5t27.5 10.5q18 0 32 -11.5t14 -24.5v-6z" />
    <glyph glyph-name="w" unicode="w" horiz-adv-x="1012" 
d="M486 220q-41 -107 -106.5 -167.5t-137.5 -60.5q-78 0 -120 74t-42 194q0 102 22 235.5t38 147t32 13.5q18 0 31 -13.5t13 -32.5q0 -6 -2 -10q-44 -180 -44 -340q0 -87 20.5 -135.5t57.5 -48.5q84 0 167 162t99 386q3 42 38 42q19 0 32.5 -13.5t13.5 -32.5q0 -14 -6 -68
q-24 -235 -24 -292q0 -83 21.5 -131.5t60.5 -48.5q80 0 160 166.5t80 315.5q0 39 -12 60q-4 6 -4 18q0 20 16 33t30 13q58 0 58 -124q0 -172 -101 -370t-231 -198q-69 0 -114.5 57.5t-45.5 162.5v6z" />
    <glyph glyph-name="x" unicode="x" horiz-adv-x="640" 
d="M-4 64h6q57 0 284 320q-107 201 -148 214q-34 10 -34 42q0 18 14 31t32 13q67 0 190 -226q85 117 135.5 163.5t90.5 46.5q17 0 30.5 -13.5t13.5 -32.5q0 -16 -12.5 -29t-29.5 -15q-43 -5 -184 -202q155 -305 214 -312q40 -4 40 -44q0 -19 -13 -31.5t-31 -12.5h-6
q-55 6 -110 74.5t-150 251.5q-139 -196 -206 -262t-120 -66q-50 0 -50 46q0 18 13 31t31 13z" />
    <glyph glyph-name="y" unicode="y" horiz-adv-x="662" 
d="M500 248q-42 -115 -114 -185.5t-140 -70.5q-80 0 -123 73t-43 201q0 114 22.5 244t31 148t38.5 18q18 0 31 -13.5t13 -32.5l-2 -8q-44 -168 -44 -356q0 -186 76 -186q88 0 179 182.5t91 367.5v4q0 17 14 29.5t32 12.5q17 0 28.5 -12.5t11.5 -31.5q0 -132 -20 -379.5
t-72 -420.5q116 -69 116 -180q0 -18 -13 -31t-31 -13t-30 13t-12 31q0 63 -62 94q-68 -171 -198 -270.5t-264 -99.5q-85 0 -135.5 44.5t-50.5 125.5q0 141 146 238.5t322 97.5q73 0 128 -18q51 165 74 384zM28 -542q103 0 208 89t166 241q-44 12 -104 12q-136 0 -257 -75
t-121 -173q0 -43 31 -68.5t77 -25.5z" />
    <glyph glyph-name="z" unicode="z" horiz-adv-x="672" 
d="M434 574q-21 0 -123 11q-81 9 -95 9q-39 0 -50 -22q-12 -26 -40 -26q-18 0 -32 13t-14 31q0 26 35.5 57t100.5 31q15 0 101 -11q95 -13 113 -13q51 0 63 13t31 13q50 0 50 -44q0 -22 -10 -32q-103 -111 -212 -266q-94 -131 -202 -240q39 6 86 6q88 0 158 -14
q66 -14 100 -14q43 0 53.5 13.5t10.5 46.5q0 46 50 46q38 0 38 -56q0 -63 -42 -97.5t-110 -34.5q-21 0 -114 14q-125 20 -158 20q-73 0 -142 -22q-2 -2 -16 -2q-18 0 -31 12.5t-13 29.5q0 19 10 32q125 129 252 310q51 72 152 186z" />
    <glyph glyph-name="braceleft" unicode="{" horiz-adv-x="740" 
d="M680 -264h12q18 0 31 -12t13 -30q0 -52 -110 -52h-14q-135 0 -218.5 71t-83.5 201q0 57 40 204q36 126 36 212q0 82 -28 138q-72 -72 -164 -72q-96 0 -145 38t-49 100q0 55 56 98.5t144 43.5q87 0 148 -48q22 56 22 114q0 75 -22 174q-20 104 -20 172q0 119 83 189.5
t207 70.5q49 0 98.5 -18.5t49.5 -47.5q0 -19 -13 -32.5t-31 -13.5q-10 0 -22 6q-34 20 -82 20q-89 0 -145.5 -48.5t-56.5 -125.5q0 -52 20 -152q24 -116 24 -194q0 -99 -48 -188q64 -90 64 -224q0 -111 -40 -242q-36 -115 -36 -174q0 -186 212 -186q13 0 37 4q21 4 31 4z
M194 484q71 0 124 62q-49 44 -118 44q-50 0 -81 -18.5t-31 -37.5q0 -50 106 -50z" />
    <glyph glyph-name="bar" unicode="|" horiz-adv-x="444" 
d="M176 -500v2000h92v-2000h-92z" />
    <glyph glyph-name="braceright" unicode="}" horiz-adv-x="740" 
d="M306 546q-50 78 -50 190q0 96 26 200q18 69 18 144q0 86 -51 136t-135 50q-36 0 -58 -4l-38 -8q-44 0 -44 40q0 56 140 56q131 0 203.5 -74t72.5 -212q0 -32 -22 -146q-22 -119 -22 -182q0 -55 20 -112q64 54 154 54q83 0 131.5 -44t48.5 -104t-47.5 -100t-130.5 -40
q-94 0 -164 72q-30 -52 -30 -138q0 -41 32 -182q34 -140 34 -220q0 -135 -77 -207.5t-203 -72.5h-8q-126 0 -126 56q0 18 13 31t31 13q12 0 16 -2q42 -14 74 -14q87 0 138.5 49t51.5 143q0 80 -32 200q-32 128 -32 206q0 130 66 222zM520 594q-68 0 -118 -52q49 -66 120 -66
q40 0 65 15.5t25 38.5q0 25 -24 44.5t-68 19.5z" />
    <glyph glyph-name="asciitilde" unicode="~" 
d="M122 380l-60 56q79 142 198 142q74 0 186 -54q121 -56 160 -56q72 0 138 110l60 -58q-83 -140 -192 -140h-6q-81 2 -184 52q-116 56 -162 56q-73 0 -138 -108z" />
    <glyph glyph-name="uni00A0" unicode="&#xa0;" horiz-adv-x="340" 
 />
    <glyph glyph-name="exclamdown" unicode="&#xa1;" horiz-adv-x="556" 
d="M362 678l-9 -55q-3 -25 -17 -35t-34 -10h-6q-42 0 -42 44v6l9 60q3 21 16.5 31.5t32.5 10.5q22 0 36 -13.5t14 -32.5v-6zM228 -344q12 27 12 86q0 175 -13 336q-11 129 -11 192q0 72 23 139t59 67q17 0 29.5 -12.5t12.5 -29.5q0 -12 -4 -24q-30 -51 -30 -140
q0 -87 12 -259t12 -265q0 -85 -28 -148q58 -75 58 -172q0 -57 -12.5 -74.5t-35.5 -17.5q-40 0 -40 42q0 4 2 23q2 24 2 29q0 46 -16 84q-52 -84 -152 -84q-52 0 -87 34t-35 84q0 59 40 96.5t104 37.5q53 0 98 -24zM120 -488q54 0 88 60q-27 22 -78 22q-56 0 -56 -40
q0 -17 13 -29.5t33 -12.5z" />
    <glyph glyph-name="cent" unicode="&#xa2;" horiz-adv-x="900" 
d="M472 1082q22 138 36.5 172t43.5 34q18 0 31 -13t13 -31q0 -16 -8 -24q-6 -6 -26 -132q124 -6 194 -72.5t70 -163.5q0 -68 -42.5 -112t-95.5 -44q-49 0 -79.5 33.5t-30.5 62.5q0 18 13 32t31 14q32 0 42 -34q6 -22 24 -22t34 19.5t16 50.5q0 64 -51.5 108t-140.5 46
q-85 -682 -108 -802q74 0 135.5 30.5t94.5 81.5q12 18 38 18q42 0 42 -44q0 -40 -88 -104t-224 -64h-14q-29 -150 -47.5 -189t-46.5 -39q-44 0 -44 44q0 10 4 18q20 42 46 178q-272 64 -272 368q0 201 114 374t296 206zM352 214q27 163 60 423l46 359q-128 -31 -217 -180
t-89 -314q0 -243 200 -288z" />
    <glyph glyph-name="sterling" unicode="&#xa3;" horiz-adv-x="1144" 
d="M1084 216q14 -13 14 -52q0 -96 -67 -154t-177 -58q-80 0 -150 22.5t-141 68.5l-185 119q-96 -174 -256 -174q-69 0 -110.5 37.5t-41.5 98.5q0 71 57 130.5t173 59.5q68 0 136 -34q32 65 32 174q0 34 -2 46q-90 -16 -152 -16h-10q-94 0 -94 44q0 17 13.5 30.5t30.5 13.5
q5 0 30 -3t30 -3q43 0 146 16l-4 100q0 243 97 371.5t265 128.5q28 0 92 -16q65 50 148 50q98 0 98 -48q0 -40 -44 -40q-4 0 -19 3q-23 5 -33 5q-39 0 -70 -16q90 -70 90 -180q0 -62 -40 -108t-96 -46q-63 0 -105.5 44t-42.5 116q0 86 54 152q-13 2 -40 2
q-126 0 -197 -111.5t-71 -308.5q0 -28 4 -86q268 38 328 38q77 0 97.5 -12.5t20.5 -35.5q0 -18 -13 -30t-31 -12q-5 0 -34 3q-34 3 -40 3q-67 0 -320 -36q2 -15 2 -52q0 -121 -40 -220q58 -31 192 -120q125 -86 246 -86q154 0 154 130q0 3 -5 14q-7 16 -7 22q0 18 13.5 31
t32.5 13q34 0 42 -28zM822 1074q-40 -66 -40 -132q0 -33 17.5 -55.5t40.5 -22.5q24 0 41 21t17 53q0 35 -19 73.5t-57 62.5zM126 70q107 0 178 134q-47 28 -110 28q-62 0 -98 -32t-36 -72q0 -25 18.5 -41.5t47.5 -16.5z" />
    <glyph glyph-name="currency" unicode="&#xa4;" 
d="M44 164l140 140q-62 82 -62 184q0 107 62 182l-140 142l66 66l138 -142q87 64 186 64q102 0 182 -64l138 142l66 -66l-138 -142q60 -80 60 -182q0 -106 -60 -184l138 -140l-66 -66l-138 140q-73 -58 -182 -58q-114 0 -186 58l-138 -140zM656 488q0 91 -65 159.5
t-157 68.5q-93 0 -159.5 -68t-66.5 -160q0 -91 66 -157.5t160 -66.5q91 0 156.5 66.5t65.5 157.5z" />
    <glyph glyph-name="yen" unicode="&#xa5;" horiz-adv-x="1068" 
d="M602 490q14 -95 14 -164q0 -179 -41 -270.5t-115 -91.5q-128 0 -128 190q0 58 29 150t85 176q-100 -4 -148 -4q-101 0 -134.5 7.5t-33.5 38.5q0 18 14 31t32 13h8q37 -10 112 -10q68 0 210 8q-40 242 -130.5 371t-201.5 129q-46 0 -69 -26t-23 -64q0 -3 3 -23
q3 -15 3 -17q0 -20 -12 -33t-30 -13q-52 0 -52 86q0 74 50 123t130 49q146 0 253 -139t153 -397q46 62 208 212q98 88 125 136.5t27 93.5q0 42 -27 66t-71 24l-26 -2h-6q-36 0 -36 40q0 46 68 46q86 0 136 -45.5t50 -126.5q0 -79 -47.5 -145.5t-186.5 -189.5
q-117 -104 -150 -145q113 8 232 8h30q19 0 31.5 -13t12.5 -31q0 -36 -48 -36h-32q-58 0 -268 -12zM530 326q0 58 -8 136q-50 -78 -77 -162.5t-27 -147.5q0 -112 46 -112q29 0 47.5 75.5t18.5 210.5z" />
    <glyph glyph-name="brokenbar" unicode="&#xa6;" horiz-adv-x="444" 
d="M176 650v700h92v-700h-92zM176 -350v700h92v-700h-92z" />
    <glyph glyph-name="section" unicode="&#xa7;" horiz-adv-x="780" 
d="M630 198q50 -57 50 -170q0 -156 -99.5 -241t-232.5 -85q-115 0 -201.5 75t-86.5 179q0 80 52 144t130 64q54 0 95 -32.5t41 -75.5q0 -18 -16.5 -30t-33.5 -12q-22 0 -40 36q-15 34 -52 34q-34 0 -61 -36.5t-27 -87.5q0 -68 58 -122t148 -54q106 0 171 65.5t65 176.5
q0 165 -206 254q-129 55 -183.5 121.5t-54.5 162.5q0 99 84 182q-64 76 -64 168q0 111 90.5 195.5t213.5 84.5q106 0 173 -55.5t67 -144.5q0 -64 -45 -108t-93 -44h-2q-44 0 -44 40v6q0 12 10.5 22.5t23.5 11.5q25 2 43.5 21.5t18.5 48.5v2q0 50 -42.5 85t-115.5 35
q-83 0 -145.5 -57t-62.5 -135q0 -75 47.5 -131.5t172.5 -108.5q234 -97 234 -290q0 -105 -80 -194zM278 698q-46 -58 -46 -130q0 -129 166 -204q157 -71 184 -108q42 57 42 138q0 128 -168 206q-139 63 -178 98z" />
    <glyph glyph-name="dieresis" unicode="&#xa8;" horiz-adv-x="508" 
d="M184 948v-24l4 -28q0 -18 -13 -31t-31 -13q-23 0 -35.5 17.5t-12.5 86.5l-4 32q0 18 13 31t31 13q23 0 35.5 -16.5t12.5 -67.5zM400 948v-24l4 -28q0 -18 -13 -31t-31 -13q-23 0 -35.5 17.5t-12.5 86.5l-4 32q0 18 13 31t31 13q23 0 35.5 -16.5t12.5 -67.5z" />
    <glyph glyph-name="copyright" unicode="&#xa9;" horiz-adv-x="1480" 
d="M770 1338q283 0 456.5 -195t173.5 -477q0 -307 -181.5 -513.5t-488.5 -206.5q-289 0 -469.5 186.5t-180.5 493.5q0 301 190 506.5t500 205.5zM168 626q0 -272 155.5 -437t406.5 -165q268 0 425 185t157 457q0 247 -148.5 419.5t-393.5 172.5q-273 0 -437.5 -184
t-164.5 -448zM912 1036h-20q-39 0 -74 -50q85 -17 133.5 -72t48.5 -122q0 -56 -33 -90t-89 -34q-63 0 -114 63t-54 171q-89 -24 -143.5 -110.5t-54.5 -187.5q0 -113 56 -179.5t156 -66.5q60 0 110 23.5t76 62.5q11 16 36 16q38 0 38 -42q0 -37 -72.5 -89.5t-187.5 -52.5
q-136 0 -218 88.5t-82 239.5q0 138 82.5 251t219.5 131q25 63 70.5 98.5t95.5 35.5q66 0 66 -48q0 -36 -46 -36zM916 792q0 38 -32 71.5t-88 44.5q0 -69 27 -113.5t53 -44.5q40 0 40 42z" />
    <glyph glyph-name="ordfeminine" unicode="&#xaa;" horiz-adv-x="626" 
d="M492 794l8 -40q0 -19 -13 -31.5t-31 -12.5q-52 0 -52 86q0 43 16 136q20 145 20 180q0 98 -72 98q-77 0 -142.5 -110.5t-65.5 -221.5q0 -88 52 -88q29 0 53 27.5t31 60.5q7 34 40 34q17 0 28.5 -12.5t11.5 -31.5q0 -42 -47 -102t-123 -60q-60 0 -98 44.5t-38 127.5
q0 142 90 278t212 136q72 0 115 -48.5t43 -131.5q0 -52 -19 -175.5t-19 -142.5zM318 572l-114 2h-8l-54 -4h-8q-20 0 -33 12t-13 30q0 30 25 37t91 7h112q94 0 114 6q8 4 14 4q18 0 32 -13.5t14 -32.5q0 -25 -26 -36.5t-104 -11.5h-42z" />
    <glyph glyph-name="guillemotleft" unicode="&#xab;" horiz-adv-x="660" 
d="M498 364q90 -63 90 -92q0 -19 -13 -32.5t-31 -13.5q-21 0 -32 14l-36 28q-140 106 -157 121t-17 35q0 25 18 36q33 21 98 104q52 62 68.5 77t33.5 15q18 0 31 -12.5t13 -31.5q0 -12 -4.5 -19.5t-65.5 -77.5t-82 -91zM168 410q164 -100 164 -142q0 -18 -13.5 -31
t-32.5 -13q-20 0 -30 12q-67 67 -178 124q-26 15 -26 40q0 19 21 38t41 46l54 77q35 51 55 72t41 21q18 0 31 -13.5t13 -32.5q0 -18 -12 -30q-20 -22 -128 -168z" />
    <glyph glyph-name="logicalnot" unicode="&#xac;" 
d="M712 194v312h-644v84h728v-396h-84z" />
    <glyph glyph-name="uni00AD" unicode="&#xad;" horiz-adv-x="614" 
d="M342 432l-144 2h-20q-46 0 -58 -4q-4 -2 -14 -2q-16 0 -27 11.5t-11 28.5q0 27 19.5 39.5t84.5 12.5h26l144 -2h18q96 0 126 10q8 4 14 4q17 0 30.5 -13.5t13.5 -30.5q0 -56 -174 -56h-28z" />
    <glyph glyph-name="registered" unicode="&#xae;" horiz-adv-x="1032" 
d="M932 916q0 -191 -115.5 -321.5t-308.5 -130.5q-182 0 -295 117.5t-113 310.5q0 189 119.5 317.5t314.5 128.5q178 0 288 -122t110 -300zM184 892q0 -170 89.5 -263t234.5 -93q158 0 249 106t91 274q0 151 -86.5 250.5t-227.5 99.5q-160 0 -255 -106t-95 -268zM466 1072
q2 -24 2 -42q0 -41 -22 -142t-22 -118q0 -26 12 -62q2 -6 2 -18v-4q0 -26 -44 -26q-58 0 -58 110q0 42 22 130q18 78 18 124l-2 92q0 19 23 28.5t51 9.5h26q92 0 147 -40.5t55 -113.5q0 -81 -76 -110q40 -18 61 -93q19 -63 35 -77q10 -17 10 -32q0 -10 -14 -18t-32 -8
q-55 0 -76 86q-27 104 -80 104q-9 0 -18.5 11t-9.5 27q0 38 28 38q80 0 80 70q0 34 -33 54t-79 20h-6z" />
    <glyph glyph-name="macron" unicode="&#xaf;" horiz-adv-x="474" 
d="M240 936q35 0 65 4l75 12q17 0 30.5 -10.5t13.5 -21.5q0 -15 -9.5 -28.5t-66 -22.5t-108.5 -9l-148 8q-18 0 -31 10.5t-13 23.5q0 15 13 28.5t31 13.5z" />
    <glyph glyph-name="degree" unicode="&#xb0;" horiz-adv-x="480" 
d="M96 1026q0 72 51.5 123t124.5 51q71 0 121.5 -51t50.5 -123q0 -73 -50 -123.5t-122 -50.5q-73 0 -124.5 50.5t-51.5 123.5zM376 1026q0 44 -30.5 76t-73.5 32t-73.5 -32t-30.5 -76t30.5 -76t73.5 -32t73.5 32t30.5 76z" />
    <glyph glyph-name="plusminus" unicode="&#xb1;" 
d="M390 518v260h84v-260h322v-84h-322v-266h-84v266h-322v84h322zM68 14v84h728v-84h-728z" />
    <glyph glyph-name="two.superior" unicode="&#xb2;" horiz-adv-x="640" 
d="M276 1046q-8 13 -8 28q0 17 11 28.5t27 11.5q21 0 35.5 -20.5t14.5 -47.5q0 -45 -32.5 -79.5t-81.5 -34.5q-53 0 -91.5 38t-38.5 94q0 91 69 155.5t167 64.5q91 0 145.5 -56.5t54.5 -145.5q0 -80 -43 -173t-117 -165q57 -34 96 -34q80 0 80 86q0 42 36 42q38 0 38 -52
q0 -69 -43 -110.5t-111 -41.5q-78 0 -158 64q-83 -56 -158 -56q-53 0 -89.5 28t-36.5 72q0 49 38 83.5t92 34.5q63 0 152 -74q65 60 104.5 144.5t39.5 151.5q0 58 -31.5 92t-90.5 34q-68 0 -111 -41t-43 -103q0 -26 15 -41t35 -15q34 0 34 38zM168 720q49 0 92 24
q-50 42 -88 42q-52 0 -52 -40q0 -9 14 -17.5t34 -8.5z" />
    <glyph glyph-name="three.superior" unicode="&#xb3;" horiz-adv-x="540" 
d="M486 1002q50 -48 50 -138q0 -93 -75 -158.5t-195 -65.5q-100 0 -153 54.5t-53 133.5q0 15 11.5 26.5t26.5 11.5q17 0 28.5 -11t11.5 -27q0 -44 30 -79t98 -35q83 0 135.5 42.5t52.5 107.5q0 48 -16 72q-65 -60 -152 -60q-51 0 -84.5 28t-33.5 68q0 42 39 71t99 29
q67 0 116 -24q12 28 12 64q0 43 -27.5 70.5t-80.5 27.5q-37 0 -70 -20.5t-42 -55.5q-7 -30 -36 -30q-16 0 -28 12.5t-12 29.5q0 40 55 90t133 50q88 0 138 -48t50 -126q0 -58 -28 -110zM378 984q-33 14 -72 14q-60 0 -60 -26q0 -22 40 -22q50 0 92 34z" />
    <glyph glyph-name="acute" unicode="&#xb4;" horiz-adv-x="410" 
d="M54 822q0 13 5 21t86 73l153 124q3 1 8 2q12 4 16 4q36 0 36 -34q0 -19 -11.5 -33.5t-109 -90.5t-116 -89t-37.5 -13q-11 0 -20.5 11.5t-9.5 24.5z" />
    <glyph glyph-name="mu" unicode="&#xb5;" horiz-adv-x="764" 
d="M278 644v-6q-44 -281 -44 -376q0 -184 82 -184t157.5 145t122.5 401q7 38 40 38l10 -2q16 0 27 -12.5t11 -29.5q0 -2 -3 -21q-12 -77 -33.5 -193t-21.5 -218q0 -83 18 -122q6 -12 6 -20q0 -19 -13.5 -32.5t-32.5 -13.5q-59 0 -66 172q-90 -180 -222 -180q-92 0 -130 92
q-36 -225 -59.5 -308.5t-37 -108.5t-39.5 -25q-18 0 -31 13t-13 31q0 13 20.5 61.5t50.5 208t61.5 382t41.5 276t23.5 66t28.5 12.5q19 0 32.5 -14t13.5 -32z" />
    <glyph glyph-name="paragraph" unicode="&#xb6;" horiz-adv-x="1080" 
d="M644 1200q192 0 322 -63.5t130 -126.5q0 -18 -13.5 -32t-30.5 -14q-10 0 -58 48q-43 45 -135.5 75.5t-216.5 30.5q-195 0 -327.5 -97t-132.5 -237q0 -101 60 -163.5t150 -62.5q18 0 30 -11.5t12 -28.5q0 -42 -44 -42q-119 0 -208.5 84.5t-89.5 223.5q0 178 157 297
t395 119zM570 936q0 21 14 33.5t32 12.5q26 0 40 -25.5t14 -112.5q0 -94 -64 -384q-84 -372 -84 -564q0 -56 8 -80q6 -9 6 -20q0 -19 -13 -31.5t-31 -12.5q-60 0 -60 144q0 167 88 588q62 310 62 360q0 57 -6 71t-6 21zM810 896q0 21 14 33.5t32 12.5q26 0 40 -25.5
t14 -112.5q0 -62 -67 -400q-71 -363 -71 -508q0 -56 8 -80q6 -9 6 -20q0 -19 -13 -31.5t-31 -12.5q-60 0 -60 144q0 141 66 488q74 391 74 420q0 57 -6 71t-6 21z" />
    <glyph glyph-name="periodcentered" unicode="&#xb7;" horiz-adv-x="260" 
d="M92 462l7 58q3 26 16 36t33 10h10q18 0 30 -13t12 -31v-6l-9 -64q-3 -20 -17 -30t-34 -10q-48 0 -48 44v6z" />
    <glyph glyph-name="cedilla" unicode="&#xb8;" horiz-adv-x="486" 
d="M274 -92q112 -34 112 -136q0 -57 -50.5 -96.5t-107.5 -39.5q-43 0 -82.5 17t-39.5 43q0 19 11.5 31.5t28.5 12.5q18 0 28 -8q25 -20 62 -20q22 0 46 17t24 41q0 45 -58 72q-54 25 -54 60q0 15 13 37.5t85 92.5l68 -26z" />
    <glyph glyph-name="one.superior" unicode="&#xb9;" horiz-adv-x="520" 
d="M344 1038v-50l8 -204q0 -136 -66 -136q-16 0 -27 12.5t-11 29.5q0 9 8 27q16 35 16 67l-10 232q-82 -18 -174 -18q-40 0 -40 36q0 16 11.5 27t28.5 11q100 3 180 22q8 89 43.5 141.5t86.5 52.5q45 0 70.5 -25t25.5 -63q0 -111 -150 -162zM400 1210q-32 0 -50 -88
q66 33 66 76q0 12 -16 12z" />
    <glyph glyph-name="ordmasculine" unicode="&#xba;" horiz-adv-x="612" 
d="M352 1002q-56 0 -96 35.5t-40 88.5q0 69 43 118.5t109 49.5q80 0 130 -63.5t50 -164.5q0 -143 -79 -252.5t-195 -109.5q-87 0 -140.5 70.5t-53.5 185.5q0 40 11 99.5t26.5 66t24.5 6.5q19 0 31.5 -13t12.5 -31q0 -8 -2 -12q-14 -62 -14 -116q0 -80 27.5 -127t78.5 -47
q77 0 129.5 84t52.5 196q0 146 -90 146q-27 0 -45.5 -23.5t-18.5 -56.5q0 -48 58 -48q42 0 42 -40q0 -42 -52 -42zM342 560h-116l-60 -2h-8q-18 0 -31 12.5t-13 31.5q0 26 19.5 34t66.5 8h26l116 -2h14q68 0 98 10q12 4 14 4q19 0 31.5 -13.5t12.5 -32.5q0 -25 -25 -37.5
t-145 -12.5z" />
    <glyph glyph-name="guillemotright" unicode="&#xbb;" horiz-adv-x="660" 
d="M262 444q-80 84 -144 130q-20 17 -20 36t13.5 32.5t32.5 13.5q30 0 164 -133q34 -35 40 -39q18 -15 18 -36q0 -13 -6 -23.5t-66.5 -70t-105.5 -95t-68 -35.5q-19 0 -32.5 13.5t-13.5 32.5q0 27 26 40q62 30 162 134zM506 434q-12 15 -46 46q-55 53 -79.5 81.5t-24.5 44.5
q0 19 13 32.5t31 13.5q23 0 34 -14q22 -26 66 -70q108 -108 108 -140q0 -18 -21 -39.5t-133 -114.5q-37 -31 -46 -40q-12 -12 -30 -12q-19 0 -32.5 13t-13.5 31t18 34z" />
    <glyph glyph-name="onequarter" unicode="&#xbc;" horiz-adv-x="1440" 
d="M344 1038v-50l8 -204q0 -136 -66 -136q-16 0 -27 12.5t-11 29.5q0 9 8 27q16 35 16 67l-10 232q-82 -18 -174 -18q-40 0 -40 36q0 16 11.5 27t28.5 11q100 3 180 22q8 89 43.5 141.5t86.5 52.5q45 0 70.5 -25t25.5 -63q0 -111 -150 -162zM400 1210q-32 0 -50 -88
q66 33 66 76q0 12 -16 12zM272 12v10q39 154 150 362.5t308 543t209 345.5t29 11q13 0 23.5 -12.5t10.5 -29.5q0 -7 -4 -17t-71 -121l-153 -256q-235 -396 -319 -570.5t-109 -277.5q-7 -34 -38 -34q-15 0 -25.5 14.5t-10.5 31.5zM1134 -1h-2q-25 0 -36.5 14.5t-11.5 55.5
q0 8 10 98q-57 17 -186 66q-80 -70 -156 -70q-45 0 -71.5 29t-26.5 67q0 39 30.5 70.5t77.5 31.5q54 0 126 -34q52 47 85 108t33 110q0 21 -17.5 33.5t-34.5 12.5l-20 -2h-2q-20 0 -20 30q0 38 60 38q52 0 84 -31t32 -73q0 -125 -126 -258q87 -38 144 -52q56 233 56 274
q0 24 -2 28t-2 10q0 22 42 22q44 0 44 -54q0 -33 -58 -292q33 -6 62 -6q43 0 66 36q5 8 20 8q34 0 34 -32q0 -30 -32 -59t-88 -29q-32 0 -74 6q-6 -60 -6 -88q0 -30 4 -36q4 -8 4 -10q0 -22 -42 -22zM838 271q-34 20 -70 20q-7 0 -20.5 -9t-13.5 -27q0 -7 8.5 -13.5
t17.5 -6.5h4q30 0 74 36z" />
    <glyph glyph-name="onehalf" unicode="&#xbd;" horiz-adv-x="1300" 
d="M344 1038v-50l8 -204q0 -136 -66 -136q-16 0 -27 12.5t-11 29.5q0 9 8 27q16 35 16 67l-10 232q-82 -18 -174 -18q-40 0 -40 36q0 16 11.5 27t28.5 11q100 3 180 22q8 89 43.5 141.5t86.5 52.5q45 0 70.5 -25t25.5 -63q0 -111 -150 -162zM400 1210q-32 0 -50 -88
q66 33 66 76q0 12 -16 12zM240 12v10q39 154 150 362.5t308 543t209 345.5t29 11q13 0 23.5 -12.5t10.5 -29.5q0 -7 -4 -17t-71 -121l-153 -256q-235 -396 -319 -570.5t-109 -277.5q-7 -34 -38 -34q-15 0 -25.5 14.5t-10.5 31.5zM876 387q-8 13 -8 28q0 17 11 28.5t27 11.5
q21 0 35.5 -20.5t14.5 -47.5q0 -45 -32.5 -79.5t-81.5 -34.5q-53 0 -91.5 38t-38.5 94q0 91 69 155.5t167 64.5q91 0 145.5 -56.5t54.5 -145.5q0 -80 -43 -173t-117 -165q57 -34 96 -34q80 0 80 86q0 42 36 42q38 0 38 -52q0 -69 -43 -110.5t-111 -41.5q-78 0 -158 64
q-83 -56 -158 -56q-53 0 -89.5 28t-36.5 72q0 49 38 83.5t92 34.5q63 0 152 -74q65 60 104.5 144.5t39.5 151.5q0 58 -31.5 92t-90.5 34q-68 0 -111 -41t-43 -103q0 -26 15 -41t35 -15q34 0 34 38zM768 61q49 0 92 24q-50 42 -88 42q-52 0 -52 -40q0 -9 14 -17.5t34 -8.5z
" />
    <glyph glyph-name="threequarters" unicode="&#xbe;" horiz-adv-x="1440" 
d="M486 1002q50 -48 50 -138q0 -93 -75 -158.5t-195 -65.5q-100 0 -153 54.5t-53 133.5q0 15 11.5 26.5t26.5 11.5q17 0 28.5 -11t11.5 -27q0 -44 30 -79t98 -35q83 0 135.5 42.5t52.5 107.5q0 48 -16 72q-65 -60 -152 -60q-51 0 -84.5 28t-33.5 68q0 42 39 71t99 29
q67 0 116 -24q12 28 12 64q0 43 -27.5 70.5t-80.5 27.5q-37 0 -70 -20.5t-42 -55.5q-7 -30 -36 -30q-16 0 -28 12.5t-12 29.5q0 40 55 90t133 50q88 0 138 -48t50 -126q0 -58 -28 -110zM378 984q-33 14 -72 14q-60 0 -60 -26q0 -22 40 -22q50 0 92 34zM312 12v10
q39 154 150 362.5t308 543t209 345.5t29 11q13 0 23.5 -12.5t10.5 -29.5q0 -7 -4 -17t-71 -121l-153 -256q-235 -396 -319 -570.5t-109 -277.5q-7 -34 -38 -34q-15 0 -25.5 14.5t-10.5 31.5zM1134 -5h-2q-25 0 -36.5 14.5t-11.5 55.5q0 8 10 98q-57 17 -186 66
q-80 -70 -156 -70q-45 0 -71.5 29t-26.5 67q0 39 30.5 70.5t77.5 31.5q54 0 126 -34q52 47 85 108t33 110q0 21 -17.5 33.5t-34.5 12.5l-20 -2h-2q-20 0 -20 30q0 38 60 38q52 0 84 -31t32 -73q0 -125 -126 -258q87 -38 144 -52q56 233 56 274q0 24 -2 28t-2 10q0 22 42 22
q44 0 44 -54q0 -33 -58 -292q33 -6 62 -6q43 0 66 36q5 8 20 8q34 0 34 -32q0 -30 -32 -59t-88 -29q-32 0 -74 6q-6 -60 -6 -88q0 -30 4 -36q4 -8 4 -10q0 -22 -42 -22zM838 267q-34 20 -70 20q-7 0 -20.5 -9t-13.5 -27q0 -7 8.5 -13.5t17.5 -6.5h4q30 0 74 36z" />
    <glyph glyph-name="questiondown" unicode="&#xbf;" horiz-adv-x="850" 
d="M558 -535q-82 -46 -176 -46q-150 0 -239 79.5t-89 208.5q0 106 50.5 199t203.5 203q86 62 117 108t31 96q0 32 -13.5 60t-26.5 38q-14 18 -14 34q0 18 13 31t31 13q33 0 65.5 -56t32.5 -120q0 -69 -40 -132.5t-162 -151.5q-116 -84 -157 -159.5t-41 -164.5t66.5 -147.5
t181.5 -58.5q39 0 72 8q-96 58 -96 182q0 80 48 130t112 50q67 0 115.5 -49t48.5 -131q0 -91 -62 -152h10q39 0 74.5 19.5t49.5 42.5q19 32 40 32q46 0 46 -42q0 -43 -67.5 -87.5t-160.5 -44.5q-41 0 -64 8zM456 -311q0 -97 84 -144q64 56 64 144q0 47 -22.5 72.5
t-57.5 25.5q-27 0 -47.5 -26.5t-20.5 -71.5zM510 677q0 -14 -10 -64q-3 -11 -9.5 -19t-16.5 -12.5t-22 -4.5h-10q-18 0 -30 14.5t-12 31.5v4l11 63q4 19 17 30t30 11q23 0 37.5 -13.5t14.5 -32.5v-8z" />
    <glyph glyph-name="Agrave" unicode="&#xc0;" horiz-adv-x="1324" 
d="M982 728q137 -79 209.5 -199t72.5 -257q0 -149 -68 -226.5t-158 -77.5q-178 0 -178 314q0 81 30 400q-139 66 -320 66q-78 0 -168 -14q-49 -172 -60 -356h12q105 0 178.5 46.5t73.5 117.5q0 44 42 44q18 0 31 -12.5t13 -31.5q0 -106 -97.5 -176t-242.5 -70h-12
q0 -177 44 -238q12 -20 12 -28q0 -18 -13.5 -31t-32.5 -13q-42 0 -70 83t-28 223v14q-104 22 -158 79t-54 137q0 94 75.5 167.5t216.5 112.5q74 232 179.5 355t232.5 123q120 0 183 -92.5t63 -301.5q0 -84 -8 -158zM896 770q6 60 6 118q0 158 -38 234t-120 76
q-178 0 -310 -376q70 10 136 10q174 0 326 -62zM308 708q-178 -68 -178 -186q0 -99 124 -134q7 144 54 320zM976 636q-28 -268 -28 -354q0 -234 94 -234q59 0 96.5 63.5t37.5 160.5q0 224 -200 364zM528 1582q0 17 13.5 30.5t32.5 13.5q15 0 34 -13t72.5 -42t107.5 -68.5
t64 -52t10 -28.5q0 -11 -14 -22.5t-32 -11.5t-28 10q-59 52 -174 116q-59 34 -72.5 44.5t-13.5 23.5z" />
    <glyph glyph-name="Aacute" unicode="&#xc1;" horiz-adv-x="1324" 
d="M982 728q137 -79 209.5 -199t72.5 -257q0 -149 -68 -226.5t-158 -77.5q-178 0 -178 314q0 81 30 400q-139 66 -320 66q-78 0 -168 -14q-49 -172 -60 -356h12q105 0 178.5 46.5t73.5 117.5q0 44 42 44q18 0 31 -12.5t13 -31.5q0 -106 -97.5 -176t-242.5 -70h-12
q0 -177 44 -238q12 -20 12 -28q0 -18 -13.5 -31t-32.5 -13q-42 0 -70 83t-28 223v14q-104 22 -158 79t-54 137q0 94 75.5 167.5t216.5 112.5q74 232 179.5 355t232.5 123q120 0 183 -92.5t63 -301.5q0 -84 -8 -158zM896 770q6 60 6 118q0 158 -38 234t-120 76
q-178 0 -310 -376q70 10 136 10q174 0 326 -62zM308 708q-178 -68 -178 -186q0 -99 124 -134q7 144 54 320zM976 636q-28 -268 -28 -354q0 -234 94 -234q59 0 96.5 63.5t37.5 160.5q0 224 -200 364zM689 1423q0 19 10.5 29.5t75.5 48.5q123 68 174 116q11 10 28 10
q18 0 32 -11.5t14 -22.5q0 -15 -9.5 -27.5t-61 -50t-111.5 -71.5t-76.5 -44.5t-29.5 -10.5q-18 0 -32 12t-14 22z" />
    <glyph glyph-name="Acircumflex" unicode="&#xc2;" horiz-adv-x="1324" 
d="M982 728q137 -79 209.5 -199t72.5 -257q0 -149 -68 -226.5t-158 -77.5q-178 0 -178 314q0 81 30 400q-139 66 -320 66q-78 0 -168 -14q-49 -172 -60 -356h12q105 0 178.5 46.5t73.5 117.5q0 44 42 44q18 0 31 -12.5t13 -31.5q0 -106 -97.5 -176t-242.5 -70h-12
q0 -177 44 -238q12 -20 12 -28q0 -18 -13.5 -31t-32.5 -13q-42 0 -70 83t-28 223v14q-104 22 -158 79t-54 137q0 94 75.5 167.5t216.5 112.5q74 232 179.5 355t232.5 123q120 0 183 -92.5t63 -301.5q0 -84 -8 -158zM896 770q6 60 6 118q0 158 -38 234t-120 76
q-178 0 -310 -376q70 10 136 10q174 0 326 -62zM308 708q-178 -68 -178 -186q0 -99 124 -134q7 144 54 320zM976 636q-28 -268 -28 -354q0 -234 94 -234q59 0 96.5 63.5t37.5 160.5q0 224 -200 364zM764 1532q-80 -42 -160 -96q-9 -6 -24 -6q-18 0 -32 11.5t-14 22.5
q0 19 17 33.5t110 66.5t107 52q18 0 30 -12q119 -96 156 -120q22 -13 22 -38q0 -11 -14 -22.5t-32 -11.5q-27 0 -166 120z" />
    <glyph glyph-name="Atilde" unicode="&#xc3;" horiz-adv-x="1324" 
d="M982 728q137 -79 209.5 -199t72.5 -257q0 -149 -68 -226.5t-158 -77.5q-178 0 -178 314q0 81 30 400q-139 66 -320 66q-78 0 -168 -14q-49 -172 -60 -356h12q105 0 178.5 46.5t73.5 117.5q0 44 42 44q18 0 31 -12.5t13 -31.5q0 -106 -97.5 -176t-242.5 -70h-12
q0 -177 44 -238q12 -20 12 -28q0 -18 -13.5 -31t-32.5 -13q-42 0 -70 83t-28 223v14q-104 22 -158 79t-54 137q0 94 75.5 167.5t216.5 112.5q74 232 179.5 355t232.5 123q120 0 183 -92.5t63 -301.5q0 -84 -8 -158zM896 770q6 60 6 118q0 158 -38 234t-120 76
q-178 0 -310 -376q70 10 136 10q174 0 326 -62zM308 708q-178 -68 -178 -186q0 -99 124 -134q7 144 54 320zM976 636q-28 -268 -28 -354q0 -234 94 -234q59 0 96.5 63.5t37.5 160.5q0 224 -200 364zM473 1454q0 29 46.5 69.5t111.5 40.5q63 0 114 -30q66 -38 94 -38
q46 0 66 42q10 24 36 24q34 0 34 -44q0 -28 -38.5 -62t-97.5 -34q-74 0 -134 44q-33 24 -74 24q-56 0 -86 -58q-13 -22 -36 -22q-13 0 -24.5 13.5t-11.5 30.5z" />
    <glyph glyph-name="Adieresis" unicode="&#xc4;" horiz-adv-x="1324" 
d="M982 728q137 -79 209.5 -199t72.5 -257q0 -149 -68 -226.5t-158 -77.5q-178 0 -178 314q0 81 30 400q-139 66 -320 66q-78 0 -168 -14q-49 -172 -60 -356h12q105 0 178.5 46.5t73.5 117.5q0 44 42 44q18 0 31 -12.5t13 -31.5q0 -106 -97.5 -176t-242.5 -70h-12
q0 -177 44 -238q12 -20 12 -28q0 -18 -13.5 -31t-32.5 -13q-42 0 -70 83t-28 223v14q-104 22 -158 79t-54 137q0 94 75.5 167.5t216.5 112.5q74 232 179.5 355t232.5 123q120 0 183 -92.5t63 -301.5q0 -84 -8 -158zM896 770q6 60 6 118q0 158 -38 234t-120 76
q-178 0 -310 -376q70 10 136 10q174 0 326 -62zM308 708q-178 -68 -178 -186q0 -99 124 -134q7 144 54 320zM976 636q-28 -268 -28 -354q0 -234 94 -234q59 0 96.5 63.5t37.5 160.5q0 224 -200 364zM672 1548v-24l4 -28q0 -18 -13 -31t-31 -13q-23 0 -35.5 17.5t-12.5 86.5
l-4 32q0 18 13 31t31 13q23 0 35.5 -16.5t12.5 -67.5zM888 1548v-24l4 -28q0 -18 -13 -31t-31 -13q-23 0 -35.5 17.5t-12.5 86.5l-4 32q0 18 13 31t31 13q23 0 35.5 -16.5t12.5 -67.5z" />
    <glyph glyph-name="Aring" unicode="&#xc5;" horiz-adv-x="1324" 
d="M982 728q137 -79 209.5 -199t72.5 -257q0 -149 -68 -226.5t-158 -77.5q-178 0 -178 314q0 81 30 400q-139 66 -320 66q-78 0 -168 -14q-49 -172 -60 -356h12q105 0 178.5 46.5t73.5 117.5q0 44 42 44q18 0 31 -12.5t13 -31.5q0 -106 -97.5 -176t-242.5 -70h-12
q0 -177 44 -238q12 -20 12 -28q0 -18 -13.5 -31t-32.5 -13q-42 0 -70 83t-28 223v14q-104 22 -158 79t-54 137q0 94 75.5 167.5t216.5 112.5q74 232 179.5 355t232.5 123q120 0 183 -92.5t63 -301.5q0 -84 -8 -158zM896 770q6 60 6 118q0 158 -38 234t-120 76
q-178 0 -310 -376q70 10 136 10q174 0 326 -62zM308 708q-178 -68 -178 -186q0 -99 124 -134q7 144 54 320zM976 636q-28 -268 -28 -354q0 -234 94 -234q59 0 96.5 63.5t37.5 160.5q0 224 -200 364zM665 1538q0 -35 27 -54.5t67 -19.5q41 0 66.5 27.5t25.5 68.5
q0 17 -14 35.5t-40 18.5q-18 0 -32 11.5t-14 26.5q0 36 44 36q59 0 97.5 -37.5t38.5 -90.5q0 -69 -51 -120.5t-121 -51.5q-78 0 -125 42t-47 106q0 49 32 91.5t62 42.5q46 0 46 -34q0 -19 -28 -36q-9 -6 -21.5 -26t-12.5 -36z" />
    <glyph glyph-name="AE" unicode="&#xc6;" horiz-adv-x="2154" 
d="M942 710l22 -22q206 71 402 186q9 169 102.5 290.5t209.5 121.5q126 0 126 -118q0 -144 -348 -340q3 -35 16 -70q109 48 232 48q115 0 176.5 -45.5t61.5 -114.5q0 -59 -55 -101.5t-135 -42.5q-199 0 -312 140q-130 -95 -130 -246q0 -143 100 -230q62 87 177 137.5
t213 50.5q134 0 206 -54t72 -136q0 -87 -76 -142.5t-210 -55.5q-207 0 -362 84q-27 -41 -39.5 -94t-12.5 -88l2 -30v-2q0 -42 -46 -42q-42 0 -42 68v8q0 117 66 226q-136 114 -136 300q0 200 174 318q-9 21 -22 72q-156 -89 -360 -162q110 -159 110 -370q0 -286 -156 -286
q-65 0 -106.5 73t-41.5 241q0 108 18 280q-189 -64 -358 -64h-44q-65 0 -120 10q-16 -113 -16 -206v-12q0 -176 46 -232q10 -13 10 -28q0 -18 -13.5 -31t-32.5 -13q-42 0 -70 86t-28 230q0 120 18 220q-188 49 -188 184q0 78 79.5 144.5t216.5 79.5q150 350 368 350
q118 0 181 -90.5t63 -303.5q0 -94 -8 -176zM1678 1204q-69 0 -135 -79.5t-83 -202.5q116 68 185 136t69 106q0 40 -36 40zM862 886q0 169 -39.5 238.5t-122.5 69.5q-148 0 -268 -266q245 -14 426 -144q4 67 4 96v6zM400 848q-44 -114 -70 -260q60 -10 150 -10q178 0 366 66
q2 8 2 44q-176 155 -448 160zM308 844q-85 -15 -130.5 -52.5t-45.5 -83.5q0 -77 112 -104q20 125 64 240zM1510 682q46 -49 112.5 -73.5t129.5 -24.5q42 0 70 19t28 43q0 78 -146 78q-101 0 -194 -42zM930 592q-22 -239 -22 -310q0 -109 19.5 -168.5t44.5 -59.5q62 0 62 200
q0 196 -100 340q-2 0 -4 -2zM1478 122q123 -74 314 -74q91 0 143.5 31t52.5 85q0 46 -50 77t-138 31q-87 0 -174 -38.5t-148 -111.5z" />
    <glyph glyph-name="Ccedilla" unicode="&#xc7;" horiz-adv-x="1202" 
d="M558 -98q108 -44 108 -140q0 -62 -53 -104t-125 -42q-51 0 -87.5 19t-36.5 51q0 12 10.5 23t21.5 11q15 0 28 -8q32 -20 62 -20q100 0 100 70q0 19 -11.5 35t-56.5 37q-44 20 -44 58q0 11 66 88q-219 35 -340.5 197.5t-121.5 396.5q0 261 154.5 458.5t409.5 227.5
q39 94 117.5 145t172.5 51q114 0 114 -54q0 -40 -44 -40q-5 0 -32 4q-32 4 -38 4q-128 0 -188 -108q186 -12 293 -115t107 -239q0 -91 -56.5 -149.5t-151.5 -58.5q-122 0 -222 116.5t-100 303.5q0 21 4 52q-208 -41 -330 -211.5t-122 -386.5q0 -223 125.5 -369.5
t346.5 -146.5q271 0 394 180q13 20 38 20q17 0 29.5 -13.5t12.5 -32.5q0 -24 -57.5 -86.5t-166.5 -108t-250 -45.5h-12zM710 1180q-6 -27 -6 -60q0 -151 75.5 -242.5t156.5 -91.5q116 0 116 122q0 107 -91.5 186.5t-250.5 85.5z" />
    <glyph glyph-name="Egrave" unicode="&#xc8;" horiz-adv-x="1046" 
d="M238 264q152 90 366 90q155 0 260.5 -64.5t105.5 -163.5q0 -79 -70.5 -129.5t-207.5 -50.5q-148 0 -274.5 48.5t-203.5 139.5q-64 -65 -70 -160q-4 -42 -44 -42q-18 0 -31 13t-13 31q0 131 108 236q-44 97 -44 192q0 215 164 350q-20 57 -20 114q0 184 150 306
q-38 67 -38 136q0 19 13 32.5t33 13.5q17 0 29.5 -13.5t12.5 -32.5q0 -46 24 -94q88 42 194 42q113 0 180.5 -45.5t67.5 -116.5q0 -57 -44 -94.5t-112 -37.5q-75 0 -160.5 37.5t-149.5 104.5q-110 -92 -110 -238q0 -36 8 -62q103 54 226 54q135 0 221.5 -54t86.5 -136
q0 -46 -25 -84.5t-75 -59t-124 -20.5q-235 0 -350 168q-112 -103 -112 -270q0 -66 28 -140zM682 1176q-80 0 -144 -28q51 -47 117.5 -75.5t118.5 -28.5q27 0 47.5 14.5t20.5 37.5q0 35 -44.5 57.5t-115.5 22.5zM390 724q100 -136 280 -136q138 0 138 80q0 43 -64 75.5
t-158 32.5q-128 0 -196 -52zM280 188q65 -77 175.5 -119.5t236.5 -42.5q86 0 137 28.5t51 71.5q0 59 -82.5 102.5t-193.5 43.5q-191 0 -324 -84zM398 1582q0 17 13.5 30.5t32.5 13.5q15 0 34 -13t72.5 -42t107.5 -68.5t64 -52t10 -28.5q0 -11 -14 -22.5t-32 -11.5t-28 10
q-59 52 -174 116q-59 34 -72.5 44.5t-13.5 23.5z" />
    <glyph glyph-name="Eacute" unicode="&#xc9;" horiz-adv-x="1046" 
d="M238 264q152 90 366 90q155 0 260.5 -64.5t105.5 -163.5q0 -79 -70.5 -129.5t-207.5 -50.5q-148 0 -274.5 48.5t-203.5 139.5q-64 -65 -70 -160q-4 -42 -44 -42q-18 0 -31 13t-13 31q0 131 108 236q-44 97 -44 192q0 215 164 350q-20 57 -20 114q0 184 150 306
q-38 67 -38 136q0 19 13 32.5t33 13.5q17 0 29.5 -13.5t12.5 -32.5q0 -46 24 -94q88 42 194 42q113 0 180.5 -45.5t67.5 -116.5q0 -57 -44 -94.5t-112 -37.5q-75 0 -160.5 37.5t-149.5 104.5q-110 -92 -110 -238q0 -36 8 -62q103 54 226 54q135 0 221.5 -54t86.5 -136
q0 -46 -25 -84.5t-75 -59t-124 -20.5q-235 0 -350 168q-112 -103 -112 -270q0 -66 28 -140zM682 1176q-80 0 -144 -28q51 -47 117.5 -75.5t118.5 -28.5q27 0 47.5 14.5t20.5 37.5q0 35 -44.5 57.5t-115.5 22.5zM390 724q100 -136 280 -136q138 0 138 80q0 43 -64 75.5
t-158 32.5q-128 0 -196 -52zM280 188q65 -77 175.5 -119.5t236.5 -42.5q86 0 137 28.5t51 71.5q0 59 -82.5 102.5t-193.5 43.5q-191 0 -324 -84zM629 1423q0 19 10.5 29.5t75.5 48.5q123 68 174 116q11 10 28 10q18 0 32 -11.5t14 -22.5q0 -15 -9.5 -27.5t-61 -50
t-111.5 -71.5t-76.5 -44.5t-29.5 -10.5q-18 0 -32 12t-14 22z" />
    <glyph glyph-name="Ecircumflex" unicode="&#xca;" horiz-adv-x="1046" 
d="M238 264q152 90 366 90q155 0 260.5 -64.5t105.5 -163.5q0 -79 -70.5 -129.5t-207.5 -50.5q-148 0 -274.5 48.5t-203.5 139.5q-64 -65 -70 -160q-4 -42 -44 -42q-18 0 -31 13t-13 31q0 131 108 236q-44 97 -44 192q0 215 164 350q-20 57 -20 114q0 184 150 306
q-38 67 -38 136q0 19 13 32.5t33 13.5q17 0 29.5 -13.5t12.5 -32.5q0 -46 24 -94q88 42 194 42q113 0 180.5 -45.5t67.5 -116.5q0 -57 -44 -94.5t-112 -37.5q-75 0 -160.5 37.5t-149.5 104.5q-110 -92 -110 -238q0 -36 8 -62q103 54 226 54q135 0 221.5 -54t86.5 -136
q0 -46 -25 -84.5t-75 -59t-124 -20.5q-235 0 -350 168q-112 -103 -112 -270q0 -66 28 -140zM682 1176q-80 0 -144 -28q51 -47 117.5 -75.5t118.5 -28.5q27 0 47.5 14.5t20.5 37.5q0 35 -44.5 57.5t-115.5 22.5zM390 724q100 -136 280 -136q138 0 138 80q0 43 -64 75.5
t-158 32.5q-128 0 -196 -52zM280 188q65 -77 175.5 -119.5t236.5 -42.5q86 0 137 28.5t51 71.5q0 59 -82.5 102.5t-193.5 43.5q-191 0 -324 -84zM667 1532q-80 -42 -160 -96q-9 -6 -24 -6q-18 0 -32 11.5t-14 22.5q0 19 17 33.5t110 66.5t107 52q18 0 30 -12
q119 -96 156 -120q22 -13 22 -38q0 -11 -14 -22.5t-32 -11.5q-27 0 -166 120z" />
    <glyph glyph-name="Edieresis" unicode="&#xcb;" horiz-adv-x="1046" 
d="M238 264q152 90 366 90q155 0 260.5 -64.5t105.5 -163.5q0 -79 -70.5 -129.5t-207.5 -50.5q-148 0 -274.5 48.5t-203.5 139.5q-64 -65 -70 -160q-4 -42 -44 -42q-18 0 -31 13t-13 31q0 131 108 236q-44 97 -44 192q0 215 164 350q-20 57 -20 114q0 184 150 306
q-38 67 -38 136q0 19 13 32.5t33 13.5q17 0 29.5 -13.5t12.5 -32.5q0 -46 24 -94q88 42 194 42q113 0 180.5 -45.5t67.5 -116.5q0 -57 -44 -94.5t-112 -37.5q-75 0 -160.5 37.5t-149.5 104.5q-110 -92 -110 -238q0 -36 8 -62q103 54 226 54q135 0 221.5 -54t86.5 -136
q0 -46 -25 -84.5t-75 -59t-124 -20.5q-235 0 -350 168q-112 -103 -112 -270q0 -66 28 -140zM682 1176q-80 0 -144 -28q51 -47 117.5 -75.5t118.5 -28.5q27 0 47.5 14.5t20.5 37.5q0 35 -44.5 57.5t-115.5 22.5zM390 724q100 -136 280 -136q138 0 138 80q0 43 -64 75.5
t-158 32.5q-128 0 -196 -52zM280 188q65 -77 175.5 -119.5t236.5 -42.5q86 0 137 28.5t51 71.5q0 59 -82.5 102.5t-193.5 43.5q-191 0 -324 -84zM575 1548v-24l4 -28q0 -18 -13 -31t-31 -13q-23 0 -35.5 17.5t-12.5 86.5l-4 32q0 18 13 31t31 13q23 0 35.5 -16.5t12.5 -67.5
zM791 1548v-24l4 -28q0 -18 -13 -31t-31 -13q-23 0 -35.5 17.5t-12.5 86.5l-4 32q0 18 13 31t31 13q23 0 35.5 -16.5t12.5 -67.5z" />
    <glyph glyph-name="Igrave" unicode="&#xcc;" horiz-adv-x="882" 
d="M480 966q-57 -10 -112 -10q-127 0 -195.5 46.5t-68.5 121.5q0 62 57.5 104t140.5 42q92 0 160 -51.5t94 -150.5q173 44 186 176q1 16 14.5 28t29.5 12q19 0 31.5 -13.5t12.5 -32.5v-4q-7 -88 -72 -154t-190 -96l2 -40q0 -119 -84 -358q-76 -208 -80 -294q67 12 106 12
q147 0 228.5 -53.5t81.5 -136.5q0 -73 -63.5 -118.5t-172.5 -45.5q-108 0 -182 62.5t-88 171.5q-91 -26 -155.5 -88.5t-76.5 -135.5q-7 -36 -42 -36q-42 0 -42 44q0 61 75.5 158.5t238.5 143.5q0 113 86 348q54 145 67 209.5t13 114.5v24zM468 1046q-34 142 -166 142
q-48 0 -78 -17.5t-30 -46.5q0 -38 48.5 -62t125.5 -24q49 0 100 8zM406 208q7 -82 57 -129t125 -47q66 0 105 22.5t39 61.5q0 46 -61.5 77t-150.5 31q-41 0 -114 -16zM246 1582q0 17 13.5 30.5t32.5 13.5q15 0 34 -13t72.5 -42t107.5 -68.5t64 -52t10 -28.5q0 -11 -14 -22.5
t-32 -11.5t-28 10q-59 52 -174 116q-59 34 -72.5 44.5t-13.5 23.5z" />
    <glyph glyph-name="Iacute" unicode="&#xcd;" horiz-adv-x="882" 
d="M480 966q-57 -10 -112 -10q-127 0 -195.5 46.5t-68.5 121.5q0 62 57.5 104t140.5 42q92 0 160 -51.5t94 -150.5q173 44 186 176q1 16 14.5 28t29.5 12q19 0 31.5 -13.5t12.5 -32.5v-4q-7 -88 -72 -154t-190 -96l2 -40q0 -119 -84 -358q-76 -208 -80 -294q67 12 106 12
q147 0 228.5 -53.5t81.5 -136.5q0 -73 -63.5 -118.5t-172.5 -45.5q-108 0 -182 62.5t-88 171.5q-91 -26 -155.5 -88.5t-76.5 -135.5q-7 -36 -42 -36q-42 0 -42 44q0 61 75.5 158.5t238.5 143.5q0 113 86 348q54 145 67 209.5t13 114.5v24zM468 1046q-34 142 -166 142
q-48 0 -78 -17.5t-30 -46.5q0 -38 48.5 -62t125.5 -24q49 0 100 8zM406 208q7 -82 57 -129t125 -47q66 0 105 22.5t39 61.5q0 46 -61.5 77t-150.5 31q-41 0 -114 -16zM467 1423q0 19 10.5 29.5t75.5 48.5q123 68 174 116q11 10 28 10q18 0 32 -11.5t14 -22.5
q0 -15 -9.5 -27.5t-61 -50t-111.5 -71.5t-76.5 -44.5t-29.5 -10.5q-18 0 -32 12t-14 22z" />
    <glyph glyph-name="Icircumflex" unicode="&#xce;" horiz-adv-x="882" 
d="M480 966q-57 -10 -112 -10q-127 0 -195.5 46.5t-68.5 121.5q0 62 57.5 104t140.5 42q92 0 160 -51.5t94 -150.5q173 44 186 176q1 16 14.5 28t29.5 12q19 0 31.5 -13.5t12.5 -32.5v-4q-7 -88 -72 -154t-190 -96l2 -40q0 -119 -84 -358q-76 -208 -80 -294q67 12 106 12
q147 0 228.5 -53.5t81.5 -136.5q0 -73 -63.5 -118.5t-172.5 -45.5q-108 0 -182 62.5t-88 171.5q-91 -26 -155.5 -88.5t-76.5 -135.5q-7 -36 -42 -36q-42 0 -42 44q0 61 75.5 158.5t238.5 143.5q0 113 86 348q54 145 67 209.5t13 114.5v24zM468 1046q-34 142 -166 142
q-48 0 -78 -17.5t-30 -46.5q0 -38 48.5 -62t125.5 -24q49 0 100 8zM406 208q7 -82 57 -129t125 -47q66 0 105 22.5t39 61.5q0 46 -61.5 77t-150.5 31q-41 0 -114 -16zM505 1532q-80 -42 -160 -96q-9 -6 -24 -6q-18 0 -32 11.5t-14 22.5q0 19 17 33.5t110 66.5t107 52
q18 0 30 -12q119 -96 156 -120q22 -13 22 -38q0 -11 -14 -22.5t-32 -11.5q-27 0 -166 120z" />
    <glyph glyph-name="Idieresis" unicode="&#xcf;" horiz-adv-x="882" 
d="M480 966q-57 -10 -112 -10q-127 0 -195.5 46.5t-68.5 121.5q0 62 57.5 104t140.5 42q92 0 160 -51.5t94 -150.5q173 44 186 176q1 16 14.5 28t29.5 12q19 0 31.5 -13.5t12.5 -32.5v-4q-7 -88 -72 -154t-190 -96l2 -40q0 -119 -84 -358q-76 -208 -80 -294q67 12 106 12
q147 0 228.5 -53.5t81.5 -136.5q0 -73 -63.5 -118.5t-172.5 -45.5q-108 0 -182 62.5t-88 171.5q-91 -26 -155.5 -88.5t-76.5 -135.5q-7 -36 -42 -36q-42 0 -42 44q0 61 75.5 158.5t238.5 143.5q0 113 86 348q54 145 67 209.5t13 114.5v24zM468 1046q-34 142 -166 142
q-48 0 -78 -17.5t-30 -46.5q0 -38 48.5 -62t125.5 -24q49 0 100 8zM406 208q7 -82 57 -129t125 -47q66 0 105 22.5t39 61.5q0 46 -61.5 77t-150.5 31q-41 0 -114 -16zM443 1548v-24l4 -28q0 -18 -13 -31t-31 -13q-23 0 -35.5 17.5t-12.5 86.5l-4 32q0 18 13 31t31 13
q23 0 35.5 -16.5t12.5 -67.5zM659 1548v-24l4 -28q0 -18 -13 -31t-31 -13q-23 0 -35.5 17.5t-12.5 86.5l-4 32q0 18 13 31t31 13q23 0 35.5 -16.5t12.5 -67.5z" />
    <glyph glyph-name="Eth" unicode="&#xd0;" horiz-adv-x="1204" 
d="M304 694q-105 7 -174.5 74t-69.5 160q0 142 149.5 242t352.5 100q296 0 452 -145t156 -393q0 -178 -85.5 -361t-228.5 -291t-310 -108q-131 0 -196.5 100t-65.5 354v26q-110 -18 -152 -18q-50 0 -50 40q0 42 50 42q49 0 156 20q5 92 16 158zM372 470v-44q0 -372 176 -372
q218 0 375 219.5t157 458.5q0 213 -131.5 334.5t-390.5 121.5q-167 0 -287.5 -78.5t-120.5 -181.5q0 -131 166 -152q7 53 27.5 147.5t25 109t16 23t25.5 8.5q17 0 29.5 -12t12.5 -26t-2 -20q-19 -81 -46 -238q100 5 159.5 51.5t62.5 102.5q2 17 15 28.5t31 11.5t31 -13
t13 -31q0 -78 -82.5 -152.5t-241.5 -79.5q-14 -86 -14 -130q289 52 328 52q42 0 42 -44q0 -38 -42 -38q-66 -2 -334 -56z" />
    <glyph glyph-name="Ntilde" unicode="&#xd1;" horiz-adv-x="1420" 
d="M654 986q220 240 410 240q141 0 216.5 -109t75.5 -323q0 -143 -41 -303.5t-117 -321t-96.5 -178t-35.5 -17.5q-18 0 -31 13.5t-13 32.5q0 12 6 24q110 178 174 381t64 369q0 168 -53 259t-151 91q-177 0 -392 -266q12 -102 12 -220q0 -300 -81.5 -498t-210.5 -198
q-65 0 -107.5 48t-42.5 124q0 153 96 376.5t240 389.5q-12 127 -50 232q-81 -34 -170 -34q-154 0 -255 69t-101 171q0 79 62.5 132.5t155.5 53.5q108 0 201 -68.5t155 -197.5q104 87 104 210q0 71 -40 134q-6 6 -6 22q0 20 12.5 33t31.5 13q36 0 64 -69t28 -133
q0 -173 -162 -292q27 -77 48 -190zM502 1208q-114 234 -284 234q-126 0 -126 -104q0 -65 76.5 -111.5t187.5 -46.5q68 0 146 28zM594 658q0 52 -4 126q-116 -153 -188 -341t-72 -309v-2q0 -36 18 -61t48 -25q74 0 136 174.5t62 437.5zM820 1454q0 29 46.5 69.5t111.5 40.5
q63 0 114 -30q66 -38 94 -38q46 0 66 42q10 24 36 24q34 0 34 -44q0 -28 -38.5 -62t-97.5 -34q-74 0 -134 44q-33 24 -74 24q-56 0 -86 -58q-13 -22 -36 -22q-13 0 -24.5 13.5t-11.5 30.5z" />
    <glyph glyph-name="Ograve" unicode="&#xd2;" horiz-adv-x="1320" 
d="M1242 1280v10q0 20 14.5 33t31.5 13q56 0 56 -144q0 -166 -132 -282q42 -101 42 -252q0 -285 -177.5 -476.5t-434.5 -191.5q-250 0 -405 162.5t-155 433.5q0 167 67 317.5t123 150.5q18 0 31 -12.5t13 -31.5q0 -18 -12 -30q-58 -53 -95 -164t-37 -230q0 -235 131 -374.5
t343 -139.5q216 0 367 171.5t151 414.5q0 111 -28 202q-106 -64 -272 -64q-193 0 -327.5 81.5t-134.5 204.5q0 85 77 140.5t201 55.5q151 0 279.5 -73t214.5 -215q82 85 82 200q0 22 -4 45zM1104 938q-74 125 -186.5 191.5t-237.5 66.5q-91 0 -140.5 -33t-49.5 -87
q0 -77 113 -137.5t269 -60.5q136 0 232 60zM506 1582q0 17 13.5 30.5t32.5 13.5q15 0 34 -13t72.5 -42t107.5 -68.5t64 -52t10 -28.5q0 -11 -14 -22.5t-32 -11.5t-28 10q-59 52 -174 116q-59 34 -72.5 44.5t-13.5 23.5z" />
    <glyph glyph-name="Oacute" unicode="&#xd3;" horiz-adv-x="1320" 
d="M1242 1280v10q0 20 14.5 33t31.5 13q56 0 56 -144q0 -166 -132 -282q42 -101 42 -252q0 -285 -177.5 -476.5t-434.5 -191.5q-250 0 -405 162.5t-155 433.5q0 167 67 317.5t123 150.5q18 0 31 -12.5t13 -31.5q0 -18 -12 -30q-58 -53 -95 -164t-37 -230q0 -235 131 -374.5
t343 -139.5q216 0 367 171.5t151 414.5q0 111 -28 202q-106 -64 -272 -64q-193 0 -327.5 81.5t-134.5 204.5q0 85 77 140.5t201 55.5q151 0 279.5 -73t214.5 -215q82 85 82 200q0 22 -4 45zM1104 938q-74 125 -186.5 191.5t-237.5 66.5q-91 0 -140.5 -33t-49.5 -87
q0 -77 113 -137.5t269 -60.5q136 0 232 60zM707 1423q0 19 10.5 29.5t75.5 48.5q123 68 174 116q11 10 28 10q18 0 32 -11.5t14 -22.5q0 -15 -9.5 -27.5t-61 -50t-111.5 -71.5t-76.5 -44.5t-29.5 -10.5q-18 0 -32 12t-14 22z" />
    <glyph glyph-name="Ocircumflex" unicode="&#xd4;" horiz-adv-x="1320" 
d="M1242 1280v10q0 20 14.5 33t31.5 13q56 0 56 -144q0 -166 -132 -282q42 -101 42 -252q0 -285 -177.5 -476.5t-434.5 -191.5q-250 0 -405 162.5t-155 433.5q0 167 67 317.5t123 150.5q18 0 31 -12.5t13 -31.5q0 -18 -12 -30q-58 -53 -95 -164t-37 -230q0 -235 131 -374.5
t343 -139.5q216 0 367 171.5t151 414.5q0 111 -28 202q-106 -64 -272 -64q-193 0 -327.5 81.5t-134.5 204.5q0 85 77 140.5t201 55.5q151 0 279.5 -73t214.5 -215q82 85 82 200q0 22 -4 45zM1104 938q-74 125 -186.5 191.5t-237.5 66.5q-91 0 -140.5 -33t-49.5 -87
q0 -77 113 -137.5t269 -60.5q136 0 232 60zM763 1532q-80 -42 -160 -96q-9 -6 -24 -6q-18 0 -32 11.5t-14 22.5q0 19 17 33.5t110 66.5t107 52q18 0 30 -12q119 -96 156 -120q22 -13 22 -38q0 -11 -14 -22.5t-32 -11.5q-27 0 -166 120z" />
    <glyph glyph-name="Otilde" unicode="&#xd5;" horiz-adv-x="1320" 
d="M1242 1280v10q0 20 14.5 33t31.5 13q56 0 56 -144q0 -166 -132 -282q42 -101 42 -252q0 -285 -177.5 -476.5t-434.5 -191.5q-250 0 -405 162.5t-155 433.5q0 167 67 317.5t123 150.5q18 0 31 -12.5t13 -31.5q0 -18 -12 -30q-58 -53 -95 -164t-37 -230q0 -235 131 -374.5
t343 -139.5q216 0 367 171.5t151 414.5q0 111 -28 202q-106 -64 -272 -64q-193 0 -327.5 81.5t-134.5 204.5q0 85 77 140.5t201 55.5q151 0 279.5 -73t214.5 -215q82 85 82 200q0 22 -4 45zM1104 938q-74 125 -186.5 191.5t-237.5 66.5q-91 0 -140.5 -33t-49.5 -87
q0 -77 113 -137.5t269 -60.5q136 0 232 60zM500 1454q0 29 46.5 69.5t111.5 40.5q63 0 114 -30q66 -38 94 -38q46 0 66 42q10 24 36 24q34 0 34 -44q0 -28 -38.5 -62t-97.5 -34q-74 0 -134 44q-33 24 -74 24q-56 0 -86 -58q-13 -22 -36 -22q-13 0 -24.5 13.5t-11.5 30.5z
" />
    <glyph glyph-name="Odieresis" unicode="&#xd6;" horiz-adv-x="1320" 
d="M1242 1280v10q0 20 14.5 33t31.5 13q56 0 56 -144q0 -166 -132 -282q42 -101 42 -252q0 -285 -177.5 -476.5t-434.5 -191.5q-250 0 -405 162.5t-155 433.5q0 167 67 317.5t123 150.5q18 0 31 -12.5t13 -31.5q0 -18 -12 -30q-58 -53 -95 -164t-37 -230q0 -235 131 -374.5
t343 -139.5q216 0 367 171.5t151 414.5q0 111 -28 202q-106 -64 -272 -64q-193 0 -327.5 81.5t-134.5 204.5q0 85 77 140.5t201 55.5q151 0 279.5 -73t214.5 -215q82 85 82 200q0 22 -4 45zM1104 938q-74 125 -186.5 191.5t-237.5 66.5q-91 0 -140.5 -33t-49.5 -87
q0 -77 113 -137.5t269 -60.5q136 0 232 60zM670 1548v-24l4 -28q0 -18 -13 -31t-31 -13q-23 0 -35.5 17.5t-12.5 86.5l-4 32q0 18 13 31t31 13q23 0 35.5 -16.5t12.5 -67.5zM886 1548v-24l4 -28q0 -18 -13 -31t-31 -13q-23 0 -35.5 17.5t-12.5 86.5l-4 32q0 18 13 31t31 13
q23 0 35.5 -16.5t12.5 -67.5z" />
    <glyph glyph-name="multiply" unicode="&#xd7;" 
d="M372 404l-274 276l58 58l274 -276l278 276l58 -58l-276 -276l276 -274l-58 -60l-278 276l-274 -276l-58 60z" />
    <glyph glyph-name="Oslash" unicode="&#xd8;" horiz-adv-x="1320" 
d="M312 206q217 316 382 602q92 160 151 221t157 61q104 0 178 -116.5t74 -305.5q0 -286 -176.5 -482t-423.5 -196q-196 0 -334 92q-49 -65 -91 -111t-53.5 -53.5t-23.5 -7.5q-42 0 -42 38q0 20 12 32q67 67 138 158q-84 76 -131 198t-47 262q0 274 179.5 468t424.5 194
q81 0 114.5 -10.5t33.5 -41.5q0 -40 -42 -40q-11 0 -35 4q-40 6 -69 6q-213 0 -364.5 -172.5t-151.5 -405.5v-10q0 -237 140 -384zM374 154q101 -82 280 -82q210 0 360 176t150 420q0 154 -51.5 247t-108.5 93q-61 0 -103.5 -47.5t-130.5 -196.5q-160 -274 -396 -610z" />
    <glyph glyph-name="Ugrave" unicode="&#xd9;" horiz-adv-x="1450" 
d="M496 960q4 -47 4 -76v-14l-10 -450q0 -180 59 -273t167 -93q156 0 312 196q-30 152 -30 298q0 289 74 495.5t194 206.5q65 0 104.5 -56t39.5 -166q0 -160 -79.5 -387t-210.5 -409q32 -117 75 -170.5t111 -53.5l42 2q44 0 44 -34q0 -48 -78 -48q-193 0 -260 224
q-165 -180 -338 -180q-151 0 -232.5 116.5t-81.5 331.5l8 442v22q0 35 -2 50q-30 -6 -62 -6q-113 0 -189.5 54.5t-76.5 141.5q0 66 49.5 112t120.5 46q78 0 142.5 -61.5t89.5 -174.5q67 34 104.5 99.5t37.5 142.5q0 91 -26 124q-10 13 -10 28q0 44 44 44q37 0 59.5 -61
t22.5 -135q0 -104 -58.5 -193.5t-159.5 -134.5zM400 1018q-21 84 -62.5 131t-89.5 47q-33 0 -56.5 -20.5t-23.5 -51.5q0 -48 53.5 -80t124.5 -32q12 0 54 6zM1096 334q106 179 165 368t59 326q0 138 -54 138q-62 0 -121 -179t-59 -449v-10q0 -126 10 -194zM750 1582
q0 17 13.5 30.5t32.5 13.5q15 0 34 -13t72.5 -42t107.5 -68.5t64 -52t10 -28.5q0 -11 -14 -22.5t-32 -11.5t-28 10q-59 52 -174 116q-59 34 -72.5 44.5t-13.5 23.5z" />
    <glyph glyph-name="Uacute" unicode="&#xda;" horiz-adv-x="1450" 
d="M496 960q4 -47 4 -76v-14l-10 -450q0 -180 59 -273t167 -93q156 0 312 196q-30 152 -30 298q0 289 74 495.5t194 206.5q65 0 104.5 -56t39.5 -166q0 -160 -79.5 -387t-210.5 -409q32 -117 75 -170.5t111 -53.5l42 2q44 0 44 -34q0 -48 -78 -48q-193 0 -260 224
q-165 -180 -338 -180q-151 0 -232.5 116.5t-81.5 331.5l8 442v22q0 35 -2 50q-30 -6 -62 -6q-113 0 -189.5 54.5t-76.5 141.5q0 66 49.5 112t120.5 46q78 0 142.5 -61.5t89.5 -174.5q67 34 104.5 99.5t37.5 142.5q0 91 -26 124q-10 13 -10 28q0 44 44 44q37 0 59.5 -61
t22.5 -135q0 -104 -58.5 -193.5t-159.5 -134.5zM400 1018q-21 84 -62.5 131t-89.5 47q-33 0 -56.5 -20.5t-23.5 -51.5q0 -48 53.5 -80t124.5 -32q12 0 54 6zM1096 334q106 179 165 368t59 326q0 138 -54 138q-62 0 -121 -179t-59 -449v-10q0 -126 10 -194zM891 1423
q0 19 10.5 29.5t75.5 48.5q123 68 174 116q11 10 28 10q18 0 32 -11.5t14 -22.5q0 -15 -9.5 -27.5t-61 -50t-111.5 -71.5t-76.5 -44.5t-29.5 -10.5q-18 0 -32 12t-14 22z" />
    <glyph glyph-name="Ucircumflex" unicode="&#xdb;" horiz-adv-x="1450" 
d="M496 960q4 -47 4 -76v-14l-10 -450q0 -180 59 -273t167 -93q156 0 312 196q-30 152 -30 298q0 289 74 495.5t194 206.5q65 0 104.5 -56t39.5 -166q0 -160 -79.5 -387t-210.5 -409q32 -117 75 -170.5t111 -53.5l42 2q44 0 44 -34q0 -48 -78 -48q-193 0 -260 224
q-165 -180 -338 -180q-151 0 -232.5 116.5t-81.5 331.5l8 442v22q0 35 -2 50q-30 -6 -62 -6q-113 0 -189.5 54.5t-76.5 141.5q0 66 49.5 112t120.5 46q78 0 142.5 -61.5t89.5 -174.5q67 34 104.5 99.5t37.5 142.5q0 91 -26 124q-10 13 -10 28q0 44 44 44q37 0 59.5 -61
t22.5 -135q0 -104 -58.5 -193.5t-159.5 -134.5zM400 1018q-21 84 -62.5 131t-89.5 47q-33 0 -56.5 -20.5t-23.5 -51.5q0 -48 53.5 -80t124.5 -32q12 0 54 6zM1096 334q106 179 165 368t59 326q0 138 -54 138q-62 0 -121 -179t-59 -449v-10q0 -126 10 -194zM988 1532
q-80 -42 -160 -96q-9 -6 -24 -6q-18 0 -32 11.5t-14 22.5q0 19 17 33.5t110 66.5t107 52q18 0 30 -12q119 -96 156 -120q22 -13 22 -38q0 -11 -14 -22.5t-32 -11.5q-27 0 -166 120z" />
    <glyph glyph-name="Udieresis" unicode="&#xdc;" horiz-adv-x="1450" 
d="M496 960q4 -47 4 -76v-14l-10 -450q0 -180 59 -273t167 -93q156 0 312 196q-30 152 -30 298q0 289 74 495.5t194 206.5q65 0 104.5 -56t39.5 -166q0 -160 -79.5 -387t-210.5 -409q32 -117 75 -170.5t111 -53.5l42 2q44 0 44 -34q0 -48 -78 -48q-193 0 -260 224
q-165 -180 -338 -180q-151 0 -232.5 116.5t-81.5 331.5l8 442v22q0 35 -2 50q-30 -6 -62 -6q-113 0 -189.5 54.5t-76.5 141.5q0 66 49.5 112t120.5 46q78 0 142.5 -61.5t89.5 -174.5q67 34 104.5 99.5t37.5 142.5q0 91 -26 124q-10 13 -10 28q0 44 44 44q37 0 59.5 -61
t22.5 -135q0 -104 -58.5 -193.5t-159.5 -134.5zM400 1018q-21 84 -62.5 131t-89.5 47q-33 0 -56.5 -20.5t-23.5 -51.5q0 -48 53.5 -80t124.5 -32q12 0 54 6zM1096 334q106 179 165 368t59 326q0 138 -54 138q-62 0 -121 -179t-59 -449v-10q0 -126 10 -194zM896 1548v-24
l4 -28q0 -18 -13 -31t-31 -13q-23 0 -35.5 17.5t-12.5 86.5l-4 32q0 18 13 31t31 13q23 0 35.5 -16.5t12.5 -67.5zM1112 1548v-24l4 -28q0 -18 -13 -31t-31 -13q-23 0 -35.5 17.5t-12.5 86.5l-4 32q0 18 13 31t31 13q23 0 35.5 -16.5t12.5 -67.5z" />
    <glyph glyph-name="Yacute" unicode="&#xdd;" horiz-adv-x="1374" 
d="M570 930q8 -43 8 -334q0 -192 39.5 -282t138.5 -90q127 0 278 184q-8 216 -8 236q0 352 54 465t166 113q51 0 94.5 -42.5t43.5 -155.5q0 -127 -71.5 -303t-190.5 -331l4 -88q0 -391 -206 -601.5t-522 -210.5q-170 0 -284 91.5t-114 248.5q0 100 63 172t151 72
q71 0 120.5 -47.5t49.5 -120.5q0 -116 -58 -116q-19 0 -32.5 13.5t-13.5 30.5q0 8 4 16q10 33 10 56q0 40 -24 62t-56 22q-51 0 -88.5 -46.5t-37.5 -113.5q0 -80 41.5 -138t116 -89t152.5 -31q278 0 455 185t185 539q-154 -156 -296 -156q-122 0 -187 104.5t-65 397.5v126
q0 48 -4 118q-63 -22 -130 -22q-122 0 -202 69.5t-80 176.5q0 85 59 142.5t147 57.5q97 0 170.5 -71t103.5 -213q50 48 74 120t24 138q0 5 -3 32q-3 32 -3 38q0 18 11.5 31t28.5 13q25 0 38.5 -19.5t13.5 -94.5q0 -106 -43 -200t-125 -154zM474 970q-45 258 -194 258
q-50 0 -83 -34.5t-33 -83.5q0 -75 55.5 -119.5t138.5 -44.5q65 0 116 24zM1118 520q81 130 129.5 270t48.5 236q0 114 -60 114q-65 0 -93.5 -115.5t-28.5 -380.5zM883 1423q0 19 10.5 29.5t75.5 48.5q123 68 174 116q11 10 28 10q18 0 32 -11.5t14 -22.5q0 -15 -9.5 -27.5
t-61 -50t-111.5 -71.5t-76.5 -44.5t-29.5 -10.5q-18 0 -32 12t-14 22z" />
    <glyph glyph-name="Thorn" unicode="&#xde;" horiz-adv-x="1178" 
d="M760 492h8q42 -12 78 -12q103 0 172.5 68.5t69.5 173.5q0 113 -77 182.5t-197 69.5q-91 0 -180 -46q30 -197 30 -414q0 -197 -25.5 -313t-76.5 -172.5t-128 -56.5q-86 0 -141 98.5t-55 259.5q0 195 77.5 364t216.5 270q-23 121 -60 186q-93 -34 -186 -34q-116 0 -181 42
t-65 106q0 62 57.5 104t142.5 42q88 0 161 -42.5t111 -107.5q73 41 102 94q13 22 38 22q44 0 44 -42q0 -24 -38 -68t-104 -80q36 -73 60 -174q98 44 200 44q158 0 261 -93.5t103 -240.5q0 -137 -95 -231.5t-239 -94.5q-130 0 -130 54q0 42 46 42zM434 1224q-67 104 -198 104
q-42 0 -73 -18t-31 -46q0 -66 158 -66q77 0 144 26zM576 514q0 187 -26 360q-106 -90 -164 -235t-58 -309q0 -121 32.5 -199.5t75.5 -78.5q140 0 140 462z" />
    <glyph glyph-name="germandbls" unicode="&#xdf;" horiz-adv-x="922" 
d="M-164 -422h-6q-18 0 -31 12t-13 30q0 37 40 44q118 18 187 174t97.5 348.5t49.5 449.5q51 660 402 660q108 0 175 -73t67 -177q0 -163 -114 -196q-146 -42 -146 -162q0 -32 22 -65t102 -89q190 -134 190 -292q0 -124 -83 -205t-217 -81q-106 0 -186 62t-80 166
q0 76 48.5 129t109.5 53q58 0 96 -37t38 -93q0 -35 -14 -63.5t-42 -28.5q-18 0 -31 13t-13 31q0 3 4 21q6 23 6 27q0 48 -44 48q-24 0 -45 -27.5t-21 -72.5q0 -73 57.5 -109.5t116.5 -36.5q93 0 151.5 56.5t58.5 147.5q0 114 -144 214q-108 76 -138 128t-30 106q0 81 56 147
t148 91q54 15 54 118q0 68 -41.5 118t-112.5 50q-61 0 -111 -32q-52 -34 -91 -101q-40 -69 -67 -173q-28 -108 -41 -251l-23 -266q-16 -157 -39 -276q-28 -148 -69 -253q-48 -122 -113 -192q-86 -92 -170 -92z" />
    <glyph glyph-name="agrave" unicode="&#xe0;" horiz-adv-x="692" 
d="M68 194q0 177 107.5 337.5t256.5 160.5q87 0 135.5 -55.5t48.5 -156.5q0 -99 -26 -240q-20 -130 -20 -160q0 -14 4 -26q8 -16 8 -24q0 -16 -14 -29t-32 -13q-56 0 -56 96q0 12 22 170q26 160 26 222q0 63 -29 97.5t-75 34.5q-105 0 -185.5 -132.5t-80.5 -281.5
q0 -56 23.5 -91t62.5 -35q76 0 114 102q10 26 38 26q42 0 42 -44q0 -41 -57 -104.5t-151 -63.5q-71 0 -116.5 55t-45.5 155zM252 1046q5 0 15 -3t35 -24.5t73 -59.5l91 -73q44 -35 49 -43.5t5 -20.5q0 -40 -30 -40q-12 0 -22.5 4.5t-33.5 23.5l-95 74q-71 56 -89.5 71
t-26 28t-7.5 29q0 34 36 34z" />
    <glyph glyph-name="aacute" unicode="&#xe1;" horiz-adv-x="692" 
d="M68 194q0 177 107.5 337.5t256.5 160.5q87 0 135.5 -55.5t48.5 -156.5q0 -99 -26 -240q-20 -130 -20 -160q0 -14 4 -26q8 -16 8 -24q0 -16 -14 -29t-32 -13q-56 0 -56 96q0 12 22 170q26 160 26 222q0 63 -29 97.5t-75 34.5q-105 0 -185.5 -132.5t-80.5 -281.5
q0 -56 23.5 -91t62.5 -35q76 0 114 102q10 26 38 26q42 0 42 -44q0 -41 -57 -104.5t-151 -63.5q-71 0 -116.5 55t-45.5 155zM336 822q0 13 5 21t86 73l153 124q3 1 8 2q12 4 16 4q36 0 36 -34q0 -19 -11.5 -33.5t-109 -90.5t-116 -89t-37.5 -13q-11 0 -20.5 11.5t-9.5 24.5z
" />
    <glyph glyph-name="acircumflex" unicode="&#xe2;" horiz-adv-x="692" 
d="M68 194q0 177 107.5 337.5t256.5 160.5q87 0 135.5 -55.5t48.5 -156.5q0 -99 -26 -240q-20 -130 -20 -160q0 -14 4 -26q8 -16 8 -24q0 -16 -14 -29t-32 -13q-56 0 -56 96q0 12 22 170q26 160 26 222q0 63 -29 97.5t-75 34.5q-105 0 -185.5 -132.5t-80.5 -281.5
q0 -56 23.5 -91t62.5 -35q76 0 114 102q10 26 38 26q42 0 42 -44q0 -41 -57 -104.5t-151 -63.5q-71 0 -116.5 55t-45.5 155zM432 940q-26 -18 -72 -55q-50 -41 -62 -48t-32 -7q-16 0 -28 11t-12 23q0 22 22 37l101 70q78 55 91 55q18 0 26 -8q124 -124 140 -134
q22 -13 22 -38q0 -13 -13.5 -23.5t-32.5 -10.5q-22 0 -150 128z" />
    <glyph glyph-name="atilde" unicode="&#xe3;" horiz-adv-x="692" 
d="M68 194q0 177 107.5 337.5t256.5 160.5q87 0 135.5 -55.5t48.5 -156.5q0 -99 -26 -240q-20 -130 -20 -160q0 -14 4 -26q8 -16 8 -24q0 -16 -14 -29t-32 -13q-56 0 -56 96q0 12 22 170q26 160 26 222q0 63 -29 97.5t-75 34.5q-105 0 -185.5 -132.5t-80.5 -281.5
q0 -56 23.5 -91t62.5 -35q76 0 114 102q10 26 38 26q42 0 42 -44q0 -41 -57 -104.5t-151 -63.5q-71 0 -116.5 55t-45.5 155zM608 936q0 -27 -32.5 -65.5t-77.5 -38.5q-69 0 -112 40q-41 38 -72 38q-36 0 -58 -70q-7 -20 -32 -20q-17 0 -28.5 12.5t-11.5 31.5q0 32 39 76
t89 44q59 0 108 -44q37 -34 68 -34q28 0 46 50q10 26 36 26q38 0 38 -46z" />
    <glyph glyph-name="adieresis" unicode="&#xe4;" horiz-adv-x="692" 
d="M68 194q0 177 107.5 337.5t256.5 160.5q87 0 135.5 -55.5t48.5 -156.5q0 -99 -26 -240q-20 -130 -20 -160q0 -14 4 -26q8 -16 8 -24q0 -16 -14 -29t-32 -13q-56 0 -56 96q0 12 22 170q26 160 26 222q0 63 -29 97.5t-75 34.5q-105 0 -185.5 -132.5t-80.5 -281.5
q0 -56 23.5 -91t62.5 -35q76 0 114 102q10 26 38 26q42 0 42 -44q0 -41 -57 -104.5t-151 -63.5q-71 0 -116.5 55t-45.5 155zM356 948v-24l4 -28q0 -18 -13 -31t-31 -13q-23 0 -35.5 17.5t-12.5 86.5l-4 32q0 18 13 31t31 13q23 0 35.5 -16.5t12.5 -67.5zM572 948v-24l4 -28
q0 -18 -13 -31t-31 -13q-23 0 -35.5 17.5t-12.5 86.5l-4 32q0 18 13 31t31 13q23 0 35.5 -16.5t12.5 -67.5z" />
    <glyph glyph-name="aring" unicode="&#xe5;" horiz-adv-x="692" 
d="M68 194q0 177 107.5 337.5t256.5 160.5q87 0 135.5 -55.5t48.5 -156.5q0 -99 -26 -240q-20 -130 -20 -160q0 -14 4 -26q8 -16 8 -24q0 -16 -14 -29t-32 -13q-56 0 -56 96q0 12 22 170q26 160 26 222q0 63 -29 97.5t-75 34.5q-105 0 -185.5 -132.5t-80.5 -281.5
q0 -56 23.5 -91t62.5 -35q76 0 114 102q10 26 38 26q42 0 42 -44q0 -41 -57 -104.5t-151 -63.5q-71 0 -116.5 55t-45.5 155zM438 1088q47 0 84.5 -41t37.5 -87q0 -63 -49 -112.5t-113 -49.5q-70 0 -116 41t-46 99q0 50 27.5 91t56.5 41q46 0 46 -34q0 -19 -28 -36
q-8 -5 -16 -24.5t-8 -37.5q0 -28 25 -46t57 -18q39 0 61.5 24t22.5 62q0 15 -13.5 34.5t-30.5 19.5q-19 0 -32.5 12.5t-13.5 31.5q0 30 44 30h4z" />
    <glyph glyph-name="ae" unicode="&#xe6;" horiz-adv-x="1024" 
d="M600 540q88 136 230 136q80 0 125 -41.5t45 -112.5q0 -103 -87.5 -168.5t-196.5 -65.5q-42 0 -42 40q0 18 12 31t30 13q76 0 136 43.5t60 106.5q0 30 -20.5 51t-59.5 21q-87 0 -165.5 -98.5t-78.5 -247.5q0 -90 42 -141t120 -51q74 0 122 58q15 18 36 18q18 0 30 -13
t12 -33q0 -30 -56 -71t-146 -41q-115 0 -182.5 73t-67.5 213q0 14 13 115q9 74 9 91q0 64 -25 101t-67 37q-100 0 -186 -139.5t-86 -284.5q0 -124 86 -124q41 0 81.5 36.5t62.5 85.5q13 30 40 30q19 0 31.5 -13t12.5 -33q0 -41 -68 -114.5t-162 -73.5q-77 0 -124.5 53.5
t-47.5 152.5q0 174 110 340t254 166q131 0 168 -146z" />
    <glyph glyph-name="ccedilla" unicode="&#xe7;" horiz-adv-x="600" 
d="M260 -92q116 -33 116 -136q0 -57 -50.5 -96.5t-107.5 -39.5q-43 0 -82.5 17t-39.5 43q0 18 11 31t29 13t28 -8q25 -20 62 -20q22 0 46 17t24 41q0 45 -58 72q-54 25 -54 60q0 15 25.5 50t30.5 36q-164 36 -164 252q0 174 98.5 309t237.5 135q73 0 108.5 -33t35.5 -69
q0 -44 -42 -44q-22 0 -38 22q-27 38 -70 38q-103 0 -171.5 -113t-68.5 -245q0 -90 36.5 -135t97.5 -45q48 0 93 26t71 74q15 26 38 26q38 0 38 -46q0 -33 -60.5 -88.5t-153.5 -67.5z" />
    <glyph glyph-name="egrave" unicode="&#xe8;" horiz-adv-x="596" 
d="M244 332q0 17 12.5 30.5t31.5 13.5q76 0 135 43.5t59 106.5q0 68 -80 68q-85 0 -163.5 -98t-78.5 -244q0 -87 42 -138.5t124 -51.5q87 0 140 66q13 16 32 16q40 0 40 -46q0 -32 -67 -75t-151 -43q-115 0 -182.5 73t-67.5 199q0 181 104.5 304.5t229.5 123.5
q80 0 124 -42.5t44 -111.5q0 -104 -88.5 -170t-195.5 -66q-44 0 -44 42zM224 1046q5 0 15 -3t35 -24.5t73 -59.5l91 -73q44 -35 49 -43.5t5 -20.5q0 -40 -30 -40q-12 0 -22.5 4.5t-33.5 23.5l-95 74q-71 56 -89.5 71t-26 28t-7.5 29q0 34 36 34z" />
    <glyph glyph-name="eacute" unicode="&#xe9;" horiz-adv-x="596" 
d="M244 332q0 17 12.5 30.5t31.5 13.5q76 0 135 43.5t59 106.5q0 68 -80 68q-85 0 -163.5 -98t-78.5 -244q0 -87 42 -138.5t124 -51.5q87 0 140 66q13 16 32 16q40 0 40 -46q0 -32 -67 -75t-151 -43q-115 0 -182.5 73t-67.5 199q0 181 104.5 304.5t229.5 123.5
q80 0 124 -42.5t44 -111.5q0 -104 -88.5 -170t-195.5 -66q-44 0 -44 42zM328 822q0 13 5 21t86 73l153 124q3 1 8 2q12 4 16 4q36 0 36 -34q0 -19 -11.5 -33.5t-109 -90.5t-116 -89t-37.5 -13q-11 0 -20.5 11.5t-9.5 24.5z" />
    <glyph glyph-name="ecircumflex" unicode="&#xea;" horiz-adv-x="596" 
d="M244 332q0 17 12.5 30.5t31.5 13.5q76 0 135 43.5t59 106.5q0 68 -80 68q-85 0 -163.5 -98t-78.5 -244q0 -87 42 -138.5t124 -51.5q87 0 140 66q13 16 32 16q40 0 40 -46q0 -32 -67 -75t-151 -43q-115 0 -182.5 73t-67.5 199q0 181 104.5 304.5t229.5 123.5
q80 0 124 -42.5t44 -111.5q0 -104 -88.5 -170t-195.5 -66q-44 0 -44 42zM404 940q-26 -18 -72 -55q-50 -41 -62 -48t-32 -7q-16 0 -28 11t-12 23q0 22 22 37l101 70q78 55 91 55q18 0 26 -8q124 -124 140 -134q22 -13 22 -38q0 -13 -13.5 -23.5t-32.5 -10.5q-22 0 -150 128z
" />
    <glyph glyph-name="edieresis" unicode="&#xeb;" horiz-adv-x="596" 
d="M244 332q0 17 12.5 30.5t31.5 13.5q76 0 135 43.5t59 106.5q0 68 -80 68q-85 0 -163.5 -98t-78.5 -244q0 -87 42 -138.5t124 -51.5q87 0 140 66q13 16 32 16q40 0 40 -46q0 -32 -67 -75t-151 -43q-115 0 -182.5 73t-67.5 199q0 181 104.5 304.5t229.5 123.5
q80 0 124 -42.5t44 -111.5q0 -104 -88.5 -170t-195.5 -66q-44 0 -44 42zM328 948v-24l4 -28q0 -18 -13 -31t-31 -13q-23 0 -35.5 17.5t-12.5 86.5l-4 32q0 18 13 31t31 13q23 0 35.5 -16.5t12.5 -67.5zM544 948v-24l4 -28q0 -18 -13 -31t-31 -13q-23 0 -35.5 17.5
t-12.5 86.5l-4 32q0 18 13 31t31 13q23 0 35.5 -16.5t12.5 -67.5z" />
    <glyph glyph-name="igrave" unicode="&#xec;" horiz-adv-x="320" 
d="M212 666q18 0 32 -13.5t14 -32.5q0 -6 -2 -10q-27 -108 -52 -280.5t-34 -313.5q-4 -42 -44 -42q-19 0 -32.5 13.5t-13.5 32.5q0 85 39.5 345.5t55.5 280.5t37 20zM67 1046q5 0 15 -3t35 -24.5t73 -59.5l91 -73q44 -35 49 -43.5t5 -20.5q0 -40 -30 -40q-12 0 -22.5 4.5
t-33.5 23.5l-95 74q-71 56 -89.5 71t-26 28t-7.5 29q0 34 36 34z" />
    <glyph glyph-name="iacute" unicode="&#xed;" horiz-adv-x="320" 
d="M212 666q18 0 32 -13.5t14 -32.5q0 -6 -2 -10q-27 -108 -52 -280.5t-34 -313.5q-4 -42 -44 -42q-19 0 -32.5 13.5t-13.5 32.5q0 85 39.5 345.5t55.5 280.5t37 20zM130 822q0 13 5 21t86 73l153 124q3 1 8 2q12 4 16 4q36 0 36 -34q0 -19 -11.5 -33.5t-109 -90.5t-116 -89
t-37.5 -13q-11 0 -20.5 11.5t-9.5 24.5z" />
    <glyph glyph-name="icircumflex" unicode="&#xee;" horiz-adv-x="320" 
d="M212 666q18 0 32 -13.5t14 -32.5q0 -6 -2 -10q-27 -108 -52 -280.5t-34 -313.5q-4 -42 -44 -42q-19 0 -32.5 13.5t-13.5 32.5q0 85 39.5 345.5t55.5 280.5t37 20zM227 940q-26 -18 -72 -55q-50 -41 -62 -48t-32 -7q-16 0 -28 11t-12 23q0 22 22 37l101 70q78 55 91 55
q18 0 26 -8q124 -124 140 -134q22 -13 22 -38q0 -13 -13.5 -23.5t-32.5 -10.5q-22 0 -150 128z" />
    <glyph glyph-name="idieresis" unicode="&#xef;" horiz-adv-x="320" 
d="M212 666q18 0 32 -13.5t14 -32.5q0 -6 -2 -10q-27 -108 -52 -280.5t-34 -313.5q-4 -42 -44 -42q-19 0 -32.5 13.5t-13.5 32.5q0 85 39.5 345.5t55.5 280.5t37 20zM151 948v-24l4 -28q0 -18 -13 -31t-31 -13q-23 0 -35.5 17.5t-12.5 86.5l-4 32q0 18 13 31t31 13
q23 0 35.5 -16.5t12.5 -67.5zM367 948v-24l4 -28q0 -18 -13 -31t-31 -13q-23 0 -35.5 17.5t-12.5 86.5l-4 32q0 18 13 31t31 13q23 0 35.5 -16.5t12.5 -67.5z" />
    <glyph glyph-name="eth" unicode="&#xf0;" horiz-adv-x="664" 
d="M556 970q33 -57 53.5 -149t20.5 -171q0 -285 -90 -475.5t-250 -190.5q-98 0 -163 83t-65 215q0 173 83 286.5t195 113.5q70 0 108 -35t38 -63q0 -18 -12.5 -31t-31.5 -13q-31 0 -48 26q-19 28 -60 28q-72 0 -127 -88.5t-55 -223.5q0 -93 40 -156.5t102 -63.5
q113 0 179.5 170.5t66.5 417.5q0 166 -58 272q-133 -90 -188 -90q-46 0 -46 40q0 34 38 42q47 9 158 80q-93 153 -228 168q-36 4 -36 38q0 19 14 32.5t32 13.5h8q55 0 144 -59t140 -147q122 83 160 90l12 2q19 0 31.5 -11.5t12.5 -28.5q0 -37 -36 -44q-29 -7 -142 -78z" />
    <glyph glyph-name="ntilde" unicode="&#xf1;" horiz-adv-x="700" 
d="M238 488q83 188 222 188q68 0 111 -68t43 -206q0 -63 -14 -164.5t-24.5 -160t-19 -67.5t-17 -11.5t-15.5 -2.5q-19 0 -32.5 13.5t-13.5 32.5q0 4 2 8q44 192 44 352q0 182 -72 182q-81 0 -166.5 -154.5t-133.5 -401.5q-7 -34 -42 -34q-42 0 -42 46q0 26 44 202
q42 172 42 246q0 84 -36 120q-10 17 -10 32q0 17 13 29.5t31 12.5q31 0 58.5 -48t27.5 -122v-24zM602 936q0 -27 -32.5 -65.5t-77.5 -38.5q-69 0 -112 40q-41 38 -72 38q-36 0 -58 -70q-7 -20 -32 -20q-17 0 -28.5 12.5t-11.5 31.5q0 32 39 76t89 44q59 0 108 -44
q37 -34 68 -34q28 0 46 50q10 26 36 26q38 0 38 -46z" />
    <glyph glyph-name="ograve" unicode="&#xf2;" horiz-adv-x="682" 
d="M230 500q0 80 54 138t142 58q97 0 155.5 -75t58.5 -197q0 -176 -94.5 -310t-235.5 -134q-103 0 -166.5 84.5t-63.5 223.5q0 52 15.5 123t54.5 71q17 0 29.5 -13.5t12.5 -30.5q0 -8 -4 -20q-18 -45 -18 -128q0 -95 39 -160.5t105 -65.5q99 0 167.5 110t68.5 250
q0 79 -34 133.5t-94 54.5q-48 0 -75 -32.5t-27 -79.5q0 -37 19 -58.5t75 -21.5q19 0 32.5 -13t13.5 -31q0 -44 -54 -44q-81 0 -128.5 47t-47.5 121zM246 1046q5 0 15 -3t35 -24.5t73 -59.5l91 -73q44 -35 49 -43.5t5 -20.5q0 -40 -30 -40q-12 0 -22.5 4.5t-33.5 23.5l-95 74
q-71 56 -89.5 71t-26 28t-7.5 29q0 34 36 34z" />
    <glyph glyph-name="oacute" unicode="&#xf3;" horiz-adv-x="682" 
d="M230 500q0 80 54 138t142 58q97 0 155.5 -75t58.5 -197q0 -176 -94.5 -310t-235.5 -134q-103 0 -166.5 84.5t-63.5 223.5q0 52 15.5 123t54.5 71q17 0 29.5 -13.5t12.5 -30.5q0 -8 -4 -20q-18 -45 -18 -128q0 -95 39 -160.5t105 -65.5q99 0 167.5 110t68.5 250
q0 79 -34 133.5t-94 54.5q-48 0 -75 -32.5t-27 -79.5q0 -37 19 -58.5t75 -21.5q19 0 32.5 -13t13.5 -31q0 -44 -54 -44q-81 0 -128.5 47t-47.5 121zM350 822q0 13 5 21t86 73l153 124q3 1 8 2q12 4 16 4q36 0 36 -34q0 -19 -11.5 -33.5t-109 -90.5t-116 -89t-37.5 -13
q-11 0 -20.5 11.5t-9.5 24.5z" />
    <glyph glyph-name="ocircumflex" unicode="&#xf4;" horiz-adv-x="682" 
d="M230 500q0 80 54 138t142 58q97 0 155.5 -75t58.5 -197q0 -176 -94.5 -310t-235.5 -134q-103 0 -166.5 84.5t-63.5 223.5q0 52 15.5 123t54.5 71q17 0 29.5 -13.5t12.5 -30.5q0 -8 -4 -20q-18 -45 -18 -128q0 -95 39 -160.5t105 -65.5q99 0 167.5 110t68.5 250
q0 79 -34 133.5t-94 54.5q-48 0 -75 -32.5t-27 -79.5q0 -37 19 -58.5t75 -21.5q19 0 32.5 -13t13.5 -31q0 -44 -54 -44q-81 0 -128.5 47t-47.5 121zM408 940q-26 -18 -72 -55q-50 -41 -62 -48t-32 -7q-16 0 -28 11t-12 23q0 22 22 37l101 70q78 55 91 55q18 0 26 -8
q124 -124 140 -134q22 -13 22 -38q0 -13 -13.5 -23.5t-32.5 -10.5q-22 0 -150 128z" />
    <glyph glyph-name="otilde" unicode="&#xf5;" horiz-adv-x="682" 
d="M230 500q0 80 54 138t142 58q97 0 155.5 -75t58.5 -197q0 -176 -94.5 -310t-235.5 -134q-103 0 -166.5 84.5t-63.5 223.5q0 52 15.5 123t54.5 71q17 0 29.5 -13.5t12.5 -30.5q0 -8 -4 -20q-18 -45 -18 -128q0 -95 39 -160.5t105 -65.5q99 0 167.5 110t68.5 250
q0 79 -34 133.5t-94 54.5q-48 0 -75 -32.5t-27 -79.5q0 -37 19 -58.5t75 -21.5q19 0 32.5 -13t13.5 -31q0 -44 -54 -44q-81 0 -128.5 47t-47.5 121zM614 936q0 -27 -32.5 -65.5t-77.5 -38.5q-69 0 -112 40q-41 38 -72 38q-36 0 -58 -70q-7 -20 -32 -20q-17 0 -28.5 12.5
t-11.5 31.5q0 32 39 76t89 44q59 0 108 -44q37 -34 68 -34q28 0 46 50q10 26 36 26q38 0 38 -46z" />
    <glyph glyph-name="odieresis" unicode="&#xf6;" horiz-adv-x="682" 
d="M230 500q0 80 54 138t142 58q97 0 155.5 -75t58.5 -197q0 -176 -94.5 -310t-235.5 -134q-103 0 -166.5 84.5t-63.5 223.5q0 52 15.5 123t54.5 71q17 0 29.5 -13.5t12.5 -30.5q0 -8 -4 -20q-18 -45 -18 -128q0 -95 39 -160.5t105 -65.5q99 0 167.5 110t68.5 250
q0 79 -34 133.5t-94 54.5q-48 0 -75 -32.5t-27 -79.5q0 -37 19 -58.5t75 -21.5q19 0 32.5 -13t13.5 -31q0 -44 -54 -44q-81 0 -128.5 47t-47.5 121zM352 948v-24l4 -28q0 -18 -13 -31t-31 -13q-23 0 -35.5 17.5t-12.5 86.5l-4 32q0 18 13 31t31 13q23 0 35.5 -16.5
t12.5 -67.5zM568 948v-24l4 -28q0 -18 -13 -31t-31 -13q-23 0 -35.5 17.5t-12.5 86.5l-4 32q0 18 13 31t31 13q23 0 35.5 -16.5t12.5 -67.5z" />
    <glyph glyph-name="divide" unicode="&#xf7;" 
d="M434 616q-36 0 -62 25.5t-26 60.5q0 36 25.5 61t60.5 25t60.5 -25.5t25.5 -60.5q0 -32 -25.5 -59t-58.5 -27zM796 362h-728v84h728v-84zM434 20q-36 0 -62 25.5t-26 60.5t25.5 60.5t60.5 25.5q34 0 60 -26t26 -60q0 -32 -25.5 -59t-58.5 -27z" />
    <glyph glyph-name="oslash" unicode="&#xf8;" horiz-adv-x="674" 
d="M314 380q83 153 123.5 209.5t80.5 56.5q52 0 87 -51t35 -171q0 -176 -94.5 -310t-235.5 -134q-61 0 -110 32q-80 -119 -87 -126.5t-27 -7.5q-42 0 -42 38q0 19 16.5 40t81.5 118q-62 82 -62 214q0 173 89 288.5t191 115.5q50 0 50 -46q0 -36 -50 -36q-63 0 -127.5 -94.5
t-64.5 -227.5q0 -80 24 -132zM242 86q35 -24 70 -24q100 0 169 110.5t69 251.5q0 136 -28 136q-14 0 -84 -131t-196 -343z" />
    <glyph glyph-name="ugrave" unicode="&#xf9;" horiz-adv-x="672" 
d="M208 614v-10q-48 -211 -48 -350q0 -188 84 -188q91 0 172 162.5t116 413.5q6 38 52 38q13 0 22.5 -13.5t9.5 -30.5v-6q0 -5 -28 -164q-34 -184 -34 -270q0 -95 40 -138q10 -13 10 -30q0 -18 -13 -31t-31 -13q-33 0 -61.5 55.5t-28.5 134.5v6q-41 -95 -101 -147.5
t-125 -52.5q-80 0 -126 69t-46 205q0 90 20.5 223.5t29.5 158t40 24.5q19 0 32.5 -14t13.5 -32zM182 1046q5 0 15 -3t35 -24.5t73 -59.5l91 -73q44 -35 49 -43.5t5 -20.5q0 -40 -30 -40q-12 0 -22.5 4.5t-33.5 23.5l-95 74q-71 56 -89.5 71t-26 28t-7.5 29q0 34 36 34z" />
    <glyph glyph-name="uacute" unicode="&#xfa;" horiz-adv-x="672" 
d="M208 614v-10q-48 -211 -48 -350q0 -188 84 -188q91 0 172 162.5t116 413.5q6 38 52 38q13 0 22.5 -13.5t9.5 -30.5v-6q0 -5 -28 -164q-34 -184 -34 -270q0 -95 40 -138q10 -13 10 -30q0 -18 -13 -31t-31 -13q-33 0 -61.5 55.5t-28.5 134.5v6q-41 -95 -101 -147.5
t-125 -52.5q-80 0 -126 69t-46 205q0 90 20.5 223.5t29.5 158t40 24.5q19 0 32.5 -14t13.5 -32zM306 822q0 13 5 21t86 73l153 124q3 1 8 2q12 4 16 4q36 0 36 -34q0 -19 -11.5 -33.5t-109 -90.5t-116 -89t-37.5 -13q-11 0 -20.5 11.5t-9.5 24.5z" />
    <glyph glyph-name="ucircumflex" unicode="&#xfb;" horiz-adv-x="672" 
d="M208 614v-10q-48 -211 -48 -350q0 -188 84 -188q91 0 172 162.5t116 413.5q6 38 52 38q13 0 22.5 -13.5t9.5 -30.5v-6q0 -5 -28 -164q-34 -184 -34 -270q0 -95 40 -138q10 -13 10 -30q0 -18 -13 -31t-31 -13q-33 0 -61.5 55.5t-28.5 134.5v6q-41 -95 -101 -147.5
t-125 -52.5q-80 0 -126 69t-46 205q0 90 20.5 223.5t29.5 158t40 24.5q19 0 32.5 -14t13.5 -32zM382 940q-26 -18 -72 -55q-50 -41 -62 -48t-32 -7q-16 0 -28 11t-12 23q0 22 22 37l101 70q78 55 91 55q18 0 26 -8q124 -124 140 -134q22 -13 22 -38q0 -13 -13.5 -23.5
t-32.5 -10.5q-22 0 -150 128z" />
    <glyph glyph-name="udieresis" unicode="&#xfc;" horiz-adv-x="672" 
d="M208 614v-10q-48 -211 -48 -350q0 -188 84 -188q91 0 172 162.5t116 413.5q6 38 52 38q13 0 22.5 -13.5t9.5 -30.5v-6q0 -5 -28 -164q-34 -184 -34 -270q0 -95 40 -138q10 -13 10 -30q0 -18 -13 -31t-31 -13q-33 0 -61.5 55.5t-28.5 134.5v6q-41 -95 -101 -147.5
t-125 -52.5q-80 0 -126 69t-46 205q0 90 20.5 223.5t29.5 158t40 24.5q19 0 32.5 -14t13.5 -32zM326 948v-24l4 -28q0 -18 -13 -31t-31 -13q-23 0 -35.5 17.5t-12.5 86.5l-4 32q0 18 13 31t31 13q23 0 35.5 -16.5t12.5 -67.5zM542 948v-24l4 -28q0 -18 -13 -31t-31 -13
q-23 0 -35.5 17.5t-12.5 86.5l-4 32q0 18 13 31t31 13q23 0 35.5 -16.5t12.5 -67.5z" />
    <glyph glyph-name="yacute" unicode="&#xfd;" horiz-adv-x="662" 
d="M500 248q-42 -115 -114 -185.5t-140 -70.5q-80 0 -123 73t-43 201q0 114 22.5 244t31 148t38.5 18q18 0 31 -13.5t13 -32.5l-2 -8q-44 -168 -44 -356q0 -186 76 -186q88 0 179 182.5t91 367.5v4q0 17 14 29.5t32 12.5q17 0 28.5 -12.5t11.5 -31.5q0 -132 -20 -379.5
t-72 -420.5q116 -69 116 -180q0 -18 -13 -31t-31 -13t-30 13t-12 31q0 63 -62 94q-68 -171 -198 -270.5t-264 -99.5q-85 0 -135.5 44.5t-50.5 125.5q0 141 146 238.5t322 97.5q73 0 128 -18q51 165 74 384zM28 -542q103 0 208 89t166 241q-44 12 -104 12q-136 0 -257 -75
t-121 -173q0 -43 31 -68.5t77 -25.5zM340 822q0 13 5 21t86 73l153 124q3 1 8 2q12 4 16 4q36 0 36 -34q0 -19 -11.5 -33.5t-109 -90.5t-116 -89t-37.5 -13q-11 0 -20.5 11.5t-9.5 24.5z" />
    <glyph glyph-name="thorn" unicode="&#xfe;" horiz-adv-x="814" 
d="M280 546q123 136 262 136q101 0 165.5 -80t64.5 -208q0 -170 -75.5 -292t-186.5 -122q-68 0 -109 42t-41 86q0 18 13.5 31t32.5 13q32 0 42 -32q18 -54 64 -54q69 0 120.5 97t51.5 231q0 89 -38 145.5t-104 56.5q-131 0 -246 -162q26 -203 26 -540q0 -209 -16 -306.5
t-49.5 -142.5t-86.5 -45q-80 0 -121 88t-41 244q0 183 51.5 374t146.5 346q-60 413 -220 522q-18 13 -18 38q0 18 12.5 31t29.5 13q45 0 131.5 -118t138.5 -392zM234 -106v82q0 221 -10 338q-59 -121 -91.5 -279.5t-32.5 -302.5q0 -250 68 -250h2q64 0 64 412z" />
    <glyph glyph-name="ydieresis" unicode="&#xff;" horiz-adv-x="662" 
d="M500 248q-42 -115 -114 -185.5t-140 -70.5q-80 0 -123 73t-43 201q0 114 22.5 244t31 148t38.5 18q18 0 31 -13.5t13 -32.5l-2 -8q-44 -168 -44 -356q0 -186 76 -186q88 0 179 182.5t91 367.5v4q0 17 14 29.5t32 12.5q17 0 28.5 -12.5t11.5 -31.5q0 -132 -20 -379.5
t-72 -420.5q116 -69 116 -180q0 -18 -13 -31t-31 -13t-30 13t-12 31q0 63 -62 94q-68 -171 -198 -270.5t-264 -99.5q-85 0 -135.5 44.5t-50.5 125.5q0 141 146 238.5t322 97.5q73 0 128 -18q51 165 74 384zM28 -542q103 0 208 89t166 241q-44 12 -104 12q-136 0 -257 -75
t-121 -173q0 -43 31 -68.5t77 -25.5zM312 948v-24l4 -28q0 -18 -13 -31t-31 -13q-23 0 -35.5 17.5t-12.5 86.5l-4 32q0 18 13 31t31 13q23 0 35.5 -16.5t12.5 -67.5zM528 948v-24l4 -28q0 -18 -13 -31t-31 -13q-23 0 -35.5 17.5t-12.5 86.5l-4 32q0 18 13 31t31 13
q23 0 35.5 -16.5t12.5 -67.5z" />
    <glyph glyph-name="Amacron" unicode="&#x100;" horiz-adv-x="1324" 
d="M982 728q137 -79 209.5 -199t72.5 -257q0 -149 -68 -226.5t-158 -77.5q-178 0 -178 314q0 81 30 400q-139 66 -320 66q-78 0 -168 -14q-49 -172 -60 -356h12q105 0 178.5 46.5t73.5 117.5q0 44 42 44q18 0 31 -12.5t13 -31.5q0 -106 -97.5 -176t-242.5 -70h-12
q0 -177 44 -238q12 -20 12 -28q0 -18 -13.5 -31t-32.5 -13q-42 0 -70 83t-28 223v14q-104 22 -158 79t-54 137q0 94 75.5 167.5t216.5 112.5q74 232 179.5 355t232.5 123q120 0 183 -92.5t63 -301.5q0 -84 -8 -158zM896 770q6 60 6 118q0 158 -38 234t-120 76
q-178 0 -310 -376q70 10 136 10q174 0 326 -62zM308 708q-178 -68 -178 -186q0 -99 124 -134q7 144 54 320zM976 636q-28 -268 -28 -354q0 -234 94 -234q59 0 96.5 63.5t37.5 160.5q0 224 -200 364zM756 1536q54 0 86 6l54 10q19 0 31.5 -13t12.5 -31q0 -22 -53 -35
t-131 -13l-158 8q-18 0 -31 10.5t-13 25.5q0 14 13.5 27t30.5 13z" />
    <glyph glyph-name="amacron" unicode="&#x101;" horiz-adv-x="692" 
d="M68 194q0 177 107.5 337.5t256.5 160.5q87 0 135.5 -55.5t48.5 -156.5q0 -99 -26 -240q-20 -130 -20 -160q0 -14 4 -26q8 -16 8 -24q0 -16 -14 -29t-32 -13q-56 0 -56 96q0 12 22 170q26 160 26 222q0 63 -29 97.5t-75 34.5q-105 0 -185.5 -132.5t-80.5 -281.5
q0 -56 23.5 -91t62.5 -35q76 0 114 102q10 26 38 26q42 0 42 -44q0 -41 -57 -104.5t-151 -63.5q-71 0 -116.5 55t-45.5 155zM430 936q35 0 65 4l75 12q17 0 30.5 -10.5t13.5 -21.5q0 -15 -9.5 -28.5t-66 -22.5t-108.5 -9l-148 8q-18 0 -31 10.5t-13 23.5q0 15 13 28.5
t31 13.5z" />
    <glyph glyph-name="Abreve" unicode="&#x102;" horiz-adv-x="1324" 
d="M982 728q137 -79 209.5 -199t72.5 -257q0 -149 -68 -226.5t-158 -77.5q-178 0 -178 314q0 81 30 400q-139 66 -320 66q-78 0 -168 -14q-49 -172 -60 -356h12q105 0 178.5 46.5t73.5 117.5q0 44 42 44q18 0 31 -12.5t13 -31.5q0 -106 -97.5 -176t-242.5 -70h-12
q0 -177 44 -238q12 -20 12 -28q0 -18 -13.5 -31t-32.5 -13q-42 0 -70 83t-28 223v14q-104 22 -158 79t-54 137q0 94 75.5 167.5t216.5 112.5q74 232 179.5 355t232.5 123q120 0 183 -92.5t63 -301.5q0 -84 -8 -158zM896 770q6 60 6 118q0 158 -38 234t-120 76
q-178 0 -310 -376q70 10 136 10q174 0 326 -62zM308 708q-178 -68 -178 -186q0 -99 124 -134q7 144 54 320zM976 636q-28 -268 -28 -354q0 -234 94 -234q59 0 96.5 63.5t37.5 160.5q0 224 -200 364zM592 1624q30 0 40 -34q32 -96 124 -96q65 0 95 22.5t63 75.5q13 22 38 22
q38 0 38 -36t-60 -97t-174 -61q-97 0 -148.5 58t-51.5 102q0 16 12 30t24 14z" />
    <glyph glyph-name="abreve" unicode="&#x103;" horiz-adv-x="692" 
d="M68 194q0 177 107.5 337.5t256.5 160.5q87 0 135.5 -55.5t48.5 -156.5q0 -99 -26 -240q-20 -130 -20 -160q0 -14 4 -26q8 -16 8 -24q0 -16 -14 -29t-32 -13q-56 0 -56 96q0 12 22 170q26 160 26 222q0 63 -29 97.5t-75 34.5q-105 0 -185.5 -132.5t-80.5 -281.5
q0 -56 23.5 -91t62.5 -35q76 0 114 102q10 26 38 26q42 0 42 -44q0 -41 -57 -104.5t-151 -63.5q-71 0 -116.5 55t-45.5 155zM250 990q0 44 36 44q14 0 26.5 -10t13.5 -24q5 -42 35 -74t69 -32q105 0 138 98q11 32 38 32q16 0 27 -10.5t11 -19.5q0 -50 -59 -112t-155 -62
q-79 0 -129.5 54.5t-50.5 113.5v2z" />
    <glyph glyph-name="Aogonek" unicode="&#x104;" horiz-adv-x="1324" 
d="M982 728q137 -79 209.5 -199t72.5 -257q0 -125 -52 -203.5t-136 -96.5q-108 -83 -108 -164q0 -33 21.5 -50.5t46.5 -17.5q23 0 36 10q11 8 30 8q36 0 36 -38q0 -25 -32.5 -39.5t-69.5 -14.5q-61 0 -105.5 37.5t-44.5 92.5q0 96 86 184q-112 50 -112 302q0 81 30 400
q-139 66 -320 66q-78 0 -168 -14q-49 -172 -60 -356q123 0 193.5 47.5t70.5 116.5q0 44 42 44q18 0 31 -12.5t13 -31.5q0 -103 -95.5 -174.5t-256.5 -71.5q0 -177 44 -238q12 -20 12 -28q0 -18 -13.5 -31t-32.5 -13q-41 0 -69.5 81t-28.5 239q-104 22 -158 79t-54 137
q0 94 75.5 167.5t216.5 112.5q74 232 179.5 355t232.5 123q120 0 183 -92.5t63 -301.5q0 -84 -8 -158zM896 770q6 60 6 118q0 158 -38 234t-120 76q-178 0 -310 -376q70 10 136 10q174 0 326 -62zM308 708q-178 -68 -178 -186q0 -99 124 -134q7 144 54 320zM976 636
q-28 -268 -28 -354q0 -234 94 -234q59 0 96.5 63.5t37.5 160.5q0 224 -200 364z" />
    <glyph glyph-name="aogonek" unicode="&#x105;" horiz-adv-x="692" 
d="M522 -10q-42 18 -42 94q0 12 22 170q26 160 26 222q0 63 -29 97.5t-75 34.5q-105 0 -185.5 -132.5t-80.5 -281.5q0 -56 23.5 -91t62.5 -35q76 0 114 102q10 26 38 26q42 0 42 -44q0 -41 -57 -104.5t-151 -63.5q-71 0 -116.5 55t-45.5 155q0 177 107.5 337.5t256.5 160.5
q87 0 135.5 -55.5t48.5 -156.5q0 -99 -26 -240q-20 -130 -20 -160q0 -10 7 -31q9 -24 9 -39q0 -26 -35 -78q-43 -64 -43 -104q0 -80 62 -80q14 0 30 8t30 8q38 0 38 -38q0 -24 -28.5 -37t-59.5 -13q-62 0 -106 39.5t-44 100.5q0 92 92 174z" />
    <glyph glyph-name="Cacute" unicode="&#x106;" horiz-adv-x="1202" 
d="M744 1262q186 -12 293 -115t107 -239q0 -91 -56.5 -149.5t-151.5 -58.5q-122 0 -222 116.5t-100 303.5q0 21 4 52q-208 -41 -330 -211.5t-122 -386.5q0 -223 125.5 -369.5t346.5 -146.5q271 0 394 180q13 20 38 20q17 0 29.5 -13.5t12.5 -32.5q0 -24 -57.5 -86.5
t-166.5 -108t-250 -45.5q-254 0 -407 167.5t-153 434.5q0 261 154.5 458.5t409.5 227.5q39 94 117.5 145t172.5 51q114 0 114 -54q0 -40 -44 -40q-5 0 -32 4q-32 4 -38 4q-128 0 -188 -108zM710 1180q-6 -27 -6 -60q0 -151 75.5 -242.5t156.5 -91.5q116 0 116 122
q0 107 -91.5 186.5t-250.5 85.5zM487 1423q0 19 10.5 29.5t75.5 48.5q123 68 174 116q11 10 28 10q18 0 32 -11.5t14 -22.5q0 -15 -9.5 -27.5t-61 -50t-111.5 -71.5t-76.5 -44.5t-29.5 -10.5q-18 0 -32 12t-14 22z" />
    <glyph glyph-name="cacute" unicode="&#x107;" horiz-adv-x="600" 
d="M412 684q73 0 108.5 -33t35.5 -69q0 -44 -42 -44q-22 0 -38 22q-27 38 -70 38q-103 0 -171.5 -113t-68.5 -245q0 -90 36.5 -135t97.5 -45q48 0 93 26t71 74q15 26 38 26q38 0 38 -46q0 -39 -73 -99.5t-173 -60.5q-102 0 -160 67.5t-58 192.5q0 174 98.5 309t237.5 135z
M330 822q0 13 5 21t86 73l153 124q3 1 8 2q12 4 16 4q36 0 36 -34q0 -19 -11.5 -33.5t-109 -90.5t-116 -89t-37.5 -13q-11 0 -20.5 11.5t-9.5 24.5z" />
    <glyph glyph-name="Ccaron" unicode="&#x10c;" horiz-adv-x="1202" 
d="M744 1262q186 -12 293 -115t107 -239q0 -91 -56.5 -149.5t-151.5 -58.5q-122 0 -222 116.5t-100 303.5q0 21 4 52q-208 -41 -330 -211.5t-122 -386.5q0 -223 125.5 -369.5t346.5 -146.5q271 0 394 180q13 20 38 20q17 0 29.5 -13.5t12.5 -32.5q0 -24 -57.5 -86.5
t-166.5 -108t-250 -45.5q-254 0 -407 167.5t-153 434.5q0 261 154.5 458.5t409.5 227.5q39 94 117.5 145t172.5 51q114 0 114 -54q0 -40 -44 -40q-5 0 -32 4q-32 4 -38 4q-128 0 -188 -108zM710 1180q-6 -27 -6 -60q0 -151 75.5 -242.5t156.5 -91.5q116 0 116 122
q0 107 -91.5 186.5t-250.5 85.5zM607 1470q60 51 101.5 83t47 33.5t19.5 1.5q44 0 44 -32q0 -25 -20 -38q-58 -37 -150 -116q-19 -16 -36 -16q-16 0 -97 44.5t-109 65.5t-28 42q0 11 13.5 22.5t30.5 11.5q15 0 26 -8q62 -44 158 -94z" />
    <glyph glyph-name="ccaron" unicode="&#x10d;" horiz-adv-x="600" 
d="M412 684q73 0 108.5 -33t35.5 -69q0 -44 -42 -44q-22 0 -38 22q-27 38 -70 38q-103 0 -171.5 -113t-68.5 -245q0 -90 36.5 -135t97.5 -45q48 0 93 26t71 74q15 26 38 26q38 0 38 -46q0 -39 -73 -99.5t-173 -60.5q-102 0 -160 67.5t-58 192.5q0 174 98.5 309t237.5 135z
M410 862q26 18 72 55q50 41 62 48t32 7q16 0 28 -11t12 -23q0 -22 -22 -37l-101 -70q-78 -55 -91 -55q-18 0 -26 8q-124 124 -140 134q-22 13 -22 38q0 13 13.5 23.5t32.5 10.5q22 0 150 -128z" />
    <glyph glyph-name="Dcaron" unicode="&#x10e;" horiz-adv-x="1204" 
d="M298 634q-115 24 -176.5 94.5t-61.5 173.5q0 155 144.5 261.5t361.5 106.5q294 0 449 -145t155 -393q0 -178 -85.5 -361t-228.5 -291t-310 -108q-129 0 -195.5 106.5t-66.5 359.5q0 115 14 196zM386 626q-14 -75 -14 -188q0 -187 39 -286.5t137 -99.5q218 0 375 220
t157 460q0 139 -58.5 243t-175 158.5t-288.5 54.5q-177 0 -292.5 -85t-115.5 -201q0 -150 156 -186q16 110 37 208t26 111t16 21t25 8q18 0 31 -13t13 -31q0 -10 -2 -14q-30 -111 -56 -298q106 5 166.5 43t63.5 91q2 17 15 28.5t31 11.5t31 -13t13 -31q0 -76 -84 -142
t-246 -70zM668 1470q60 51 101.5 83t47 33.5t19.5 1.5q44 0 44 -32q0 -25 -20 -38q-58 -37 -150 -116q-19 -16 -36 -16q-16 0 -97 44.5t-109 65.5t-28 42q0 11 13.5 22.5t30.5 11.5q15 0 26 -8q62 -44 158 -94z" />
    <glyph glyph-name="dcaron" unicode="&#x10f;" horiz-adv-x="800" 
d="M644 760q-8 -367 -98 -571.5t-244 -204.5q-96 0 -159 86t-63 226q0 153 77.5 270.5t192.5 117.5q58 0 103 -33.5t45 -64.5q0 -18 -13 -31t-31 -13q-25 0 -38 22q-19 30 -66 30q-74 0 -128 -90.5t-54 -207.5q0 -102 37.5 -166t98.5 -64q110 0 178.5 190.5t73.5 517.5
q-136 37 -217 124t-81 188q0 73 46 127.5t116 54.5q104 0 165 -120t61 -292v-12q41 -7 74 -10q38 -3 38 -40q0 -15 -12.5 -28.5t-23.5 -13.5q-41 0 -78 8zM558 862q0 154 -45 238t-97 84q-30 0 -49 -29.5t-19 -66.5q0 -72 57.5 -136t152.5 -90zM854 1270q17 0 33 -13.5
t16 -32.5q0 -25 -46 -116t-91 -91q-17 0 -32.5 14t-15.5 34q0 21 20 37q29 20 74 140q10 28 42 28z" />
    <glyph glyph-name="Dcroat" unicode="&#x110;" horiz-adv-x="1204" 
d="M304 694q-105 7 -174.5 74t-69.5 160q0 142 149.5 242t352.5 100q296 0 452 -145t156 -393q0 -178 -85.5 -361t-228.5 -291t-310 -108q-131 0 -196.5 100t-65.5 354v26q-110 -18 -152 -18q-50 0 -50 40q0 42 50 42q49 0 156 20q5 92 16 158zM372 470v-44q0 -372 176 -372
q218 0 375 219.5t157 458.5q0 213 -131.5 334.5t-390.5 121.5q-167 0 -287.5 -78.5t-120.5 -181.5q0 -131 166 -152q7 53 27.5 147.5t25 109t16 23t25.5 8.5q17 0 29.5 -12t12.5 -26t-2 -20q-19 -81 -46 -238q100 5 159.5 51.5t62.5 102.5q2 17 15 28.5t31 11.5t31 -13
t13 -31q0 -78 -82.5 -152.5t-241.5 -79.5q-14 -86 -14 -130q289 52 328 52q42 0 42 -44q0 -38 -42 -38q-66 -2 -334 -56z" />
    <glyph glyph-name="dcroat" unicode="&#x111;" horiz-adv-x="680" 
d="M602 850q28 -84 28 -200q0 -285 -90 -475.5t-250 -190.5q-98 0 -163 83t-65 215q0 173 83 286.5t195 113.5q70 0 108 -35t38 -63q0 -18 -12.5 -31t-31.5 -13q-31 0 -48 26q-19 28 -60 28q-72 0 -127 -88.5t-55 -223.5q0 -93 40 -156.5t102 -63.5q113 0 179.5 170.5
t66.5 417.5q0 95 -28 196l-204 8q-24 0 -41 11.5t-17 26.5q0 17 17.5 31.5t40.5 14.5l168 -6q-49 108 -118.5 165t-141.5 65q-36 4 -36 38q0 19 14 32.5t32 13.5h8q62 0 164 -74t176 -240l114 16q23 0 40.5 -12t17.5 -24q0 -21 -18 -35t-126 -27z" />
    <glyph glyph-name="Emacron" unicode="&#x112;" horiz-adv-x="1046" 
d="M238 264q152 90 366 90q155 0 260.5 -64.5t105.5 -163.5q0 -79 -70.5 -129.5t-207.5 -50.5q-148 0 -274.5 48.5t-203.5 139.5q-64 -65 -70 -160q-4 -42 -44 -42q-18 0 -31 13t-13 31q0 131 108 236q-44 97 -44 192q0 215 164 350q-20 57 -20 114q0 184 150 306
q-38 67 -38 136q0 19 13 32.5t33 13.5q17 0 29.5 -13.5t12.5 -32.5q0 -46 24 -94q88 42 194 42q113 0 180.5 -45.5t67.5 -116.5q0 -57 -44 -94.5t-112 -37.5q-75 0 -160.5 37.5t-149.5 104.5q-110 -92 -110 -238q0 -36 8 -62q103 54 226 54q135 0 221.5 -54t86.5 -136
q0 -46 -25 -84.5t-75 -59t-124 -20.5q-235 0 -350 168q-112 -103 -112 -270q0 -66 28 -140zM682 1176q-80 0 -144 -28q51 -47 117.5 -75.5t118.5 -28.5q27 0 47.5 14.5t20.5 37.5q0 35 -44.5 57.5t-115.5 22.5zM390 724q100 -136 280 -136q138 0 138 80q0 43 -64 75.5
t-158 32.5q-128 0 -196 -52zM280 188q65 -77 175.5 -119.5t236.5 -42.5q86 0 137 28.5t51 71.5q0 59 -82.5 102.5t-193.5 43.5q-191 0 -324 -84zM677 1536q54 0 86 6l54 10q19 0 31.5 -13t12.5 -31q0 -22 -53 -35t-131 -13l-158 8q-18 0 -31 10.5t-13 25.5q0 14 13.5 27
t30.5 13z" />
    <glyph glyph-name="emacron" unicode="&#x113;" horiz-adv-x="596" 
d="M244 332q0 17 12.5 30.5t31.5 13.5q76 0 135 43.5t59 106.5q0 68 -80 68q-85 0 -163.5 -98t-78.5 -244q0 -87 42 -138.5t124 -51.5q87 0 140 66q13 16 32 16q40 0 40 -46q0 -32 -67 -75t-151 -43q-115 0 -182.5 73t-67.5 199q0 181 104.5 304.5t229.5 123.5
q80 0 124 -42.5t44 -111.5q0 -104 -88.5 -170t-195.5 -66q-44 0 -44 42zM402 936q35 0 65 4l75 12q17 0 30.5 -10.5t13.5 -21.5q0 -15 -9.5 -28.5t-66 -22.5t-108.5 -9l-148 8q-18 0 -31 10.5t-13 23.5q0 15 13 28.5t31 13.5z" />
    <glyph glyph-name="Edotaccent" unicode="&#x116;" horiz-adv-x="1046" 
d="M238 264q152 90 366 90q155 0 260.5 -64.5t105.5 -163.5q0 -79 -70.5 -129.5t-207.5 -50.5q-148 0 -274.5 48.5t-203.5 139.5q-64 -65 -70 -160q-4 -42 -44 -42q-18 0 -31 13t-13 31q0 131 108 236q-44 97 -44 192q0 215 164 350q-20 57 -20 114q0 184 150 306
q-38 67 -38 136q0 19 13 32.5t33 13.5q17 0 29.5 -13.5t12.5 -32.5q0 -46 24 -94q88 42 194 42q113 0 180.5 -45.5t67.5 -116.5q0 -57 -44 -94.5t-112 -37.5q-75 0 -160.5 37.5t-149.5 104.5q-110 -92 -110 -238q0 -36 8 -62q103 54 226 54q135 0 221.5 -54t86.5 -136
q0 -46 -25 -84.5t-75 -59t-124 -20.5q-235 0 -350 168q-112 -103 -112 -270q0 -66 28 -140zM682 1176q-80 0 -144 -28q51 -47 117.5 -75.5t118.5 -28.5q27 0 47.5 14.5t20.5 37.5q0 35 -44.5 57.5t-115.5 22.5zM390 724q100 -136 280 -136q138 0 138 80q0 43 -64 75.5
t-158 32.5q-128 0 -196 -52zM280 188q65 -77 175.5 -119.5t236.5 -42.5q86 0 137 28.5t51 71.5q0 59 -82.5 102.5t-193.5 43.5q-191 0 -324 -84zM704 1526q0 -2 3 -14t3 -14q0 -18 -13.5 -31t-32.5 -13q-50 0 -50 139q0 17 13.5 29t30.5 12q46 0 46 -94v-14z" />
    <glyph glyph-name="edotaccent" unicode="&#x117;" horiz-adv-x="596" 
d="M244 332q0 17 12.5 30.5t31.5 13.5q76 0 135 43.5t59 106.5q0 68 -80 68q-85 0 -163.5 -98t-78.5 -244q0 -87 42 -138.5t124 -51.5q87 0 140 66q13 16 32 16q40 0 40 -46q0 -32 -67 -75t-151 -43q-115 0 -182.5 73t-67.5 199q0 181 104.5 304.5t229.5 123.5
q80 0 124 -42.5t44 -111.5q0 -104 -88.5 -170t-195.5 -66q-44 0 -44 42zM438 926q0 -2 3 -14t3 -14q0 -18 -13.5 -31t-32.5 -13q-50 0 -50 136v2q0 18 13 30t31 12q46 0 46 -76v-32z" />
    <glyph glyph-name="Eogonek" unicode="&#x118;" horiz-adv-x="1046" 
d="M238 264q152 90 366 90q155 0 260.5 -64.5t105.5 -163.5q0 -79 -70.5 -129.5t-207.5 -50.5q-48 0 -96 6q-88 -69 -88 -144q0 -33 21.5 -50.5t46.5 -17.5q23 0 36 10q11 8 30 8q36 0 36 -38q0 -25 -32.5 -39.5t-69.5 -14.5q-61 0 -105.5 37.5t-44.5 92.5q0 91 76 172
q-187 46 -288 166q-64 -65 -70 -160q-4 -42 -44 -42q-18 0 -31 13t-13 31q0 131 108 236q-44 97 -44 192q0 215 164 350q-20 57 -20 114q0 184 150 306q-38 67 -38 136q0 19 13 32.5t33 13.5q17 0 29.5 -13.5t12.5 -32.5q0 -46 24 -94q88 42 194 42q113 0 180.5 -45.5
t67.5 -116.5q0 -57 -44 -94.5t-112 -37.5q-75 0 -160.5 37.5t-149.5 104.5q-110 -92 -110 -238q0 -36 8 -62q103 54 226 54q135 0 221.5 -54t86.5 -136q0 -46 -25 -84.5t-75 -59t-124 -20.5q-235 0 -350 168q-112 -103 -112 -270q0 -66 28 -140zM682 1176q-80 0 -144 -28
q51 -47 117.5 -75.5t118.5 -28.5q27 0 47.5 14.5t20.5 37.5q0 35 -44.5 57.5t-115.5 22.5zM390 724q100 -136 280 -136q138 0 138 80q0 43 -64 75.5t-158 32.5q-128 0 -196 -52zM280 188q65 -77 175.5 -119.5t236.5 -42.5q86 0 137 28.5t51 71.5q0 59 -82.5 102.5
t-193.5 43.5q-191 0 -324 -84z" />
    <glyph glyph-name="eogonek" unicode="&#x119;" horiz-adv-x="596" 
d="M344 -18q-7 -2 -24 -2q-115 0 -182.5 73t-67.5 199q0 181 104.5 304.5t229.5 123.5q80 0 124 -42.5t44 -111.5q0 -104 -88.5 -170t-195.5 -66q-44 0 -44 42q0 17 12.5 30.5t31.5 13.5q76 0 135 43.5t59 106.5q0 68 -80 68q-85 0 -163.5 -98t-78.5 -244q0 -87 42 -138.5
t124 -51.5q87 0 140 66q13 16 32 16q40 0 40 -46q0 -21 -34 -52q-130 -117 -130 -178q0 -80 62 -80q14 0 30 8t30 8q38 0 38 -38q0 -23 -27 -36.5t-61 -13.5q-62 0 -106 39.5t-44 100.5q0 67 48 126z" />
    <glyph glyph-name="Ecaron" unicode="&#x11a;" horiz-adv-x="1046" 
d="M238 264q152 90 366 90q155 0 260.5 -64.5t105.5 -163.5q0 -79 -70.5 -129.5t-207.5 -50.5q-148 0 -274.5 48.5t-203.5 139.5q-64 -65 -70 -160q-4 -42 -44 -42q-18 0 -31 13t-13 31q0 131 108 236q-44 97 -44 192q0 215 164 350q-20 57 -20 114q0 184 150 306
q-38 67 -38 136q0 19 13 32.5t33 13.5q17 0 29.5 -13.5t12.5 -32.5q0 -46 24 -94q88 42 194 42q113 0 180.5 -45.5t67.5 -116.5q0 -57 -44 -94.5t-112 -37.5q-75 0 -160.5 37.5t-149.5 104.5q-110 -92 -110 -238q0 -36 8 -62q103 54 226 54q135 0 221.5 -54t86.5 -136
q0 -46 -25 -84.5t-75 -59t-124 -20.5q-235 0 -350 168q-112 -103 -112 -270q0 -66 28 -140zM682 1176q-80 0 -144 -28q51 -47 117.5 -75.5t118.5 -28.5q27 0 47.5 14.5t20.5 37.5q0 35 -44.5 57.5t-115.5 22.5zM390 724q100 -136 280 -136q138 0 138 80q0 43 -64 75.5
t-158 32.5q-128 0 -196 -52zM280 188q65 -77 175.5 -119.5t236.5 -42.5q86 0 137 28.5t51 71.5q0 59 -82.5 102.5t-193.5 43.5q-191 0 -324 -84zM678 1470q60 51 101.5 83t47 33.5t19.5 1.5q44 0 44 -32q0 -25 -20 -38q-58 -37 -150 -116q-19 -16 -36 -16q-16 0 -97 44.5
t-109 65.5t-28 42q0 11 13.5 22.5t30.5 11.5q15 0 26 -8q62 -44 158 -94z" />
    <glyph glyph-name="ecaron" unicode="&#x11b;" horiz-adv-x="596" 
d="M244 332q0 17 12.5 30.5t31.5 13.5q76 0 135 43.5t59 106.5q0 68 -80 68q-85 0 -163.5 -98t-78.5 -244q0 -87 42 -138.5t124 -51.5q87 0 140 66q13 16 32 16q40 0 40 -46q0 -32 -67 -75t-151 -43q-115 0 -182.5 73t-67.5 199q0 181 104.5 304.5t229.5 123.5
q80 0 124 -42.5t44 -111.5q0 -104 -88.5 -170t-195.5 -66q-44 0 -44 42zM408 862q26 18 72 55q50 41 62 48t32 7q16 0 28 -11t12 -23q0 -22 -22 -37l-101 -70q-78 -55 -91 -55q-18 0 -26 8q-124 124 -140 134q-22 13 -22 38q0 13 13.5 23.5t32.5 10.5q22 0 150 -128z" />
    <glyph glyph-name="Gbreve" unicode="&#x11e;" horiz-adv-x="1460" 
d="M1112 540q62 26 114 26q88 0 142 -60.5t54 -155.5q0 -45 -14 -89.5t-48 -44.5q-17 0 -28.5 13t-11.5 31v4q0 10 2 14q14 34 14 72q0 57 -28 92.5t-82 35.5q-40 0 -76 -14q18 -54 18 -112q0 -141 -120.5 -256.5t-317.5 -115.5q-272 0 -461 186t-189 454q0 278 183 460
t463 182q47 0 98 -10q23 82 62.5 118t63.5 36q18 0 31 -13.5t13 -32.5q0 -30 -30 -40q-38 -14 -60 -88q138 -48 216 -145t78 -189q0 -62 -36.5 -102t-97.5 -40q-102 0 -183 115t-81 255q0 27 2 46q-36 6 -76 6q-244 0 -399 -160t-155 -398q0 -233 161.5 -395.5t396.5 -162.5
q146 0 247 84.5t101 209.5q0 38 -8 70q-113 -64 -220 -64q-122 0 -194 48.5t-72 125.5q0 65 56.5 110.5t153.5 45.5q215 0 318 -152zM890 1150q-2 -9 -2 -32q0 -110 59.5 -194t118.5 -84q42 0 42 58q0 60 -58.5 135.5t-159.5 116.5zM1034 502q-82 106 -240 106
q-55 0 -88.5 -22t-33.5 -50q0 -39 51 -64.5t127 -25.5q77 0 184 56zM510 1624q30 0 40 -34q32 -96 124 -96q65 0 95 22.5t63 75.5q13 22 38 22q38 0 38 -36t-60 -97t-174 -61q-97 0 -148.5 58t-51.5 102q0 16 12 30t24 14z" />
    <glyph glyph-name="gbreve" unicode="&#x11f;" horiz-adv-x="642" 
d="M346 -20q-25 -6 -54 -6q-103 0 -165.5 71.5t-62.5 192.5q0 170 96 307t230 137q97 0 151.5 -71t54.5 -195q0 -20 -13.5 -33t-32.5 -13q-40 0 -40 46q0 71 -31.5 127.5t-88.5 56.5q-94 0 -165 -114t-71 -248q0 -184 150 -184h10q-20 38 -20 94q0 75 43.5 132.5t108.5 57.5
q51 0 82.5 -38t31.5 -96q0 -126 -132 -200q25 -34 50 -56q106 -96 106 -216q0 -155 -123 -255.5t-291 -100.5q-141 0 -223.5 64t-82.5 176q0 92 63 156t153 64q54 0 89 -25.5t35 -62.5q0 -40 -40 -40q-26 0 -34 14q-19 30 -54 30q-51 0 -86.5 -39t-35.5 -97q0 -74 57.5 -116
t158.5 -42q125 0 224.5 76.5t99.5 197.5q0 79 -76 158q-44 44 -72 90zM378 146q0 -40 14 -74q38 20 61 58t23 74q0 50 -34 50q-24 0 -44 -33t-20 -75zM196 990q0 44 36 44q14 0 26.5 -10t13.5 -24q5 -42 35 -74t69 -32q105 0 138 98q11 32 38 32q16 0 27 -10.5t11 -19.5
q0 -50 -59 -112t-155 -62q-79 0 -129.5 54.5t-50.5 113.5v2z" />
    <glyph glyph-name="Gcommaaccent" unicode="&#x122;" horiz-adv-x="1460" 
d="M1112 540q62 26 114 26q88 0 142 -60.5t54 -155.5q0 -45 -14 -89.5t-48 -44.5q-17 0 -28.5 13t-11.5 31v4q0 10 2 14q14 34 14 72q0 57 -28 92.5t-82 35.5q-40 0 -76 -14q18 -54 18 -112q0 -141 -120.5 -256.5t-317.5 -115.5q-272 0 -461 186t-189 454q0 278 183 460
t463 182q47 0 98 -10q23 82 62.5 118t63.5 36q18 0 31 -13.5t13 -32.5q0 -30 -30 -40q-38 -14 -60 -88q138 -48 216 -145t78 -189q0 -62 -36.5 -102t-97.5 -40q-102 0 -183 115t-81 255q0 27 2 46q-36 6 -76 6q-244 0 -399 -160t-155 -398q0 -233 161.5 -395.5t396.5 -162.5
q146 0 247 84.5t101 209.5q0 38 -8 70q-113 -64 -220 -64q-122 0 -194 48.5t-72 125.5q0 65 56.5 110.5t153.5 45.5q215 0 318 -152zM890 1150q-2 -9 -2 -32q0 -110 59.5 -194t118.5 -84q42 0 42 58q0 60 -58.5 135.5t-159.5 116.5zM1034 502q-82 106 -240 106
q-55 0 -88.5 -22t-33.5 -50q0 -39 51 -64.5t127 -25.5q77 0 184 56zM662 -90q17 0 33 -13.5t16 -32.5q0 -25 -46 -116t-91 -91q-17 0 -32.5 14t-15.5 34q0 21 20 37q29 20 74 140q10 28 42 28z" />
    <glyph glyph-name="gcommaaccent" unicode="&#x123;" horiz-adv-x="642" 
d="M346 -20q-25 -6 -54 -6q-103 0 -165.5 71.5t-62.5 192.5q0 170 96 307t230 137q97 0 151.5 -71t54.5 -195q0 -20 -13.5 -33t-32.5 -13q-40 0 -40 46q0 71 -31.5 127.5t-88.5 56.5q-94 0 -165 -114t-71 -248q0 -184 160 -184q-20 38 -20 94q0 75 43.5 132.5t108.5 57.5
q51 0 82.5 -38t31.5 -96q0 -126 -132 -200q25 -34 50 -56q106 -96 106 -216q0 -155 -123 -255.5t-291 -100.5q-141 0 -223.5 64t-82.5 176q0 92 63 156t153 64q54 0 89 -25.5t35 -62.5q0 -40 -40 -40q-26 0 -34 14q-19 30 -54 30q-51 0 -86.5 -39t-35.5 -97q0 -74 57.5 -116
t158.5 -42q125 0 224.5 76.5t99.5 197.5q0 79 -76 158q-44 44 -72 90zM378 146q0 -40 14 -74q38 20 61 58t23 74q0 50 -34 50q-24 0 -44 -33t-20 -75zM412 806q-17 0 -33 13.5t-16 32.5q0 25 46 116t91 91q17 0 32.5 -14t15.5 -34q0 -21 -20 -37q-29 -20 -74 -140
q-10 -28 -42 -28z" />
    <glyph glyph-name="Imacron" unicode="&#x12a;" horiz-adv-x="882" 
d="M480 966q-57 -10 -112 -10q-127 0 -195.5 46.5t-68.5 121.5q0 62 57.5 104t140.5 42q92 0 160 -51.5t94 -150.5q173 44 186 176q1 16 14.5 28t29.5 12q19 0 31.5 -13.5t12.5 -32.5v-4q-7 -88 -72 -154t-190 -96l2 -40q0 -119 -84 -358q-76 -208 -80 -294q67 12 106 12
q147 0 228.5 -53.5t81.5 -136.5q0 -73 -63.5 -118.5t-172.5 -45.5q-108 0 -182 62.5t-88 171.5q-91 -26 -155.5 -88.5t-76.5 -135.5q-7 -36 -42 -36q-42 0 -42 44q0 61 75.5 158.5t238.5 143.5q0 113 86 348q54 145 67 209.5t13 114.5v24zM468 1046q-34 142 -166 142
q-48 0 -78 -17.5t-30 -46.5q0 -38 48.5 -62t125.5 -24q49 0 100 8zM406 208q7 -82 57 -129t125 -47q66 0 105 22.5t39 61.5q0 46 -61.5 77t-150.5 31q-41 0 -114 -16zM445 1536q54 0 86 6l54 10q19 0 31.5 -13t12.5 -31q0 -22 -53 -35t-131 -13l-158 8q-18 0 -31 10.5
t-13 25.5q0 14 13.5 27t30.5 13z" />
    <glyph glyph-name="imacron" unicode="&#x12b;" horiz-adv-x="320" 
d="M212 666q18 0 32 -13.5t14 -32.5q0 -6 -2 -10q-27 -108 -52 -280.5t-34 -313.5q-4 -42 -44 -42q-19 0 -32.5 13.5t-13.5 32.5q0 85 39.5 345.5t55.5 280.5t37 20zM235 936q35 0 65 4l75 12q17 0 30.5 -10.5t13.5 -21.5q0 -15 -9.5 -28.5t-66 -22.5t-108.5 -9l-148 8
q-18 0 -31 10.5t-13 23.5q0 15 13 28.5t31 13.5z" />
    <glyph glyph-name="Iogonek" unicode="&#x12e;" horiz-adv-x="882" 
d="M480 966q-57 -10 -112 -10q-127 0 -195.5 46.5t-68.5 121.5q0 62 57.5 104t140.5 42q92 0 160 -51.5t94 -150.5q173 44 186 176q1 16 14.5 28t29.5 12q19 0 31.5 -13.5t12.5 -32.5q0 -71 -59.5 -144.5t-202.5 -109.5q0 -88 -5.5 -132.5t-22 -101t-45.5 -139.5
q-48 -135 -66.5 -195.5t-22.5 -123.5q67 12 106 12q147 0 228.5 -53.5t81.5 -136.5q0 -73 -63.5 -118.5t-172.5 -45.5q-53 0 -92 14q-98 -81 -98 -156q0 -33 21.5 -50.5t46.5 -17.5q23 0 36 10q11 8 30 8q36 0 36 -38q0 -25 -32.5 -39.5t-69.5 -14.5q-61 0 -105.5 37.5
t-44.5 92.5q0 108 106 204q-91 67 -104 184q-91 -26 -155.5 -88.5t-76.5 -135.5q-7 -36 -42 -36q-42 0 -42 44q0 61 75.5 158.5t238.5 143.5q0 113 86 348q44 123 62 193.5t18 154.5zM468 1046q-34 142 -166 142q-48 0 -78 -17.5t-30 -46.5q0 -38 48.5 -62t125.5 -24
q49 0 100 8zM406 208q7 -82 57 -129t125 -47q66 0 105 22.5t39 61.5q0 46 -61.5 77t-150.5 31q-41 0 -114 -16z" />
    <glyph glyph-name="iogonek" unicode="&#x12f;" horiz-adv-x="320" 
d="M238 910l112 14l-80 -56l122 -78l-148 24l-56 -110l2 116l-100 8l98 56l-10 92zM82 10q-2 4 -2 10q0 79 39 341.5t55.5 283t38.5 20.5q18 0 31.5 -13.5t13.5 -31.5q0 -6 -2 -10q-27 -107 -52 -282.5t-34 -319.5q-1 -16 -46 -60q-76 -76 -76 -120q0 -80 62 -80q14 0 30 8
t30 8q38 0 38 -38q0 -24 -28.5 -37t-59.5 -13q-62 0 -106 39.5t-44 100.5q0 102 112 194z" />
    <glyph glyph-name="Idotaccent" unicode="&#x130;" horiz-adv-x="882" 
d="M480 966q-57 -10 -112 -10q-127 0 -195.5 46.5t-68.5 121.5q0 62 57.5 104t140.5 42q92 0 160 -51.5t94 -150.5q173 44 186 176q1 16 14.5 28t29.5 12q19 0 31.5 -13.5t12.5 -32.5v-4q-7 -88 -72 -154t-190 -96l2 -40q0 -119 -84 -358q-76 -208 -80 -294q67 12 106 12
q147 0 228.5 -53.5t81.5 -136.5q0 -73 -63.5 -118.5t-172.5 -45.5q-108 0 -182 62.5t-88 171.5q-91 -26 -155.5 -88.5t-76.5 -135.5q-7 -36 -42 -36q-42 0 -42 44q0 61 75.5 158.5t238.5 143.5q0 113 86 348q54 145 67 209.5t13 114.5v24zM468 1046q-34 142 -166 142
q-48 0 -78 -17.5t-30 -46.5q0 -38 48.5 -62t125.5 -24q49 0 100 8zM406 208q7 -82 57 -129t125 -47q66 0 105 22.5t39 61.5q0 46 -61.5 77t-150.5 31q-41 0 -114 -16zM522 1526q0 -2 3 -14t3 -14q0 -18 -13.5 -31t-32.5 -13q-50 0 -50 139q0 17 13.5 29t30.5 12q46 0 46 -94
v-14z" />
    <glyph glyph-name="dotlessi" unicode="&#x131;" horiz-adv-x="320" 
d="M212 666q18 0 32 -13.5t14 -32.5q0 -6 -2 -10q-27 -108 -52 -280.5t-34 -313.5q-4 -42 -44 -42q-19 0 -32.5 13.5t-13.5 32.5q0 85 39.5 345.5t55.5 280.5t37 20z" />
    <glyph glyph-name="Kcommaaccent" unicode="&#x136;" horiz-adv-x="1420" 
d="M594 448q-6 -133 -20.5 -226.5t-48.5 -164t-86 -100t-77 -29.5q-17 0 -31.5 12.5t-14.5 29.5q0 23 30 36q85 33 119 143.5t41 304.5q-160 28 -160 160q0 53 44.5 98t117.5 64l6 146q-50 -8 -120 -8q-157 0 -245.5 84.5t-88.5 189.5q0 19 13 31.5t31 12.5q41 0 44 -40
q5 -89 72 -143.5t174 -54.5q68 0 128 12q21 173 86 260.5t156 87.5q60 0 96 -39.5t36 -98.5q0 -85 -77.5 -160t-216.5 -114q-6 -74 -6 -160q110 -9 226 -114q52 54 232 288q120 157 183.5 199.5t114.5 42.5q18 0 31 -12t13 -30q0 -42 -44 -42q-36 0 -105 -67.5t-123 -142.5
q-136 -189 -244 -296q41 -46 123 -178q211 -342 328 -448t213 -106q22 0 51 4q14 2 19 2q36 0 36 -28q0 -64 -108 -64q-120 0 -236.5 98.5t-207.5 228.5t-202 315q-56 93 -78 120q-120 -97 -224 -104zM762 1274q-49 0 -90.5 -63.5t-61.5 -180.5q91 33 144.5 85.5t53.5 100.5
q0 58 -46 58zM596 700l-4 -170q81 4 172 80q-74 78 -168 90zM506 690q-31 -8 -51.5 -31t-20.5 -45q0 -65 70 -78zM814 -70q17 0 33 -13.5t16 -32.5q0 -25 -46 -116t-91 -91q-17 0 -32.5 14t-15.5 34q0 21 20 37q29 20 74 140q10 28 42 28z" />
    <glyph glyph-name="kcommaaccent" unicode="&#x137;" horiz-adv-x="736" 
d="M266 276q-10 -66 -10 -142q0 -56 8 -80q6 -9 6 -20q0 -19 -13 -31.5t-31 -12.5q-60 0 -60 144q0 56 14 154q-142 46 -142 152q0 71 54 116.5t144 45.5l51 240q41 185 41 260q0 57 -6 71t-6 21q0 21 14 33.5t32 12.5q26 0 40 -25.5t14 -112.5q0 -114 -67 -399
q-18 -74 -25 -113q104 -25 186 -120q86 89 94 186q4 40 40 40q18 0 31 -13t13 -31q0 -55 -41 -132t-91 -116q116 -150 116 -364q0 -50 -46 -50q-40 0 -40 50q0 168 -96 308q-93 -72 -216 -72h-8zM220 520q-94 -7 -94 -80q0 -51 64 -74q16 95 30 154zM278 354q105 0 170 60
q-56 74 -140 98q-16 -66 -30 -158zM392 -90q17 0 33 -13.5t16 -32.5q0 -25 -46 -116t-91 -91q-17 0 -32.5 14t-15.5 34q0 21 20 37q29 20 74 140q10 28 42 28z" />
    <glyph glyph-name="Lacute" unicode="&#x139;" horiz-adv-x="1126" 
d="M590 882q27 231 126 369.5t228 138.5q59 0 96.5 -41t37.5 -111q0 -124 -110 -239t-296 -183q-18 -222 -30 -304q208 -31 312 -147.5t104 -272.5q0 -121 -71 -204.5t-107 -83.5q-19 0 -32.5 13t-13.5 31q0 23 20 36q116 76 116 210q0 129 -85 219.5t-257 114.5
q-106 -512 -422 -512q-88 0 -147 57t-59 147q0 96 66.5 191t189 151t284.5 56h14q10 56 26 274q-63 -10 -118 -10q-145 0 -231.5 72t-86.5 196q0 18 12.5 31t31.5 13q18 0 30 -13t12 -31q0 -59 29 -100t83 -61.5t120 -20.5q69 0 128 14zM682 910q137 56 220.5 149t83.5 177
q0 28 -16 46t-42 18q-68 0 -140 -96.5t-106 -293.5zM208 0q244 0 334 432q-207 0 -329.5 -95.5t-122.5 -216.5q0 -53 34.5 -86.5t83.5 -33.5zM948 1482q0 19 10.5 29.5t75.5 48.5q123 68 174 116q11 10 28 10q18 0 32 -11.5t14 -22.5q0 -15 -9.5 -27.5t-61 -50t-111.5 -71.5
t-76.5 -44.5t-29.5 -10.5q-18 0 -32 12t-14 22z" />
    <glyph glyph-name="lacute" unicode="&#x13a;" horiz-adv-x="312" 
d="M250 1196q0 21 14 33.5t32 12.5q26 0 40 -25.5t14 -112.5q0 -83 -62 -340q-106 -434 -106 -628q0 -56 8 -80q6 -9 6 -20q0 -19 -13 -31.5t-31 -12.5q-60 0 -60 144q0 205 98 602q72 298 72 366q0 57 -6 71t-6 21zM143 1423q0 19 10.5 29.5t75.5 48.5q123 68 174 116
q11 10 28 10q18 0 32 -11.5t14 -22.5q0 -15 -9.5 -27.5t-61 -50t-111.5 -71.5t-76.5 -44.5t-29.5 -10.5q-18 0 -32 12t-14 22z" />
    <glyph glyph-name="Lcommaaccent" unicode="&#x13b;" horiz-adv-x="1126" 
d="M590 882q27 231 126 369.5t228 138.5q59 0 96.5 -41t37.5 -111q0 -124 -110 -239t-296 -183q-18 -222 -30 -304q208 -31 312 -147.5t104 -272.5q0 -121 -71 -204.5t-107 -83.5q-19 0 -32.5 13t-13.5 31q0 23 20 36q116 76 116 210q0 129 -85 219.5t-257 114.5
q-106 -512 -422 -512q-88 0 -147 57t-59 147q0 96 66.5 191t189 151t284.5 56h14q10 56 26 274q-63 -10 -118 -10q-145 0 -231.5 72t-86.5 196q0 18 12.5 31t31.5 13q18 0 30 -13t12 -31q0 -59 29 -100t83 -61.5t120 -20.5q69 0 128 14zM682 910q137 56 220.5 149t83.5 177
q0 28 -16 46t-42 18q-68 0 -140 -96.5t-106 -293.5zM208 0q244 0 334 432q-207 0 -329.5 -95.5t-122.5 -216.5q0 -53 34.5 -86.5t83.5 -33.5zM546 -90q17 0 33 -13.5t16 -32.5q0 -25 -46 -116t-91 -91q-17 0 -32.5 14t-15.5 34q0 21 20 37q29 20 74 140q10 28 42 28z" />
    <glyph glyph-name="lcommaaccent" unicode="&#x13c;" horiz-adv-x="312" 
d="M250 1196q0 21 14 33.5t32 12.5q26 0 40 -25.5t14 -112.5q0 -83 -62 -340q-106 -434 -106 -628q0 -56 8 -80q6 -9 6 -20q0 -19 -13 -31.5t-31 -12.5q-60 0 -60 144q0 205 98 602q72 298 72 366q0 57 -6 71t-6 21zM181 -90q17 0 33 -13.5t16 -32.5q0 -25 -46 -116t-91 -91
q-17 0 -32.5 14t-15.5 34q0 21 20 37q29 20 74 140q10 28 42 28z" />
    <glyph glyph-name="Lcaron" unicode="&#x13d;" horiz-adv-x="1126" 
d="M590 882q27 231 126 369.5t228 138.5q59 0 96.5 -41t37.5 -111q0 -124 -110 -239t-296 -183q-18 -222 -30 -304q208 -31 312 -147.5t104 -272.5q0 -121 -71 -204.5t-107 -83.5q-19 0 -32.5 13t-13.5 31q0 23 20 36q116 76 116 210q0 129 -85 219.5t-257 114.5
q-106 -512 -422 -512q-88 0 -147 57t-59 147q0 96 66.5 191t189 151t284.5 56h14q10 56 26 274q-63 -10 -118 -10q-145 0 -231.5 72t-86.5 196q0 18 12.5 31t31.5 13q18 0 30 -13t12 -31q0 -59 29 -100t83 -61.5t120 -20.5q69 0 128 14zM682 910q137 56 220.5 149t83.5 177
q0 28 -16 46t-42 18q-68 0 -140 -96.5t-106 -293.5zM208 0q244 0 334 432q-207 0 -329.5 -95.5t-122.5 -216.5q0 -53 34.5 -86.5t83.5 -33.5zM1286 1420q17 0 33 -13.5t16 -32.5q0 -25 -46 -116t-91 -91q-17 0 -32.5 14t-15.5 34q0 21 20 37q29 20 74 140q10 28 42 28z" />
    <glyph glyph-name="lcaron" unicode="&#x13e;" horiz-adv-x="432" 
d="M250 1196q0 21 14 33.5t32 12.5q26 0 40 -25.5t14 -112.5q0 -83 -62 -340q-106 -434 -106 -628q0 -56 8 -80q6 -9 6 -20q0 -19 -13 -31.5t-31 -12.5q-60 0 -60 144q0 205 98 602q72 298 72 366q0 57 -6 71t-6 21zM590 1254q17 0 33 -13.5t16 -32.5q0 -25 -46 -116
t-91 -91q-17 0 -32.5 14t-15.5 34q0 21 20 37q29 20 74 140q10 28 42 28z" />
    <glyph glyph-name="Lslash" unicode="&#x141;" horiz-adv-x="1126" 
d="M628 428q-106 -512 -422 -512q-88 0 -147 57t-59 147q0 96 66.5 191t189 151t284.5 56h14q4 21 8 84q-99 -24 -192 -24q-50 0 -50 40q0 13 13 26.5t37 13.5q71 0 204 28l6 106q-63 -10 -118 -10q-145 0 -231.5 72t-86.5 196q0 18 12.5 31t31.5 13q18 0 30 -13t12 -31
q0 -59 29 -100t83 -61.5t120 -20.5q69 0 128 14q27 231 126 369.5t228 138.5q60 0 97 -41.5t37 -110.5q0 -124 -110 -239t-296 -183l-8 -104q162 40 246 40q18 0 31 -12t13 -30q0 -15 -13 -26.5t-29 -11.5q-94 0 -256 -46l-14 -114q208 -31 312 -147.5t104 -272.5
q0 -121 -71 -204.5t-107 -83.5q-19 0 -32.5 13t-13.5 31q0 23 20 36q116 76 116 210q0 129 -85 219.5t-257 114.5zM682 910q137 56 220.5 149t83.5 177q0 28 -15.5 46t-40.5 18q-71 0 -142.5 -97t-105.5 -293zM208 -2q243 0 334 434q-205 0 -328.5 -98.5t-123.5 -213.5
q0 -53 35 -87.5t83 -34.5z" />
    <glyph glyph-name="lslash" unicode="&#x142;" horiz-adv-x="440" 
d="M312 604q-70 -313 -70 -468q0 -56 8 -80q6 -9 6 -20q0 -19 -13 -31.5t-31 -12.5q-60 0 -60 144q0 146 56 410q-79 -50 -112 -50q-17 0 -29.5 13.5t-12.5 32.5q0 17 11 29.5t27 12.5q27 0 136 64q94 382 94 456q0 57 -6 71t-6 21q0 21 14 33.5t32 12.5q26 0 40 -25.5
t14 -112.5q0 -65 -74 -394q119 76 152 76q17 0 29.5 -10.5t12.5 -25.5v-6q0 -42 -34 -48q-38 -6 -184 -92z" />
    <glyph glyph-name="Nacute" unicode="&#x143;" horiz-adv-x="1420" 
d="M654 986q220 240 410 240q141 0 216.5 -109t75.5 -323q0 -143 -41 -303.5t-117 -321t-96.5 -178t-35.5 -17.5q-18 0 -31 13.5t-13 32.5q0 12 6 24q110 178 174 381t64 369q0 168 -53 259t-151 91q-177 0 -392 -266q12 -102 12 -220q0 -300 -81.5 -498t-210.5 -198
q-65 0 -107.5 48t-42.5 124q0 153 96 376.5t240 389.5q-12 127 -50 232q-81 -34 -170 -34q-154 0 -255 69t-101 171q0 79 62.5 132.5t155.5 53.5q108 0 201 -68.5t155 -197.5q104 87 104 210q0 71 -40 134q-6 6 -6 22q0 20 12.5 33t31.5 13q36 0 64 -69t28 -133
q0 -173 -162 -292q27 -77 48 -190zM502 1208q-114 234 -284 234q-126 0 -126 -104q0 -65 76.5 -111.5t187.5 -46.5q68 0 146 28zM594 658q0 52 -4 126q-116 -153 -188 -341t-72 -309v-2q0 -36 18 -61t48 -25q74 0 136 174.5t62 437.5zM917 1423q0 19 10.5 29.5t75.5 48.5
q123 68 174 116q11 10 28 10q18 0 32 -11.5t14 -22.5q0 -15 -9.5 -27.5t-61 -50t-111.5 -71.5t-76.5 -44.5t-29.5 -10.5q-18 0 -32 12t-14 22z" />
    <glyph glyph-name="nacute" unicode="&#x144;" horiz-adv-x="700" 
d="M238 488q83 188 222 188q68 0 111 -68t43 -206q0 -63 -14 -164.5t-24.5 -160t-19 -67.5t-17 -11.5t-15.5 -2.5q-19 0 -32.5 13.5t-13.5 32.5q0 4 2 8q44 192 44 352q0 182 -72 182q-81 0 -166.5 -154.5t-133.5 -401.5q-7 -34 -42 -34q-42 0 -42 46q0 26 44 202
q42 172 42 246q0 84 -36 120q-10 17 -10 32q0 17 13 29.5t31 12.5q31 0 58.5 -48t27.5 -122v-24zM330 822q0 13 5 21t86 73l153 124q3 1 8 2q12 4 16 4q36 0 36 -34q0 -19 -11.5 -33.5t-109 -90.5t-116 -89t-37.5 -13q-11 0 -20.5 11.5t-9.5 24.5z" />
    <glyph glyph-name="Ncommaaccent" unicode="&#x145;" horiz-adv-x="1420" 
d="M654 986q220 240 410 240q141 0 216.5 -109t75.5 -323q0 -143 -41 -303.5t-117 -321t-96.5 -178t-35.5 -17.5q-18 0 -31 13.5t-13 32.5q0 12 6 24q110 178 174 381t64 369q0 168 -53 259t-151 91q-177 0 -392 -266q12 -102 12 -220q0 -300 -81.5 -498t-210.5 -198
q-65 0 -107.5 48t-42.5 124q0 153 96 376.5t240 389.5q-12 127 -50 232q-81 -34 -170 -34q-154 0 -255 69t-101 171q0 79 62.5 132.5t155.5 53.5q108 0 201 -68.5t155 -197.5q104 87 104 210q0 71 -40 134q-6 6 -6 22q0 20 12.5 33t31.5 13q36 0 64 -69t28 -133
q0 -173 -162 -292q27 -77 48 -190zM502 1208q-114 234 -284 234q-126 0 -126 -104q0 -65 76.5 -111.5t187.5 -46.5q68 0 146 28zM594 658q0 52 -4 126q-116 -153 -188 -341t-72 -309v-2q0 -36 18 -61t48 -25q74 0 136 174.5t62 437.5zM734 -70q17 0 33 -13.5t16 -32.5
q0 -25 -46 -116t-91 -91q-17 0 -32.5 14t-15.5 34q0 21 20 37q29 20 74 140q10 28 42 28z" />
    <glyph glyph-name="ncommaaccent" unicode="&#x146;" horiz-adv-x="700" 
d="M238 488q83 188 222 188q68 0 111 -68t43 -206q0 -63 -14 -164.5t-24.5 -160t-19 -67.5t-17 -11.5t-15.5 -2.5q-19 0 -32.5 13.5t-13.5 32.5q0 4 2 8q44 192 44 352q0 182 -72 182q-81 0 -166.5 -154.5t-133.5 -401.5q-7 -34 -42 -34q-42 0 -42 46q0 26 44 202
q42 172 42 246q0 84 -36 120q-10 17 -10 32q0 17 13 29.5t31 12.5q31 0 58.5 -48t27.5 -122v-24zM324 -90q17 0 33 -13.5t16 -32.5q0 -25 -46 -116t-91 -91q-17 0 -32.5 14t-15.5 34q0 21 20 37q29 20 74 140q10 28 42 28z" />
    <glyph glyph-name="Ncaron" unicode="&#x147;" horiz-adv-x="1420" 
d="M654 986q220 240 410 240q141 0 216.5 -109t75.5 -323q0 -143 -41 -303.5t-117 -321t-96.5 -178t-35.5 -17.5q-18 0 -31 13.5t-13 32.5q0 12 6 24q110 178 174 381t64 369q0 168 -53 259t-151 91q-177 0 -392 -266q12 -102 12 -220q0 -300 -81.5 -498t-210.5 -198
q-65 0 -107.5 48t-42.5 124q0 153 96 376.5t240 389.5q-12 127 -50 232q-81 -34 -170 -34q-154 0 -255 69t-101 171q0 79 62.5 132.5t155.5 53.5q108 0 201 -68.5t155 -197.5q104 87 104 210q0 71 -40 134q-6 6 -6 22q0 20 12.5 33t31.5 13q36 0 64 -69t28 -133
q0 -173 -162 -292q27 -77 48 -190zM502 1208q-114 234 -284 234q-126 0 -126 -104q0 -65 76.5 -111.5t187.5 -46.5q68 0 146 28zM594 658q0 52 -4 126q-116 -153 -188 -341t-72 -309v-2q0 -36 18 -61t48 -25q74 0 136 174.5t62 437.5zM1076 1470q60 51 101.5 83t47 33.5
t19.5 1.5q44 0 44 -32q0 -25 -20 -38q-58 -37 -150 -116q-19 -16 -36 -16q-16 0 -97 44.5t-109 65.5t-28 42q0 11 13.5 22.5t30.5 11.5q15 0 26 -8q62 -44 158 -94z" />
    <glyph glyph-name="ncaron" unicode="&#x148;" horiz-adv-x="700" 
d="M238 488q83 188 222 188q68 0 111 -68t43 -206q0 -63 -14 -164.5t-24.5 -160t-19 -67.5t-17 -11.5t-15.5 -2.5q-19 0 -32.5 13.5t-13.5 32.5q0 4 2 8q44 192 44 352q0 182 -72 182q-81 0 -166.5 -154.5t-133.5 -401.5q-7 -34 -42 -34q-42 0 -42 46q0 26 44 202
q42 172 42 246q0 84 -36 120q-10 17 -10 32q0 17 13 29.5t31 12.5q31 0 58.5 -48t27.5 -122v-24zM440 862q26 18 72 55q50 41 62 48t32 7q16 0 28 -11t12 -23q0 -22 -22 -37l-101 -70q-78 -55 -91 -55q-18 0 -26 8q-124 124 -140 134q-22 13 -22 38q0 13 13.5 23.5
t32.5 10.5q22 0 150 -128z" />
    <glyph glyph-name="Omacron" unicode="&#x14c;" horiz-adv-x="1320" 
d="M1242 1280v10q0 20 14.5 33t31.5 13q56 0 56 -144q0 -166 -132 -282q42 -101 42 -252q0 -285 -177.5 -476.5t-434.5 -191.5q-250 0 -405 162.5t-155 433.5q0 167 67 317.5t123 150.5q18 0 31 -12.5t13 -31.5q0 -18 -12 -30q-58 -53 -95 -164t-37 -230q0 -235 131 -374.5
t343 -139.5q216 0 367 171.5t151 414.5q0 111 -28 202q-106 -64 -272 -64q-193 0 -327.5 81.5t-134.5 204.5q0 85 77 140.5t201 55.5q151 0 279.5 -73t214.5 -215q82 85 82 200q0 22 -4 45zM1104 938q-74 125 -186.5 191.5t-237.5 66.5q-91 0 -140.5 -33t-49.5 -87
q0 -77 113 -137.5t269 -60.5q136 0 232 60zM764 1536q54 0 86 6l54 10q19 0 31.5 -13t12.5 -31q0 -22 -53 -35t-131 -13l-158 8q-18 0 -31 10.5t-13 25.5q0 14 13.5 27t30.5 13z" />
    <glyph glyph-name="omacron" unicode="&#x14d;" horiz-adv-x="682" 
d="M230 500q0 80 54 138t142 58q97 0 155.5 -75t58.5 -197q0 -176 -94.5 -310t-235.5 -134q-103 0 -166.5 84.5t-63.5 223.5q0 52 15.5 123t54.5 71q17 0 29.5 -13.5t12.5 -30.5q0 -8 -4 -20q-18 -45 -18 -128q0 -95 39 -160.5t105 -65.5q99 0 167.5 110t68.5 250
q0 79 -34 133.5t-94 54.5q-48 0 -75 -32.5t-27 -79.5q0 -37 19 -58.5t75 -21.5q19 0 32.5 -13t13.5 -31q0 -44 -54 -44q-81 0 -128.5 47t-47.5 121zM404 936q35 0 65 4l75 12q17 0 30.5 -10.5t13.5 -21.5q0 -15 -9.5 -28.5t-66 -22.5t-108.5 -9l-148 8q-18 0 -31 10.5
t-13 23.5q0 15 13 28.5t31 13.5z" />
    <glyph glyph-name="Ohungarumlaut" unicode="&#x150;" horiz-adv-x="1320" 
d="M1242 1280v10q0 20 14.5 33t31.5 13q56 0 56 -144q0 -166 -132 -282q42 -101 42 -252q0 -285 -177.5 -476.5t-434.5 -191.5q-250 0 -405 162.5t-155 433.5q0 167 67 317.5t123 150.5q18 0 31 -12.5t13 -31.5q0 -18 -12 -30q-58 -53 -95 -164t-37 -230q0 -235 131 -374.5
t343 -139.5q216 0 367 171.5t151 414.5q0 111 -28 202q-106 -64 -272 -64q-193 0 -327.5 81.5t-134.5 204.5q0 85 77 140.5t201 55.5q151 0 279.5 -73t214.5 -215q82 85 82 200q0 22 -4 45zM1104 938q-74 125 -186.5 191.5t-237.5 66.5q-91 0 -140.5 -33t-49.5 -87
q0 -77 113 -137.5t269 -60.5q136 0 232 60zM543 1412q0 26 16 34q142 115 184 174q12 16 34 16q18 0 32 -11.5t14 -24.5q0 -14 -9 -25l-36 -43q-27 -32 -95 -88.5t-76.5 -62t-25.5 -5.5q-14 0 -26 12t-12 24zM789 1430q0 14 6.5 24t55 44t98.5 64q38 23 72 46q13 10 26 10
q17 0 30.5 -11.5t13.5 -24.5q0 -19 -15.5 -32.5t-76.5 -49.5q-80 -48 -136 -94q-13 -10 -30 -10t-30.5 11.5t-13.5 22.5z" />
    <glyph glyph-name="ohungarumlaut" unicode="&#x151;" horiz-adv-x="682" 
d="M230 500q0 80 54 138t142 58q97 0 155.5 -75t58.5 -197q0 -176 -94.5 -310t-235.5 -134q-103 0 -166.5 84.5t-63.5 223.5q0 52 15.5 123t54.5 71q17 0 29.5 -13.5t12.5 -30.5q0 -8 -4 -20q-18 -45 -18 -128q0 -95 39 -160.5t105 -65.5q99 0 167.5 110t68.5 250
q0 79 -34 133.5t-94 54.5q-48 0 -75 -32.5t-27 -79.5q0 -37 19 -58.5t75 -21.5q19 0 32.5 -13t13.5 -31q0 -44 -54 -44q-81 0 -128.5 47t-47.5 121zM224 812q0 26 16 34q133 108 184 174q11 16 34 16q36 0 36 -42q0 -13 -10 -26.5t-42.5 -49.5t-92 -84.5t-68.5 -55t-25 -6.5
q-10 0 -21 14t-11 26zM470 830q0 14 6.5 24t55 44t98.5 64q38 23 72 46q13 10 26 10q34 0 34 -42q0 -19 -15.5 -32.5t-76.5 -49.5q-80 -48 -136 -94q-13 -10 -30 -10q-11 0 -22.5 13t-11.5 27z" />
    <glyph glyph-name="OE" unicode="&#x152;" horiz-adv-x="2188" 
d="M1458 188q72 91 181.5 141.5t218.5 50.5q125 0 189.5 -59t64.5 -145q0 -88 -77.5 -142t-214.5 -54q-199 0 -346 90q-35 -56 -43.5 -95t-8.5 -105q0 -17 -13 -29.5t-31 -12.5q-46 0 -46 70q0 105 70 220q-138 122 -138 310q0 199 174 320q-22 54 -28 108
q-127 -34 -250 -40q20 -83 20 -182q0 -289 -154.5 -472.5t-397.5 -183.5q-231 0 -388.5 169t-157.5 449q0 167 66.5 307.5t115.5 140.5q18 0 31 -13t13 -31q0 -17 -12 -32q-56 -58 -90 -159.5t-34 -212.5q0 -244 131 -390t325 -146q204 0 333 159.5t129 414.5q0 109 -18 178
h-54q-296 0 -472 74t-176 198q0 73 74.5 127.5t201.5 54.5q171 0 301.5 -95t190.5 -275q131 5 270 46q20 159 111.5 268.5t200.5 109.5q57 0 91.5 -33t34.5 -87q0 -83 -92.5 -167.5t-257.5 -146.5q0 -45 18 -96q116 48 230 48q116 0 177 -44.5t61 -115.5q0 -64 -51.5 -103
t-136.5 -39q-198 0 -312 138q-130 -90 -130 -246q0 -147 106 -240zM1502 972q119 49 186.5 111.5t67.5 116.5q0 11 -11 22.5t-25 11.5q-66 0 -130 -73.5t-88 -188.5zM1048 894q-59 144 -167.5 217t-236.5 73q-77 0 -130.5 -27.5t-53.5 -74.5q0 -75 153 -131.5t403 -56.5h32z
M1558 714q85 -96 232 -96h4q45 0 72.5 17t27.5 43q0 78 -150 78q-108 0 -186 -42zM1524 138q134 -76 300 -76q95 0 147.5 30.5t52.5 85.5q0 51 -43.5 85.5t-122.5 34.5q-94 0 -184 -42t-150 -118z" />
    <glyph glyph-name="oe" unicode="&#x153;" horiz-adv-x="1062" 
d="M618 518q44 76 110.5 117t139.5 41q80 0 125 -41.5t45 -112.5q0 -108 -90.5 -170t-193.5 -62q-44 0 -44 36q0 19 12.5 31.5t29.5 12.5q77 0 136.5 44.5t59.5 107.5q0 72 -80 72q-88 0 -166 -98.5t-78 -249.5q0 -86 44.5 -138t123.5 -52q80 0 124 56q11 16 32 16
q42 0 42 -40q0 -32 -55.5 -73t-146.5 -41q-171 0 -226 150q-87 -160 -244 -160q-108 0 -173 83.5t-65 226.5q0 66 13.5 118.5t27.5 65t31 12.5q38 0 38 -46q0 -4 -4 -16q-16 -53 -16 -134q0 -103 39.5 -165.5t110.5 -62.5q102 0 164 110t62 250q0 82 -32.5 137t-91.5 55
q-51 0 -80.5 -30.5t-29.5 -75.5q0 -20 10.5 -35t25.5 -15q13 0 22 12q13 10 30 10q44 0 44 -40q0 -27 -31 -46.5t-65 -19.5q-50 0 -88 39t-38 91q0 78 55.5 135t144.5 57q69 0 121.5 -42t74.5 -120z" />
    <glyph glyph-name="Racute" unicode="&#x154;" horiz-adv-x="1264" 
d="M802 540q71 -31 143 -102t146 -227q40 -84 62 -122.5t49 -54.5q28 -17 28 -42q0 -18 -13 -31t-31 -13q-75 0 -166 206q-83 193 -185.5 266t-230.5 90q-16 1 -27 14t-11 30q0 20 12 33t30 13q196 0 320 66.5t124 185.5q0 104 -76.5 186.5t-212.5 129t-287 46.5
q-129 0 -206.5 -43.5t-77.5 -112.5q0 -61 60 -106q110 136 332 136q109 0 179.5 -45.5t70.5 -112.5q0 -65 -78 -105.5t-218 -40.5q-136 0 -254 50q-46 -101 -46 -260q0 -362 78 -534q6 -12 6 -20q0 -18 -13 -31t-31 -13t-32.5 12.5t-41.5 98.5t-41.5 210.5t-14.5 276.5
q0 182 58 302q-104 75 -104 182q0 99 92 168.5t282 69.5q283 0 474.5 -124t191.5 -320q0 -117 -91 -204.5t-249 -107.5zM584 1000q-167 0 -256 -92q111 -40 210 -40q97 0 151.5 19t54.5 43q0 31 -43.5 50.5t-116.5 19.5zM499 1423q0 19 10.5 29.5t75.5 48.5q123 68 174 116
q11 10 28 10q18 0 32 -11.5t14 -22.5q0 -15 -9.5 -27.5t-61 -50t-111.5 -71.5t-76.5 -44.5t-29.5 -10.5q-18 0 -32 12t-14 22z" />
    <glyph glyph-name="racute" unicode="&#x155;" horiz-adv-x="474" 
d="M212 492q32 93 101 142.5t151 49.5q20 0 34 -12.5t14 -31.5q0 -37 -42 -40q-96 -6 -151.5 -73t-83 -163.5t-57.5 -261.5q-11 -65 -14.5 -81.5t-15 -26.5t-28.5 -10t-28.5 12.5t-11.5 31.5q0 4 13 89q43 274 43 319q0 104 -44 148q-12 10 -12 32q0 18 12.5 31t29.5 13
q30 0 60 -46.5t30 -111.5v-10zM226 822q0 13 5 21t86 73l153 124q3 1 8 2q12 4 16 4q36 0 36 -34q0 -19 -11.5 -33.5t-109 -90.5t-116 -89t-37.5 -13q-11 0 -20.5 11.5t-9.5 24.5z" />
    <glyph glyph-name="Rcommaaccent" unicode="&#x156;" horiz-adv-x="1264" 
d="M802 540q71 -31 143 -102t146 -227q40 -84 62 -122.5t49 -54.5q28 -17 28 -42q0 -18 -13 -31t-31 -13q-75 0 -166 206q-83 193 -185.5 266t-230.5 90q-16 1 -27 14t-11 30q0 20 12 33t30 13q196 0 320 66.5t124 185.5q0 104 -76.5 186.5t-212.5 129t-287 46.5
q-129 0 -206.5 -43.5t-77.5 -112.5q0 -61 60 -106q110 136 332 136q109 0 179.5 -45.5t70.5 -112.5q0 -65 -78 -105.5t-218 -40.5q-136 0 -254 50q-46 -101 -46 -260q0 -362 78 -534q6 -12 6 -20q0 -18 -13 -31t-31 -13t-32.5 12.5t-41.5 98.5t-41.5 210.5t-14.5 276.5
q0 182 58 302q-104 75 -104 182q0 99 92 168.5t282 69.5q283 0 474.5 -124t191.5 -320q0 -117 -91 -204.5t-249 -107.5zM584 1000q-167 0 -256 -92q111 -40 210 -40q97 0 151.5 19t54.5 43q0 31 -43.5 50.5t-116.5 19.5zM656 -40q17 0 33 -13.5t16 -32.5q0 -25 -46 -116
t-91 -91q-17 0 -32.5 14t-15.5 34q0 21 20 37q29 20 74 140q10 28 42 28z" />
    <glyph glyph-name="rcommaaccent" unicode="&#x157;" horiz-adv-x="474" 
d="M212 492q32 93 101 142.5t151 49.5q20 0 34 -12.5t14 -31.5q0 -37 -42 -40q-96 -6 -151.5 -73t-83 -163.5t-57.5 -261.5q-11 -65 -14.5 -81.5t-15 -26.5t-28.5 -10t-28.5 12.5t-11.5 31.5q0 4 13 89q43 274 43 319q0 104 -44 148q-12 10 -12 32q0 18 12.5 31t29.5 13
q30 0 60 -46.5t30 -111.5v-10zM131 -90q17 0 33 -13.5t16 -32.5q0 -25 -46 -116t-91 -91q-17 0 -32.5 14t-15.5 34q0 21 20 37q29 20 74 140q10 28 42 28z" />
    <glyph glyph-name="Rcaron" unicode="&#x158;" horiz-adv-x="1264" 
d="M802 540q71 -31 143 -102t146 -227q40 -84 62 -122.5t49 -54.5q28 -17 28 -42q0 -18 -13 -31t-31 -13q-75 0 -166 206q-83 193 -185.5 266t-230.5 90q-16 1 -27 14t-11 30q0 20 12 33t30 13q196 0 320 66.5t124 185.5q0 104 -76.5 186.5t-212.5 129t-287 46.5
q-129 0 -206.5 -43.5t-77.5 -112.5q0 -61 60 -106q110 136 332 136q109 0 179.5 -45.5t70.5 -112.5q0 -65 -78 -105.5t-218 -40.5q-136 0 -254 50q-46 -101 -46 -260q0 -362 78 -534q6 -12 6 -20q0 -18 -13 -31t-31 -13t-32.5 12.5t-41.5 98.5t-41.5 210.5t-14.5 276.5
q0 182 58 302q-104 75 -104 182q0 99 92 168.5t282 69.5q283 0 474.5 -124t191.5 -320q0 -117 -91 -204.5t-249 -107.5zM584 1000q-167 0 -256 -92q111 -40 210 -40q97 0 151.5 19t54.5 43q0 31 -43.5 50.5t-116.5 19.5zM649 1470q60 51 101.5 83t47 33.5t19.5 1.5
q44 0 44 -32q0 -25 -20 -38q-58 -37 -150 -116q-19 -16 -36 -16q-16 0 -97 44.5t-109 65.5t-28 42q0 11 13.5 22.5t30.5 11.5q15 0 26 -8q62 -44 158 -94z" />
    <glyph glyph-name="rcaron" unicode="&#x159;" horiz-adv-x="474" 
d="M212 492q32 93 101 142.5t151 49.5q20 0 34 -12.5t14 -31.5q0 -37 -42 -40q-96 -6 -151.5 -73t-83 -163.5t-57.5 -261.5q-11 -65 -14.5 -81.5t-15 -26.5t-28.5 -10t-28.5 12.5t-11.5 31.5q0 4 13 89q43 274 43 319q0 104 -44 148q-12 10 -12 32q0 18 12.5 31t29.5 13
q30 0 60 -46.5t30 -111.5v-10zM297 862q26 18 72 55q50 41 62 48t32 7q16 0 28 -11t12 -23q0 -22 -22 -37l-101 -70q-78 -55 -91 -55q-18 0 -26 8q-124 124 -140 134q-22 13 -22 38q0 13 13.5 23.5t32.5 10.5q22 0 150 -128z" />
    <glyph glyph-name="Sacute" unicode="&#x15a;" horiz-adv-x="1158" 
d="M746 1206q-44 8 -72 8q-140 0 -224 -65t-84 -155q0 -68 52.5 -119t243.5 -119q135 -48 219.5 -91t146.5 -123.5t62 -203.5q0 -104 -61.5 -188.5t-178.5 -133.5q-34 -137 -114.5 -214.5t-119.5 -77.5q-46 0 -46 40q0 30 28 42q104 43 154 178q-95 -22 -216 -22
q-200 0 -335 89t-135 225q0 113 96.5 190.5t237.5 77.5q189 0 320.5 -118.5t139.5 -311.5q142 76 142 224q0 108 -70.5 184.5t-297.5 153.5q-119 41 -190 75t-119.5 93t-48.5 150q0 125 109 212.5t291 87.5q62 0 130 -18q91 74 214 74q20 0 33 -12.5t13 -31.5q0 -36 -48 -36
q-67 0 -124 -36q112 -76 112 -202q0 -57 -38.5 -99.5t-95.5 -42.5q-68 0 -116 52t-48 130q0 75 38 134zM918 1032q0 94 -90 150q-32 -48 -32 -110q0 -41 23 -70.5t53 -29.5q46 0 46 60zM774 74v26q0 156 -100 258t-274 102q-102 0 -174 -54t-72 -132q0 -97 110 -164.5
t272 -67.5q139 0 238 32zM505 1423q0 19 10.5 29.5t75.5 48.5q123 68 174 116q11 10 28 10q18 0 32 -11.5t14 -22.5q0 -15 -9.5 -27.5t-61 -50t-111.5 -71.5t-76.5 -44.5t-29.5 -10.5q-18 0 -32 12t-14 22z" />
    <glyph glyph-name="sacute" unicode="&#x15b;" horiz-adv-x="570" 
d="M212 192q-6 0 -15 3q-10 3 -17 3q-48 0 -48 -58q0 -37 38.5 -66.5t91.5 -29.5q62 0 105 36t43 96q0 91 -114 152q-146 78 -146 188q0 67 51 117.5t139 50.5q76 0 121 -41t45 -79q0 -19 -13.5 -32.5t-32.5 -13.5q-10 0 -21.5 7.5t-14.5 18.5q-7 23 -30.5 43.5t-55.5 20.5
q-46 0 -73 -25.5t-27 -66.5q0 -33 23 -56t75 -54q94 -56 129 -106t35 -112q0 -95 -64 -155.5t-176 -60.5q-90 0 -154 47.5t-64 118.5q0 62 40 103t98 41q72 0 72 -52q0 -38 -36 -38h-4zM214 822q0 13 5 21t86 73l153 124q3 1 8 2q12 4 16 4q36 0 36 -34q0 -19 -11.5 -33.5
t-109 -90.5t-116 -89t-37.5 -13q-11 0 -20.5 11.5t-9.5 24.5z" />
    <glyph glyph-name="Scedilla" unicode="&#x15e;" horiz-adv-x="1158" 
d="M746 1206q-44 8 -72 8q-140 0 -224 -65t-84 -155q0 -68 52.5 -119t243.5 -119q135 -48 219.5 -91t146.5 -123.5t62 -203.5q0 -104 -61.5 -188.5t-178.5 -133.5q-26 -147 -88 -147q-17 0 -28.5 12t-11.5 30q0 15 8 27q14 20 24 46q-77 -19 -202 -22l-58 -60
q108 -44 108 -140q0 -64 -53.5 -105t-124.5 -41q-51 0 -87.5 19t-36.5 51q0 12 10.5 23t21.5 11q15 0 28 -8q32 -20 62 -20q100 0 100 70q0 19 -11.5 35t-56.5 37q-44 20 -44 58q0 26 46 76q-174 14 -282 101.5t-108 206.5q0 113 96.5 190.5t237.5 77.5q189 0 320.5 -118.5
t139.5 -311.5q142 76 142 224q0 108 -70.5 184.5t-297.5 153.5q-119 41 -190 75t-119.5 93t-48.5 150q0 125 109 212.5t291 87.5q62 0 130 -18q91 74 214 74q20 0 33 -12.5t13 -31.5q0 -36 -48 -36q-67 0 -124 -36q112 -76 112 -202q0 -57 -38.5 -99.5t-95.5 -42.5
q-68 0 -116 52t-48 130q0 75 38 134zM918 1032q0 94 -90 150q-32 -48 -32 -110q0 -41 23 -70.5t53 -29.5q46 0 46 60zM774 74q9 166 -92 276t-282 110q-102 0 -174 -54t-72 -132q0 -97 110 -164.5t272 -67.5q139 0 238 32z" />
    <glyph glyph-name="scedilla" unicode="&#x15f;" horiz-adv-x="570" 
d="M238 -26q-88 8 -142 53.5t-54 110.5q0 62 40 103t98 41q72 0 72 -52q0 -38 -36 -38q-5 0 -16 3t-20 3q-48 0 -48 -58q0 -37 38.5 -66.5t91.5 -29.5q62 0 105 36t43 96q0 91 -114 152q-146 78 -146 188q0 67 51 117.5t139 50.5q76 0 121 -41t45 -79q0 -19 -13.5 -32.5
t-32.5 -13.5q-10 0 -21.5 7.5t-14.5 18.5q-7 23 -30.5 43.5t-55.5 20.5q-46 0 -73 -25.5t-27 -66.5q0 -33 23 -56t75 -54q94 -56 129 -106t35 -112q0 -76 -41 -130t-117 -74l-66 -76q112 -34 112 -136q0 -55 -50 -95.5t-108 -40.5q-43 0 -82.5 17t-39.5 43q0 19 11.5 31.5
t28.5 12.5q18 0 28 -8q25 -20 62 -20q22 0 46 17t24 41q0 45 -58 72q-54 25 -54 60q0 24 42 72z" />
    <glyph glyph-name="Scaron" unicode="&#x160;" horiz-adv-x="1158" 
d="M746 1206q-44 8 -72 8q-140 0 -224 -65t-84 -155q0 -68 52.5 -119t243.5 -119q135 -48 219.5 -91t146.5 -123.5t62 -203.5q0 -104 -61.5 -188.5t-178.5 -133.5q-34 -137 -114.5 -214.5t-119.5 -77.5q-46 0 -46 40q0 30 28 42q104 43 154 178q-95 -22 -216 -22
q-200 0 -335 89t-135 225q0 113 96.5 190.5t237.5 77.5q189 0 320.5 -118.5t139.5 -311.5q142 76 142 224q0 108 -70.5 184.5t-297.5 153.5q-119 41 -190 75t-119.5 93t-48.5 150q0 125 109 212.5t291 87.5q62 0 130 -18q91 74 214 74q20 0 33 -12.5t13 -31.5q0 -36 -48 -36
q-67 0 -124 -36q112 -76 112 -202q0 -57 -38.5 -99.5t-95.5 -42.5q-68 0 -116 52t-48 130q0 75 38 134zM918 1032q0 94 -90 150q-32 -48 -32 -110q0 -41 23 -70.5t53 -29.5q46 0 46 60zM774 74v26q0 156 -100 258t-274 102q-102 0 -174 -54t-72 -132q0 -97 110 -164.5
t272 -67.5q139 0 238 32zM674 1470q60 51 101.5 83t47 33.5t19.5 1.5q44 0 44 -32q0 -25 -20 -38q-58 -37 -150 -116q-19 -16 -36 -16q-16 0 -97 44.5t-109 65.5t-28 42q0 11 13.5 22.5t30.5 11.5q15 0 26 -8q62 -44 158 -94z" />
    <glyph glyph-name="scaron" unicode="&#x161;" horiz-adv-x="570" 
d="M212 192q-6 0 -15 3q-10 3 -17 3q-48 0 -48 -58q0 -37 38.5 -66.5t91.5 -29.5q62 0 105 36t43 96q0 91 -114 152q-146 78 -146 188q0 67 51 117.5t139 50.5q76 0 121 -41t45 -79q0 -19 -13.5 -32.5t-32.5 -13.5q-10 0 -21.5 7.5t-14.5 18.5q-7 23 -30.5 43.5t-55.5 20.5
q-46 0 -73 -25.5t-27 -66.5q0 -33 23 -56t75 -54q94 -56 129 -106t35 -112q0 -95 -64 -155.5t-176 -60.5q-90 0 -154 47.5t-64 118.5q0 62 40 103t98 41q72 0 72 -52q0 -38 -36 -38h-4zM344 862q26 18 72 55q50 41 62 48t32 7q16 0 28 -11t12 -23q0 -22 -22 -37l-101 -70
q-78 -55 -91 -55q-18 0 -26 8q-124 124 -140 134q-22 13 -22 38q0 13 13.5 23.5t32.5 10.5q22 0 150 -128z" />
    <glyph glyph-name="Tcommaaccent" unicode="&#x162;" horiz-adv-x="1318" 
d="M776 1074q-249 144 -420 144q-103 0 -162.5 -45.5t-59.5 -116.5q0 -51 42 -92.5t100 -41.5q4 0 27 3q18 3 21 3q46 0 46 -38q0 -52 -94 -52q-95 0 -163.5 64.5t-68.5 153.5q0 100 80.5 172t231.5 72q104 0 212.5 -35t279.5 -131q116 70 306 70q144 0 220 -47t76 -119
q0 -61 -53 -100.5t-139 -39.5q-160 0 -404 136q-90 -82 -90 -276q0 -56 20 -204q22 -147 22 -228q0 -186 -62 -266t-176 -80h-12q-56 0 -56 44q0 20 12.5 31t55.5 11q78 0 114 60t36 200q0 49 -22 216t-22 216q0 204 102 316zM936 1084q179 -104 322 -104q42 0 72 15.5
t30 40.5q0 34 -51 59t-155 25q-133 0 -218 -36zM682 -90q17 0 33 -13.5t16 -32.5q0 -25 -46 -116t-91 -91q-17 0 -32.5 14t-15.5 34q0 21 20 37q29 20 74 140q10 28 42 28z" />
    <glyph glyph-name="tcommaaccent" unicode="&#x163;" horiz-adv-x="420" 
d="M272 596q-54 -193 -54 -356q0 -87 22 -129.5t56 -42.5q16 0 28 -12.5t12 -29.5q0 -20 -14.5 -33t-29.5 -13q-56 0 -109 53.5t-53 200.5q0 161 50 360q-34 0 -74 -6q-23 -4 -34 -4q-28 0 -28 34q0 30 33 44.5t123 15.5q53 219 65 244.5t37 25.5q46 0 46 -40q0 -14 -4 -22
q-24 -72 -56 -210l122 -4q17 0 30.5 -13t13.5 -29q0 -40 -38 -40q-30 0 -144 6zM234 -90q17 0 33 -13.5t16 -32.5q0 -25 -46 -116t-91 -91q-17 0 -32.5 14t-15.5 34q0 21 20 37q29 20 74 140q10 28 42 28z" />
    <glyph glyph-name="Tcaron" unicode="&#x164;" horiz-adv-x="1318" 
d="M776 1074q-249 144 -420 144q-103 0 -162.5 -45.5t-59.5 -116.5q0 -51 42 -92.5t100 -41.5q4 0 27 3q18 3 21 3q46 0 46 -38q0 -52 -94 -52q-95 0 -163.5 64.5t-68.5 153.5q0 100 80.5 172t231.5 72q104 0 212.5 -35t279.5 -131q116 70 306 70q144 0 220 -47t76 -119
q0 -61 -53 -100.5t-139 -39.5q-160 0 -404 136q-90 -82 -90 -276q0 -56 20 -204q22 -147 22 -228q0 -186 -62 -266t-176 -80h-12q-56 0 -56 44q0 20 12.5 31t55.5 11q78 0 114 60t36 200q0 49 -22 216t-22 216q0 204 102 316zM936 1084q179 -104 322 -104q42 0 72 15.5
t30 40.5q0 34 -51 59t-155 25q-133 0 -218 -36zM794 1470q60 51 101.5 83t47 33.5t19.5 1.5q44 0 44 -32q0 -25 -20 -38q-58 -37 -150 -116q-19 -16 -36 -16q-16 0 -97 44.5t-109 65.5t-28 42q0 11 13.5 22.5t30.5 11.5q15 0 26 -8q62 -44 158 -94z" />
    <glyph glyph-name="tcaron" unicode="&#x165;" horiz-adv-x="540" 
d="M272 596q-54 -193 -54 -356q0 -87 22 -129.5t56 -42.5q16 0 28 -12.5t12 -29.5q0 -20 -14.5 -33t-29.5 -13q-56 0 -109 53.5t-53 200.5q0 161 50 360q-34 0 -74 -6q-23 -4 -34 -4q-28 0 -28 34q0 30 33 44.5t123 15.5q53 219 65 244.5t37 25.5q46 0 46 -40q0 -14 -4 -22
q-24 -72 -56 -210l122 -4q17 0 30.5 -13t13.5 -29q0 -40 -38 -40q-30 0 -144 6zM544 1010q17 0 33 -13.5t16 -32.5q0 -25 -46 -116t-91 -91q-17 0 -32.5 14t-15.5 34q0 21 20 37q29 20 74 140q10 28 42 28z" />
    <glyph glyph-name="Umacron" unicode="&#x16a;" horiz-adv-x="1450" 
d="M496 960q4 -47 4 -76v-14l-10 -450q0 -180 59 -273t167 -93q156 0 312 196q-30 152 -30 298q0 289 74 495.5t194 206.5q65 0 104.5 -56t39.5 -166q0 -160 -79.5 -387t-210.5 -409q32 -117 75 -170.5t111 -53.5l42 2q44 0 44 -34q0 -48 -78 -48q-193 0 -260 224
q-165 -180 -338 -180q-151 0 -232.5 116.5t-81.5 331.5l8 442v22q0 35 -2 50q-30 -6 -62 -6q-113 0 -189.5 54.5t-76.5 141.5q0 66 49.5 112t120.5 46q78 0 142.5 -61.5t89.5 -174.5q67 34 104.5 99.5t37.5 142.5q0 91 -26 124q-10 13 -10 28q0 44 44 44q37 0 59.5 -61
t22.5 -135q0 -104 -58.5 -193.5t-159.5 -134.5zM400 1018q-21 84 -62.5 131t-89.5 47q-33 0 -56.5 -20.5t-23.5 -51.5q0 -48 53.5 -80t124.5 -32q12 0 54 6zM1096 334q106 179 165 368t59 326q0 138 -54 138q-62 0 -121 -179t-59 -449v-10q0 -126 10 -194zM988 1536
q54 0 86 6l54 10q19 0 31.5 -13t12.5 -31q0 -22 -53 -35t-131 -13l-158 8q-18 0 -31 10.5t-13 25.5q0 14 13.5 27t30.5 13z" />
    <glyph glyph-name="umacron" unicode="&#x16b;" horiz-adv-x="672" 
d="M208 614v-10q-48 -211 -48 -350q0 -188 84 -188q91 0 172 162.5t116 413.5q6 38 52 38q13 0 22.5 -13.5t9.5 -30.5v-6q0 -5 -28 -164q-34 -184 -34 -270q0 -95 40 -138q10 -13 10 -30q0 -18 -13 -31t-31 -13q-33 0 -61.5 55.5t-28.5 134.5v6q-41 -95 -101 -147.5
t-125 -52.5q-80 0 -126 69t-46 205q0 90 20.5 223.5t29.5 158t40 24.5q19 0 32.5 -14t13.5 -32zM400 936q35 0 65 4l75 12q17 0 30.5 -10.5t13.5 -21.5q0 -15 -9.5 -28.5t-66 -22.5t-108.5 -9l-148 8q-18 0 -31 10.5t-13 23.5q0 15 13 28.5t31 13.5z" />
    <glyph glyph-name="Uring" unicode="&#x16e;" horiz-adv-x="1450" 
d="M496 960q4 -47 4 -76v-14l-10 -450q0 -180 59 -273t167 -93q156 0 312 196q-30 152 -30 298q0 289 74 495.5t194 206.5q65 0 104.5 -56t39.5 -166q0 -160 -79.5 -387t-210.5 -409q32 -117 75 -170.5t111 -53.5l42 2q44 0 44 -34q0 -48 -78 -48q-193 0 -260 224
q-165 -180 -338 -180q-151 0 -232.5 116.5t-81.5 331.5l8 442v22q0 35 -2 50q-30 -6 -62 -6q-113 0 -189.5 54.5t-76.5 141.5q0 66 49.5 112t120.5 46q78 0 142.5 -61.5t89.5 -174.5q67 34 104.5 99.5t37.5 142.5q0 91 -26 124q-10 13 -10 28q0 44 44 44q37 0 59.5 -61
t22.5 -135q0 -104 -58.5 -193.5t-159.5 -134.5zM400 1018q-21 84 -62.5 131t-89.5 47q-33 0 -56.5 -20.5t-23.5 -51.5q0 -48 53.5 -80t124.5 -32q12 0 54 6zM1096 334q106 179 165 368t59 326q0 138 -54 138q-62 0 -121 -179t-59 -449v-10q0 -126 10 -194zM872 1488
q0 -35 27 -54.5t67 -19.5q41 0 66.5 27.5t25.5 68.5q0 17 -14 35.5t-40 18.5q-18 0 -32 11.5t-14 26.5q0 36 44 36q59 0 97.5 -37.5t38.5 -90.5q0 -69 -51 -120.5t-121 -51.5q-78 0 -125 42t-47 106q0 49 32 91.5t62 42.5q46 0 46 -34q0 -19 -28 -36q-9 -6 -21.5 -26
t-12.5 -36z" />
    <glyph glyph-name="uring" unicode="&#x16f;" horiz-adv-x="672" 
d="M208 614v-10q-48 -211 -48 -350q0 -188 84 -188q91 0 172 162.5t116 413.5q6 38 52 38q13 0 22.5 -13.5t9.5 -30.5v-6q0 -5 -28 -164q-34 -184 -34 -270q0 -95 40 -138q10 -13 10 -30q0 -18 -13 -31t-31 -13q-33 0 -61.5 55.5t-28.5 134.5v6q-41 -95 -101 -147.5
t-125 -52.5q-80 0 -126 69t-46 205q0 90 20.5 223.5t29.5 158t40 24.5q19 0 32.5 -14t13.5 -32zM378 1088q47 0 84.5 -41t37.5 -87q0 -63 -49 -112.5t-113 -49.5q-70 0 -116 41t-46 99q0 50 27.5 91t56.5 41q46 0 46 -34q0 -19 -28 -36q-8 -5 -16 -24.5t-8 -37.5
q0 -28 25 -46t57 -18q39 0 61.5 24t22.5 62q0 15 -13.5 34.5t-30.5 19.5q-19 0 -32.5 12.5t-13.5 31.5q0 30 44 30h4z" />
    <glyph glyph-name="Uhungarumlaut" unicode="&#x170;" horiz-adv-x="1450" 
d="M496 960q4 -47 4 -76v-14l-10 -450q0 -180 59 -273t167 -93q156 0 312 196q-30 152 -30 298q0 289 74 495.5t194 206.5q65 0 104.5 -56t39.5 -166q0 -160 -79.5 -387t-210.5 -409q32 -117 75 -170.5t111 -53.5l42 2q44 0 44 -34q0 -48 -78 -48q-193 0 -260 224
q-165 -180 -338 -180q-151 0 -232.5 116.5t-81.5 331.5l8 442v22q0 35 -2 50q-30 -6 -62 -6q-113 0 -189.5 54.5t-76.5 141.5q0 66 49.5 112t120.5 46q78 0 142.5 -61.5t89.5 -174.5q67 34 104.5 99.5t37.5 142.5q0 91 -26 124q-10 13 -10 28q0 44 44 44q37 0 59.5 -61
t22.5 -135q0 -104 -58.5 -193.5t-159.5 -134.5zM400 1018q-21 84 -62.5 131t-89.5 47q-33 0 -56.5 -20.5t-23.5 -51.5q0 -48 53.5 -80t124.5 -32q12 0 54 6zM1096 334q106 179 165 368t59 326q0 138 -54 138q-62 0 -121 -179t-59 -449v-10q0 -126 10 -194zM768 1412
q0 26 16 34q142 115 184 174q12 16 34 16q18 0 32 -11.5t14 -24.5q0 -14 -9 -25l-36 -43q-27 -32 -95 -88.5t-76.5 -62t-25.5 -5.5q-14 0 -26 12t-12 24zM1014 1430q0 14 6.5 24t55 44t98.5 64q38 23 72 46q13 10 26 10q17 0 30.5 -11.5t13.5 -24.5q0 -19 -15.5 -32.5
t-76.5 -49.5q-80 -48 -136 -94q-13 -10 -30 -10t-30.5 11.5t-13.5 22.5z" />
    <glyph glyph-name="uhungarumlaut" unicode="&#x171;" horiz-adv-x="672" 
d="M208 614v-10q-48 -211 -48 -350q0 -188 84 -188q91 0 172 162.5t116 413.5q6 38 52 38q13 0 22.5 -13.5t9.5 -30.5v-6q0 -5 -28 -164q-34 -184 -34 -270q0 -95 40 -138q10 -13 10 -30q0 -18 -13 -31t-31 -13q-33 0 -61.5 55.5t-28.5 134.5v6q-41 -95 -101 -147.5
t-125 -52.5q-80 0 -126 69t-46 205q0 90 20.5 223.5t29.5 158t40 24.5q19 0 32.5 -14t13.5 -32zM198 812q0 26 16 34q133 108 184 174q11 16 34 16q36 0 36 -42q0 -13 -10 -26.5t-42.5 -49.5t-92 -84.5t-68.5 -55t-25 -6.5q-10 0 -21 14t-11 26zM444 830q0 14 6.5 24t55 44
t98.5 64q38 23 72 46q13 10 26 10q34 0 34 -42q0 -19 -15.5 -32.5t-76.5 -49.5q-80 -48 -136 -94q-13 -10 -30 -10q-11 0 -22.5 13t-11.5 27z" />
    <glyph glyph-name="Uogonek" unicode="&#x172;" horiz-adv-x="1450" 
d="M496 960q4 -47 4 -96l-10 -444q0 -180 59 -273t167 -93q156 0 312 196q-30 152 -30 298q0 289 74 495.5t194 206.5q65 0 104.5 -56t39.5 -166q0 -160 -79.5 -387t-210.5 -409q32 -117 75 -170.5t111 -53.5l42 2q44 0 44 -34q0 -48 -78 -48q-193 0 -260 224
q-77 -86 -172 -138q-63 -36 -102.5 -85.5t-39.5 -100.5q0 -31 21 -49.5t47 -18.5q23 0 36 10q11 8 30 8q36 0 36 -38q0 -27 -34 -40.5t-68 -13.5q-61 0 -105.5 37.5t-44.5 92.5q0 77 58 156q-151 0 -232.5 116.5t-81.5 331.5l8 438q0 63 -2 76q-30 -6 -62 -6
q-113 0 -189.5 54.5t-76.5 141.5q0 66 49.5 112t120.5 46q78 0 142.5 -61.5t89.5 -174.5q67 34 104.5 99.5t37.5 142.5q0 91 -26 124q-10 13 -10 28q0 44 44 44q37 0 59.5 -61t22.5 -135q0 -104 -58.5 -193.5t-159.5 -134.5zM400 1018q-21 84 -62.5 131t-89.5 47
q-33 0 -56.5 -20.5t-23.5 -51.5q0 -48 53.5 -80t124.5 -32q12 0 54 6zM1096 334q106 179 165 368t59 326q0 138 -54 138q-62 0 -121 -182t-59 -456q0 -126 10 -194z" />
    <glyph glyph-name="uogonek" unicode="&#x173;" horiz-adv-x="672" 
d="M208 614v-10q-48 -211 -48 -350q0 -188 84 -188q91 0 172 162.5t116 413.5q6 38 52 38q13 0 23 -13t10 -29q0 -4 -29 -172q-34 -184 -34 -270q0 -90 36 -132q14 -18 14 -36q0 -13 -10 -26q-116 -124 -116 -174q0 -80 62 -80q14 0 30 8t30 8q38 0 38 -38q0 -24 -28.5 -37
t-59.5 -13q-62 0 -106 39.5t-44 100.5q0 105 116 198q-46 60 -46 166q-41 -95 -101 -147.5t-125 -52.5q-80 0 -126 69t-46 205q0 90 20.5 223.5t29.5 158t40 24.5q19 0 32.5 -14t13.5 -32z" />
    <glyph glyph-name="Ydieresis" unicode="&#x178;" horiz-adv-x="1374" 
d="M570 930q8 -43 8 -334q0 -192 39.5 -282t138.5 -90q127 0 278 184q-8 216 -8 236q0 352 54 465t166 113q51 0 94.5 -42.5t43.5 -155.5q0 -127 -71.5 -303t-190.5 -331l4 -88q0 -391 -206 -601.5t-522 -210.5q-170 0 -284 91.5t-114 248.5q0 100 63 172t151 72
q71 0 120.5 -47.5t49.5 -120.5q0 -116 -58 -116q-19 0 -32.5 13.5t-13.5 30.5q0 8 4 16q10 33 10 56q0 40 -24 62t-56 22q-51 0 -88.5 -46.5t-37.5 -113.5q0 -80 41.5 -138t116 -89t152.5 -31q278 0 455 185t185 539q-154 -156 -296 -156q-122 0 -187 104.5t-65 397.5v126
q0 48 -4 118q-63 -22 -130 -22q-122 0 -202 69.5t-80 176.5q0 85 59 142.5t147 57.5q97 0 170.5 -71t103.5 -213q50 48 74 120t24 138q0 5 -3 32q-3 32 -3 38q0 18 11.5 31t28.5 13q25 0 38.5 -19.5t13.5 -94.5q0 -106 -43 -200t-125 -154zM474 970q-45 258 -194 258
q-50 0 -83 -34.5t-33 -83.5q0 -75 55.5 -119.5t138.5 -44.5q65 0 116 24zM1118 520q81 130 129.5 270t48.5 236q0 114 -60 114q-65 0 -93.5 -115.5t-28.5 -380.5zM878 1548v-24l4 -28q0 -18 -13 -31t-31 -13q-23 0 -35.5 17.5t-12.5 86.5l-4 32q0 18 13 31t31 13
q23 0 35.5 -16.5t12.5 -67.5zM1094 1548v-24l4 -28q0 -18 -13 -31t-31 -13q-23 0 -35.5 17.5t-12.5 86.5l-4 32q0 18 13 31t31 13q23 0 35.5 -16.5t12.5 -67.5z" />
    <glyph glyph-name="Zacute" unicode="&#x179;" horiz-adv-x="1580" 
d="M530 222q104 -52 316 -186q216 -138 376 -138q95 0 153.5 50t58.5 132q0 59 -34 99.5t-92 40.5q-18 0 -31 13t-13 31t13 31t31 13q96 0 155 -65t59 -163q0 -111 -85 -188.5t-213 -77.5q-114 0 -204.5 37t-247.5 129q-271 158 -306 174q-151 -174 -326 -174
q-60 0 -100 34.5t-40 91.5q0 85 68.5 140.5t189.5 55.5q83 0 186 -42q90 97 304 446q91 150 182 272q-92 39 -278 148q-45 -84 -125.5 -131t-168.5 -47q-103 0 -166.5 51t-63.5 137q0 84 60.5 133t149.5 49q129 0 268 -76q16 51 16 98q0 90 -52 152q-10 10 -10 28
q0 19 12.5 32.5t29.5 13.5q37 0 71.5 -71t34.5 -157q0 -73 -20 -136q256 -136 298 -152q82 101 146.5 143.5t133.5 42.5q124 0 124 -120q0 -81 -71 -133.5t-179 -52.5q-56 0 -122 20q-87 -108 -202 -294q-149 -240 -188 -301t-98 -133zM358 1032q65 0 124.5 36.5t93.5 95.5
q-141 72 -236 72q-52 0 -87 -29t-35 -71q0 -48 38.5 -76t101.5 -28zM1260 1154q-80 0 -188 -132q32 -8 62 -8q168 0 168 98q0 16 -11.5 29t-30.5 13zM382 190q-76 28 -130 28q-76 0 -119 -31t-43 -77q0 -18 17 -33t45 -15q105 0 230 128zM857 1423q0 19 10.5 29.5t75.5 48.5
q123 68 174 116q11 10 28 10q18 0 32 -11.5t14 -22.5q0 -15 -9.5 -27.5t-61 -50t-111.5 -71.5t-76.5 -44.5t-29.5 -10.5q-18 0 -32 12t-14 22z" />
    <glyph glyph-name="zacute" unicode="&#x17a;" horiz-adv-x="672" 
d="M434 574q-21 0 -123 11q-81 9 -95 9q-39 0 -50 -22q-12 -26 -40 -26q-18 0 -32 13t-14 31q0 26 35.5 57t100.5 31q15 0 101 -11q95 -13 113 -13q51 0 63 13t31 13q50 0 50 -44q0 -22 -10 -32q-103 -111 -212 -266q-94 -131 -202 -240q39 6 86 6q88 0 158 -14
q66 -14 100 -14q43 0 53.5 13.5t10.5 46.5q0 46 50 46q38 0 38 -56q0 -63 -42 -97.5t-110 -34.5q-21 0 -114 14q-125 20 -158 20q-73 0 -142 -22q-2 -2 -16 -2q-18 0 -31 12.5t-13 29.5q0 19 10 32q125 129 252 310q51 72 152 186zM226 822q0 13 5 21t86 73l153 124q3 1 8 2
q12 4 16 4q36 0 36 -34q0 -19 -11.5 -33.5t-109 -90.5t-116 -89t-37.5 -13q-11 0 -20.5 11.5t-9.5 24.5z" />
    <glyph glyph-name="Zdotaccent" unicode="&#x17b;" horiz-adv-x="1580" 
d="M530 222q104 -52 316 -186q216 -138 376 -138q95 0 153.5 50t58.5 132q0 59 -34 99.5t-92 40.5q-18 0 -31 13t-13 31t13 31t31 13q96 0 155 -65t59 -163q0 -111 -85 -188.5t-213 -77.5q-114 0 -204.5 37t-247.5 129q-271 158 -306 174q-151 -174 -326 -174
q-60 0 -100 34.5t-40 91.5q0 85 68.5 140.5t189.5 55.5q83 0 186 -42q90 97 304 446q91 150 182 272q-92 39 -278 148q-45 -84 -125.5 -131t-168.5 -47q-103 0 -166.5 51t-63.5 137q0 84 60.5 133t149.5 49q129 0 268 -76q16 51 16 98q0 90 -52 152q-10 10 -10 28
q0 19 12.5 32.5t29.5 13.5q37 0 71.5 -71t34.5 -157q0 -73 -20 -136q256 -136 298 -152q82 101 146.5 143.5t133.5 42.5q124 0 124 -120q0 -81 -71 -133.5t-179 -52.5q-56 0 -122 20q-87 -108 -202 -294q-149 -240 -188 -301t-98 -133zM358 1032q65 0 124.5 36.5t93.5 95.5
q-141 72 -236 72q-52 0 -87 -29t-35 -71q0 -48 38.5 -76t101.5 -28zM1260 1154q-80 0 -188 -132q32 -8 62 -8q168 0 168 98q0 16 -11.5 29t-30.5 13zM382 190q-76 28 -130 28q-76 0 -119 -31t-43 -77q0 -18 17 -33t45 -15q105 0 230 128zM1010 1487q0 -2 3 -14t3 -14
q0 -18 -13.5 -31t-32.5 -13q-50 0 -50 139q0 17 13.5 29t30.5 12q46 0 46 -94v-14z" />
    <glyph glyph-name="zdotaccent" unicode="&#x17c;" horiz-adv-x="672" 
d="M434 574q-21 0 -123 11q-81 9 -95 9q-39 0 -50 -22q-12 -26 -40 -26q-18 0 -32 13t-14 31q0 26 35.5 57t100.5 31q15 0 101 -11q95 -13 113 -13q51 0 63 13t31 13q50 0 50 -44q0 -22 -10 -32q-103 -111 -212 -266q-94 -131 -202 -240q39 6 86 6q88 0 158 -14
q66 -14 100 -14q43 0 53.5 13.5t10.5 46.5q0 46 50 46q38 0 38 -56q0 -63 -42 -97.5t-110 -34.5q-21 0 -114 14q-125 20 -158 20q-73 0 -142 -22q-2 -2 -16 -2q-18 0 -31 12.5t-13 29.5q0 19 10 32q125 129 252 310q51 72 152 186zM376 926q0 -2 3 -14t3 -14
q0 -18 -13.5 -31t-32.5 -13q-50 0 -50 136v2q0 18 13 30t31 12q46 0 46 -76v-32z" />
    <glyph glyph-name="Zcaron" unicode="&#x17d;" horiz-adv-x="1580" 
d="M530 222q104 -52 316 -186q216 -138 376 -138q95 0 153.5 50t58.5 132q0 59 -34 99.5t-92 40.5q-18 0 -31 13t-13 31t13 31t31 13q96 0 155 -65t59 -163q0 -111 -85 -188.5t-213 -77.5q-114 0 -204.5 37t-247.5 129q-271 158 -306 174q-151 -174 -326 -174
q-60 0 -100 34.5t-40 91.5q0 85 68.5 140.5t189.5 55.5q83 0 186 -42q90 97 304 446q91 150 182 272q-92 39 -278 148q-45 -84 -125.5 -131t-168.5 -47q-103 0 -166.5 51t-63.5 137q0 84 60.5 133t149.5 49q129 0 268 -76q16 51 16 98q0 90 -52 152q-10 10 -10 28
q0 19 12.5 32.5t29.5 13.5q37 0 71.5 -71t34.5 -157q0 -73 -20 -136q256 -136 298 -152q82 101 146.5 143.5t133.5 42.5q124 0 124 -120q0 -81 -71 -133.5t-179 -52.5q-56 0 -122 20q-87 -108 -202 -294q-149 -240 -188 -301t-98 -133zM358 1032q65 0 124.5 36.5t93.5 95.5
q-141 72 -236 72q-52 0 -87 -29t-35 -71q0 -48 38.5 -76t101.5 -28zM1260 1154q-80 0 -188 -132q32 -8 62 -8q168 0 168 98q0 16 -11.5 29t-30.5 13zM382 190q-76 28 -130 28q-76 0 -119 -31t-43 -77q0 -18 17 -33t45 -15q105 0 230 128zM976 1470q60 51 101.5 83t47 33.5
t19.5 1.5q44 0 44 -32q0 -25 -20 -38q-58 -37 -150 -116q-19 -16 -36 -16q-16 0 -97 44.5t-109 65.5t-28 42q0 11 13.5 22.5t30.5 11.5q15 0 26 -8q62 -44 158 -94z" />
    <glyph glyph-name="zcaron" unicode="&#x17e;" horiz-adv-x="672" 
d="M434 574q-21 0 -123 11q-81 9 -95 9q-39 0 -50 -22q-12 -26 -40 -26q-18 0 -32 13t-14 31q0 26 35.5 57t100.5 31q15 0 101 -11q95 -13 113 -13q51 0 63 13t31 13q50 0 50 -44q0 -22 -10 -32q-103 -111 -212 -266q-94 -131 -202 -240q39 6 86 6q88 0 158 -14
q66 -14 100 -14q43 0 53.5 13.5t10.5 46.5q0 46 50 46q38 0 38 -56q0 -63 -42 -97.5t-110 -34.5q-21 0 -114 14q-125 20 -158 20q-73 0 -142 -22q-2 -2 -16 -2q-18 0 -31 12.5t-13 29.5q0 19 10 32q125 129 252 310q51 72 152 186zM376 862q26 18 72 55q50 41 62 48t32 7
q16 0 28 -11t12 -23q0 -22 -22 -37l-101 -70q-78 -55 -91 -55q-18 0 -26 8q-124 124 -140 134q-22 13 -22 38q0 13 13.5 23.5t32.5 10.5q22 0 150 -128z" />
    <glyph glyph-name="florin" unicode="&#x192;" horiz-adv-x="780" 
d="M270 624q-4 36 -4 106q0 226 88.5 348t239.5 122q92 0 150 -54.5t58 -143.5q0 -62 -46 -110t-108 -48q-44 0 -74 17.5t-30 46.5q0 42 44 42q17 0 30 -10q18 -12 30 -12q26 0 45 21t19 53q0 43 -32.5 79.5t-89.5 36.5q-234 0 -234 -402q0 -60 2 -88q105 8 156 8
q186 0 186 -56q0 -17 -13.5 -28.5t-32.5 -11.5q-8 0 -12 2q-48 12 -126 12q-53 0 -154 -6q14 -236 14 -296q0 -275 -84 -418.5t-246 -143.5q-87 0 -146.5 53t-59.5 129q0 59 38 104.5t88 45.5q21 0 34.5 -14t13.5 -30q0 -17 -13 -30.5t-35 -13.5q-12 0 -24 -18.5t-12 -43.5
q0 -40 35 -70t83 -30q238 0 238 490q0 73 -14 280q-71 -4 -102 -4h-28q-57 0 -71.5 11.5t-14.5 32.5q0 42 44 42l70 -4q30 0 100 4z" />
    <glyph glyph-name="Scommaaccent" unicode="&#x218;" horiz-adv-x="1158" 
d="M746 1206q-44 8 -72 8q-140 0 -224 -65t-84 -155q0 -68 52.5 -119t243.5 -119q135 -48 219.5 -91t146.5 -123.5t62 -203.5q0 -104 -61.5 -188.5t-178.5 -133.5q-26 -147 -88 -147q-17 0 -28.5 12t-11.5 30q0 15 8 27q14 20 24 46q-98 -22 -218 -22q-200 0 -335 89
t-135 225q0 113 96.5 190.5t237.5 77.5q189 0 320.5 -118.5t139.5 -311.5q142 76 142 224q0 108 -70.5 184.5t-297.5 153.5q-119 41 -190 75t-119.5 93t-48.5 150q0 125 109 212.5t291 87.5q62 0 130 -18q91 74 214 74q20 0 33 -12.5t13 -31.5q0 -36 -48 -36q-67 0 -124 -36
q112 -76 112 -202q0 -57 -38.5 -99.5t-95.5 -42.5q-68 0 -116 52t-48 130q0 75 38 134zM918 1032q0 94 -90 150q-32 -48 -32 -110q0 -41 23 -70.5t53 -29.5q46 0 46 60zM774 74q9 166 -92 276t-282 110q-102 0 -174 -54t-72 -132q0 -97 110 -164.5t272 -67.5q139 0 238 32z
M522 -110q17 0 33 -13.5t16 -32.5q0 -25 -46 -116t-91 -91q-17 0 -32.5 14t-15.5 34q0 21 20 37q29 20 74 140q10 28 42 28z" />
    <glyph glyph-name="scommaaccent" unicode="&#x219;" horiz-adv-x="570" 
d="M212 192q-6 0 -15 3q-10 3 -17 3q-48 0 -48 -58q0 -37 38.5 -66.5t91.5 -29.5q62 0 105 36t43 96q0 91 -114 152q-146 78 -146 188q0 67 51 117.5t139 50.5q76 0 121 -41t45 -79q0 -19 -13.5 -32.5t-32.5 -13.5q-10 0 -21.5 7.5t-14.5 18.5q-7 23 -30.5 43.5t-55.5 20.5
q-46 0 -73 -25.5t-27 -66.5q0 -33 23 -56t75 -54q94 -56 129 -106t35 -112q0 -95 -64 -155.5t-176 -60.5q-90 0 -154 47.5t-64 118.5q0 62 40 103t98 41q72 0 72 -52q0 -38 -36 -38h-4zM278 -90q17 0 33 -13.5t16 -32.5q0 -25 -46 -116t-91 -91q-17 0 -32.5 14t-15.5 34
q0 21 20 37q29 20 74 140q10 28 42 28z" />
    <glyph glyph-name="circumflex" unicode="&#x2c6;" horiz-adv-x="580" 
d="M296 940q-26 -18 -72 -55q-50 -41 -62 -48t-32 -7q-16 0 -28 11t-12 23q0 22 22 37l101 70q78 55 91 55q18 0 26 -8q124 -124 140 -134q22 -13 22 -38q0 -13 -13.5 -23.5t-32.5 -10.5q-22 0 -150 128z" />
    <glyph glyph-name="caron" unicode="&#x2c7;" horiz-adv-x="578" 
d="M318 862q26 18 72 55q50 41 62 48t32 7q16 0 28 -11t12 -23q0 -22 -22 -37l-101 -70q-78 -55 -91 -55q-18 0 -26 8q-124 124 -140 134q-22 13 -22 38q0 13 13.5 23.5t32.5 10.5q22 0 150 -128z" />
    <glyph glyph-name="uni02C9" unicode="&#x2c9;" horiz-adv-x="1000" 
d="M1000 1422h-1000v100h1000v-100z" />
    <glyph glyph-name="breve" unicode="&#x2d8;" horiz-adv-x="584" 
d="M96 990q0 44 36 44q14 0 26.5 -10t13.5 -24q5 -42 35 -74t69 -32q105 0 138 98q11 32 38 32q16 0 27 -10.5t11 -19.5q0 -50 -59 -112t-155 -62q-79 0 -129.5 54.5t-50.5 113.5v2z" />
    <glyph glyph-name="dotaccent" unicode="&#x2d9;" horiz-adv-x="244" 
d="M162 926q0 -2 3 -14t3 -14q0 -18 -13.5 -31t-32.5 -13q-50 0 -50 136v2q0 18 13 30t31 12q46 0 46 -76v-32z" />
    <glyph glyph-name="ring" unicode="&#x2da;" horiz-adv-x="534" 
d="M308 1088q47 0 84.5 -41t37.5 -87q0 -63 -49 -112.5t-113 -49.5q-70 0 -116 41t-46 99q0 50 27.5 91t56.5 41q46 0 46 -34q0 -19 -28 -36q-8 -5 -16 -24.5t-8 -37.5q0 -28 25 -46t57 -18q39 0 61.5 24t22.5 62q0 15 -13.5 34.5t-30.5 19.5q-19 0 -32.5 12.5t-13.5 31.5
q0 30 44 30h4z" />
    <glyph glyph-name="ogonek" unicode="&#x2db;" horiz-adv-x="402" 
d="M280 6q-138 -95 -138 -178q0 -80 62 -80q14 0 30 8t30 8q38 0 38 -38q0 -23 -27 -36.5t-61 -13.5q-62 0 -106 39.5t-44 100.5q0 79 67.5 152.5t134.5 97.5z" />
    <glyph glyph-name="tilde" unicode="&#x2dc;" horiz-adv-x="652" 
d="M538 936q0 -27 -32.5 -65.5t-77.5 -38.5q-69 0 -112 40q-41 38 -72 38q-36 0 -58 -70q-7 -20 -32 -20q-17 0 -28.5 12.5t-11.5 31.5q0 32 39 76t89 44q59 0 108 -44q37 -34 68 -34q28 0 46 50q10 26 36 26q38 0 38 -46z" />
    <glyph glyph-name="hungarumlaut" unicode="&#x2dd;" horiz-adv-x="712" 
d="M98 812q0 26 16 34q133 108 184 174q11 16 34 16q36 0 36 -42q0 -13 -10 -26.5t-42.5 -49.5t-92 -84.5t-68.5 -55t-25 -6.5q-10 0 -21 14t-11 26zM344 830q0 14 6.5 24t55 44t98.5 64q38 23 72 46q13 10 26 10q34 0 34 -42q0 -19 -15.5 -32.5t-76.5 -49.5
q-80 -48 -136 -94q-13 -10 -30 -10q-11 0 -22.5 13t-11.5 27z" />
    <glyph glyph-name="pi" unicode="&#x3c0;" horiz-adv-x="1104" 
d="M876 812v-548q0 -61 2.5 -104t7 -73t10 -50t10.5 -37h-82q-6 9 -11.5 26t-10 45.5t-7.5 72t-3 104.5v564h-424q-3 -60 -11 -133t-19.5 -150.5t-25.5 -156t-30.5 -149t-34.5 -128.5t-37 -95h-84q20 43 38.5 102.5t35 129t30.5 145.5t24.5 151.5t18.5 148.5t11 135
q-55 0 -94 -2t-67.5 -6t-48.5 -9t-36 -11l-18 54q20 9 43.5 16.5t54.5 13.5t71.5 9t92.5 3h782l-10 -68h-178z" />
    <glyph glyph-name="endash" unicode="&#x2013;" horiz-adv-x="900" 
d="M96 430q-2 -2 -10 -2q-17 0 -29.5 13t-12.5 31q0 19 17.5 36.5t198.5 17.5l316 -4q173 0 216 16q6 2 14 2q20 0 33 -13.5t13 -30.5q0 -33 -46 -48.5t-228 -15.5l-318 4q-117 0 -164 -6z" />
    <glyph glyph-name="emdash" unicode="&#x2014;" horiz-adv-x="1600" 
d="M1506 546h6q18 0 31 -13t13 -31q0 -25 -21.5 -38.5t-188 -22.5t-402.5 -9h-622l-224 -4h-6q-18 0 -31 13t-13 31q0 31 29 41.5t247 10.5l610 -4q25 0 206.5 13t365.5 13z" />
    <glyph glyph-name="quoteleft" unicode="&#x2018;" horiz-adv-x="160" 
d="M8 1000q0 40 29.5 129t72.5 89q19 0 31.5 -13t12.5 -31q0 -15 -12 -30q-28 -31 -46 -152q-7 -38 -46 -38q-16 0 -29 14t-13 32z" />
    <glyph glyph-name="quoteright" unicode="&#x2019;" horiz-adv-x="160" 
d="M36 998q0 13 8 24q24 33 24 158q0 18 13 31t31 13t31 -13t13 -31q0 -228 -74 -228q-19 0 -32.5 13.5t-13.5 32.5z" />
    <glyph glyph-name="quotesinglbase" unicode="&#x201a;" horiz-adv-x="160" 
d="M36 -106q0 13 8 24q24 33 24 158q0 18 13 31t31 13t31 -13t13 -31q0 -228 -74 -228q-19 0 -32.5 13.5t-13.5 32.5z" />
    <glyph glyph-name="quotedblleft" unicode="&#x201c;" horiz-adv-x="330" 
d="M8 1000q0 42 23.5 110t42.5 88t38 20q18 0 32 -13t14 -31q0 -16 -14 -30q-28 -31 -46 -152q-7 -38 -44 -38q-19 0 -32.5 14t-13.5 32zM178 1000q0 35 28.5 126.5t75.5 91.5q18 0 30 -13t12 -31q0 -20 -10 -30q-26 -26 -48 -152q-7 -38 -44 -38q-18 0 -31 14t-13 32z" />
    <glyph glyph-name="quotedblright" unicode="&#x201d;" horiz-adv-x="330" 
d="M210 1000q0 8 8 24q22 38 22 158q0 18 13.5 31t32.5 13q18 0 31 -13t13 -31q0 -226 -76 -226q-17 0 -30.5 13.5t-13.5 30.5zM36 994q0 15 6 24q24 35 24 158q0 18 12.5 31t29.5 13q19 0 32.5 -13t13.5 -31q0 -228 -74 -228q-19 0 -31.5 13t-12.5 33z" />
    <glyph glyph-name="quotedblbase" unicode="&#x201e;" horiz-adv-x="330" 
d="M210 -104q0 8 8 24q22 38 22 158q0 18 13.5 31t32.5 13q18 0 31 -13t13 -31q0 -226 -76 -226q-17 0 -30.5 13.5t-13.5 30.5zM36 -110q0 15 6 24q24 35 24 158q0 18 12.5 31t29.5 13q19 0 32.5 -13t13.5 -31q0 -228 -74 -228q-19 0 -31.5 13t-12.5 33z" />
    <glyph glyph-name="dagger" unicode="&#x2020;" horiz-adv-x="680" 
d="M410 654q-108 -540 -108 -758q0 -56 8 -80q6 -9 6 -20q0 -19 -13 -31.5t-31 -12.5q-60 0 -60 144q0 165 108 758h-62q-102 0 -118 -4q-4 -2 -14 -2q-16 0 -27 11.5t-11 28.5q0 36 33 44t137 8h76q48 298 48 324q0 57 -6 71t-6 21q0 21 14 33.5t32 12.5q26 0 40 -25.5
t14 -112.5q0 -47 -46 -326q82 0 139 3t63.5 7t13.5 4q17 0 30.5 -13.5t13.5 -30.5q0 -27 -38 -40.5t-224 -13.5h-12z" />
    <glyph glyph-name="daggerdbl" unicode="&#x2021;" horiz-adv-x="680" 
d="M350 294q-48 -295 -48 -398q0 -56 8 -80q6 -9 6 -20q0 -19 -13 -31.5t-31 -12.5q-60 0 -60 144q0 118 50 398h-94q-62 0 -78 -4q-4 -2 -14 -2q-16 0 -27 11.5t-11 28.5q0 35 28 43.5t102 8.5h108l48 294h-66q-102 0 -118 -4q-4 -2 -14 -2q-16 0 -27 11.5t-11 28.5
q0 36 33 44t137 8h80q44 281 44 304q0 57 -6 71t-6 21q0 21 14 33.5t32 12.5q26 0 40 -25.5t14 -112.5q0 -43 -42 -306q79 0 135.5 3t63 7t13.5 4q17 0 30.5 -13.5t13.5 -30.5q0 -27 -38 -40.5t-220 -13.5h-12q-17 -83 -29 -165.5t-21 -130.5h58q68 0 103.5 3.5t42 7
t12.5 3.5q17 0 30.5 -13.5t13.5 -30.5q0 -26 -36 -40t-166 -14h-72z" />
    <glyph glyph-name="bullet" unicode="&#x2022;" horiz-adv-x="416" 
d="M158 600q19 30 44 30q20 0 32 -13.5t12 -32.5q0 -29 -24.5 -50.5t-63.5 -21.5q-42 0 -71 29.5t-29 68.5q0 58 42 98t100 40q78 0 121 -45.5t43 -126.5q0 -72 -56 -124t-136 -52q-50 0 -50 40q0 38 50 38q43 0 75.5 29t32.5 71q0 86 -74 86q-26 0 -45 -15t-19 -37
q0 -4 4.5 -9t7.5 -5q4 0 4 2z" />
    <glyph glyph-name="ellipsis" unicode="&#x2026;" horiz-adv-x="1600" 
d="M1276 22l7 58q3 26 16 36t33 10h10q18 0 30 -13t12 -31v-6l-9 -64q-3 -20 -17 -30t-34 -10q-48 0 -48 44v6zM746 22l7 56q2 23 8.5 31t17 12.5t23.5 4.5h10q18 0 30 -13t12 -31v-6l-9 -64q-3 -20 -17 -30t-34 -10q-48 0 -48 44v6zM216 22q4 32 7 58t16 36t33 10h10
q18 0 30 -13t12 -31v-6l-9 -64q-3 -20 -17 -30t-34 -10q-48 0 -48 44v6z" />
    <glyph glyph-name="perthousand" unicode="&#x2030;" horiz-adv-x="2204" 
d="M646 904q-11 -169 -105 -284.5t-223 -115.5q-106 0 -168 76.5t-62 211.5q0 65 17 127t30 74.5t31 12.5t31 -13t13 -31q0 -14 -4 -18q-32 -77 -32 -152q0 -89 40 -147.5t110 -58.5q88 0 154 87.5t80 216.5q-48 -6 -98 -6q-93 0 -157.5 45t-64.5 111q0 65 52 112.5
t144 47.5q77 0 136 -58t76 -156q214 51 446 280q12 12 32 12q18 0 31 -13t13 -31q0 -10 -6 -22q-186 -312 -345 -687t-195 -601q-3 -15 -16 -26.5t-28 -11.5q-40 0 -40 46q0 84 122.5 422t333.5 716q-175 -126 -348 -166zM556 972q-10 67 -43 107.5t-79 40.5q-50 0 -79 -21
t-29 -55q0 -28 40.5 -53t93.5 -25q48 0 96 6zM1574 276q0 59 14 112.5t27 72.5t35 19q18 0 31 -13.5t13 -32.5q0 -4 -4 -16q-30 -72 -30 -146q0 -89 40.5 -147.5t109.5 -58.5q102 0 169 101t67 239q0 84 -32.5 137t-93.5 53q-46 0 -77 -35.5t-31 -78.5q0 -68 72 -88
q32 -10 32 -44q0 -17 -13 -29.5t-31 -12.5q-39 0 -92.5 42.5t-53.5 131.5q0 78 55.5 138t138.5 60q96 0 155 -75.5t59 -198.5q0 -172 -94 -297t-238 -125q-101 0 -164.5 79.5t-63.5 208.5v4zM914 276q0 59 14 112.5t27 72.5t35 19q18 0 31 -13.5t13 -32.5q0 -4 -4 -16
q-30 -72 -30 -146q0 -89 40.5 -147.5t109.5 -58.5q102 0 169 101t67 239q0 84 -32.5 137t-93.5 53q-46 0 -77 -35.5t-31 -78.5q0 -68 72 -88q32 -10 32 -44q0 -17 -13 -29.5t-31 -12.5q-39 0 -92.5 42.5t-53.5 131.5q0 78 55 138t139 60q96 0 155 -75.5t59 -198.5
q0 -172 -94 -297t-238 -125q-101 0 -164.5 79.5t-63.5 208.5v4z" />
    <glyph glyph-name="guilsinglleft" unicode="&#x2039;" horiz-adv-x="408" 
d="M158 416q18 -14 61 -44q69 -46 92 -67t23 -43q0 -17 -12.5 -30.5t-29.5 -13.5q-18 0 -32 14q-30 24 -60 44q-85 61 -117.5 90.5t-32.5 49.5q0 18 18 36q23 15 98 102q53 65 68.5 79.5t31.5 14.5q19 0 32.5 -13t13.5 -31q0 -15 -10 -27l-70 -80q-61 -68 -74 -81z" />
    <glyph glyph-name="guilsinglright" unicode="&#x203a;" horiz-adv-x="408" 
d="M248 444q-87 73 -119.5 108t-32.5 52t13.5 29.5t32.5 12.5q18 0 32 -14q12 -13 85 -81q76 -70 86.5 -82t10.5 -29q0 -23 -20 -36q-78 -54 -164 -150q-33 -38 -54 -38q-18 0 -31 13t-13 31q0 40 174 184z" />
    <glyph glyph-name="fraction" unicode="&#x2044;" horiz-adv-x="730" 
d="M0 12v10q39 154 150 362.5t308 543t209 345.5t29 11q13 0 23.5 -12.5t10.5 -29.5q0 -7 -4 -17t-71 -121l-153 -256q-235 -396 -319 -570.5t-109 -277.5q-7 -34 -38 -34q-15 0 -25.5 14.5t-10.5 31.5z" />
    <glyph glyph-name="Euro" unicode="&#x20ac;" horiz-adv-x="1246" 
d="M336 422q-29 -2 -55.5 -3t-52.5 -1q19 -79 57.5 -145t96 -114t133 -74.5t167.5 -26.5q134 0 234.5 47t159.5 133q6 9 16.5 14.5t21.5 5.5q17 0 29.5 -13t12.5 -33q0 -8 -12 -29t-36.5 -47.5t-62.5 -55.5t-90.5 -53t-120.5 -39.5t-152 -15.5q-112 0 -203 33t-160 92
t-115 141t-66 180q-63 0 -90.5 8.5t-27.5 37.5q0 18 14 31t32 13h8q9 -3 21 -4.5t29 -3.5q-2 18 -2 36v38v34q-50 3 -76 12.5t-26 33.5q0 18 14 31t32 13h8q5 -2 10.5 -3t11.5 -1q8 -2 16 -2q9 0 18 -2q15 113 61 214.5t123 179t185 125t247 51.5q20 47 50 83.5t68 61.5
t82 38t90 13q16 0 35.5 -1.5t37 -7t29.5 -16t12 -29.5q0 -20 -13 -30t-31 -10q-4 0 -13.5 1.5t-20.5 3t-21 2.5t-15 1q-54 0 -104.5 -24t-83.5 -84q174 0 257 -65t83 -179q0 -42 -16.5 -78t-46.5 -63t-72 -42t-93 -15q-66 0 -112 23.5t-75 64t-42 95t-13 117.5q0 14 1 27
t3 25q-110 -10 -196.5 -53.5t-149.5 -109t-102 -148.5t-54 -173q23 0 50 0.5t55.5 2l57 3t53.5 2.5l158 10q38 2 78 4t77.5 3t70.5 1.5t56 -0.5q20 0 32 -13t12 -31q0 -16 -6.5 -24t-17 -10.5t-25 -2t-31.5 0.5q-57 0 -132.5 -3.5t-155.5 -8.5l-176 -10q-39 -2 -85 -3
t-81 -1v-34q0 -20 0.5 -39t3.5 -37q41 0 88 2.5t94 5.5l138 10q75 6 145 8t117 0q20 0 32 -13t12 -31q0 -16 -6.5 -24t-17 -10.5t-25 -2t-31.5 0.5q-57 0 -122.5 -3.5t-145.5 -8.5zM960 906q40 0 66 12.5t41.5 30t22 37t6.5 32.5q0 45 -21.5 76t-59.5 50t-89.5 27.5
t-111.5 8.5q-6 -27 -6 -60q0 -98 39 -156t113 -58z" />
    <glyph glyph-name="litre" unicode="&#x2113;" horiz-adv-x="924" 
d="M874 206q-62 -110 -149.5 -166t-200.5 -56q-79 0 -137 28t-95.5 74t-56.5 104.5t-21 119.5v20q-27 -20 -58.5 -44.5t-61.5 -47.5l-32 54q41 33 79 61.5t73 58.5v496q0 120 26 198t66 123t88.5 63t93.5 18q59 0 102 -22.5t71 -60t41.5 -87t13.5 -102.5q0 -85 -31 -167.5
t-86.5 -164t-133.5 -162.5t-173 -164v-38q0 -79 21.5 -134.5t56.5 -91t79 -52t89 -16.5q51 0 95.5 18t81 46t64.5 62.5t45 67.5zM292 464q74 71 138.5 140t113 139t76.5 141t28 144q0 46 -8.5 85.5t-28 69t-51 46.5t-78.5 17q-30 0 -63.5 -16t-61.5 -53.5t-46.5 -100
t-18.5 -154.5v-458z" />
    <glyph glyph-name="trademark" unicode="&#x2122;" horiz-adv-x="1240" 
d="M216 1184q-95 -3 -116.5 -21t-25.5 -31q-7 -32 -36 -32q-40 0 -40 42q0 122 280 122q52 0 164 -3t128.5 -7.5t30.5 -19t20.5 -38t6.5 -54.5v-16q36 67 83.5 103.5t86.5 36.5q47 0 80 -38t38 -110q34 70 83.5 111t100.5 41q47 0 85.5 -47.5t38.5 -140.5q0 -105 -24 -217.5
t-33.5 -123.5t-34.5 -11q-17 0 -28.5 8.5t-11.5 19.5q0 6 6 22q5 14 25.5 132.5t20.5 165.5q0 45 -15.5 76.5t-38.5 31.5q-59 0 -113.5 -87t-78.5 -235q-4 -23 -14 -61q-5 -20 -6 -27q-5 -30 -34 -30q-17 0 -28.5 11.5t-11.5 26.5q0 16 18 102q22 110 22 186q0 114 -58 114
q-56 0 -119 -111t-101 -309q-6 -32 -38 -32q-38 0 -38 42q0 10 12 55q50 193 50 269v18q0 53 -20 66q-72 2 -190 2h-44q-62 -161 -62 -262q0 -57 20.5 -84.5t49.5 -27.5q15 0 25.5 -11.5t10.5 -26.5q0 -17 -12 -29.5t-28 -12.5q-45 0 -94.5 43t-49.5 143q0 63 58 266z" />
    <glyph glyph-name="Omega" unicode="&#x2126;" horiz-adv-x="1480" 
d="M430 70q-58 40 -110.5 95t-92.5 124t-63.5 152t-23.5 179q0 130 48 238.5t130.5 186.5t192 121.5t233.5 43.5q132 0 241.5 -48.5t187.5 -129.5t121.5 -186.5t43.5 -219.5q0 -100 -25.5 -187t-67 -157.5t-94 -124t-105.5 -87.5v-4h320v-66h-456v48q64 32 125.5 83.5
t110 123t78.5 162.5t30 201q0 59 -14.5 121.5t-43.5 121t-72.5 110t-100 90t-126.5 61t-153 22.5q-118 0 -214.5 -43t-164 -116t-104.5 -169t-37 -202q0 -104 30 -194t78.5 -162t110 -125t125.5 -85v-48h-456v66h318v4z" />
    <glyph glyph-name="estimated" unicode="&#x212e;" horiz-adv-x="1490" 
d="M318 574q-8 0 -8 -6v-338q0 -11 4 -20t10 -18q81 -85 188.5 -133.5t231.5 -48.5q67 0 129.5 14.5t119 41t106 64.5t89.5 84h98q-46 -54 -105.5 -98t-129 -75t-147 -48t-160.5 -17q-95 0 -183 22t-164 62t-138.5 96t-107 124.5t-69 147.5t-24.5 164t24.5 164t69 147.5
t107 125t138.5 97t164 62.5t183 22t183 -22t164 -62.5t138.5 -97t107 -125t69 -147.5t24.5 -164v-18h-1112zM1178 956q0 24 -16 40q-81 80 -187.5 128t-230.5 48q-122 0 -229.5 -48.5t-188.5 -131.5q-16 -19 -16 -42v-332q0 -3 2.5 -6.5t5.5 -3.5h854q3 0 4.5 3.5t1.5 6.5
v338z" />
    <glyph glyph-name="partialdiff" unicode="&#x2202;" horiz-adv-x="1054" 
d="M162 1224q24 19 54.5 36.5t69 31t85.5 22t103 8.5q91 0 176.5 -41.5t151.5 -123t106 -202.5t40 -279q0 -84 -13 -168.5t-39.5 -162t-67 -144t-95.5 -116t-124.5 -77.5t-154.5 -28q-95 0 -164 36.5t-114 93.5t-66.5 127t-21.5 137q0 97 34.5 175t91.5 133t131.5 84.5
t154.5 29.5q77 0 139 -25t108 -59.5t75 -70t40 -55.5h2q2 21 2 49v49q0 137 -33.5 243.5t-89 180t-126.5 112t-147 38.5q-48 0 -88.5 -8t-74 -20t-60.5 -27.5t-47 -30.5zM460 44q81 0 147.5 37.5t116 100t81 144.5t43.5 170q-13 32 -42.5 72.5t-73 76.5t-100 60.5
t-124.5 24.5q-67 0 -128.5 -27t-108 -74t-74 -111t-27.5 -138q0 -69 20.5 -130t58 -107t91 -72.5t118.5 -26.5h2z" />
    <glyph glyph-name="Delta" unicode="&#x2206;" horiz-adv-x="1294" 
d="M64 72l536 1156h96l532 -1156v-72h-1164v72zM1136 66l-336 738q-14 34 -35.5 80.5t-44 95t-42 93t-30.5 73.5h-8q-7 -21 -24 -58.5t-36.5 -81t-39.5 -87.5t-34 -77l-358 -776h988z" />
    <glyph glyph-name="product" unicode="&#x220f;" horiz-adv-x="1374" 
d="M1088 1116v-1280h-82v1280h-640v-1280h-80v1280h-236v72h1274v-72h-236z" />
    <glyph glyph-name="summation" unicode="&#x2211;" horiz-adv-x="1098" 
d="M42 -164v54l568 618l-542 626v54h954v-72h-828v-6l516 -594l-548 -598v-6h884v-76h-1004z" />
    <glyph glyph-name="minus" unicode="&#x2212;" 
d="M796 362h-728v84h728v-84z" />
    <glyph glyph-name="uni2215" unicode="&#x2215;" horiz-adv-x="730" 
d="M0 12v10q39 154 150 362.5t308 543t209 345.5t29 11q13 0 23.5 -12.5t10.5 -29.5q0 -7 -4 -17t-71 -121l-153 -256q-235 -396 -319 -570.5t-109 -277.5q-7 -34 -38 -34q-15 0 -25.5 14.5t-10.5 31.5z" />
    <glyph glyph-name="uni2219" unicode="&#x2219;" horiz-adv-x="260" 
d="M92 462l7 58q3 26 16 36t33 10h10q18 0 30 -13t12 -31v-6l-9 -64q-3 -20 -17 -30t-34 -10q-48 0 -48 44v6z" />
    <glyph glyph-name="radical" unicode="&#x221a;" horiz-adv-x="1090" 
d="M652 -262h-86l-326 812l-148 -54l-24 56l224 86l286 -718q8 -23 15 -48.5t13 -49.5h2q5 23 12 49t12 49l388 1484h70z" />
    <glyph glyph-name="infinity" unicode="&#x221e;" horiz-adv-x="1484" 
d="M1382 492q0 -64 -23.5 -117t-62.5 -90.5t-90 -58t-106 -20.5q-47 0 -89 17t-84 48t-86 74.5t-95 96.5q-39 -42 -79 -84t-84.5 -76t-95 -55t-109.5 -21q-56 0 -106.5 22.5t-88 60.5t-59.5 89t-22 108q0 62 22 114t61 90.5t92 60t115 21.5q54 0 102.5 -21t92.5 -55
t85 -76.5t80 -85.5q41 46 81.5 89t84 76t92 53t106.5 20q62 0 111.5 -20.5t84 -57.5t52.5 -88t18 -112v-2zM390 270q50 0 94 22t84 55t75.5 70.5t66.5 68.5q-34 38 -70 78.5t-77 73.5t-87.5 54.5t-101.5 21.5q-48 0 -85.5 -19.5t-63.5 -51.5t-39.5 -73.5t-13.5 -85.5t15 -83
t43.5 -68t68.5 -46t89 -17h2zM1106 714q-52 0 -98 -25t-86.5 -60t-74.5 -72.5t-61 -62.5q50 -52 92 -94t80 -70.5t75 -44t77 -15.5q49 0 87 19t64 49.5t39.5 70t13.5 79.5q0 55 -16 97t-44 70.5t-65.5 43.5t-80.5 15h-2z" />
    <glyph glyph-name="integral" unicode="&#x222b;" horiz-adv-x="640" 
d="M598 1356q-12 11 -34 17.5t-42 6.5q-21 0 -50 -7.5t-50 -28.5q-40 -42 -57 -117.5t-17 -198.5q0 -98 4 -210.5t9 -228t9 -228.5t4 -211q0 -73 -8 -129t-20.5 -97t-28 -70t-31.5 -48q-27 -33 -69 -50.5t-87 -17.5q-35 0 -69 10.5t-49 21.5l20 58q12 -6 38 -16t58 -10
q24 0 49 10t43 28q16 18 30 42.5t24.5 61t17 88t6.5 122.5q0 98 -4.5 212t-9.5 230.5t-9.5 229.5t-4.5 210q0 67 5 120.5t16.5 96t30 75t46.5 56.5q35 33 73 45.5t77 12.5q29 0 57.5 -9.5t42.5 -18.5z" />
    </font>
</defs>
</svg>
