<?xml version="1.0" standalone="no"?>
<!DOCTYPE svg PUBLIC "-//W3C//DTD SVG 1.1//EN" "http://www.w3.org/Graphics/SVG/1.1/DTD/svg11.dtd" >
<svg xmlns="http://www.w3.org/2000/svg" xmlns:xlink="http://www.w3.org/1999/xlink" version="1.1">
<metadata>
Created by FontForge 20170731 at Tue Jan 27 08:50:43 2009
 By Aleksey,,,
1.2, Copyright Copr. Castcraft Software, Inc. 1990-1991.
</metadata>
<defs>
<font id="OPTIKorinna-Agency" horiz-adv-x="620" >
  <font-face 
    font-family="OPTIKorinna-Agency"
    font-weight="500"
    font-stretch="normal"
    units-per-em="1000"
    panose-1="0 0 0 0 0 0 0 0 0 0"
    ascent="800"
    descent="-200"
    x-height="502"
    cap-height="759"
    bbox="-22 -225.361 1200 955.348"
    underline-thickness="54"
    underline-position="-206"
    unicode-range="U+0020-221E"
  />
<missing-glyph horiz-adv-x="280" 
 />
    <glyph glyph-name=".notdef" horiz-adv-x="280" 
 />
    <glyph glyph-name=".null" horiz-adv-x="0" 
 />
    <glyph glyph-name="nonmarkingreturn" horiz-adv-x="333" 
 />
    <glyph glyph-name="space" unicode=" " horiz-adv-x="167" 
d="M0 0z" />
    <glyph glyph-name="exclam" unicode="!" horiz-adv-x="219" 
d="M148 192h-47l-26 428q0 1 -1 12t-1 20t-0.5 23.5t1.5 26t5.5 24t10 22t15.5 14.5q12 8 33 7t33 -11q34 -25 21 -136zM117 122q27 0 45.5 -20t18.5 -47t-19 -46t-46 -19t-46.5 20t-19.5 47t19.5 46t47.5 19z" />
    <glyph glyph-name="quotedbl" unicode="&#x22;" horiz-adv-x="239" 
d="M100 431h-23l-18 206q0 2 -2.5 25t-3.5 40t3 36t14 25q20 13 38 0q7 -5 10.5 -19.5t3.5 -32.5t-1 -34t-3 -29l-1 -14zM198 431h-23l-17 206q0 2 -2.5 25t-3.5 40t2.5 36t13.5 25q20 13 38 0q7 -5 10.5 -19.5t3.5 -32.5t-1 -34t-3 -29l-1 -14z" />
    <glyph glyph-name="numbersign" unicode="#" horiz-adv-x="716" 
d="M320 844l-28 -261h200l28 259h58l-28 -259h146l-5 -65h-147l-21 -204h144l-5 -66h-146l-34 -314h-58l33 314h-200l-33 -317h-59l33 317h-141l5 66h143l21 205h-142l5 65h144l28 260h59zM264 314h200l21 205h-200z" />
    <glyph glyph-name="dollar" unicode="$" horiz-adv-x="580" 
d="M279 896h69v-91q40 -7 63.5 -13t56.5 -23.5t60 -44.5v-125h-30q-13 0 -18 18q-14 43 -57 78t-73 30v-245q49 -16 75.5 -27t56.5 -31t47.5 -49t29.5 -72q15 -45 3.5 -110.5t-51.5 -110.5q-36 -41 -80.5 -65t-80.5 -25v-123h-75v119q-67 3 -119 19t-107 67v112h22
q6 0 8.5 -1t7 -5t9.5 -12.5l15 -25.5q26 -47 67.5 -62.5t96.5 -15.5v324q-52 22 -78 35.5t-57.5 36.5t-46 52.5t-18.5 69.5q-7 53 14.5 102t75.5 84q39 26 114 37v93zM350 66q34 5 58.5 24t36.5 45t17 49.5t5 45.5q0 48 -30 79t-87 54v-297zM275 725q-37 0 -71.5 -32
t-35.5 -72q-1 -45 30 -79.5t77 -39.5v223z" />
    <glyph glyph-name="percent" unicode="%" horiz-adv-x="935" 
d="M262 859q95 0 152.5 -59t57.5 -147q0 -90 -56 -150.5t-152 -60.5q-90 0 -150 60.5t-60 148.5q0 89 57 148.5t151 59.5zM131 651q0 -62 35 -104t98 -42q58 -1 94.5 42t36.5 106q0 62 -36 103.5t-97 41.5q-62 0 -96.5 -42t-34.5 -105zM827 860l-598 -860h-85l599 860h84z
M708 408q95 0 152.5 -59t57.5 -147q0 -90 -56 -150.5t-152 -60.5q-90 0 -150 60.5t-60 148.5q0 89 57 148.5t151 59.5zM577 200q0 -62 35 -104t98 -42q58 -1 94.5 42t36.5 106q0 62 -36 103.5t-97 41.5t-96 -42.5t-35 -104.5z" />
    <glyph glyph-name="ampersand" unicode="&#x26;" horiz-adv-x="798" 
d="M642 683l-73 -102l-24 16q-6 5 -6 28q0 18 -1 24q-6 41 -91 62q-25 6 -58.5 7t-72 -8.5t-60.5 -30.5q-16 -14 -23.5 -36.5t-3.5 -41.5q10 -37 61 -53q35 -11 121 -14v-61q-1 0 -17 -1t-33.5 -3t-42 -7.5t-46 -13t-42.5 -21.5t-33 -32q-22 -32 -25.5 -79.5t13.5 -92.5
q21 -45 66 -78.5t88.5 -48.5t87.5 -20q63 -5 137 8v248q-81 17 -124 -28q-10 -10 -30 -43l-43 18q20 67 59.5 102.5t82 43t99.5 0.5q8 -1 37 -6q48 -9 74 -1q14 6 21 23q8 20 22 20h21v-116q-22 -15 -44.5 -22.5t-36 -8.5t-38.5 -2q-1 -173 0 -205q1 -25 6.5 -35t27.5 -13
q12 -1 10 -21v-15q-111 -20 -220 -23q-43 0 -89 5.5t-105 21t-112 50.5t-86 86q-31 48 -37 105t15 104q21 46 48.5 70.5t86.5 53.5q-50 28 -67.5 49.5t-18.5 64.5q-1 34 19 73t60 63q65 38 177 38t179 -35q45 -22 84 -66z" />
    <glyph glyph-name="quotesingle" unicode="'" horiz-adv-x="194" 
d="M53 711q0 26 15 42t37 16q53 0 70 -47q16 -48 -7 -93.5t-82 -98.5l-32 26q2 2 9 10.5t9.5 11t8.5 10t8 11.5t5 11t3.5 12.5t0 12t-2.5 12.5q-3 7 -7.5 12.5t-11 10.5t-9.5 9q-14 16 -14 32z" />
    <glyph glyph-name="parenleft" unicode="(" horiz-adv-x="386" 
d="M364 732q-161 -112 -191 -347q-44 -331 194 -577l-24 -30q-84 58 -144 127.5t-91.5 141t-44 139t-8.5 134.5q17 295 285 449z" />
    <glyph glyph-name="parenright" unicode=")" horiz-adv-x="386" 
d="M75 769q269 -155 286 -450q4 -67 -8.5 -134.5t-44 -139t-91.5 -141t-144 -127.5l-24 30q238 246 194 577q-33 238 -191 348z" />
    <glyph glyph-name="asterisk" unicode="*" horiz-adv-x="498" 
d="M221 593q12 -12 6 -22q-4 -11 -20 -7l-157 39q2 14 21 49.5t30 44.5q113 -98 120 -104zM277 609q-4 -17 -16 -18q-10 0 -16 17l-44 155q14 6 53 6t52 -6q-28 -145 -29 -154zM425 696q13 -9 30 -43.5t20 -50.5l-155 -38q-15 -4 -21 7t7 22zM100 407q-12 8 -30 42t-20 49
l157 41q17 5 21 -7q5 -10 -7 -22zM306 339q-12 -7 -50.5 -6t-54.5 9l44 153q7 18 16 18q12 -1 16 -19zM306 510q-13 11 -7 22t21 7l155 -38q-1 -16 -20 -52t-30 -41z" />
    <glyph glyph-name="plus" unicode="+" horiz-adv-x="684" 
d="M325 625h67v-278h274v-66h-272v-281h-69v280h-273v66h273v279z" />
    <glyph glyph-name="comma" unicode="," horiz-adv-x="194" 
d="M50 -154v52q34 25 45 56q15 40 -25 76q-35 32 -21 73q11 32 45 39q37 7 64 -19q20 -22 24 -64t-6 -73q-21 -88 -126 -140z" />
    <glyph glyph-name="hyphen" unicode="-" horiz-adv-x="383" 
d="M53 208h311v83h-311v-83z" />
    <glyph glyph-name="period" unicode="." horiz-adv-x="194" 
d="M120 122q27 0 45.5 -20t18.5 -47t-19 -46t-46 -19t-46.5 20t-19.5 47t19.5 46t47.5 19z" />
    <glyph glyph-name="slash" unicode="/" horiz-adv-x="529" 
d="M415 875h93l-363 -875h-93z" />
    <glyph glyph-name="zero" unicode="0" 
d="M590 387q-3 -196 -67 -296.5t-199 -100.5t-204 102.5t-67 292.5q-2 195 66.5 297t204.5 102q272 0 266 -397zM321 717q-51 0 -86.5 -25t-54.5 -71.5t-27.5 -102t-8.5 -128.5q-2 -329 177 -330q62 1 103 46t57.5 115t17.5 165q-1 148 -44 238.5t-134 92.5z" />
    <glyph glyph-name="one" unicode="1" 
d="M212 0v19q0 13 11 18q3 1 11 3.5t11 3.5t8.5 4t8 5.5t6 7.5t5 11t2.5 15t1 20v563q-63 -28 -103 -28v47q93 24 144 80h57v-662q0 -13 1 -22t4.5 -16t5 -11t8.5 -8t9 -5t12 -4t13 -4q11 -5 11 -18v-19h-226z" />
    <glyph glyph-name="two" unicode="2" 
d="M163 621q-9 -18 -26 -18h-27v118q23 13 26 15q73 42 169 47.5t166 -31.5q48 -26 73.5 -72.5t28.5 -99.5q4 -91 -39.5 -154t-153.5 -139l-102 -77q-41 -32 -65.5 -68.5t-27.5 -63.5h285q26 0 34 16q2 4 5 10.5t4 9.5t3.5 7t5 5.5t6 3t8.5 1.5h24v-131h-485q0 74 31 138
t108 129l114 92q91 74 120.5 118t21.5 112q-11 83 -81 113q-32 14 -93 9t-86 -24q-30 -17 -47 -66z" />
    <glyph glyph-name="three" unicode="3" 
d="M412 379q-25 19 -57 27.5t-50 9.5t-59 1v67q159 0 198 66q15 24 16 56.5t-14 60.5q-35 63 -117 63q-40 0 -77 -20q-11 -6 -28.5 -21t-26.5 -29q-13 -18 -26 -18h-30v107q6 4 18 10q46 22 141.5 25t155.5 -20q90 -41 105 -127q14 -84 -52 -140q-35 -29 -77 -45
q71 -35 102 -70t37 -98q11 -125 -93 -213q-56 -48 -132.5 -67t-142.5 -12.5t-126 28.5v112h12q10 0 13 -2t11 -11q8 -10 21 -23q71 -46 152 -31.5t143 76.5q32 32 42 88q7 40 -8 82t-51 68z" />
    <glyph glyph-name="four" unicode="4" 
d="M391 0v19q0 10 11 18q27 18 27 70v59h-374v73l360 530h111v-522h67v-81h-67v0v-1v-1v-1v-1v-1v-1v-1v-1v-1v-1v-2v-1v-1v-1v-1v-2v-1v-1v-1v-2v-1v-2v-1v-2v-1v-2v-1v-2v-1v-2v-2v-1v-2v-2v-2v-1v-2v-9q0 -52 28 -70q11 -8 11 -18v-19h-174zM165 246h264v399z" />
    <glyph glyph-name="five" unicode="5" 
d="M119 -10q-32 0 -63 11v113h18q6 1 20 -15q16 -17 33 -26q42 -17 106.5 -1.5t115.5 51.5q114 77 104 210q-3 37 -23.5 76t-55.5 54q-76 31 -152 -19q-30 -19 -69 -68l-62 33v360h400l-11 -45q-9 -35 -55 -35h-252v-184q92 72 205 43.5t158 -133.5q30 -72 17.5 -145.5
t-58.5 -127.5q-48 -56 -119 -92t-133 -48t-124 -12z" />
    <glyph glyph-name="six" unicode="6" 
d="M530 766v-109h-26q-12 0 -29 23q-11 12 -20 19q-27 16 -68 11.5t-74 -21.5q-132 -69 -149 -241q64 55 138 71.5t126 -7.5q122 -50 151 -181q14 -64 -4.5 -139.5t-75.5 -131.5q-51 -49 -124.5 -64t-122.5 2q-135 37 -179 190q-16 52 -18 116t9.5 130t41.5 131.5t75 115.5
q121 131 309 96q17 -2 40 -11zM161 270q-5 -82 41 -144t115 -67t122 48.5t57 134.5q5 82 -41 144t-115 67t-122 -48.5t-57 -134.5z" />
    <glyph glyph-name="seven" unicode="7" 
d="M544 769q1 -54 -5 -81.5t-28 -73.5l-153 -332q-56 -123 -56 -282h-97q0 77 18.5 165.5t51.5 155.5l138 270q30 61 32 99h-278q-34 0 -43 -36q-5 -18 -27 -18h-22v133h469z" />
    <glyph glyph-name="eight" unicode="8" 
d="M84 607q0 76 69 126.5t182 50.5q107 0 168.5 -52.5t61.5 -134.5q0 -45 -31.5 -90t-76.5 -63q60 -17 100 -81t40 -130q0 -102 -79.5 -172.5t-197.5 -70.5q-113 0 -191.5 72t-76.5 171q0 66 39 129t100 80q-45 18 -76 66t-31 99zM320 479q60 -3 105 31t48 86q2 53 -38 91
t-100 39q-60 3 -105 -31t-48 -85q-3 -53 37 -91t101 -40zM153 234q-1 -71 48.5 -121t120.5 -51t121 48.5t51 119.5q1 71 -48.5 121.5t-120.5 51.5q-70 1 -120.5 -48.5t-51.5 -120.5z" />
    <glyph glyph-name="nine" unicode="9" 
d="M102 -4v117h23q2 0 3.5 -0.5t2.5 -0.5t2.5 -1.5t2 -2.5t2 -3t2.5 -4t3 -5.5t4 -6.5q11 -13 23 -20q45 -27 117 4q83 33 124.5 90.5t50.5 140.5q-63 -51 -137 -60t-137 23q-117 55 -134 184q-8 62 16.5 144t82.5 135q43 39 115 50t117 -5q133 -32 177 -192
q13 -50 15 -112.5t-7.5 -128t-37 -130t-69.5 -110.5q-68 -74 -169 -97t-192 -9zM132 525q-2 -84 47 -145.5t120 -63.5q72 -2 124.5 55t53.5 141q2 84 -46.5 146t-119.5 64t-124 -55.5t-55 -141.5z" />
    <glyph glyph-name="colon" unicode=":" horiz-adv-x="194" 
d="M117 506q27 0 45.5 -20t18.5 -47t-19 -45.5t-46 -18.5q-28 0 -47 19.5t-19 46.5t19.5 46t47.5 19zM117 122q27 0 45.5 -20t18.5 -47t-19 -46t-46 -19t-46.5 20t-19.5 47t19.5 46t47.5 19z" />
    <glyph glyph-name="semicolon" unicode=";" horiz-adv-x="194" 
d="M50 -154v52q34 25 44 57q8 16 3 33.5t-27 41.5q-35 32 -21 73q11 32 45 39q38 7 64 -19q20 -22 24 -64.5t-6 -72.5q-24 -90 -126 -140zM116 506q27 0 45.5 -20t18.5 -47t-19 -45.5t-46 -18.5q-28 0 -47 19.5t-19 46.5t19.5 46t47.5 19z" />
    <glyph glyph-name="less" unicode="&#x3c;" horiz-adv-x="575" 
d="M62 419l482 204v-80l-385 -159l385 -159v-80l-482 204v70z" />
    <glyph glyph-name="equal" unicode="=" horiz-adv-x="901" 
d="M70 547h772v-64h-772v64zM72 293h770v-61h-770v61z" />
    <glyph glyph-name="greater" unicode="&#x3e;" horiz-adv-x="575" 
d="M544 349l-482 -204v80l385 159l-385 159v80l482 -204v-70z" />
    <glyph glyph-name="question" unicode="?" horiz-adv-x="511" 
d="M242 166h-58v176q29 0 43.5 1t47 6t57 19.5t41.5 38.5q24 34 26 82.5t-14 86.5q-16 47 -52.5 79t-84.5 45q-20 8 -63.5 2t-63.5 -25q-12 -8 -28 -34q-7 -11 -19 -10h-24v112q47 16 102 22t118 -5.5t105 -43.5q60 -46 88 -117.5t24 -130.5q-2 -46 -25.5 -97t-70.5 -81
t-121 -39q-17 -4 -22.5 -12t-5.5 -30v-45zM212 125q28 0 48 -19t21 -47t-18 -48.5t-46 -20.5q-29 0 -50 19t-21 46q0 28 19.5 49t46.5 21z" />
    <glyph glyph-name="at" unicode="@" horiz-adv-x="876" 
d="M534 204q-37 -51 -73.5 -70.5t-85.5 -14.5q-78 7 -109 77q-20 48 -8 118t44 117q76 112 176 108q65 -6 92 -58q3 -4 11 -34l22 78h74l-51 -193l-6 -21q-7 -21 -9 -31.5t-4.5 -29.5t0.5 -32t11 -22q21 -21 63 -13q79 13 116 114q22 48 16.5 132t-42.5 136
q-51 68 -138.5 96.5t-161.5 23.5q-213 -14 -314 -199q-40 -76 -42.5 -175.5t41.5 -185.5q45 -79 126.5 -120t167.5 -46q162 -8 329 95l23 -33q-127 -85 -268 -104t-252 32q-104 48 -158 122t-68 177q-12 93 23 201t125 179q61 49 144.5 74t161 24.5t139.5 -22.5
q81 -28 134 -87t70 -139q16 -69 -3 -158.5t-77 -144.5q-31 -31 -79.5 -46t-82.5 -6q-31 7 -49 25.5t-28 55.5zM394 426q-31 -46 -48 -111.5t-3 -101.5q14 -35 49 -42q46 -8 83 29q35 32 60 106.5t19 115.5q-8 41 -43 57q-34 15 -71 -4q-22 -13 -46 -49z" />
    <glyph glyph-name="A" unicode="A" horiz-adv-x="782" 
d="M32 0v19q0 10 11 18q20 12 23 17t26 53l282 652h70l281 -652q23 -47 27.5 -53t22.5 -17q10 -6 10 -18v-19h-181v19q0 10 11 18q8 5 11.5 10t2.5 12.5t-1.5 11t-6 14.5t-6.5 15l-90 193h-266l-82 -193q-2 -4 -6.5 -13.5t-5.5 -12.5t-2.5 -10t0 -10t5 -8t9.5 -9q2 -1 5 -3
t3.5 -3t1.5 -4t1 -8v-19h-156zM294 374h200l-106 228z" />
    <glyph glyph-name="B" unicode="B" horiz-adv-x="686" 
d="M53 0v19q0 10 11 18q5 3 8.5 7t6 7t4 8.5t2.5 8.5t1.5 10t0.5 9v10v10v545v9.5v10t-0.5 9.5t-1.5 9.5t-2.5 8.5t-4 9t-6 7t-8.5 7q-11 7 -11 18v19h317q45 0 75 -2.5t72.5 -19.5t69.5 -49q44 -51 36 -123q-7 -48 -32 -82t-72 -64q47 -18 78 -39.5t51 -61.5
q23 -48 19.5 -107.5t-29.5 -95.5q-27 -39 -62.5 -63.5t-81 -35t-81.5 -13.5t-90 -3h-270zM387 462q50 0 92.5 34t39.5 83q-3 45 -35 73.5t-79 29.5h-216v-220h198zM325 76q124 0 187 41t53 124q-8 62 -60.5 101.5t-117.5 39.5h-197v-306h135z" />
    <glyph glyph-name="C" unicode="C" horiz-adv-x="690" 
d="M600 91l4.5 4.5l4 4t3.5 3t3.5 2.5t4 1.5t5.5 0.5h15v-100q-275 -62 -464 116q-88 90 -116.5 211t18.5 229q97 206 346 206q90 0 147.5 -26t110.5 -80l-78 -79l-11 10q-6 6 -6 17q1 18 -22 40q-59 50 -146 49.5t-153 -46.5q-57 -39 -86 -111t-22 -141q7 -74 41 -142.5
t85.5 -118.5t124.5 -71.5t152 -2.5q19 6 39 24z" />
    <glyph glyph-name="D" unicode="D" horiz-adv-x="748" 
d="M190 690v-615h74q3 0 23.5 -0.5t33.5 0t36.5 1t41.5 3.5t38.5 6.5t38.5 10.5t31 16q60 39 88 111t20 143q-18 158 -132 246t-293 78zM217 759q154 0 223 -24q75 -27 133 -72.5t93 -101t51.5 -117.5t11 -125.5t-31.5 -121.5q-16 -34 -32.5 -59t-45.5 -52.5t-64.5 -45
t-89 -29t-120.5 -11.5h-292v19q0 10 11 18q5 3 8.5 7t6 7t4 8.5t2.5 8.5t1.5 10t0.5 9v10v10v545v9.5v10t-0.5 9.5t-1.5 9.5t-2.5 8.5t-4 9t-6 7t-8.5 7q-11 7 -11 18v19h164z" />
    <glyph glyph-name="E" unicode="E" horiz-adv-x="680" 
d="M53 19q0 10 11 18q5 3 8.5 7t6 7t4 8.5t2.5 8.5t1.5 10t0.5 9v10v10v545v9.5v10t-0.5 9.5t-1.5 9.5t-2.5 8.5t-4 9t-6 7t-8.5 7l-5 2.5t-3.5 2.5t-1.5 4t-1 9v19h596v-111h-19q-10 0 -18 11q-3 5 -7 8.5t-7 6t-8.5 4t-8.5 2.5t-10 1.5t-9 0.5h-10h-10h-353v-216h233h9.5
h10t9.5 0.5t9.5 1.5t8 2.5t8.5 4t7 6t7 8.5q8 11 19 11h18v-145h-18q-11 0 -19 11q-4 7 -9.5 11.5t-9 6.5t-12.5 3.5t-11.5 1.5h-14h-12.5h-233v-313h374h5q16 0 25 0.5t20.5 6.5t18.5 17q8 11 19 11h19v-111h-617v19z" />
    <glyph glyph-name="F" unicode="F" horiz-adv-x="661" 
d="M649 648h-19q-10 0 -18 11q-3 5 -7 8.5t-7 6t-8.5 4t-8.5 2.5t-10 1.5t-9 0.5h-10h-10h-353v-216h233h9.5h10t9.5 0.5t9.5 1.5t8 2.5t8.5 4t7 6t7 8.5q8 11 19 11h18v-145h-18q-11 0 -19 11q-3 5 -7 8.5t-7 6t-8.5 4t-8 2.5t-9.5 1.5t-9.5 0.5h-10h-9.5h-233v-282v-9.5
v-10.5t0.5 -9t1.5 -10t2.5 -8.5t4 -8.5t6.5 -7t9 -7q6 -3 8.5 -6t2.5 -12v-19h-171v19q0 10 11 18q5 3 8.5 7t6 7t4 8.5t2.5 8.5t1.5 10t0.5 9v10v10v545v9.5v10t-0.5 9.5t-1.5 9.5t-2.5 8.5t-4 9t-6 7t-8.5 7q-11 7 -11 18v19h596v-111z" />
    <glyph glyph-name="G" unicode="G" horiz-adv-x="750" 
d="M557 0h-33t-46 1t-45.5 3t-53 7t-46.5 13q-82 28 -147.5 90t-99 137.5t-40 159.5t29.5 156q42 89 134 145.5t212 56.5q159 0 258 -102l-78 -79l-11 10q-6 5 -6 17q1 18 -22 40q-60 49 -147.5 47t-153.5 -48q-57 -39 -86 -111t-22 -141q16 -159 134.5 -249t305.5 -74v255
v10v10t-0.5 9t-1.5 10t-2.5 8.5t-4 8.5t-6 7t-8.5 7q-11 8 -11 19v18h170v-18q0 -10 -10 -19q-13 -8 -18.5 -21.5t-6 -20.5t-0.5 -28v-263q0 -6 0.5 -10t2 -7l2 -4t3 -3t3.5 -2q11 -11 11 -19v-19q-115 -11 -160 -7z" />
    <glyph glyph-name="H" unicode="H" horiz-adv-x="721" 
d="M664 107v-10v-10t0.5 -9t1.5 -10t2.5 -8.5t4 -8.5t6 -7t8.5 -7q2 -2 5 -3t3.5 -2t1.5 -4t1 -9v-19h-171v19q0 10 11 18q5 3 9 7t6.5 7t4 8.5t2.5 8.5t1.5 10t0.5 9v10.5v9.5v279h-373v-279v-9.5v-10.5t0.5 -9t1.5 -10t2.5 -8.5t4 -8.5t6.5 -7t9 -7q11 -8 11 -18v-19h-171
v19q0 10 11 18q5 3 8.5 7t6 7t4 8.5t2.5 8.5t1.5 10t0.5 9v10v10v545v9.5v10t-0.5 9.5t-1.5 9.5t-2.5 8.5t-4 9t-6 7t-8.5 7q-11 7 -11 18v19h171v-19q0 -11 -11 -18q-5 -3 -9 -7t-6.5 -7t-4 -9t-2.5 -8.5t-1.5 -9.5t-0.5 -9v-10.5v-9.5v-189h373v189v8.5v9v8.5t-1 8.5
t-2 7.5t-3 8t-4.5 7t-6 7t-7.5 6q-11 7 -11 18v19h171v-19q0 -11 -11 -18q-5 -3 -8.5 -7t-6 -7t-4 -9t-2.5 -8.5t-1.5 -9.5t-0.5 -9.5v-10v-9.5v-545z" />
    <glyph glyph-name="I" unicode="I" horiz-adv-x="243" 
d="M224 759v-19q0 -11 -8 -16l-1.5 -1.5t-1.5 -0.5q-5 -3 -9 -7t-6.5 -7t-4 -9t-2.5 -8.5t-1.5 -9.5t-0.5 -9v-10.5v-9.5v-545v-9.5v-10.5t0.5 -9t1.5 -10t2.5 -8.5t4 -8.5t6.5 -7t9 -7q11 -8 11 -18v-19h-171v19q0 10 11 18q5 3 8.5 7t6 7t4 8.5t2.5 8.5t1.5 10t0.5 9v10
v10v545v9.5v10t-0.5 9.5t-1.5 9.5t-2.5 8.5t-4 9t-6 7t-8.5 7q-11 7 -11 18v19h171z" />
    <glyph glyph-name="J" unicode="J" horiz-adv-x="619" 
d="M164 135q18 -38 56.5 -61t87.5 -22q65 1 109 45.5t44 113.5v441v8.5v9v8.5t-1 8.5t-2 7.5t-3 8t-4.5 7t-6 7t-7.5 6q-11 7 -11 18v19h170v-19q0 -11 -11 -18q-5 -3 -8.5 -7t-6 -7t-4 -9t-2.5 -8.5t-1.5 -9.5t-0.5 -9.5v-10v-9.5v-409q0 -130 -74 -199.5t-189 -68.5
q-81 0 -154 51.5t-101 124.5l116 70q2 -2 6 -7t4.5 -6.5t2 -5.5t1 -7.5t-2.5 -9.5q-8 -20 -8.5 -24t1.5 -26z" />
    <glyph glyph-name="K" unicode="K" horiz-adv-x="736" 
d="M483 759h199v-19q0 -14 -12 -16q-10 -1 -17 -2.5t-16 -7.5t-14.5 -11t-20.5 -18.5t-27 -24.5l-150 -128l232 -442q4 -6 9 -14.5t6 -11t4.5 -7t3.5 -5t4 -3.5t5.5 -3.5t7.5 -3.5l10 -5q11 -6 11 -18v-19h-205v19q0 8 0.5 10t5 4.5t5.5 3.5q10 6 14 11t2.5 15t-4 16.5
t-12.5 26.5l-190 348l-143 -124v-223v-8.5v-9v-8.5t1 -8.5t2 -7.5t3 -8t4.5 -7t6 -7t7.5 -6q1 -1 3.5 -2.5t3 -2t1.5 -2t1 -2.5t0.5 -3.5t0.5 -5.5v-19h-170v19q0 10 11 18q5 3 8.5 7t6 7t4 8.5t2.5 8.5t1.5 10t0.5 9v10v10v545v9.5v10t-0.5 9.5t-1.5 9.5t-2.5 8.5t-4 9
t-6 7t-8.5 7q-11 7 -11 18v19h170v-19q0 -12 -10 -18q-5 -3 -9 -7t-6.5 -7t-4 -9t-2.5 -8.5t-1.5 -9.5t-0.5 -9v-10.5v-9.5v-209l294 242q27 22 25 28t-16 9q-1 0 -4 0.5t-3.5 1t-1.5 2t-1.5 5t-0.5 9.5v19z" />
    <glyph glyph-name="L" unicode="L" horiz-adv-x="622" 
d="M87 652v9.5v10t-0.5 9.5t-1.5 9.5t-2.5 8.5t-4 9t-6 7t-8.5 7q-11 7 -11 18v19h171v-19q0 -11 -8 -16l-1.5 -1.5t-1.5 -0.5q-5 -3 -9 -7t-6.5 -7t-4 -9t-2.5 -8.5t-1.5 -9.5t-0.5 -9v-10.5v-9.5v-576h306h9h9.5h8.5t8.5 1t7.5 2t8 3t6.5 4.5t6.5 6t6 7.5q6 11 18 11h19
v-111h-549v19q0 10 11 18q5 3 8.5 7t6 7t4 8.5t2.5 8.5t1.5 10t0.5 9v10v10v545z" />
    <glyph glyph-name="M" unicode="M" horiz-adv-x="886" 
d="M844 106q8 -52 34 -69q11 -8 11 -18v-19h-176v19q0 10 11 18q7 5 11.5 10.5t4.5 15v12.5t-3 16.5t-3 14.5l-81 488l-182 -421h-54l-161 416l-93 -483q-1 -3 -3 -12.5t-2.5 -13.5t-1 -11.5t1.5 -12t5.5 -10t10.5 -9.5q10 -9 10 -18v-19h-155v19q0 10 11 18q8 5 13.5 11
t9.5 15.5t5.5 13.5t3.5 17l3 12l105 547q6 39 2 49.5t-26 19.5q-11 4 -11 18v19h159l158 -398l175 394h138v-19q0 -9 -1.5 -11.5t-8.5 -6.5q-17 -10 -18 -20.5t6 -48.5z" />
    <glyph glyph-name="N" unicode="N" horiz-adv-x="743" 
d="M54 759h136l396 -353v246v9.5v10t-0.5 9.5t-1.5 9.5t-2.5 8.5t-4 9t-6 7t-8.5 7q-11 7 -11 18q-1 19 0 19h171v-19q0 -11 -11 -18q-5 -3 -9 -7t-6.5 -7t-4 -9t-2.5 -8.5t-1.5 -9.5t-0.5 -9v-10.5v-9.5v-545v-9.5v-10.5t0.5 -9t1.5 -10t2.5 -8.5t4 -8.5t6.5 -7t9 -7
q11 -8 11 -18v-19h-171v19q0 10 11 18q5 3 8.5 7t6 7t4 8.5t2.5 8.5t1.5 10t0.5 9v10v10v153l-412 367v-520v-10v-10t0.5 -9t1.5 -10t2.5 -8.5t4 -8.5t6 -7t8.5 -7q11 -8 11 -18v-19h-155v19q0 10 11 18q5 3 8.5 7t6 7t4 8.5t2.5 8.5t1.5 10t0.5 9v10v10v545v9.5v10
t-0.5 9.5t-1.5 9.5t-2.5 8.5t-4 9t-6 7t-8.5 7q-10 6 -10 18v19z" />
    <glyph glyph-name="O" unicode="O" horiz-adv-x="803" 
d="M142 382q-1 -136 69.5 -226.5t195.5 -90.5q129 0 199 87.5t71 223.5q1 90 -25.5 160t-87.5 114t-151 44q-126 0 -198 -88t-73 -224zM422 769q167 0 265.5 -115.5t95.5 -281.5q-3 -168 -102 -275t-275 -107q-172 0 -268.5 114.5t-93.5 282.5q3 165 107 273.5t271 108.5z
" />
    <glyph glyph-name="P" unicode="P" horiz-adv-x="610" 
d="M190 292q32 6 54 14q41 15 71 27.5t70.5 35.5t67 53.5t35.5 66.5q10 31 4 77t-28 69q-45 48 -183 48h-91v-391zM310 759q101 0 150 -17q53 -18 86 -56q34 -40 43.5 -98.5t-4.5 -102.5q-17 -70 -64 -117.5t-117 -86.5q-48 -25 -113 -47.5t-102 -29.5v-97v-9v-10t0.5 -9
t1.5 -10t2.5 -8.5t4 -9t6.5 -7.5t9 -7q11 -8 11 -18v-19h-171v19q0 10 11 18q5 3 8.5 7t6 7t4 8.5t2.5 8.5t1.5 10t0.5 9v10v10v545q0 43 -10 57q-5 7 -14 13q-10 6 -10 18v19h257z" />
    <glyph glyph-name="Q" unicode="Q" horiz-adv-x="858" 
d="M620 159q64 85 64 217q0 140 -66 229t-198 89q-127 0 -199 -88.5t-72 -223.5q0 -136 70 -226.5t195 -90.5q85 0 143 38q-35 33 -44 41q-34 30 -67.5 37.5t-58 0t-61.5 -27.5l-33 41q17 16 47 32.5t46 20.5q53 14 114.5 -9.5t119.5 -79.5zM634 51q-93 -61 -221 -61
q-172 0 -268.5 114.5t-93.5 282.5q3 165 106.5 273.5t270.5 108.5q170 0 266 -112.5t96 -284.5q0 -164 -100 -272q1 -1 4 -3q67 -50 95 -40q1 1 3 2q6 4 11 9q8 9 19 9h18v-89q-80 0 -112 10.5t-94 52.5z" />
    <glyph glyph-name="R" unicode="R" horiz-adv-x="720" 
d="M307 410q92 -2 134 12t69 60q16 28 17.5 72t-14.5 73q-38 61 -165 61h-159v-278h118zM367 759q151 0 219 -76q30 -33 37 -94.5t-3 -92.5q-16 -72 -64 -113.5t-81 -39.5l150 -241q35 -55 40 -59q1 -1 28 -13q4 -4 5 -9t0 -12.5t-1 -8.5h-125l-212 331h-170v-224v-9v-10
t0.5 -9t1.5 -10t2.5 -8.5t4 -9t6.5 -7.5t9 -7q11 -8 11 -18v-19h-171v19q0 10 11 18q5 3 8.5 7t6 7t4 8.5t2.5 8.5t1.5 10t0.5 9v10v10v545q0 43 -10 57q-5 7 -14 13q-10 6 -10 18v19h313z" />
    <glyph glyph-name="S" unicode="S" horiz-adv-x="659" 
d="M611 668l-84 -84l-11 8q-9 8 -9 22q2 9 1 17.5t-9 18.5q-36 43 -126 50q-39 3 -86.5 -8t-77.5 -43q-29 -30 -17 -75q5 -19 17.5 -35.5t33.5 -30t38.5 -22.5t46.5 -21q71 -29 120 -45q39 -14 57 -21t48.5 -23t45 -32t27 -42t14.5 -59q3 -56 -20 -113.5t-76 -93.5
q-60 -41 -177 -46t-181 29q-98 50 -142 174l109 42l9 -14q3 -4 3 -7.5t-0.5 -6t-3.5 -8.5l-5 -10q-6 -15 1 -32q14 -36 47 -61t73 -34q30 -7 68 -8t85.5 10.5t75.5 38.5q52 52 38 117q-9 42 -40.5 62.5t-89.5 39.5q-9 3 -13 4q-80 27 -88 30q-92 31 -146 74t-64 116
q-13 101 71 172q38 31 100 43t124 5.5t110 -26.5q51 -22 103 -72z" />
    <glyph glyph-name="T" unicode="T" horiz-adv-x="680" 
d="M675 759v-111h-19q-11 0 -19 11q-3 5 -7 8.5t-7 6t-8.5 4t-8.5 2.5t-9.5 1.5t-9 0.5h-10h-9.5h-165v-575v-10v-10t0.5 -9t1.5 -10t2.5 -8.5t4 -8.5t6 -7t8.5 -7q11 -8 11 -18v-19h-170v19q0 9 10 18q5 3 9 7t6.5 7t4 8.5t2.5 8.5t1.5 10t0.5 9v10.5v9.5l-1 575h-159h-9.5
h-10t-9 -0.5t-9.5 -1.5t-8.5 -2.5t-8.5 -4t-7 -6t-7 -8.5q-8 -11 -19 -11h-19v111h641z" />
    <glyph glyph-name="U" unicode="U" horiz-adv-x="744" 
d="M206 161q19 -29 50 -47.5t72 -25.5t65 -8.5t59 -1.5h132v574v10v9.5v8.5t-1 8.5t-2 7.5t-2.5 7.5t-4 6t-6 6.5t-7.5 6q-11 7 -11 18v19h171v-19q0 -11 -8 -16q-2 -1 -3 -2q-5 -3 -9 -7t-6.5 -7t-4 -9t-2.5 -8.5t-1.5 -9.5t-0.5 -9v-10.5v-9.5v-545v-9.5v-10.5t0.5 -9.5
t1.5 -10t2.5 -8t4 -8.5t6.5 -7t9 -7q11 -8 11 -18v-19h-340q-38 0 -62 1.5t-57.5 8t-58 19.5t-51.5 36.5t-50 58.5q-120 181 13 472q5 11 13.5 29.5t13.5 28.5q18 38 15 49q-4 10 -16 18q-10 6 -10 18v20h168v-19q0 -9 -2 -12.5t-9 -5.5q-4 -2 -7.5 -4t-7 -5.5t-6 -5.5
t-5.5 -6.5t-4.5 -6.5t-4.5 -7.5t-4 -7.5t-4.5 -8.5t-4.5 -8.5q-35 -71 -57 -158.5t-19 -184.5t42 -158z" />
    <glyph glyph-name="V" unicode="V" horiz-adv-x="678" 
d="M396 0h-62l-254 647l-6.5 19.5t-7.5 21.5t-10 18t-16 16q-1 1 -3.5 2.5t-4 2t-3.5 2t-3 3t-1.5 3.5t-0.5 5v19h176v-19q0 -11 -8 -16l-1.5 -1.5t-1.5 -0.5q-6 -4 -9 -7.5t-4.5 -8t-1.5 -8t2 -10t3.5 -10.5t6 -13.5t6.5 -15.5l185 -463l173 464q12 34 10.5 47t-21.5 25
q-7 3 -9 6t-2 12v19h160v-19q0 -4 -1.5 -7t-3 -4l-6 -4t-5.5 -3q-18 -11 -41 -75z" />
    <glyph glyph-name="W" unicode="W" horiz-adv-x="970" 
d="M683 217l143 433q12 34 12 47t-17 25q-11 7 -11 18v19h160v-19q0 -3 -1.5 -6t-3.5 -4.5t-6.5 -4t-5.5 -3.5q-21 -19 -40 -75l-215 -647h-57l-130 397l-136 -397h-72l-218 647q-20 64 -39 75q-17 8 -18 18v19h177v-19q0 -9 -2 -12t-9 -6q-9 -6 -11 -15t0.5 -18t9.5 -29
q1 -3 2 -5.5t2 -5.5l154 -458l118 341l-41 115q-2 8 -5.5 19.5t-5 16t-4.5 12t-6 11t-8 8t-11 8.5q-16 7 -16 18v19h177v-19q0 -14 -11 -18q-4 -2 -7 -5t-3.5 -7.5t-1 -8.5t1.5 -11t3.5 -11.5t4.5 -14.5t5 -16z" />
    <glyph glyph-name="X" unicode="X" horiz-adv-x="715" 
d="M209 102q-22 -32 -25 -43t12 -22q11 -6 11 -18v-19h-174v19q0 9 17 18q30 19 59 67l203 306l-162 246q-13 19 -19 27.5t-17 19.5t-23 19q-16 7 -16 18v19h195v-19q0 -9 -2 -12t-9 -6q-13 -11 -11.5 -17t17.5 -31q6 -10 10 -16l109 -167l110 166l17 25.5t8 16.5t0 13.5
t-11 9.5q-7 3 -9 6t-2 12v19h174v-19q0 -10 -17 -18q-28 -17 -58 -66l-161 -242l203 -311q30 -47 59 -66q17 -9 17 -18v-19h-195v19q0 12 10 18t11 12.5t-3.5 16t-14.5 25.5q-5 8 -8 12l-151 229z" />
    <glyph glyph-name="Y" unicode="Y" horiz-adv-x="657" 
d="M602 669l-203 -407v-155v-9.5v-10.5t0.5 -9t1.5 -10t2.5 -8.5t4 -8.5t6.5 -7t9 -7q10 -9 10 -18v-19h-170v19q0 10 11 18q5 3 8.5 7t6 7t4 8.5t2.5 8.5t1.5 10t0.5 9v10v10v146l-206 400q-22 48 -33 59q-5 5 -13 10l-5 2.5t-4.5 2.5t-3.5 3t-3 4.5t-1 5.5v19h187v-19
q0 -11 -8 -16l-1.5 -1.5t-1.5 -0.5q-18 -13 -18 -21t16 -38l6 -12l151 -292l146 291q6 11 9 20l5 15t1 11.5t-1.5 8.5t-5 6.5t-5.5 4l-7 3.5t-7 3q-7 3 -9 6t-2 12v19h177v-19q0 -3 -0.5 -5.5t-3 -4.5t-3.5 -2.5l-5 -2.5t-5 -3q-3 -2 -6.5 -4.5t-5 -3t-4.5 -3t-4.5 -5
t-4.5 -8t-6.5 -12t-9.5 -17.5z" />
    <glyph glyph-name="Z" unicode="Z" horiz-adv-x="641" 
d="M213 682h-11.5h-12t-10.5 -0.5t-10.5 -2t-9 -4t-9 -6.5t-7.5 -10q-6 -11 -18 -11h-19v111h506l-9 -47q-3 -14 -14 -31l-385 -605h306h8.5h9h8.5t9 1t7.5 2t7.5 3t7 4.5t6.5 6t5.5 7.5q6 11 19 11h19v-111h-569l5 47q1 10 14 30l385 605h-239z" />
    <glyph glyph-name="bracketleft" unicode="[" horiz-adv-x="257" 
d="M236 759v-45h-99v-840h99v-45h-183v930h183z" />
    <glyph glyph-name="backslash" unicode="\" horiz-adv-x="533" 
d="M512 -122h-94l-365 881h93z" />
    <glyph glyph-name="bracketright" unicode="]" horiz-adv-x="257" 
d="M53 759h183v-930h-183v45h100v840h-100v45z" />
    <glyph glyph-name="asciicircum" unicode="^" horiz-adv-x="276" 
d="M173 665v11q-4 11 -18 19q-15 -9 -18 -19v-11h-84l105 104l98 -104h-83z" />
    <glyph glyph-name="underscore" unicode="_" horiz-adv-x="463" 
d="M570 -143h-592v41h592v-41z" />
    <glyph glyph-name="grave" unicode="`" horiz-adv-x="229" 
d="M84 766q5 10 15 -3q3 -8 15 -17l95 -77l-121 12q-15 1 -22 -1q-7 -1 -11 1.5t-2 6.5q28 70 31 78z" />
    <glyph glyph-name="a" unicode="a" horiz-adv-x="522" 
d="M193 245q-60 -38 -58 -98q2 -47 44 -71q31 -14 67 -9t68 24q45 29 53 46t8 70v6v6v7v67q-127 -12 -182 -48zM125 381q-7 -10 -18 -10h-11l-5 93q63 35 161.5 45t161.5 -21q11 -7 19 -15t13.5 -15t9 -18.5t5.5 -18t3 -20t1 -18.5v-20.5v-19.5v-249v-5q0 -16 0.5 -23.5
t6 -18.5t16.5 -18q11 -5 11 -18v-11h-125v46q-119 -77 -213 -48q-72 22 -102 94q-31 70 5 136q7 13 16.5 25t18 21t22.5 17.5t22 14t26 11.5t25.5 9t28.5 8t27.5 6.5t30.5 6.5t29 6l65 13q0 57 -33 71q-26 9 -77.5 6.5t-78.5 -11.5q-37 -11 -61 -51z" />
    <glyph glyph-name="b" unicode="b" horiz-adv-x="578" 
d="M81 665v9.5v9.5t-0.5 8.5t-1.5 8.5t-2.5 7t-4 8t-6 6.5t-8.5 6.5q-11 8 -11 19v11h127v-291q60 34 128.5 41t131.5 -18q95 -42 118 -158q11 -54 -3.5 -118.5t-57.5 -111.5q-92 -103 -262 -103h-182v11q0 11 11 18q5 3 8.5 7t6 6.5t4 7.5t2.5 7.5t1.5 9t0.5 8.5v9.5v9.5
v571zM423 140q30 30 35 91t-11 97q-29 77 -98 97q-38 13 -87 1t-88 -44v-311q178 -2 249 69z" />
    <glyph glyph-name="c" unicode="c" horiz-adv-x="511" 
d="M159 202q14 -50 58.5 -87.5t95 -52t91.5 -7.5q24 2 34 17t20 15h17v-89q-39 -10 -91.5 -8t-102 11.5t-98.5 39t-81 74.5q-37 47 -46.5 119t14.5 126q53 130 201 150q136 17 231 -71l-63 -77l-14 10q-6 6 -8 26q-1 23 -36 38q-36 18 -86 7q-74 -14 -116.5 -85t-19.5 -156z
" />
    <glyph glyph-name="d" unicode="d" horiz-adv-x="580" 
d="M213 378q-42 -38 -56.5 -93.5t-7.5 -101.5q13 -79 90 -109q30 -13 66 -11t64 19q23 15 36.5 30.5t18.5 38t5.5 34t0.5 42.5v204q-43 15 -108.5 0.5t-108.5 -53.5zM429 665v9.5v9.5t-0.5 8.5t-1.5 8.5t-2.5 7t-4 8t-6 6.5t-8.5 6.5q-11 8 -11 19v11h127v-665v-8v-8.5v-7.5
t1 -8t2 -7t2.5 -7t4 -6.5t6 -6.5t7.5 -6q11 -7 11 -18v-11h-127l-4 36q-53 -38 -125 -45t-125 21q-64 34 -91.5 78.5t-32.5 106.5q-13 162 122 250q81 54 256 66v152z" />
    <glyph glyph-name="e" unicode="e" horiz-adv-x="544" 
d="M524 256h-378q4 -115 89 -172q38 -25 88 -30.5t87 9.5q34 15 63 49q7 13 15 13h17v-87q-6 -6 -12 -11q-41 -30 -125.5 -36t-127.5 10q-73 22 -114.5 63.5t-63.5 110.5q-20 49 -8.5 123t54.5 127q72 87 209 87q58 0 108 -29.5t74 -84.5q25 -53 25 -142zM375 430
q-22 19 -64.5 21t-62.5 -8q-68 -22 -97 -116h268q0 65 -44 103z" />
    <glyph glyph-name="f" unicode="f" horiz-adv-x="250" 
d="M186 439v-345v-9v-10t0.5 -8.5t1.5 -8.5t2.5 -7.5t4 -8l6.5 -6.5t9 -7q11 -7 11 -18v-11h-161v11q0 11 11 18q5 3 8.5 7t6 6.5t4 7.5t2.5 7.5t1.5 9t0.5 8.5v9.5v9.5v345h-66v63h66v141q0 81 55 112q36 20 88.5 18.5t97.5 -23.5v-83h-16q-4 0 -6 0.5t-4.5 3t-3.5 4.5
l-4 8t-6 10q-10 14 -20 21q-31 19 -64 -4q-25 -17 -25 -58v-150h147v-63h-147z" />
    <glyph glyph-name="g" unicode="g" horiz-adv-x="576" 
d="M517 108q0 -63 5 -88q11 -47 4 -85t-40 -75q-40 -44 -113 -60.5t-132 -10.5q-30 3 -54 8.5t-51 18t-49 36t-38 57.5l76 59l13 -14q4 -5 0 -23q-4 -30 16 -49q22 -21 85 -30t94 -1q84 22 102 86q17 61 -16 102q-102 -74 -210 -38q-108 35 -146 147q-21 54 -10.5 121.5
t50.5 121.5q56 76 128 98t187 23q36 -1 96 -1l37 1v-12q0 -11 -11 -19q-5 -3 -8.5 -6.5t-6 -6.5t-4 -8t-2.5 -7t-1.5 -8.5t-0.5 -8.5v-9.5v-9.5v-309zM222 398q-48 -37 -66.5 -96.5t-7.5 -109.5q21 -91 81 -119q68 -33 151 14q43 25 45 61v292q-43 11 -102.5 0.5
t-100.5 -42.5z" />
    <glyph glyph-name="h" unicode="h" horiz-adv-x="572" 
d="M518 94v-8v-8.5v-8t1 -8t2 -7t2.5 -7t4 -6t6 -6.5t7.5 -6q11 -7 11 -18v-11h-161v11q0 11 11 18q5 3 8.5 7t6 6.5t4 7.5t2.5 7.5t1.5 9t0.5 8.5v9.5v9.5v195v15.5v20.5t-1 20t-3 22.5t-5.5 19.5t-9 18.5t-13.5 13.5q-26 18 -71.5 19.5t-74.5 -13.5q-47 -23 -68 -41v-290
v-9v-10t0.5 -8.5t1.5 -8.5t2.5 -7.5t4 -8l6.5 -6.5t9 -7q11 -7 11 -18v-11h-161v11q0 11 11 18q5 3 8.5 7t6 6.5t4 7.5t2.5 7.5t1.5 9t0.5 8.5v9.5v9.5v571v9.5v9.5t-0.5 8.5t-1.5 8.5t-2.5 7t-4 8t-6 6.5t-8.5 6.5q-11 8 -11 19v11h126v-291q66 36 142 42t139 -28
q22 -14 35.5 -38.5t17 -49.5t5.5 -51t0 -43v-206z" />
    <glyph glyph-name="i" unicode="i" horiz-adv-x="233" 
d="M179 94v-9v-10t0.5 -8.5t1.5 -8.5t2.5 -7.5t4 -8l6.5 -6.5t9 -7q11 -7 11 -18v-11h-161v11q0 11 11 18q5 3 8.5 7t6 6.5t4 7.5t2.5 7.5t1.5 9t0.5 8.5v9.5v9.5v314v8v8.5v8t-1 8t-2 7t-2.5 7t-4 6t-6 6.5t-7.5 6q-11 7 -11 18v11h126v-408zM126 725q28 0 47.5 -21
t19.5 -49t-21 -47.5t-49 -18.5t-48 21.5t-19 48.5t21.5 47.5t48.5 18.5z" />
    <glyph glyph-name="j" unicode="j" horiz-adv-x="233" 
d="M125 725q28 0 47.5 -21t19.5 -49t-21 -47.5t-49 -18.5t-48 21.5t-19 48.5t21.5 47.5t48.5 18.5zM86 408v8v8.5v8t-1 8t-2 7t-2.5 7t-4 6t-6 6.5t-7.5 6q-11 7 -11 18v11h126v-496v-20v-24t-1 -23t-3.5 -25.5t-7.5 -24t-11.5 -25.5t-16.5 -21.5t-23 -20.5
q-51 -36 -137 -16v91h18q7 0 17 -18q9 -16 26 -20.5t26 2.5q5 3 9 8t6 12.5t3.5 13.5t2 15.5t0.5 15v16v13.5v453z" />
    <glyph glyph-name="k" unicode="k" horiz-adv-x="585" 
d="M467 436l-129 -100l162 -244q24 -36 66 -63q10 -6 10 -18v-11h-192v11q0 13 11 18q5 3 8.5 7t4 8t0.5 7.5t-2.5 9t-4 8t-5.5 9t-5 8.5l-129 196l-84 -54v-130q0 -42 10 -55q5 -8 15 -14q11 -7 11 -18v-11h-161v11q0 11 11 18q5 3 8.5 7t6 6.5t4 7.5t2.5 7.5t1.5 9
t0.5 8.5v9.5v9.5v571v9.5v9.5t-0.5 8.5t-1.5 8.5t-2.5 7t-4 8t-6 6.5t-8.5 6.5q-11 8 -11 19v11h126v-444l166 113q27 20 28 28q1 9 -12 17q-11 5 -11 18v11h192v-11q0 -12 -12 -16q-27 -14 -63 -39z" />
    <glyph glyph-name="l" unicode="l" horiz-adv-x="233" 
d="M87 665v9.5v10t-0.5 8.5t-1.5 8.5t-2.5 7.5t-4 7.5l-6 6t-8.5 6.5q-11 6 -11 19v11h126v-665v-9v-10t0.5 -8.5t1.5 -8.5t2.5 -7.5t4 -8l6.5 -6.5t9 -7q11 -7 11 -18v-11h-161v11q0 11 11 18q5 3 8.5 7t6 6.5t4 7.5t2.5 7.5t1.5 9t0.5 8.5v9.5v9.5v571z" />
    <glyph glyph-name="m" unicode="m" horiz-adv-x="895" 
d="M509 392v-298v-8v-8.5v-8t1 -8t2 -7t2.5 -7t4 -6t6 -6.5t7.5 -6q1 -1 4 -2.5t3.5 -2t2 -2.5t1.5 -4.5v-6.5v-11h-162v11q0 6 1 9t1.5 4t3.5 2.5l5 2.5q5 3 9 6.5t6.5 6.5t4 8t2.5 7t1.5 8.5t0.5 8.5v10v10v197v11.5v17t-0.5 19t-2.5 21.5t-5 20t-8 19.5t-12 14.5
q-46 39 -113 29q-59 -9 -95 -52v-297v-9v-10t0.5 -8.5t1.5 -8.5t2.5 -7.5t4 -8l6.5 -6.5t9 -7q11 -7 11 -18v-11h-161v11q0 11 11 18q5 3 8.5 7t6 6.5t4 7.5t2.5 7.5t1.5 9t0.5 8.5v9.5v9.5v314v8v8.5v8t-1 8t-2 7t-2.5 7t-4 6t-6 6.5t-7.5 6q-1 1 -4 2.5t-3.5 2t-2 2.5
t-1.5 4.5v6.5v11h123v-30q46 19 81 28.5t80 10t84 -16.5q32 -15 61 -44q69 45 144.5 57.5t136.5 -17.5q51 -29 62.5 -64t11.5 -111v-221v-9v-10t0.5 -8.5t1.5 -8.5t2.5 -7.5t4 -8l6.5 -6.5t9 -7q11 -7 11 -18v-11h-162v11q0 11 11 18q5 3 8.5 6.5t6 6.5t4 8t2.5 7.5t1.5 9
t0.5 8.5v9.5v9.5v197v11.5v17t-0.5 19t-2.5 22t-4.5 20t-7.5 19t-12 14.5q-47 39 -114 29q-28 -4 -56.5 -20t-38.5 -31z" />
    <glyph glyph-name="n" unicode="n" horiz-adv-x="568" 
d="M513 94v-8v-8.5v-8t1 -8t2 -7t2.5 -7t4 -6t6 -6.5t7.5 -6q11 -7 11 -18v-11h-162v11q0 11 11 18q5 3 9 7l6.5 6.5t4 8t2.5 7.5t1.5 8.5t0.5 8.5v10v9v197v10v15t-0.5 17t-1.5 20t-2.5 20t-4 19.5t-6.5 16.5t-9 13.5t-12 8.5q-35 19 -97.5 11.5t-102.5 -42.5v-306v-9v-10
t0.5 -8.5t1.5 -8.5t2.5 -7.5t4 -8l6.5 -6.5t9 -7q11 -7 11 -18v-11h-161v11q0 11 11 18q5 3 8.5 7t6 6.5t4 7.5t2.5 7.5t1.5 9t0.5 8.5v9.5v9.5v314v8v8.5v8t-1 8t-2 7t-2.5 7t-4 6t-6 6.5t-7.5 6q-11 7 -11 18v11h123v-32q60 32 135.5 40.5t137.5 -21.5q12 -7 21.5 -17
t15.5 -18t10.5 -22t7 -21t3.5 -23.5t1 -21v-22.5v-19v-231z" />
    <glyph glyph-name="o" unicode="o" horiz-adv-x="588" 
d="M308 512q119 0 190.5 -73.5t71.5 -184.5q0 -112 -70 -188t-190 -76q-111 0 -186.5 76.5t-75.5 185.5q0 111 71.5 185.5t188.5 74.5zM144 252q0 -78 44 -130.5t122 -52.5q73 0 119 53.5t46 131.5t-45.5 129.5t-121.5 51.5q-77 0 -120.5 -52.5t-43.5 -130.5z" />
    <glyph glyph-name="p" unicode="p" horiz-adv-x="592" 
d="M359 77q101 52 112 172q9 120 -66 168q-41 22 -89.5 20t-82.5 -20q-11 -6 -18 -11t-12.5 -9t-9 -11t-5.5 -10t-2.5 -14.5t-1 -16t-0.5 -22.5v-27v-235q29 -12 78.5 -8.5t96.5 24.5zM181 -3v-115v-9v-10t0.5 -8.5t1.5 -9t2.5 -7.5t4 -7.5t6.5 -6t9 -6.5q11 -8 11 -19v-11
h-159v11q0 11 11 19q6 3 10 6.5t6.5 8t4 8t2 10t0.5 9.5v11v11v526v8v8.5v8t-1 8t-2 7t-2.5 7t-4 6t-6 6.5t-7.5 6q-11 7 -11 18v11h123l8 -45q60 44 149 52.5t144 -26.5q95 -57 92 -208q0 -73 -37.5 -140.5t-114.5 -108.5q-48 -25 -110.5 -33t-129.5 4z" />
    <glyph glyph-name="q" unicode="q" horiz-adv-x="585" 
d="M262 425q-58 -29 -85.5 -77.5t-30.5 -96.5q-6 -122 70 -168q41 -21 89.5 -19.5t81.5 19.5q19 11 28 18t14.5 15.5t5.5 18.5t0.5 27.5t0.5 41.5v237q-26 12 -77.5 8.5t-96.5 -24.5zM139 17q-94 52 -91 208q0 74 37 142.5t115 107.5q18 9 37.5 15t49 8t44.5 2.5t56 0
t52 -0.5l125 2v-11q0 -11 -11 -18q-5 -3 -9 -7l-6.5 -6.5t-4 -8t-2.5 -7.5t-1.5 -8.5t-0.5 -8.5v-10v-9v-526v-9v-10t0.5 -8.5t1.5 -8.5t2.5 -7t4 -8t6.5 -6.5t9 -6.5q11 -8 11 -19v-11h-159v11q0 13 11 19q5 3 8.5 6.5l6 6t4 7.5t2.5 7.5t1.5 9t0.5 8.5v9.5v9.5v166
q-56 -44 -150 -54.5t-150 23.5z" />
    <glyph glyph-name="r" unicode="r" horiz-adv-x="386" 
d="M179 94v-9v-10t0.5 -8.5t1.5 -8.5t2.5 -7.5t4 -8l6.5 -6.5t9 -7q11 -7 11 -18v-11h-161v11q0 11 11 18q5 3 8.5 7t6 6.5t4 7.5t2.5 7.5t1.5 9t0.5 8.5v9.5v9.5v314v8v8.5v8t-1 8t-2 7t-2.5 7t-4 6t-6 6.5t-7.5 6q-11 7 -11 18v11h113l9 -32q92 58 192 24v-106
q-26 -3 -37 11q-2 2 -5 6q-16 21 -30 29q-17 10 -40 8t-40 -13q-6 -4 -11.5 -9t-9 -12l-6.5 -13t-4.5 -15t-2.5 -14.5t-1.5 -15.5t-0.5 -13.5v-14v-11.5v-217z" />
    <glyph glyph-name="s" unicode="s" horiz-adv-x="458" 
d="M46 149h16q10 0 20 -16q24 -41 46.5 -57t57.5 -24q24 -9 72 -2.5t72 30.5q26 28 18 56q-2 8 -5 14t-9 12t-10.5 9.5t-16 8.5t-17.5 7.5t-22.5 9.5t-24.5 10l-44 17q-67 24 -104.5 53.5t-42.5 79.5q-8 74 57 119q58 36 145.5 35.5t151.5 -28.5v-93h-16q-9 0 -20 16
q-13 22 -39 33q-29 14 -84.5 15.5t-79.5 -12.5q-38 -20 -36 -56q1 -25 21 -40t73 -35l58 -23q4 -2 20 -8t21.5 -8.5t20 -9t20 -10t17.5 -10.5t17.5 -13t14 -14.5t12.5 -17t7.5 -19.5t4.5 -23q3 -30 -12 -66.5t-47 -62.5q-37 -29 -102 -34t-124.5 7.5t-106.5 33.5v116z" />
    <glyph glyph-name="t" unicode="t" horiz-adv-x="337" 
d="M110 434h-83v68h83v169l91 20v-189h127v-65h-127v-336v-7v-7v-6t0.5 -5.5t1 -4.5t1 -4.5t2 -3.5t3 -3.5t3.5 -3t5 -2.5q21 -10 38 -3q22 7 31 30l2 5q2 4 3 5.5t4 3.5t7 2h16v-80q-39 -23 -86 -26.5t-78 15.5q-45 32 -45 95z" />
    <glyph glyph-name="u" unicode="u" horiz-adv-x="582" 
d="M525 71q0 -21 5.5 -29.5t28.5 -16.5v-25h-127v38q-37 -20 -84.5 -33.5t-100.5 -13t-88 21.5q-69 41 -69 177v218v8v8.5v8t-1 8t-2 7t-2.5 7t-4 6t-6 6.5t-7.5 6q-11 7 -11 18v11h126v-287v-16v-19.5t1 -19t3 -21t5.5 -18.5t8.5 -19t12.5 -15t17.5 -13q30 -18 83.5 -14.5
t89.5 26.5q23 15 27 22t3 28v272v8v8.5v8t-1 8t-2 7t-2.5 7t-4 6t-6 6.5t-7.5 6q-11 7 -11 18v11h126v-431z" />
    <glyph glyph-name="v" unicode="v" horiz-adv-x="535" 
d="M407 417q9 23 9.5 31t-2.5 11.5t-20 13.5q-11 7 -11 18v11v0v0h1v0h1v0h1h1h1h1h1h1h1h1h1h1h1h1h1h1h1h1h1h1h1h1h1h1h1h1h1h1h2h1h1h1h1h1h1h1h2h1h1h1h1h2h1h1h1h2h1h1h2h1h1h2h1h1h2h1h2h1h2h1h1h2h1h2h1h2h1h2h1h2h1h2h2h1h2h1h2h2h1h2h1h2h2h1h2h2h1h2h2h2h1h2h2h1
h2h2h2h2h1h2h2h2h2h1h2h2h2h9v-11q0 -11 -11 -18q-19 -12 -24 -19.5t-18 -39.5l-165 -414h-76l-156 414q-11 32 -16.5 39t-25.5 20q-11 7 -11 18v11v0v0v0h1v0h1v0h1h1h1h1h1h1h1h1h1h1h1h1h1h1h1h1h1h1h1h1h1h1h1h1h1h1h1h1h1h1h1h1h1h1h1h1h1h2h1h1h1h1h2h1h1h1h1h2h1h1h2
h1h1h2h1h1h2h1h1h2h1h1h2h1h2h1h2h1h1h2h1h2h1h2h1h2h1h2h2h1h2h1h2h1h2h2h1h2h1h2h2h1h2h2h1h2h2h1h2h2h1h2h2h2h1h2h2h2h1h2h2h2h2h1h2h2h2h2h1h10v-11q0 -11 -11 -18q-14 -9 -16 -10t-5 -8.5t-0.5 -13.5t8.5 -24l108 -280z" />
    <glyph glyph-name="w" unicode="w" horiz-adv-x="782" 
d="M750 431l-170 -431h-61l-98 249l-100 -249h-67l-164 414q-13 34 -17 40t-25 19q-11 7 -11 18v11v0v0v0h1v0h1v0h1h1h1h1h1h1h1h1h1h1h1h1h1h1h1h1h1h1h1h1h1h1h1h1h1h1h1h1h1h1h1h1h1h1h1h1h1h2h1h1h1h1h2h1h1h1h1h2h1h1h2h1h1h2h1h1h2h1h1h2h1h1h2h1h2h1h2h1h1h2h1h2h1
h2h1h2h1h2h2h1h2h1h2h1h2h2h1h2h1h2h2h1h2h2h1h2h2h1h2h2h1h2h2h2h1h2h2h2h1h2h2h2h2h1h2h2h2h2h1h10v-11q0 -11 -11 -18q-21 -14 -23 -19t8 -37l113 -282l84 215l-28 63q-18 41 -24 47q-4 3 -18 12q-11 7 -11 18v12v0v0v0h1v0h1v0h1h1h1h1h1h1h1h1h1h1h1h1h1h1h1h1h1h1h1h1
h1h1h1h1h1h1h1h1h1h2h1h1h1h1h1h1h1h1h2h1h1h1h1h2h1h1h1h2h1h1h1h2h1h1h2h1h1h2h1h2h1h1h2h1h2h1h1h2h1h2h1h2h1h2h1h2h1h2h1h2h1h2h2h1h2h1h2h2h1h2h2h1h2h1h2h2h1h2h2h2h1h2h2h1h2h2h2h1h2h2h2h2h1h2h2h2h2h1h2h2h9v-11q0 -12 -10 -18q-21 -13 -22.5 -19.5t9.5 -36.5
l109 -267l104 267q11 29 9 36.5t-22 19.5q-21 9 -21 18v11h157v-11q0 -11 -11 -18q-10 -6 -15 -11.5t-10 -17.5z" />
    <glyph glyph-name="x" unicode="x" horiz-adv-x="524" 
d="M265 211l-75 -105q-35 -52 -34 -64q0 -10 15 -13q12 -2 15.5 -6t3.5 -12v-11h-157v11q0 13 11 18q26 7 48 38l138 195l-104 159q-18 27 -24.5 34.5t-14.5 10t-16 7.5q-11 7 -11 18v11h188v-11q0 -14 -11 -16q-14 -4 -17.5 -10t-0.5 -13.5t14 -25.5l61 -93l44 63
q35 49 35 60q0 10 -14 17q-19 7 -20 11q-1 3 -1 7v11h157v-11q0 -11 -11 -18q-33 -15 -48 -38l-108 -153l134 -201q7 -10 10.5 -16t8.5 -11.5t6 -7.5t6 -5t6 -3.5t8.5 -4t10.5 -4.5q10 -4 10 -18v-11h-188v11q0 13 11 16q14 4 17.5 10t0 13.5t-13.5 24.5z" />
    <glyph glyph-name="y" unicode="y" horiz-adv-x="554" 
d="M427 414q11 29 9.5 37.5t-21.5 21.5q-11 7 -11 18v11v0v0h1v0h1v0h1h1h1h1h1h1h1h1h1h1h1h1h1h1h1h1h1h1h1h1h1h1h1h1h1h1h2h1h1h1h1h1h1h1h2h1h1h1h1h2h1h1h1h2h1h1h2h1h1h2h1h1h2h1h2h1h2h1h1h2h1h2h1h2h1h2h1h2h1h2h2h1h2h1h2h2h1h2h1h2h2h1h2h2h1h2h2h2h1h2h2h1h2h2
h2h2h1h2h2h2h2h1h2h2h2h9v-11q0 -11 -11 -18q-16 -10 -20.5 -14t-10.5 -14t-15 -31l-192 -476q-45 -111 -102 -144.5t-153 -7.5v91h15q3 0 5.5 -0.5t4 -0.5t3 -2t2 -2.5t3 -4t3.5 -4.5q18 -23 35 -28q33 -7 73 40q22 26 50 97l-165 442q-10 31 -15.5 38.5t-26.5 20.5
q-11 7 -11 18v11h174v-11q0 -11 -11 -18q-20 -13 -21.5 -20t8.5 -36l120 -311z" />
    <glyph glyph-name="z" unicode="z" horiz-adv-x="470" 
d="M78 396v106h360v-50l-259 -386h174q15 0 19.5 2.5t11.5 15.5q1 2 3 5t2.5 4.5t2 4t2.5 4t2.5 3l2.5 2.5t2.5 1.5l3 1t3.5 0.5h17v-110h-379v47l245 384h-148q-15 0 -18 -3q-1 -2 -4 -6q-1 -2 -3 -5t-2.5 -4.5t-2 -4t-2.5 -4t-2.5 -3l-2.5 -2.5t-2.5 -1.5l-3 -1t-3.5 -0.5
h-19z" />
    <glyph glyph-name="braceleft" unicode="{" horiz-adv-x="463" 
d="M443 759v-28q-93 -15 -123.5 -48.5t-30.5 -125.5v-78q-1 -16 0 -31t-1 -31t-6 -30.5t-15.5 -30t-29.5 -29.5q-45 -36 -156 -53q59 -8 93 -18t61.5 -31.5t39 -58t14.5 -95.5v-76v-14.5v-15.5t0.5 -15t1.5 -15.5t3 -14t5 -15t7.5 -14t10 -14.5t13.5 -13t17 -13
q35 -26 96 -32v-28q-57 0 -101 12.5t-81 49.5q-14 14 -22.5 27.5t-12.5 30.5t-5 26.5t-1 33v32.5v77v16v17t-0.5 16t-2 17t-4 15t-6.5 16t-9.5 14.5t-13 15t-17.5 12.5q-28 18 -114 32v45q48 7 75.5 16t50.5 27.5t32 49t9 78.5v78q0 8 0.5 30.5t1 30.5t3.5 26t9 28
t16.5 24.5t26.5 28.5q60 44 166 46z" />
    <glyph glyph-name="bar" unicode="|" horiz-adv-x="115" 
d="M95 -186h-42v945h42v-945z" />
    <glyph glyph-name="braceright" unicode="}" horiz-adv-x="464" 
d="M53 759q46 0 97 -14.5t81 -46.5q9 -10 16 -20t11.5 -17t8 -19.5t5 -17t2.5 -19.5t1 -17v-20.5v-19.5v-71q0 -74 14 -106q14 -30 40 -47q37 -26 115 -38v-43q-52 -9 -79 -17t-48.5 -27t-29.5 -49t-10 -82v-76v-43t-4 -36t-12 -38.5t-25 -31t-42 -32.5q-50 -30 -141 -31v28
q90 11 123.5 52t33.5 125v76v30t0.5 29.5t3.5 24t8.5 27t16 22.5t26.5 25q36 28 151 46q-113 19 -161 60.5t-48 151.5v71q-1 11 -1 31.5t-1 30.5t-4.5 26t-10.5 26t-20.5 22.5t-33.5 23.5q-27 16 -83 26v25z" />
    <glyph glyph-name="asciitilde" unicode="~" horiz-adv-x="288" 
d="M228 758l41 -40q-34 -28 -56 -35t-46 4q-1 1 -4 3q-30 20 -44 15q-5 -1 -11 -7t-10 -12l-4 -5l-41 42q5 4 13.5 12t12 11t10 8.5t10 7t9.5 4t10.5 2.5t10 -1t12.5 -3q30 -13 46 -23q12 -5 18 -2t23 19z" />
    <glyph glyph-name="cent" unicode="&#xa2;" horiz-adv-x="545" 
d="M295 789h58v-71q98 0 173 -85l-56 -68q-7 3 -17 16q0 19 -1 22q-5 16 -35 32q-35 15 -64 15l1 -473q48 -11 82 -11q10 0 15.5 1t7.5 2t6 5l6 6q12 20 21 20h22v-88q-33 -12 -88.5 -14t-72.5 3v-95h-59v105q-98 16 -163 100.5t-75 203.5q-6 70 22.5 141.5t98.5 117.5
q55 34 118 42v73zM252 636q-50 -17 -79 -69.5t-32 -113.5q0 -47 17.5 -103t54 -102.5t81.5 -55.5v454q-19 -2 -42 -10z" />
    <glyph glyph-name="sterling" unicode="&#xa3;" horiz-adv-x="639" 
d="M135 24q25 0 40.5 16.5t31.5 47.5q-18 25 -59 25q-62 0 -62 -46q0 -20 14.5 -31.5t34.5 -11.5zM448 448v-55h-145l4 -63q4 -70 -31 -197q106 -43 169 -43q51 0 78.5 13.5t71.5 53.5q14 14 20 14q13 0 4 -23q-40 -79 -83.5 -118.5t-120.5 -39.5q-17 0 -34 4t-36 14
t-30.5 17t-33.5 21t-29 19q-52 -75 -118 -75q-33 0 -56.5 21t-23.5 54q0 40 28 64t64.5 25.5t71.5 -4.5q3 47 1 83.5t-9.5 89.5t-9.5 70h-131v55h125q-12 86 -10 134q3 57 30 103t76 69q58 27 125.5 23.5t130.5 -39.5q24 -14 27 -15v-118h-28q-17 0 -25 18q-17 48 -47 66
q-17 13 -56 16.5t-50 -1.5q-38 -9 -60 -42.5t-21 -70.5q0 -20 2.5 -42t5.5 -51.5t5 -49.5h149z" />
    <glyph glyph-name="dieresis" unicode="&#xa8;" horiz-adv-x="291" 
d="M102 769q20 0 35.5 -14.5t15.5 -34.5q0 -21 -14 -36t-34 -15q-21 0 -36.5 14t-15.5 35q0 20 14.5 35.5t34.5 15.5zM220 769q20 0 35.5 -14.5t15.5 -34.5q0 -21 -14 -36t-34 -15q-21 0 -36.5 14t-15.5 35t14 36t35 15z" />
    <glyph glyph-name="acute" unicode="&#xb4;" horiz-adv-x="229" 
d="M209 688q2 -4 -2 -6.5t-11 -1.5q-8 3 -22 1l-121 -12l95 77q12 9 15 17q9 12 14 3q2 -5 16.5 -40t15.5 -38z" />
    <glyph glyph-name="paragraph" unicode="&#xb6;" horiz-adv-x="447" 
d="M228 777h53v-69q30 -5 48.5 -9.5t43.5 -18t46 -34.5v-95h-20q-12 0 -21 21q-12 31 -42.5 55t-53.5 20v-186q39 -13 59 -21.5t44 -24t37.5 -37.5t21.5 -54q12 -35 2 -84.5t-40 -84.5q-28 -31 -62 -49.5t-62 -19.5v-96h-57v93q-51 2 -90 14.5t-82 50.5v86h17q5 0 6.5 -0.5
t5 -4t7.5 -9.5t11 -19q35 -62 125 -60v247q-41 18 -59.5 27.5t-43 27.5t-35.5 40t-14 53q-11 92 68 142q31 20 87 29v70zM282 144q49 8 69.5 46.5t20.5 79.5q0 66 -90 101v-227zM225 647q-28 0 -54.5 -24t-27.5 -55q-1 -35 23 -61t59 -31v171z" />
    <glyph glyph-name="periodcentered" unicode="&#xb7;" horiz-adv-x="250" 
d="M103 -165q20 -15 46 -3t31 37q11 45 -16 68q-19 14 -41 9l4 56h31v-17q13 -3 30 -11q34 -24 41 -67t-17 -77q-20 -30 -50 -37.5t-51 -1.5t-37.5 22t-20.5 37h38q2 -5 12 -15z" />
    <glyph glyph-name="Agrave" unicode="&#xc0;" horiz-adv-x="782" 
d="M33 0v19q0 10 11 18q20 12 23 17t26 53l282 652h70l281 -652q4 -8 10 -21q17 -34 26 -41q3 -2 10 -6q2 -1 3 -2q11 -6 11 -18v-19h-181v19q0 10 11 18q8 5 11.5 10t2.5 12.5t-1.5 11t-6 14.5t-6.5 15l-91 193h-265l-82 -193q-2 -4 -6.5 -13.5t-5.5 -12.5t-2.5 -10t0 -10
t5 -8t9.5 -9q2 -1 5 -3t3.5 -3t1.5 -4t1 -8v-19h-156zM295 374h200l-106 228zM352 948q5 10 15 -3q2 -7 14 -17l95 -77l-120 13q-15 2 -23 -1q-7 -1 -10.5 1.5t-1.5 6.5q14 31 31 77z" />
    <glyph glyph-name="Aacute" unicode="&#xc1;" horiz-adv-x="782" 
d="M33 0v19q0 10 11 18q20 12 23 17t26 53l282 652h70l281 -652q4 -8 10 -21q17 -34 26 -41q3 -2 10 -6q2 -1 3 -2q11 -6 11 -18v-19h-181v19q0 10 11 18q8 5 11.5 10t2.5 12.5t-1.5 11t-6 14.5t-6.5 15l-91 193h-265l-82 -193q-2 -4 -6.5 -13.5t-5.5 -12.5t-2.5 -10t0 -10
t5 -8t9.5 -9q2 -1 5 -3t3.5 -3t1.5 -4t1 -8v-19h-156zM295 374h200l-106 228zM554 871q2 -4 -2 -6.5t-11 -1.5q-8 3 -22 1l-121 -13l95 77q12 9 15 17q10 13 15 3q4 -17 31 -77z" />
    <glyph glyph-name="Acircumflex" unicode="&#xc2;" horiz-adv-x="782" 
d="M36 0v19q0 10 11 18q20 12 23 17t26 53l281 652h71l281 -652q4 -8 10 -21q17 -34 26 -41q3 -2 10 -6q2 -1 3 -2q11 -6 11 -18v-19h-181v19q0 10 11 18q8 5 11.5 10t2.5 12.5t-1.5 11t-6 14.5t-6.5 15l-91 193h-265l-82 -193q-2 -4 -6.5 -13.5t-5.5 -12.5t-2.5 -10t0 -10
t5 -8t9.5 -9q2 -1 5 -3t3.5 -3t1.5 -4t1 -8v-19h-156zM298 374h200l-106 228zM411 851v12q-3 9 -18 18q-16 -9 -18 -18v-12h-84l105 104l98 -104h-83z" />
    <glyph glyph-name="Atilde" unicode="&#xc3;" horiz-adv-x="782" 
d="M33 0v19q0 10 11 18q20 12 23 17t26 53l282 652h70l281 -652q4 -8 10 -21q17 -34 26 -41q3 -2 10 -6q2 -1 3 -2q11 -6 11 -18v-19h-181v19q0 10 11 18q8 5 11.5 10t2.5 12.5t-1.5 11t-6 14.5t-6.5 15l-91 193h-265l-82 -193q-2 -4 -6.5 -13.5t-5.5 -12.5t-2.5 -10t0 -10
t5 -8t9.5 -9q2 -1 5 -3t3.5 -3t1.5 -4t1 -8v-19h-156zM295 374h200l-106 228zM474 927l40 -40q-34 -27 -55.5 -34.5t-46.5 4.5q-33 23 -48 18q-5 -1 -11 -7t-10 -12l-4 -5l-41 41q5 5 15 14t13.5 12t11 9t11.5 7t10.5 2.5t13 0.5t13.5 -4q38 -16 46 -22q12 -5 18 -2t24 18z
" />
    <glyph glyph-name="Adieresis" unicode="&#xc4;" horiz-adv-x="782" 
d="M36 0v19q0 10 11 18q20 12 23 17t26 53l281 652h71l281 -652q4 -8 10 -21q17 -34 26 -41q3 -2 10 -6q2 -1 3 -2q11 -6 11 -18v-19h-181v19q0 10 11 18q8 5 11.5 10t2.5 12.5t-1.5 11t-6 14.5t-6.5 15l-91 193h-265l-82 -193q-2 -4 -6.5 -13.5t-5.5 -12.5t-2.5 -10t0 -10
t5 -8t9.5 -9q2 -1 5 -3t3.5 -3t1.5 -4t1 -8v-19h-156zM298 374h200l-106 228zM337 951q21 0 36 -14.5t15 -34.5q0 -21 -13.5 -36t-34.5 -15t-36.5 14.5t-15.5 34.5t14.5 35.5t34.5 15.5zM455 951q20 0 35.5 -14.5t15.5 -34.5q0 -21 -14 -36t-34 -15q-21 0 -36.5 14.5
t-15.5 34.5q0 21 14 36t35 15z" />
    <glyph glyph-name="Aring" unicode="&#xc5;" horiz-adv-x="782" 
d="M36 0v19q0 10 11 18q20 12 23 17t26 53l281 652h71l281 -652q4 -8 10 -21q17 -34 26 -41q3 -2 10 -6q2 -1 3 -2q11 -6 11 -18v-19h-181v19q0 10 11 18q8 5 11.5 10t2.5 12.5t-1.5 11t-6 14.5t-6.5 15l-91 193h-265l-82 -193q-2 -4 -6.5 -13.5t-5.5 -12.5t-2.5 -10t0 -10
t5 -8t9.5 -9q2 -1 5 -3t3.5 -3t1.5 -4t1 -8v-19h-156zM298 374h200l-106 228zM395 952q21 0 36.5 -15t15.5 -35q0 -21 -14.5 -36t-35.5 -15t-36.5 14.5t-15.5 34.5t15 36t35 16zM378 901q0 -7 5.5 -12.5t12.5 -5.5t12.5 5.5t5.5 12.5t-5.5 12.5t-12.5 5.5t-12.5 -5.5
t-5.5 -12.5z" />
    <glyph glyph-name="AE" unicode="&#xc6;" horiz-adv-x="1130" 
d="M360 381h169l-1 302zM197 102q-1 -2 -5 -9.5t-5 -9t-4 -7.5t-3 -7.5t-0.5 -6t1 -7t3.5 -6t5.5 -6.5t8.5 -6q2 -1 4 -2.5t3 -2t2 -1.5t1 -2.5t0.5 -3.5t0.5 -6v-19h-156v19q0 10 12 17q1 1 5 3t5 3t4.5 3t5 4t5 5.5t6 7.5t6 9.5t8 13t9.5 16.5l373 658h598v-111h-18
q-11 0 -19 11q-3 5 -7 8.5t-7 6t-8.5 4t-8.5 2.5t-10 1.5t-9 0.5h-10h-10h-353v-216h233h9.5h10t9.5 0.5t9.5 1.5t8 2.5t8.5 4t7 6t7 8.5q8 11 19 11h19v-145h-19q-11 0 -19 11q-4 7 -9.5 11.5t-9 6.5t-12.5 3.5t-11.5 1.5h-14h-12.5h-233v-313h374q43 0 56 10q8 6 14 14
q7 11 18 11h19v-111h-617v19q0 10 11 18q5 3 8.5 7t6 7t4 8.5t2.5 8.5t1.5 10t0.5 9v10v10v196h-213z" />
    <glyph glyph-name="Ccedilla" unicode="&#xc7;" horiz-adv-x="707" 
d="M430 -4q-140 22 -253 127q-88 90 -116.5 211t18.5 229q97 206 346 206q90 0 147.5 -26t110.5 -80l-78 -79l-11 10q-6 6 -6 17q0 19 -22 40q-59 50 -146 49.5t-153 -46.5q-57 -39 -86 -111t-22 -141q7 -74 41 -142.5t85.5 -118.5t124.5 -71.5t152 -2.5q19 6 39 24l6.5 6.5
t5.5 5t5 3t7 1.5h16v-100q-99 -21 -179 -15v-7q6 0 30 -11q34 -24 41 -67t-17 -77q-20 -30 -50 -37.5t-51 -1.5t-37.5 22t-20.5 37h38q0 -3 1 -5t5 -5t6 -5q20 -15 45.5 -3t31.5 37q11 45 -16 68q-12 9 -42 9z" />
    <glyph glyph-name="Egrave" unicode="&#xc8;" horiz-adv-x="680" 
d="M53 19q0 10 11 18q5 3 8.5 7t6 7t4 8.5t2.5 8.5t1.5 10t0.5 9v10v10v545v9.5v10t-0.5 9.5t-1.5 9.5t-2.5 8.5t-4 9t-6 7t-8.5 7l-5 2.5t-3.5 2.5t-1.5 4t-1 9v19h596v-111h-19q-10 0 -18 11q-3 5 -7 8.5t-7 6t-8.5 4t-8.5 2.5t-10 1.5t-9 0.5h-10h-10h-353v-216h233h9.5
h10t9.5 0.5t9.5 1.5t8 2.5t8.5 4t7 6t7 8.5q8 11 19 11h18v-145h-18q-11 0 -19 11q-4 7 -9.5 11.5t-9 6.5t-12.5 3.5t-11.5 1.5h-14h-12.5h-233v-313h374h5q16 0 25 0.5t20.5 6.5t18.5 17q8 11 19 11h19v-111h-617v19zM267 948q5 10 14 -3q3 -8 15 -17l95 -77l-120 13
q-15 2 -23 -1q-7 -1 -11 1.5t-2 6.5q20 45 32 77z" />
    <glyph glyph-name="Eacute" unicode="&#xc9;" horiz-adv-x="680" 
d="M53 19q0 10 11 18q5 3 8.5 7t6 7t4 8.5t2.5 8.5t1.5 10t0.5 9v10v10v545v9.5v10t-0.5 9.5t-1.5 9.5t-2.5 8.5t-4 9t-6 7t-8.5 7l-5 2.5t-3.5 2.5t-1.5 4t-1 9v19h596v-111h-19q-10 0 -18 11q-3 5 -7 8.5t-7 6t-8.5 4t-8.5 2.5t-10 1.5t-9 0.5h-10h-10h-353v-216h233h9.5
h10t9.5 0.5t9.5 1.5t8 2.5t8.5 4t7 6t7 8.5q8 11 19 11h18v-145h-18q-11 0 -19 11q-4 7 -9.5 11.5t-9 6.5t-12.5 3.5t-11.5 1.5h-14h-12.5h-233v-313h374h5q16 0 25 0.5t20.5 6.5t18.5 17q8 11 19 11h19v-111h-617v19zM494 871q2 -4 -2 -6.5t-11 -1.5q-7 3 -22 1l-121 -13
l95 77q12 9 15 17q10 13 15 3q17 -46 31 -77z" />
    <glyph glyph-name="Ecircumflex" unicode="&#xca;" horiz-adv-x="680" 
d="M53 19q0 10 11 18q5 3 8.5 7t6 7t4 8.5t2.5 8.5t1.5 10t0.5 9v10v10v545v9.5v10t-0.5 9.5t-1.5 9.5t-2.5 8.5t-4 9t-6 7t-8.5 7l-5 2.5t-3.5 2.5t-1.5 4t-1 9v19h596v-111h-19q-10 0 -18 11q-3 5 -7 8.5t-7 6t-8.5 4t-8.5 2.5t-10 1.5t-9 0.5h-10h-10h-353v-216h233h9.5
h10t9.5 0.5t9.5 1.5t8 2.5t8.5 4t7 6t7 8.5q8 11 19 11h18v-145h-18q-11 0 -19 11q-4 7 -9.5 11.5t-9 6.5t-12.5 3.5t-11.5 1.5h-14h-12.5h-233v-313h374h5q16 0 25 0.5t20.5 6.5t18.5 17q8 11 19 11h19v-111h-617v19zM368 851v12q-3 9 -18 18q-16 -9 -18 -18v-12h-84
l105 104l98 -104h-83z" />
    <glyph glyph-name="Edieresis" unicode="&#xcb;" horiz-adv-x="680" 
d="M53 19q0 10 11 18q5 3 8.5 7t6 7t4 8.5t2.5 8.5t1.5 10t0.5 9v10v10v545v9.5v10t-0.5 9.5t-1.5 9.5t-2.5 8.5t-4 9t-6 7t-8.5 7l-5 2.5t-3.5 2.5t-1.5 4t-1 9v19h596v-111h-19q-10 0 -18 11q-3 5 -7 8.5t-7 6t-8.5 4t-8.5 2.5t-10 1.5t-9 0.5h-10h-10h-353v-216h233h9.5
h10t9.5 0.5t9.5 1.5t8 2.5t8.5 4t7 6t7 8.5q8 11 19 11h18v-145h-18q-11 0 -19 11q-4 7 -9.5 11.5t-9 6.5t-12.5 3.5t-11.5 1.5h-14h-12.5h-233v-313h374h5q16 0 25 0.5t20.5 6.5t18.5 17q8 11 19 11h19v-111h-617v19zM287 951q21 0 36 -14.5t15 -34.5q0 -21 -13.5 -36
t-34.5 -15t-36.5 14.5t-15.5 34.5t14.5 35.5t34.5 15.5zM405 951q20 0 35.5 -14.5t15.5 -34.5q0 -21 -14 -36t-34 -15q-21 0 -36.5 14.5t-15.5 34.5q0 21 14 36t35 15z" />
    <glyph glyph-name="Igrave" unicode="&#xcc;" horiz-adv-x="243" 
d="M224 759v-19q0 -11 -8 -16l-1.5 -1.5t-1.5 -0.5q-5 -3 -9 -7t-6.5 -7t-4 -9t-2.5 -8.5t-1.5 -9.5t-0.5 -9v-10.5v-9.5v-545v-9.5v-10.5t0.5 -9t1.5 -10t2.5 -8.5t4 -8.5t6.5 -7t9 -7q11 -8 11 -18v-19h-171v19q0 10 11 18q5 3 8.5 7t6 7t4 8.5t2.5 8.5t1.5 10t0.5 9v10
v10v545v9.5v10t-0.5 9.5t-1.5 9.5t-2.5 8.5t-4 9t-6 7t-8.5 7q-11 7 -11 18v19h171zM23 949q5 9 14 -3q3 -8 15 -17l95 -77l-121 13q-14 2 -22 -1q-7 -1 -11 1.5t-2 6.5q20 45 32 77z" />
    <glyph glyph-name="Iacute" unicode="&#xcd;" horiz-adv-x="243" 
d="M224 759v-19q0 -11 -8 -16l-1.5 -1.5t-1.5 -0.5q-5 -3 -9 -7t-6.5 -7t-4 -9t-2.5 -8.5t-1.5 -9.5t-0.5 -9v-10.5v-9.5v-545v-9.5v-10.5t0.5 -9t1.5 -10t2.5 -8.5t4 -8.5t6.5 -7t9 -7q11 -8 11 -18v-19h-171v19q0 10 11 18q5 3 8.5 7t6 7t4 8.5t2.5 8.5t1.5 10t0.5 9v10
v10v545v9.5v10t-0.5 9.5t-1.5 9.5t-2.5 8.5t-4 9t-6 7t-8.5 7q-11 7 -11 18v19h171zM271 871q2 -4 -2 -6.5t-11 -1.5q-8 3 -23 1l-120 -13l95 77q12 9 15 17q9 13 14 3q12 -32 32 -77z" />
    <glyph glyph-name="Icircumflex" unicode="&#xce;" horiz-adv-x="243" 
d="M224 759v-19q0 -11 -8 -16l-1.5 -1.5t-1.5 -0.5q-5 -3 -9 -7t-6.5 -7t-4 -9t-2.5 -8.5t-1.5 -9.5t-0.5 -9v-10.5v-9.5v-545v-9.5v-10.5t0.5 -9t1.5 -10t2.5 -8.5t4 -8.5t6.5 -7t9 -7q11 -8 11 -18v-19h-171v19q0 10 11 18q5 3 8.5 7t6 7t4 8.5t2.5 8.5t1.5 10t0.5 9v10
v10v545v9.5v10t-0.5 9.5t-1.5 9.5t-2.5 8.5t-4 9t-6 7t-8.5 7q-11 7 -11 18v19h171zM150 851v12q-3 9 -18 18q-14 -9 -17 -18v-12h-85l105 104l98 -104h-83z" />
    <glyph glyph-name="Idieresis" unicode="&#xcf;" horiz-adv-x="243" 
d="M224 759v-19q0 -11 -8 -16l-1.5 -1.5t-1.5 -0.5q-5 -3 -9 -7t-6.5 -7t-4 -9t-2.5 -8.5t-1.5 -9.5t-0.5 -9v-10.5v-9.5v-545v-9.5v-10.5t0.5 -9t1.5 -10t2.5 -8.5t4 -8.5t6.5 -7t9 -7q11 -8 11 -18v-19h-171v19q0 10 11 18q5 3 8.5 7t6 7t4 8.5t2.5 8.5t1.5 10t0.5 9v10
v10v545v9.5v10t-0.5 9.5t-1.5 9.5t-2.5 8.5t-4 9t-6 7t-8.5 7q-11 7 -11 18v19h171zM83 951q21 0 36 -14.5t15 -34.5q0 -21 -13.5 -36t-34.5 -15t-36.5 14.5t-15.5 34.5t14.5 35.5t34.5 15.5zM201 951q20 0 35.5 -14.5t15.5 -34.5q0 -21 -14 -36t-34 -15q-21 0 -36.5 14.5
t-15.5 34.5t14.5 35.5t34.5 15.5z" />
    <glyph glyph-name="Ntilde" unicode="&#xd1;" horiz-adv-x="743" 
d="M54 759h136l396 -353v246v9.5v10t-0.5 9.5t-1.5 9.5t-2.5 8.5t-4 9t-6 7t-8.5 7q-11 7 -11 18q-1 19 0 19h171v-19q0 -11 -11 -18q-5 -3 -9 -7t-6.5 -7t-4 -9t-2.5 -8.5t-1.5 -9.5t-0.5 -9v-10.5v-9.5v-545v-9.5v-10.5t0.5 -9t1.5 -10t2.5 -8.5t4 -8.5t6.5 -7t9 -7
q11 -8 11 -18v-19h-171v19q0 10 11 18q5 3 8.5 7t6 7t4 8.5t2.5 8.5t1.5 10t0.5 9v10v10v153l-412 367v-520v-10v-10t0.5 -9t1.5 -10t2.5 -8.5t4 -8.5t6 -7t8.5 -7q11 -8 11 -18v-19h-155v19q0 10 11 18q5 3 8.5 7t6 7t4 8.5t2.5 8.5t1.5 10t0.5 9v10v10v545v9.5v10
t-0.5 9.5t-1.5 9.5t-2.5 8.5t-4 9t-6 7t-8.5 7q-10 6 -10 18v19zM443 926l40 -40q-34 -27 -55.5 -34.5t-46.5 4.5q-32 23 -48 18q-4 -1 -10 -7t-10 -11l-4 -6l-41 41q5 5 15 14t13.5 12t11 9t11.5 7t10.5 2.5t13 0.5t13.5 -4q35 -15 46 -22q12 -5 18 -2t23 18z" />
    <glyph glyph-name="Ograve" unicode="&#xd2;" horiz-adv-x="833" 
d="M155 382q-1 -136 69.5 -226.5t195.5 -90.5q129 0 199 87.5t71 223.5q1 140 -65.5 229t-199.5 89q-126 0 -197.5 -88t-72.5 -224zM434 769q167 0 266 -115t96 -282q-3 -168 -102 -275t-275 -107q-87 0 -157.5 32t-115 86.5t-68 126t-21.5 152.5q3 165 107 273.5t270 108.5
zM323 948q5 9 14 -3q3 -8 15 -17l95 -77l-121 13q-14 2 -22 -1q-7 -1 -11 1.5t-2 6.5q20 45 32 77z" />
    <glyph glyph-name="Oacute" unicode="&#xd3;" horiz-adv-x="803" 
d="M141 382q-1 -136 69.5 -226.5t195.5 -90.5q129 0 199 87.5t71 223.5q1 90 -25.5 160t-87.5 114t-151 44q-126 0 -198 -88t-73 -224zM421 769q167 0 265.5 -115.5t95.5 -281.5q-3 -168 -102 -275t-275 -107q-172 0 -268.5 114.5t-93.5 282.5q3 165 107 273.5t271 108.5z
M560 871q2 -4 -2 -6.5t-11 -1.5q-8 3 -22 1l-121 -13l95 77q12 9 15 17q9 12 14 3q12 -32 32 -77z" />
    <glyph glyph-name="Ocircumflex" unicode="&#xd4;" horiz-adv-x="803" 
d="M142 382q-1 -136 69.5 -226.5t195.5 -90.5q129 0 199 87.5t71 223.5q1 90 -25.5 160t-87.5 114t-151 44q-126 0 -198 -88t-73 -224zM422 769q167 0 265.5 -115.5t95.5 -281.5q-3 -168 -102 -275t-275 -107q-172 0 -268.5 114.5t-93.5 282.5q3 165 107 273.5t271 108.5z
M414 850v12q-3 9 -18 18q-16 -9 -18 -18v-12h-84l105 104l98 -104h-83z" />
    <glyph glyph-name="Otilde" unicode="&#xd5;" horiz-adv-x="803" 
d="M145 382q-1 -136 69.5 -226.5t195.5 -90.5q129 0 199 87.5t71 223.5q1 90 -25.5 160t-87.5 114t-151 44q-126 0 -198 -88t-73 -224zM425 769q167 0 265.5 -115.5t95.5 -281.5q-3 -168 -102 -275t-275 -107q-172 0 -268.5 114.5t-93.5 282.5q3 165 107 273.5t271 108.5z
M483 927l41 -40q-35 -27 -56 -34.5t-46 4.5q-33 23 -48 18q-5 -1 -11 -7t-10 -12l-4 -5l-41 41q5 5 15 14t13.5 12t11 9t11.5 7t10.5 2.5t13 0.5t13.5 -4q35 -15 46 -22q12 -5 18 -2t23 18z" />
    <glyph glyph-name="Odieresis" unicode="&#xd6;" horiz-adv-x="803" 
d="M151 382q-1 -136 69.5 -226.5t195.5 -90.5q129 0 199 87.5t71 223.5q1 90 -25.5 160t-87.5 114t-151 44q-126 0 -198 -88t-73 -224zM430 769q167 0 266 -115t96 -282q-3 -168 -102 -275t-275 -107q-87 0 -157.5 32t-115 86.5t-68 126t-21.5 152.5q3 165 107 273.5
t270 108.5zM363 951q20 0 35.5 -14.5t15.5 -34.5q0 -21 -14 -36t-34 -15q-21 0 -36.5 14.5t-15.5 34.5q0 21 14 36t35 15zM480 951q21 0 36 -14.5t15 -34.5q0 -21 -13.5 -36t-34.5 -15t-36.5 14.5t-15.5 34.5t14.5 35.5t34.5 15.5z" />
    <glyph glyph-name="Oslash" unicode="&#xd8;" horiz-adv-x="961" 
d="M195 133q-70 107 -70 254q3 165 106.5 273.5t271.5 108.5q132 0 226 -78l94 96h108l-148 -153q82 -105 82 -262q-3 -168 -102.5 -275t-275.5 -107q-143 0 -239 85l-89 -93h-109zM263 204l408 425q-68 65 -177 65q-126 0 -198 -88.5t-72 -223.5q0 -102 39 -178zM718 566
l-409 -428q70 -73 179 -73q130 0 200.5 87.5t70.5 223.5q0 112 -41 190z" />
    <glyph glyph-name="Ugrave" unicode="&#xd9;" horiz-adv-x="729" 
d="M208 161q19 -29 50 -47.5t72 -25.5t65 -8.5t59 -1.5h132v574v10v9.5v8.5t-1 8.5t-2 7.5t-2.5 7.5t-4 6t-6 6.5t-7.5 6q-11 7 -11 18v19h171v-19q0 -11 -8 -16q-2 -1 -3 -2q-5 -3 -9 -7t-6.5 -7t-4 -9t-2.5 -8.5t-1.5 -9.5t-0.5 -9v-10.5v-9.5v-545v-9.5v-10.5t0.5 -9.5
t1.5 -10t2.5 -8t4 -8.5t6.5 -7t9 -7q11 -8 11 -18v-19h-340q-38 0 -62 1.5t-57.5 8t-58 19.5t-51.5 36.5t-50 58.5q-120 181 13 472q5 13 14.5 32t12.5 26q18 38 15 49q-4 10 -16 18q-10 6 -10 18v20h168v-19q0 -9 -2 -12.5t-9 -5.5q-4 -2 -7.5 -4t-7 -5.5t-6 -5.5
t-5.5 -6.5t-4.5 -6.5t-4.5 -7.5t-4 -7.5t-4.5 -8.5t-4.5 -8.5q-35 -71 -57 -158.5t-19 -184.5t42 -158zM302 948q5 10 15 -3q2 -7 14 -17l95 -77l-120 13q-15 2 -23 -1q-7 -1 -10.5 1.5t-1.5 6.5q14 31 31 77z" />
    <glyph glyph-name="Uacute" unicode="&#xda;" horiz-adv-x="729" 
d="M208 161q19 -29 50 -47.5t72 -25.5t65 -8.5t59 -1.5h132v574v10v9.5v8.5t-1 8.5t-2 7.5t-2.5 7.5t-4 6t-6 6.5t-7.5 6q-11 7 -11 18v19h171v-19q0 -11 -8 -16q-2 -1 -3 -2q-5 -3 -9 -7t-6.5 -7t-4 -9t-2.5 -8.5t-1.5 -9.5t-0.5 -9v-10.5v-9.5v-545v-9.5v-10.5t0.5 -9.5
t1.5 -10t2.5 -8t4 -8.5t6.5 -7t9 -7q11 -8 11 -18v-19h-340q-38 0 -62 1.5t-57.5 8t-58 19.5t-51.5 36.5t-50 58.5q-120 181 13 472q5 13 14.5 32t12.5 26q18 38 15 49q-4 10 -16 18q-10 6 -10 18v20h168v-19q0 -9 -2 -12.5t-9 -5.5q-4 -2 -7.5 -4t-7 -5.5t-6 -5.5
t-5.5 -6.5t-4.5 -6.5t-4.5 -7.5t-4 -7.5t-4.5 -8.5t-4.5 -8.5q-35 -71 -57 -158.5t-19 -184.5t42 -158zM576 871q2 -4 -1.5 -6.5t-10.5 -1.5q-8 3 -23 1l-120 -13l95 77q11 8 14 17q10 13 15 3q1 -2 15 -37z" />
    <glyph glyph-name="Ucircumflex" unicode="&#xdb;" horiz-adv-x="729" 
d="M208 161q19 -29 50 -47.5t72 -25.5t65 -8.5t59 -1.5h132v574v10v9.5v8.5t-1 8.5t-2 7.5t-2.5 7.5t-4 6t-6 6.5t-7.5 6q-11 7 -11 18v19h171v-19q0 -11 -8 -16q-2 -1 -3 -2q-5 -3 -9 -7t-6.5 -7t-4 -9t-2.5 -8.5t-1.5 -9.5t-0.5 -9v-10.5v-9.5v-545v-9.5v-10.5t0.5 -9.5
t1.5 -10t2.5 -8t4 -8.5t6.5 -7t9 -7q11 -8 11 -18v-19h-340q-38 0 -62 1.5t-57.5 8t-58 19.5t-51.5 36.5t-50 58.5q-120 181 13 472q5 13 14.5 32t12.5 26q18 38 15 49q-4 10 -16 18q-10 6 -10 18v20h168v-19q0 -9 -2 -12.5t-9 -5.5q-4 -2 -7.5 -4t-7 -5.5t-6 -5.5
t-5.5 -6.5t-4.5 -6.5t-4.5 -7.5t-4 -7.5t-4.5 -8.5t-4.5 -8.5q-35 -71 -57 -158.5t-19 -184.5t42 -158zM455 851v12q-3 9 -18 18q-14 -9 -17 -18v-12h-85l105 104l98 -104h-83z" />
    <glyph glyph-name="Udieresis" unicode="&#xdc;" horiz-adv-x="729" 
d="M208 161q19 -29 50 -47.5t72 -25.5t65 -8.5t59 -1.5h132v574v10v9.5v8.5t-1 8.5t-2 7.5t-2.5 7.5t-4 6t-6 6.5t-7.5 6q-11 7 -11 18v19h171v-19q0 -11 -8 -16q-2 -1 -3 -2q-5 -3 -9 -7t-6.5 -7t-4 -9t-2.5 -8.5t-1.5 -9.5t-0.5 -9v-10.5v-9.5v-545v-9.5v-10.5t0.5 -9.5
t1.5 -10t2.5 -8t4 -8.5t6.5 -7t9 -7q11 -8 11 -18v-19h-340q-38 0 -62 1.5t-57.5 8t-58 19.5t-51.5 36.5t-50 58.5q-120 181 13 472q5 13 14.5 32t12.5 26q18 38 15 49q-4 10 -16 18q-10 6 -10 18v20h168v-19q0 -9 -2 -12.5t-9 -5.5q-4 -2 -7.5 -4t-7 -5.5t-6 -5.5
t-5.5 -6.5t-4.5 -6.5t-4.5 -7.5t-4 -7.5t-4.5 -8.5t-4.5 -8.5q-35 -71 -57 -158.5t-19 -184.5t42 -158zM355 951q20 0 35.5 -14.5t15.5 -34.5q0 -21 -14 -36t-34 -15q-21 0 -36.5 14.5t-15.5 34.5q0 21 14 36t35 15zM473 951q20 0 35.5 -14.5t15.5 -34.5q0 -21 -14 -36
t-35 -15q-20 0 -35.5 14.5t-15.5 34.5q0 21 14 36t35 15z" />
    <glyph glyph-name="germandbls" unicode="&#xdf;" horiz-adv-x="617" 
d="M452 465q74 -36 109 -81.5t37 -113.5q5 -145 -143 -229q-73 -40 -192 -42l1 69q59 0 117 27.5t89 87.5q19 39 20 86t-20 82q-52 82 -204 75v67q89 2 128 16q41 16 63 46q14 20 18.5 47t-2.5 50q-24 63 -79 74q-76 17 -121 -22q-93 -79 -86 -252v-452h-127v25q0 16 13 18
q19 4 24.5 11.5t5.5 33.5v360q0 244 150 325q48 28 128 25t131 -38q84 -58 70 -158q-7 -51 -37 -80.5t-93 -56.5z" />
    <glyph glyph-name="agrave" unicode="&#xe0;" horiz-adv-x="522" 
d="M200 245q-60 -38 -58 -98q2 -47 44 -71q31 -14 66.5 -9t68.5 24q45 29 53 46t8 70v6v6v7v67q-127 -12 -182 -48zM132 381q-9 -10 -18 -10h-11l-5 93q63 35 161.5 45t161.5 -21q10 -7 18.5 -15t13.5 -14.5t9 -19t6 -17.5t3 -20.5t1 -18.5v-21v-19v-249v-5q0 -16 0.5 -23.5
t6 -18.5t16.5 -18q11 -5 11 -18v-11h-126v46q-118 -78 -212 -48q-72 22 -102 94q-31 70 5 136q7 13 16.5 25t18 21t22.5 17.5t22 14t26 11.5t25.5 9t28.5 8t27.5 6.5t30.5 6.5t29 6l64 13q0 57 -32 71q-26 9 -77.5 6.5t-78.5 -11.5q-37 -11 -61 -51zM158 683q5 10 15 -3
q2 -7 14 -16l95 -78l-120 13q-15 2 -23 -1q-7 -1 -10.5 1.5t-2.5 6.5q2 4 16 38.5t16 38.5z" />
    <glyph glyph-name="aacute" unicode="&#xe1;" horiz-adv-x="522" 
d="M196 245q-60 -38 -58 -98q2 -47 44 -71q31 -14 66.5 -9t68.5 24q45 29 53 46t8 70v6v6v7v67q-127 -12 -182 -48zM128 381q-7 -10 -18 -10h-11l-5 93q63 35 161.5 45t161.5 -21q11 -7 19 -15t13.5 -15t9 -18.5t5.5 -18t3 -20t1 -18.5v-20.5v-19.5v-249v-5q0 -16 0.5 -23.5
t6 -18.5t16.5 -18q11 -5 11 -18v-11h-126v46q-118 -78 -212 -48q-72 22 -102 94q-31 70 5 136q7 13 16.5 25t18 21t22.5 17.5t22 14t26 11.5t25.5 9t28.5 8t27.5 6.5t30.5 6.5t29 6l64 13q0 58 -32 71q-26 9 -77.5 6.5t-78.5 -11.5q-37 -11 -61 -51zM408 606q2 -4 -2 -6.5
t-11 -1.5q-8 3 -22 1l-121 -13l95 78q13 9 15 16q11 14 14 3q2 -4 16 -38.5t16 -38.5z" />
    <glyph glyph-name="acircumflex" unicode="&#xe2;" horiz-adv-x="522" 
d="M200 245q-60 -38 -58 -98q2 -47 44 -71q31 -14 66.5 -9t68.5 24q45 29 53 46t8 70v6v6v7v67q-127 -12 -182 -48zM132 381q-9 -10 -18 -10h-11l-5 93q63 35 161.5 45t161.5 -21q10 -7 18.5 -15t13.5 -14.5t9 -19t6 -17.5t3 -20.5t1 -18.5v-21v-19v-249v-5q0 -16 0.5 -23.5
t6 -18.5t16.5 -18q11 -5 11 -18v-11h-126v46q-118 -78 -212 -48q-72 22 -102 94q-31 70 5 136q7 13 16.5 25t18 21t22.5 17.5t22 14t26 11.5t25.5 9t28.5 8t27.5 6.5t30.5 6.5t29 6l64 13q0 57 -32 71q-26 9 -77.5 6.5t-78.5 -11.5q-37 -11 -61 -51zM290 586v12q-3 9 -17 19
q-15 -9 -18 -19v-12h-84l104 104l99 -104h-84z" />
    <glyph glyph-name="atilde" unicode="&#xe3;" horiz-adv-x="522" 
d="M200 245q-60 -38 -58 -98q2 -47 44 -71q31 -14 66.5 -9t68.5 24q45 29 53 46t8 70v6v6v7v67q-127 -12 -182 -48zM132 381q-9 -10 -18 -10h-11l-5 93q63 35 161.5 45t161.5 -21q10 -7 18.5 -15t13.5 -14.5t9 -19t6 -17.5t3 -20.5t1 -18.5v-21v-19v-249v-5q0 -16 0.5 -23.5
t6 -18.5t16.5 -18q11 -5 11 -18v-11h-126v46q-118 -78 -212 -48q-72 22 -102 94q-31 70 5 136q7 13 16.5 25t18 21t22.5 17.5t22 14t26 11.5t25.5 9t28.5 8t27.5 6.5t30.5 6.5t29 6l64 13q0 57 -32 71q-26 9 -77.5 6.5t-78.5 -11.5q-37 -11 -61 -51zM340 662l40 -40
q-33 -28 -55 -35t-47 4q-33 24 -48 18q-4 -1 -10 -7t-10 -12l-4 -5l-41 41q4 4 13 12.5t12.5 11.5t10 8.5t10 7t9.5 4t10.5 2.5t10 -1t12.5 -3q30 -13 46 -23q12 -5 18 -2t23 19z" />
    <glyph glyph-name="adieresis" unicode="&#xe4;" horiz-adv-x="522" 
d="M200 245q-60 -38 -58 -98q2 -47 44 -71q31 -14 66.5 -9t68.5 24q45 29 53 46t8 70v6v6v7v67q-127 -12 -182 -48zM132 381q-9 -10 -18 -10h-11l-5 93q63 35 161.5 45t161.5 -21q10 -7 18.5 -15t13.5 -14.5t9 -19t6 -17.5t3 -20.5t1 -18.5v-21v-19v-249v-5q0 -16 0.5 -23.5
t6 -18.5t16.5 -18q11 -5 11 -18v-11h-126v46q-118 -78 -212 -48q-72 22 -102 94q-31 70 5 136q7 13 16.5 25t18 21t22.5 17.5t22 14t26 11.5t25.5 9t28.5 8t27.5 6.5t30.5 6.5t29 6l64 13q0 57 -32 71q-26 9 -77.5 6.5t-78.5 -11.5q-37 -11 -61 -51zM231 686q21 0 36 -14
t15 -35t-13.5 -36t-34.5 -15t-36.5 14.5t-15.5 34.5q0 21 14.5 36t34.5 15zM349 686q21 0 36 -14t15 -35t-14 -36t-34 -15q-21 0 -36.5 14.5t-15.5 34.5q0 21 14.5 36t34.5 15z" />
    <glyph glyph-name="aring" unicode="&#xe5;" horiz-adv-x="522" 
d="M200 245q-60 -38 -58 -98q2 -47 44 -71q31 -14 66.5 -9t68.5 24q45 29 53 46t8 70v6v6v7v67q-127 -12 -182 -48zM132 381q-9 -10 -18 -10h-11l-5 93q63 35 161.5 45t161.5 -21q10 -7 18.5 -15t13.5 -14.5t9 -19t6 -17.5t3 -20.5t1 -18.5v-21v-19v-249v-5q0 -16 0.5 -23.5
t6 -18.5t16.5 -18q11 -5 11 -18v-11h-126v46q-118 -78 -212 -48q-72 22 -102 94q-31 70 5 136q7 13 16.5 25t18 21t22.5 17.5t22 14t26 11.5t25.5 9t28.5 8t27.5 6.5t30.5 6.5t29 6l64 13q0 57 -32 71q-26 9 -77.5 6.5t-78.5 -11.5q-37 -11 -61 -51zM271 687
q21 0 36.5 -14.5t15.5 -35.5q0 -20 -15 -35.5t-35 -15.5q-21 0 -36.5 14.5t-15.5 34.5q0 21 14.5 36.5t35.5 15.5zM254 636q0 -7 5.5 -12t12.5 -5t12 5t5 12t-5.5 12.5t-11.5 5.5q-7 0 -12.5 -5.5t-5.5 -12.5z" />
    <glyph glyph-name="ae" unicode="&#xe6;" horiz-adv-x="875" 
d="M707 430q-22 19 -64 21t-63 -8q-73 -24 -97 -116h268q0 65 -44 103zM198 245q-60 -36 -58 -98q2 -47 44 -71q31 -14 66.5 -9t68.5 24q45 29 53 46t8 70v6v6v7v67q-35 0 -93 -14t-89 -34zM649 512q58 0 107.5 -29t74.5 -85q25 -53 25 -142h-378q4 -115 90 -172
q38 -25 87.5 -30.5t86.5 9.5q33 14 63 49q8 13 16 13h16v-87q-6 -6 -12 -11q-40 -30 -125 -36t-127 10q-50 15 -80.5 36.5t-61.5 63.5q-76 -71 -145 -95t-120 -8q-72 22 -102 94q-31 70 5 136q8 15 17.5 27.5t23 22.5t23 18t28 15t27.5 11t31.5 9.5t30 7.5t34 7.5t31.5 6.5
l64 13q0 57 -32 71q-27 9 -77.5 6t-78.5 -11q-38 -12 -61 -51q-7 -10 -18 -10h-11l-5 93q63 35 160 45.5t163 -21.5q28 -18 43 -39q74 63 187 63z" />
    <glyph glyph-name="ccedilla" unicode="&#xe7;" horiz-adv-x="511" 
d="M328 -5q-148 18 -220 120q-37 47 -46.5 119t13.5 126q54 130 201 150q136 17 232 -71l-63 -77l-14 10q-8 7 -8 26q0 22 -36 38q-37 18 -86 7q-74 -14 -116.5 -85t-19.5 -156q14 -50 58 -87.5t95 -52t92 -7.5q24 2 34 17t20 15h16v-89q-35 -6 -120 -6v-7q6 0 30 -11
q34 -24 41 -67t-17 -77q-20 -30 -50 -37.5t-51 -1.5t-37.5 22t-20.5 37h38q0 -3 1 -5t5 -5t6 -5q20 -15 46 -3t31 37q11 45 -16 68q-12 9 -41 9z" />
    <glyph glyph-name="egrave" unicode="&#xe8;" horiz-adv-x="544" 
d="M524 256h-378q4 -115 89 -172q38 -25 88 -30.5t87 9.5q34 15 63 49q7 13 15 13h17v-87q-6 -6 -12 -11q-41 -30 -125.5 -36t-127.5 10q-73 22 -114.5 63.5t-63.5 110.5q-20 49 -8.5 123t54.5 127q72 87 209 87q58 0 108 -29.5t74 -84.5q25 -53 25 -142zM375 430
q-22 19 -64.5 21t-62.5 -8q-68 -22 -97 -116h268q0 65 -44 103zM198 685q5 10 15 -3q2 -6 14 -16l96 -78l-121 13q-15 2 -23 -1q-7 -1 -10.5 1.5t-1.5 6.5q1 3 8.5 21.5t14.5 35t8 20.5z" />
    <glyph glyph-name="eacute" unicode="&#xe9;" horiz-adv-x="544" 
d="M524 256h-378q4 -115 89 -172q38 -25 88 -30.5t87 9.5q34 15 63 49q7 13 15 13h17v-87q-6 -6 -12 -11q-41 -30 -125.5 -36t-127.5 10q-73 22 -114.5 63.5t-63.5 110.5q-20 49 -8.5 123t54.5 127q72 87 209 87q58 0 108 -29.5t74 -84.5q25 -53 25 -142zM375 430
q-22 19 -64.5 21t-62.5 -8q-68 -22 -97 -116h268q0 65 -44 103zM409 606q2 -4 -2 -6.5t-11 -1.5q-8 3 -22 1l-121 -13l95 78q13 9 15 16q9 12 14 3q2 -4 16 -38.5t16 -38.5z" />
    <glyph glyph-name="ecircumflex" unicode="&#xea;" horiz-adv-x="544" 
d="M524 256h-378q4 -115 89 -172q38 -25 88 -30.5t87 9.5q34 15 63 49q7 13 15 13h17v-87q-6 -6 -12 -11q-41 -30 -125.5 -36t-127.5 10q-73 22 -114.5 63.5t-63.5 110.5q-20 49 -8.5 123t54.5 127q72 87 209 87q58 0 108 -29.5t74 -84.5q25 -53 25 -142zM375 430
q-22 19 -64.5 21t-62.5 -8q-68 -22 -97 -116h268q0 65 -44 103zM305 586v12q-4 11 -18 19q-14 -8 -17 -19v-12h-85l105 104l98 -104h-83z" />
    <glyph glyph-name="edieresis" unicode="&#xeb;" horiz-adv-x="544" 
d="M524 256h-378q4 -115 89 -172q38 -25 88 -30.5t87 9.5q34 15 63 49q7 13 15 13h17v-87q-6 -6 -12 -11q-41 -30 -125.5 -36t-127.5 10q-73 22 -114.5 63.5t-63.5 110.5q-20 49 -8.5 123t54.5 127q72 87 209 87q58 0 108 -29.5t74 -84.5q25 -53 25 -142zM375 430
q-22 19 -64.5 21t-62.5 -8q-68 -22 -97 -116h268q0 65 -44 103zM234 686q21 0 36 -14t15 -35t-13.5 -36t-34.5 -15t-36.5 14.5t-15.5 34.5q0 21 14.5 36t34.5 15zM352 686q21 0 36 -14t15 -35t-14 -36t-34 -15q-21 0 -36.5 14.5t-15.5 34.5q0 21 14.5 36t34.5 15z" />
    <glyph glyph-name="igrave" unicode="&#xec;" horiz-adv-x="233" 
d="M179 94v-9v-10t0.5 -8.5t1.5 -8.5t2.5 -7.5t4 -8l6.5 -6.5t9 -7q11 -7 11 -18v-11h-161v11q0 11 11 18q5 3 8.5 7t6 6.5t4 7.5t2.5 7.5t1.5 9t0.5 8.5v9.5v9.5v314v8v8.5v8t-1 8t-2 7t-2.5 7t-4 6t-6 6.5t-7.5 6q-11 7 -11 18v11h126v-408zM14 683q5 10 14 -3
q2 -7 15 -16l95 -78l-120 13q-15 2 -23 -1q-7 -1 -11 1.5t-2 6.5t16 38.5t16 38.5z" />
    <glyph glyph-name="iacute" unicode="&#xed;" horiz-adv-x="233" 
d="M179 94v-9v-10t0.5 -8.5t1.5 -8.5t2.5 -7.5t4 -8l6.5 -6.5t9 -7q11 -7 11 -18v-11h-161v11q0 11 11 18q5 3 8.5 7t6 6.5t4 7.5t2.5 7.5t1.5 9t0.5 8.5v9.5v9.5v314v8v8.5v8t-1 8t-2 7t-2.5 7t-4 6t-6 6.5t-7.5 6q-11 7 -11 18v11h126v-408zM244 606q2 -4 -2 -6.5
t-11 -1.5q-7 3 -22 1l-121 -13l95 78q13 9 15 16q10 13 15 3q1 -4 8 -20.5t14.5 -35t8.5 -21.5z" />
    <glyph glyph-name="icircumflex" unicode="&#xee;" horiz-adv-x="233" 
d="M179 94v-9v-10t0.5 -8.5t1.5 -8.5t2.5 -7.5t4 -8l6.5 -6.5t9 -7q11 -7 11 -18v-11h-161v11q0 11 11 18q5 3 8.5 7t6 6.5t4 7.5t2.5 7.5t1.5 9t0.5 8.5v9.5v9.5v314v8v8.5v8t-1 8t-2 7t-2.5 7t-4 6t-6 6.5t-7.5 6q-11 7 -11 18v11h126v-408zM133 586v12q-4 11 -17 19
q-15 -9 -18 -19v-12h-84l105 104l98 -104h-84z" />
    <glyph glyph-name="idieresis" unicode="&#xef;" horiz-adv-x="233" 
d="M179 94v-9v-10t0.5 -8.5t1.5 -8.5t2.5 -7.5t4 -8l6.5 -6.5t9 -7q11 -7 11 -18v-11h-161v11q0 11 11 18q5 3 8.5 7t6 6.5t4 7.5t2.5 7.5t1.5 9t0.5 8.5v9.5v9.5v314v8v8.5v8t-1 8t-2 7t-2.5 7t-4 6t-6 6.5t-7.5 6q-11 7 -11 18v11h126v-408zM46 686q21 0 36 -14t15 -35
t-14 -36t-34 -15q-21 0 -36.5 14.5t-15.5 34.5q0 21 14.5 36t34.5 15zM164 686q21 0 36 -14t15 -35t-14 -36t-34 -15q-21 0 -36.5 14.5t-15.5 34.5q0 21 14 36t35 15z" />
    <glyph glyph-name="ntilde" unicode="&#xf1;" horiz-adv-x="568" 
d="M514 94v-8v-8.5v-8t1 -8t2 -7t2.5 -7t4 -6t6 -6.5t7.5 -6q11 -7 11 -18v-11h-162v11q0 11 11 18q5 3 9 7l6.5 6.5t4 8t2.5 7.5t1.5 8.5t0.5 8.5v10v9v197q0 125 -36 140q-35 19 -97.5 11.5t-102.5 -42.5v-306v-9v-10t0.5 -8.5t1.5 -8.5t2.5 -7.5t4 -8l6.5 -6.5t9 -7
q11 -7 11 -18v-11h-161v11q0 11 11 18q5 3 8.5 7t6 6.5t4 7.5t2.5 7.5t1.5 9t0.5 8.5v9.5v9.5v314v8v8.5v8t-1 8t-2 7t-2.5 7t-4 6t-6 6.5t-7.5 6q-11 7 -11 18v11h123v-32q60 32 135.5 40.5t137.5 -21.5q12 -7 21.5 -17t15.5 -18t10.5 -22t7 -21t3.5 -23.5t1 -21v-22.5v-19
v-231zM393 663l40 -40q-33 -28 -55 -35t-47 4q-33 24 -48 18q-4 -1 -10 -7t-10 -11l-4 -6l-41 41q4 4 13 12.5t12.5 11.5t10 8.5t10 7t9.5 4t10.5 2.5t10 -1t12.5 -3q30 -13 46 -23q12 -5 18 -2t23 19z" />
    <glyph glyph-name="ograve" unicode="&#xf2;" horiz-adv-x="588" 
d="M311 512q119 0 190.5 -73.5t71.5 -184.5q0 -112 -70 -188t-190 -76q-111 0 -186.5 76.5t-75.5 185.5q0 111 71.5 185.5t188.5 74.5zM147 252q0 -78 44 -130.5t122 -52.5q73 0 118.5 53.5t45.5 131.5q0 79 -45 130t-121 51q-77 0 -120.5 -52.5t-43.5 -130.5zM190 683
q5 10 15 -3q2 -7 15 -16l95 -78l-121 13q-15 2 -22 -1q-7 -1 -11 1.5t-2 6.5q1 3 8.5 21.5t14.5 35t8 20.5z" />
    <glyph glyph-name="oacute" unicode="&#xf3;" horiz-adv-x="588" 
d="M311 512q119 0 190.5 -73.5t71.5 -184.5q0 -112 -70 -188t-190 -76q-111 0 -186.5 76.5t-75.5 185.5q0 111 71.5 185.5t188.5 74.5zM147 252q0 -78 44 -130.5t122 -52.5q73 0 118.5 53.5t45.5 131.5q0 79 -45 130t-121 51q-77 0 -120.5 -52.5t-43.5 -130.5zM462 606
q2 -4 -2 -6.5t-11 -1.5q-8 3 -23 1l-120 -13l95 78q13 9 15 16q9 12 14 3q2 -4 16 -38.5t16 -38.5z" />
    <glyph glyph-name="ocircumflex" unicode="&#xf4;" horiz-adv-x="588" 
d="M311 512q119 0 190.5 -73.5t71.5 -184.5q0 -112 -70 -188t-190 -76q-111 0 -186.5 76.5t-75.5 185.5q0 111 71.5 185.5t188.5 74.5zM147 252q0 -78 44 -130.5t122 -52.5q73 0 118.5 53.5t45.5 131.5q0 79 -45 130t-121 51q-77 0 -120.5 -52.5t-43.5 -130.5zM317 586v12
q-4 11 -18 19q-15 -9 -18 -19v-12h-84l105 104l98 -104h-83z" />
    <glyph glyph-name="otilde" unicode="&#xf5;" horiz-adv-x="588" 
d="M310 512q119 0 190.5 -73.5t71.5 -184.5q0 -112 -70 -188t-190 -76q-111 0 -186.5 76.5t-75.5 185.5q0 111 71.5 185.5t188.5 74.5zM146 252q0 -78 44 -130.5t122 -52.5q73 0 118.5 53.5t45.5 131.5q0 79 -45 130t-121 51q-77 0 -120.5 -52.5t-43.5 -130.5zM360 661
l40 -40q-63 -53 -102 -31q-2 1 -7 4.5t-6.5 4.5t-5.5 3.5t-6 3.5t-5.5 2.5t-6 1.5t-5.5 -0.5t-6 -1.5q-5 -1 -11 -7t-10 -11l-4 -6l-41 41q5 5 13.5 12.5t12.5 11t10.5 9t10 7t9 4t10 2.5t10.5 -1t13 -3l46 -23q11 -5 17 -2t24 19z" />
    <glyph glyph-name="odieresis" unicode="&#xf6;" horiz-adv-x="588" 
d="M307 512q119 0 190.5 -73.5t71.5 -184.5q0 -113 -70 -188.5t-190 -75.5q-111 0 -186.5 76.5t-75.5 185.5q0 111 71.5 185.5t188.5 74.5zM143 252q0 -78 44 -130.5t122 -52.5q73 0 119 53.5t46 131.5t-45.5 129.5t-121.5 51.5q-77 0 -120.5 -52.5t-43.5 -130.5zM230 686
q21 0 36 -14t15 -35t-13.5 -36t-34.5 -15t-36.5 14.5t-15.5 34.5q0 21 14.5 36t34.5 15zM348 686q21 0 36 -14t15 -35t-14 -36t-34 -15q-21 0 -36.5 14.5t-15.5 34.5q0 21 14.5 36t34.5 15z" />
    <glyph glyph-name="oslash" unicode="&#xf8;" horiz-adv-x="662" 
d="M535 398q40 -59 40 -144q0 -112 -69.5 -188t-189.5 -76q-65 0 -122 30l-25 -30h-97l63 71q-81 76 -81 191q0 110 71.5 185t188.5 75q104 0 174 -59l76 84h97zM470 325l-220 -244q34 -12 66 -12q73 0 118.5 53.5t45.5 131.5q0 34 -10 71zM191 124l239 264q-44 47 -116 47
q-77 0 -120.5 -52.5t-43.5 -130.5q0 -76 41 -128z" />
    <glyph glyph-name="ugrave" unicode="&#xf9;" horiz-adv-x="582" 
d="M526 71q0 -21 5.5 -29.5t28.5 -16.5v-25h-127v38q-37 -20 -84.5 -33.5t-100.5 -13t-88 21.5q-69 41 -69 177v218v8v8.5v8t-1 8t-2 7t-2.5 7t-4 6t-6 6.5t-7.5 6q-11 7 -11 18v11h126v-287v-16v-19.5t1 -19t3 -21t5.5 -18.5t8.5 -19t12.5 -15t17.5 -13q30 -18 83.5 -14.5
t89.5 26.5q23 15 27 22t3 28v272v8v8.5v8t-1 8t-2 7t-2.5 7t-4 6t-6 6.5t-7.5 6q-11 7 -11 18v11h126v-431zM168 683q5 9 14 -3q2 -7 15 -16l95 -78l-120 13q-15 2 -23 -1q-7 -1 -11 1.5t-2 6.5t16 38.5t16 38.5z" />
    <glyph glyph-name="uacute" unicode="&#xfa;" horiz-adv-x="582" 
d="M532 71q0 -21 5.5 -29.5t28.5 -16.5v-25h-127v38q-37 -20 -84.5 -33.5t-100.5 -13t-88 21.5q-69 41 -69 177v218v8v8.5v8t-1 8t-2 7t-2.5 7t-4 6t-6 6.5t-7.5 6q-11 7 -11 18v11h126v-287v-16v-19.5t1 -19t3 -21t5.5 -18.5t8.5 -19t12.5 -15t17.5 -13q29 -18 83 -14.5
t90 26.5q23 15 27 22t3 28v272v8v8.5v8t-1 8t-2 7t-2.5 7t-4 6t-6 6.5t-7.5 6q-11 7 -11 18v11h126v-431zM413 606q2 -4 -2 -6.5t-11 -1.5q-8 3 -23 1l-120 -13l95 78q13 9 15 16q9 12 14 3q2 -4 16 -38.5t16 -38.5z" />
    <glyph glyph-name="ucircumflex" unicode="&#xfb;" horiz-adv-x="582" 
d="M525 71q0 -21 5.5 -29.5t28.5 -16.5v-25h-127v38q-37 -20 -84.5 -33.5t-100.5 -13t-88 21.5q-69 41 -69 177v218v8v8.5v8t-1 8t-2 7t-2.5 7t-4 6t-6 6.5t-7.5 6q-11 7 -11 18v11h126v-287v-16v-19.5t1 -19t3 -21t5.5 -18.5t8.5 -19t12.5 -15t17.5 -13q30 -18 83.5 -14.5
t89.5 26.5q23 15 27 22t3 28v272v8v8.5v8t-1 8t-2 7t-2.5 7t-4 6t-6 6.5t-7.5 6q-11 7 -11 18v11h126v-431zM314 586v12q-4 11 -18 19q-15 -9 -18 -19v-12h-84l105 104l98 -104h-83z" />
    <glyph glyph-name="udieresis" unicode="&#xfc;" horiz-adv-x="582" 
d="M526 71q0 -21 5.5 -29.5t28.5 -16.5v-25h-127v38q-37 -20 -84.5 -33.5t-100.5 -13t-88 21.5q-69 41 -69 177v218v8v8.5v8t-1 8t-2 7t-2.5 7t-4 6t-6 6.5t-7.5 6q-11 7 -11 18v11h126v-287v-16v-19.5t1 -19t3 -21t5.5 -18.5t8.5 -19t12.5 -15t17.5 -13q30 -18 83.5 -14.5
t89.5 26.5q23 15 27 22t3 28v272v8v8.5v8t-1 8t-2 7t-2.5 7t-4 6t-6 6.5t-7.5 6q-11 7 -11 18v11h126v-431zM232 686q21 0 36 -14t15 -35t-13.5 -36t-34.5 -15t-36.5 14.5t-15.5 34.5q0 21 14.5 36t34.5 15zM350 686q21 0 36 -14t15 -35t-14 -36t-34 -15q-21 0 -36.5 14.5
t-15.5 34.5q0 21 14.5 36t34.5 15z" />
    <glyph glyph-name="ydieresis" unicode="&#xff;" horiz-adv-x="554" 
d="M427 414q11 29 9.5 37.5t-21.5 21.5q-11 7 -11 18v11v0v0h1v0h1v0h1h1h1h1h1h1h1h1h1h1h1h1h1h1h1h1h1h1h1h1h1h1h1h1h1h1h2h1h1h1h1h1h1h1h2h1h1h1h1h2h1h1h1h2h1h1h2h1h1h2h1h1h2h1h2h1h2h1h1h2h1h2h1h2h1h2h1h2h1h2h2h1h2h1h2h2h1h2h1h2h2h1h2h2h1h2h2h2h1h2h2h1h2h2
h2h2h1h2h2h2h2h1h2h2h2h9v-11q0 -11 -11 -18q-16 -10 -20.5 -14t-10.5 -14t-15 -31l-192 -476q-45 -111 -102 -144.5t-153 -7.5v91h15q3 0 5.5 -0.5t4 -0.5t3 -2t2 -2.5t3 -4t3.5 -4.5q18 -23 35 -28q33 -7 73 40q22 26 50 97l-165 442q-10 31 -15.5 38.5t-26.5 20.5
q-11 7 -11 18v11h174v-11q0 -11 -11 -18q-20 -13 -21.5 -20t8.5 -36l120 -311zM249 686q21 0 36 -14t15 -35t-14 -36t-34 -15q-21 0 -36.5 14.5t-15.5 34.5q0 21 14.5 36t34.5 15zM367 686q21 0 36 -14t15 -35t-14 -36t-34 -15q-21 0 -36.5 14.5t-15.5 34.5q0 21 14 36
t35 15z" />
    <glyph glyph-name="dotlessi" unicode="&#x131;" horiz-adv-x="233" 
d="M179 94v-9v-10t0.5 -8.5t1.5 -8.5t2.5 -7.5t4 -8l6.5 -6.5t9 -7q11 -7 11 -18v-11h-161v11q0 11 11 18q5 3 8.5 7t6 6.5t4 7.5t2.5 7.5t1.5 9t0.5 8.5v9.5v9.5v314v8v8.5v8t-1 8t-2 7t-2.5 7t-4 6t-6 6.5t-7.5 6q-11 7 -11 18v11h126v-408z" />
    <glyph glyph-name="OE" unicode="&#x152;" horiz-adv-x="1220" 
d="M618 149v465q-74 80 -193 80q-126 -1 -197.5 -89t-72.5 -223q-1 -136 69.5 -226.5t195.5 -90.5q116 0 198 84zM419 -10q-87 0 -157.5 32t-115 86.5t-68 126t-21.5 152.5q3 166 105.5 274t271.5 108q56 0 91 -10h654v-111h-18q-11 0 -19 11q-3 5 -7 8.5t-7 6t-8.5 4
t-8.5 2.5t-9.5 1.5t-9 0.5h-10h-9.5h-353v-216h232h9.5h10t9.5 0.5t9.5 1.5t8.5 2.5t9 4t7 6t7 8.5q7 11 18 11h19v-145h-19q-11 0 -18 11q-4 7 -10 11.5t-9.5 6.5t-12.5 3.5t-11.5 1.5h-14h-12.5h-232v-313h373h5q17 0 25.5 0.5t20.5 6.5t19 17q8 11 18 11h19v-111h-688
q-53 -10 -93 -10z" />
    <glyph glyph-name="oe" unicode="&#x153;" horiz-adv-x="974" 
d="M150 252q0 -78 44 -130.5t122 -52.5q73 0 118.5 53.5t45.5 131.5q0 79 -45 130t-121 51q-77 0 -120.5 -52.5t-43.5 -130.5zM805 430q-22 19 -66 21t-61 -8q-70 -30 -97 -116h268q0 65 -44 103zM316 -10q-111 0 -186.5 76.5t-75.5 185.5q0 111 71.5 185.5t188.5 74.5
q69 0 124 -26.5t87 -71.5q19 33 47 54.5t62 30t57.5 11t55.5 2.5q58 0 107.5 -29t74.5 -85q25 -53 25 -142h-378q4 -115 90 -172q38 -25 87.5 -30.5t86.5 9.5q33 14 63 49q8 13 16 13h16v-87l-11 -11q-41 -30 -127.5 -35.5t-125.5 9.5q-97 30 -142 93q-68 -104 -213 -104z
" />
    <glyph glyph-name="Ydieresis" unicode="&#x178;" horiz-adv-x="657" 
d="M607 669l-203 -407v-155v-10v-10t0.5 -9t1.5 -10t2.5 -8.5t4 -8.5t6 -7t8.5 -7q11 -8 11 -18v-19h-170v19q0 9 10 18q5 3 9 7t6.5 7t4 8.5t2.5 8.5t1.5 10t0.5 9v10.5v9.5v146l-206 400q-2 5 -6.5 14t-6 12.5t-4.5 9.5t-5 8.5t-4.5 6.5t-5.5 6.5t-6.5 5.5t-7.5 6l-5 2.5
t-4.5 2.5t-3.5 3t-3 4.5t-1 5.5v19h187v-19q0 -11 -8 -16l-1.5 -1.5t-1.5 -0.5q-18 -13 -18 -21t16 -38l6 -12l151 -292l146 291q6 11 9 20l5 15t1 11.5t-1.5 8.5t-5 6.5t-5.5 4l-7 3.5t-7 3q-7 3 -9 6t-2 12v19h177v-19q0 -3 -0.5 -5.5t-3 -4.5t-3.5 -2.5l-5 -2.5t-5 -3
q-3 -2 -6.5 -4.5t-5 -3t-4.5 -3t-4.5 -5t-4.5 -8t-6.5 -12t-9.5 -17.5zM472 874q2 -4 -2 -6.5t-11 -1.5q-8 3 -23 1l-120 -13l95 77q12 9 14 17q10 13 15 3q12 -32 32 -77z" />
    <glyph glyph-name="circumflex" unicode="&#x2c6;" horiz-adv-x="276" 
d="M173 665v11q-4 11 -18 19q-15 -9 -18 -19v-11h-84l105 104l98 -104h-83z" />
    <glyph glyph-name="ring" unicode="&#x2da;" horiz-adv-x="175" 
d="M103 769q20 0 36 -15t16 -35q0 -21 -15 -36t-35 -15q-21 0 -36.5 14t-15.5 35t14.5 36.5t35.5 15.5zM86 718q0 -7 5.5 -12.5t12.5 -5.5t12.5 5.5t5.5 12.5t-5.5 12t-12.5 5t-12.5 -5.5t-5.5 -11.5z" />
    <glyph glyph-name="tilde" unicode="&#x2dc;" horiz-adv-x="288" 
d="M228 758l41 -40q-34 -28 -56 -35t-46 4q-1 1 -4 3q-30 20 -44 15q-5 -1 -11 -7t-10 -12l-4 -5l-41 42q5 4 13.5 12t12 11t10 8.5t10 7t9.5 4t10.5 2.5t10 -1t12.5 -3q30 -13 46 -23q12 -5 18 -2t23 19z" />
    <glyph glyph-name="endash" unicode="&#x2013;" horiz-adv-x="747" 
d="M73 208h635v84h-635v-84z" />
    <glyph glyph-name="emdash" unicode="&#x2014;" horiz-adv-x="932" 
d="M53 208h831v84h-831v-84z" />
    <glyph glyph-name="quoteleft" unicode="&#x2018;" horiz-adv-x="194" 
d="M181 588q0 -26 -15 -42t-37 -16q-52 0 -69 47q-16 48 6.5 93.5t81.5 98.5l32 -26q-2 -2 -9 -10.5t-9.5 -11t-8.5 -10t-8 -11.5t-5 -11t-3.5 -12.5t0 -12t2.5 -12.5q3 -7 7 -12t11.5 -11t10.5 -9q13 -17 13 -32z" />
    <glyph glyph-name="quoteright" unicode="&#x2019;" horiz-adv-x="194" 
d="M53 711q1 27 15.5 42.5t36.5 15.5q53 0 70 -47q16 -48 -7 -93.5t-82 -98.5l-32 26q2 2 9 10.5t9.5 11t8.5 10t8 11.5t5 11t3.5 12.5t0 12t-2.5 12.5q-3 7 -7.5 12.5t-11 10.5t-9.5 9q-14 16 -14 32z" />
    <glyph glyph-name="quotedblleft" unicode="&#x201c;" horiz-adv-x="356" 
d="M181 588q0 -26 -15 -42t-37 -16q-52 0 -69 47q-16 48 6.5 93.5t81.5 98.5l32 -26q-2 -2 -9 -10.5t-9.5 -11t-8.5 -10t-8 -11.5t-5 -11t-3.5 -12.5t0 -12t2.5 -12.5q3 -7 7 -12t11.5 -11t10.5 -9q13 -17 13 -32zM338 588q0 -26 -15 -42t-37 -16q-54 0 -69 47
q-16 48 6.5 93.5t81.5 98.5l32 -26q-2 -2 -9 -10.5t-9.5 -11t-8.5 -10t-8 -11.5t-5 -11t-3.5 -12.5t0 -12t2.5 -12.5q3 -7 7 -12t11.5 -11t10.5 -9q13 -17 13 -32z" />
    <glyph glyph-name="quotedblright" unicode="&#x201d;" horiz-adv-x="356" 
d="M210 711q0 26 15 42t37 16q54 0 69 -47q16 -48 -6.5 -93.5t-81.5 -98.5l-32 26q2 2 9 10.5t9.5 11t8.5 10t8 11.5t5 11t3.5 12.5t0 12t-2.5 12.5q-3 7 -7.5 12.5t-11 10.5t-9.5 9q-14 16 -14 32zM53 711q1 27 15.5 42.5t36.5 15.5q53 0 70 -47q16 -48 -7 -93.5t-82 -98.5
l-32 26q2 2 9 10.5t9.5 11t8.5 10t8 11.5t5 11t3.5 12.5t0 12t-2.5 12.5q-3 7 -7.5 12.5t-11 10.5t-9.5 9q-14 16 -14 32z" />
    <glyph glyph-name="bullet" unicode="&#x2022;" horiz-adv-x="194" 
d="M116 495q28 1 48 -18.5t21 -47.5t-18 -47.5t-47 -20.5q-29 -1 -49 17.5t-21 46.5q-1 29 18.5 49t47.5 21z" />
    <glyph glyph-name="fraction" unicode="&#x2044;" horiz-adv-x="667" 
d="M611 669l-203 -407v-155v-10v-10t0.5 -9t1.5 -10t2.5 -8.5t4 -8.5t6 -7t8.5 -7q11 -8 11 -18v-19h-170v19q0 9 10 18q5 3 9 7t6.5 7t4 8.5t2.5 8.5t1.5 10t0.5 9v10.5v9.5v146l-206 400q-23 49 -35 60q-4 4 -11 9l-5 2.5t-4.5 2.5t-3.5 3t-3 4.5t-1 5.5v19h187v-19
q0 -11 -8 -16l-1.5 -1.5t-1.5 -0.5q-18 -13 -18 -21t16 -38l6 -12l151 -292l146 291q6 11 9 20l5 15t1 11.5t-1.5 8.5t-5 6.5t-5.5 4l-7 3.5t-7 3q-7 3 -9 6t-2 12v19h177v-19q0 -3 -0.5 -5.5t-3 -4.5t-3.5 -2.5l-5 -2.5t-5 -3q-3 -2 -6.5 -4.5t-5 -3t-4.5 -3t-4.5 -5
t-4.5 -8t-6.5 -12t-9.5 -17.5zM310 951q20 0 35.5 -14.5t15.5 -34.5q0 -21 -14 -36t-34 -15q-21 0 -36.5 14.5t-15.5 34.5q0 21 14 36t35 15zM427 951q21 0 36 -14.5t15 -34.5q0 -21 -13.5 -36t-34.5 -15t-36.5 14.5t-15.5 34.5t14.5 35.5t34.5 15.5z" />
    <glyph glyph-name="infinity" unicode="&#x221e;" horiz-adv-x="554" 
d="M424 414q10 29 8.5 37.5t-21.5 21.5q-11 7 -11 18v11v0v0h1v0h1v0h1h1h1h1h1h1h1h1h1h1h1h1h1h1h1h1h1h1h1h1h1h1h1h1h1h1h2h1h1h1h1h1h1h1h2h1h1h1h1h2h1h1h1h2h1h1h2h1h1h2h1h1h2h1h2h1h2h1h1h2h1h2h1h2h1h2h1h2h1h2h2h1h2h1h2h2h1h2h1h2h2h1h2h2h1h2h2h2h1h2h2h1h2h2
h2h2h1h2h2h2h2h1h2h2h2h9v-11q0 -11 -11 -18q-16 -10 -20.5 -14t-10.5 -14t-15 -31l-192 -476q-45 -111 -102 -144.5t-153 -7.5v91h15q3 0 5.5 -0.5t4 -0.5t3 -2t2 -2.5t3 -4t3.5 -4.5q18 -23 36 -28q33 -7 72 40q22 26 50 97l-165 442q-10 31 -15.5 38.5t-26.5 20.5
q-11 7 -11 18v11h174v-11q0 -11 -11 -18q-20 -13 -21.5 -20t8.5 -36l120 -311zM402 606q2 -4 -2 -6.5t-11 -1.5q-8 3 -22 1l-121 -13l95 78q13 9 15 16q10 13 15 3q1 -4 8 -20.5t14.5 -35t8.5 -21.5z" />
    </font>
</defs>
</svg>
